<svg width="392" height="62" viewBox="0 0 392 62" fill="none" xmlns="http://www.w3.org/2000/svg">
<path d="M34.842 26V16.48H33.142V14.406H37.188V26H34.842ZM48.3101 16.48L48.0891 18.571C48.3158 18.5143 48.5878 18.486 48.9051 18.486C50.1518 18.486 51.1491 18.8317 51.8971 19.523C52.6451 20.2143 53.0191 21.1493 53.0191 22.328C53.0191 23.416 52.6451 24.3623 51.8971 25.167C51.1491 25.9717 50.1575 26.374 48.9221 26.374C47.6981 26.374 46.7405 26.0453 46.0491 25.388C45.3691 24.7193 44.9951 23.892 44.9271 22.906H47.3751C47.4318 23.314 47.5905 23.6427 47.8511 23.892C48.1118 24.1413 48.4801 24.266 48.9561 24.266C49.3981 24.266 49.7721 24.1017 50.0781 23.773C50.3841 23.4443 50.5371 23.0137 50.5371 22.481C50.5371 21.869 50.3388 21.393 49.9421 21.053C49.5455 20.7017 48.9731 20.526 48.2251 20.526C47.4771 20.526 46.6101 20.628 45.6241 20.832L46.2191 14.406H52.2201V16.48H48.3101ZM57.9192 17.279C57.9192 16.225 58.2026 15.426 58.7692 14.882C59.3472 14.3267 60.0102 14.049 60.7582 14.049C61.4722 14.049 62.1069 14.3153 62.6622 14.848C63.2176 15.3693 63.4952 16.1683 63.4952 17.245C63.4952 17.857 63.4046 18.3953 63.2232 18.86C63.0419 19.3133 62.8039 19.659 62.5092 19.897C62.2146 20.135 61.9142 20.3107 61.6082 20.424C61.3136 20.526 61.0132 20.577 60.7072 20.577C59.9819 20.577 59.3359 20.3107 58.7692 19.778C58.2026 19.234 57.9192 18.401 57.9192 17.279ZM61.8122 17.296C61.8122 16.718 61.7159 16.2703 61.5232 15.953C61.3306 15.6357 61.0586 15.477 60.7072 15.477C60.3786 15.477 60.1066 15.63 59.8912 15.936C59.6872 16.2307 59.5852 16.6783 59.5852 17.279C59.5852 18.5143 59.9649 19.132 60.7242 19.132C61.0416 19.132 61.3022 18.979 61.5062 18.673C61.7102 18.367 61.8122 17.908 61.8122 17.296ZM64.9912 23.076C64.9912 22.022 65.2746 21.223 65.8412 20.679C66.4192 20.1237 67.0822 19.846 67.8302 19.846C68.5442 19.846 69.1789 20.1123 69.7342 20.645C70.2896 21.1663 70.5672 21.9653 70.5672 23.042C70.5672 23.6653 70.4766 24.2037 70.2952 24.657C70.1139 25.1103 69.8702 25.456 69.5642 25.694C69.2696 25.9207 68.9749 26.085 68.6802 26.187C68.3856 26.3003 68.0852 26.357 67.7792 26.357C67.0426 26.357 66.3909 26.0907 65.8242 25.558C65.2689 25.0253 64.9912 24.198 64.9912 23.076ZM68.8842 23.093C68.8842 21.8917 68.5102 21.291 67.7622 21.291C67.4449 21.291 67.1786 21.4383 66.9632 21.733C66.7592 22.0277 66.6572 22.4753 66.6572 23.076C66.6572 24.3113 67.0312 24.929 67.7792 24.929C68.0966 24.929 68.3572 24.776 68.5612 24.47C68.7766 24.164 68.8842 23.705 68.8842 23.093ZM67.4052 14.406H69.0542L61.0982 26H59.4492L67.4052 14.406ZM83.3917 14.406H87.3697C89.3757 14.406 90.9397 14.9557 92.0617 16.055C93.1837 17.1543 93.7447 18.537 93.7447 20.203C93.7447 21.8463 93.1667 23.2233 92.0107 24.334C90.8661 25.4447 89.3077 26 87.3357 26H83.3917V14.406ZM85.8227 23.858H87.2847C88.5881 23.858 89.5741 23.518 90.2427 22.838C90.9227 22.1467 91.2627 21.2683 91.2627 20.203C91.2627 19.0923 90.9171 18.2083 90.2257 17.551C89.5457 16.8823 88.5654 16.548 87.2847 16.548H85.8227V23.858ZM98.8611 26V14.406H101.292V26H98.8611ZM114.354 17.432H112.059C112.025 17.0013 111.877 16.6557 111.617 16.395C111.367 16.1343 111.033 16.004 110.614 16.004C110.228 16.004 109.911 16.1173 109.662 16.344C109.412 16.5707 109.288 16.871 109.288 17.245C109.288 17.653 109.452 17.9817 109.781 18.231C110.109 18.469 110.614 18.6957 111.294 18.911C113.481 19.625 114.575 20.9113 114.575 22.77C114.575 23.7107 114.235 24.5493 113.555 25.286C112.875 26.0113 111.9 26.374 110.631 26.374C109.463 26.374 108.511 26.0453 107.775 25.388C107.049 24.7307 106.641 23.807 106.551 22.617H108.948C109.084 23.807 109.656 24.402 110.665 24.402C111.129 24.402 111.498 24.2603 111.77 23.977C112.053 23.6823 112.195 23.3253 112.195 22.906C112.195 22.43 112.03 22.0447 111.702 21.75C111.384 21.444 110.852 21.172 110.104 20.934C107.996 20.2313 106.942 19.013 106.942 17.279C106.942 16.3157 107.293 15.5337 107.996 14.933C108.698 14.3323 109.577 14.032 110.631 14.032C111.73 14.032 112.614 14.3437 113.283 14.967C113.951 15.579 114.308 16.4007 114.354 17.432ZM125.411 14.032C126.919 14.032 128.16 14.4457 129.134 15.273C130.109 16.089 130.71 17.0353 130.936 18.112H128.318C128.16 17.5453 127.82 17.0693 127.298 16.684C126.777 16.2987 126.142 16.106 125.394 16.106C124.363 16.106 123.519 16.4857 122.861 17.245C122.204 18.0043 121.875 18.9847 121.875 20.186C121.875 21.3307 122.204 22.3053 122.861 23.11C123.53 23.9033 124.386 24.3 125.428 24.3C126.222 24.3 126.868 24.0903 127.366 23.671C127.876 23.2517 128.233 22.7303 128.437 22.107H131.14C130.744 23.3763 130.058 24.4077 129.083 25.201C128.109 25.983 126.868 26.374 125.36 26.374C123.592 26.374 122.153 25.7903 121.042 24.623C119.943 23.4443 119.393 21.9597 119.393 20.169C119.393 18.401 119.96 16.939 121.093 15.783C122.227 14.6157 123.666 14.032 125.411 14.032ZM139.328 17.364C138.626 18.1233 138.274 19.0697 138.274 20.203C138.274 21.3363 138.62 22.2883 139.311 23.059C140.014 23.8183 140.887 24.198 141.929 24.198C142.972 24.198 143.845 23.8183 144.547 23.059C145.25 22.2883 145.601 21.3363 145.601 20.203C145.601 19.0697 145.261 18.1233 144.581 17.364C143.913 16.5933 143.034 16.208 141.946 16.208C140.904 16.208 140.031 16.5933 139.328 17.364ZM135.792 20.203C135.792 18.5257 136.382 17.0807 137.56 15.868C138.739 14.644 140.207 14.032 141.963 14.032C143.199 14.032 144.287 14.3267 145.227 14.916C146.179 15.494 146.893 16.2477 147.369 17.177C147.845 18.1063 148.083 19.115 148.083 20.203C148.083 21.9143 147.494 23.3707 146.315 24.572C145.148 25.7733 143.692 26.374 141.946 26.374C141.13 26.374 140.377 26.2493 139.685 26C138.994 25.762 138.41 25.439 137.934 25.031C137.47 24.623 137.073 24.1527 136.744 23.62C136.416 23.076 136.172 22.5207 136.013 21.954C135.866 21.376 135.792 20.7923 135.792 20.203ZM157.451 26.374C156.125 26.374 155.054 25.9773 154.238 25.184C153.434 24.3907 153.031 23.1327 153.031 21.41V14.406H155.462V21.597C155.462 22.447 155.632 23.11 155.972 23.586C156.324 24.062 156.811 24.3 157.434 24.3C158.772 24.3 159.44 23.399 159.44 21.597V14.406H161.854V21.376C161.854 23.0873 161.458 24.351 160.664 25.167C159.882 25.9717 158.811 26.374 157.451 26.374ZM169.483 18.044H169.415C169.461 19.4947 169.483 20.2257 169.483 20.237V26H167.392V14.406H169.483L172.713 19.387C173.348 20.3617 173.949 21.3817 174.515 22.447H174.566C174.532 21.291 174.515 20.594 174.515 20.356V14.406H176.606V26H174.515L171.557 21.461C170.798 20.271 170.107 19.132 169.483 18.044ZM184.048 26V16.514H181.294V14.406H189.267V16.514H186.496V26H184.048ZM201.615 26V14.406H204.046V26H201.615ZM217.107 17.432H214.812C214.778 17.0013 214.631 16.6557 214.37 16.395C214.121 16.1343 213.787 16.004 213.367 16.004C212.982 16.004 212.665 16.1173 212.415 16.344C212.166 16.5707 212.041 16.871 212.041 17.245C212.041 17.653 212.206 17.9817 212.534 18.231C212.863 18.469 213.367 18.6957 214.047 18.911C216.235 19.625 217.328 20.9113 217.328 22.77C217.328 23.7107 216.988 24.5493 216.308 25.286C215.628 26.0113 214.654 26.374 213.384 26.374C212.217 26.374 211.265 26.0453 210.528 25.388C209.803 24.7307 209.395 23.807 209.304 22.617H211.701C211.837 23.807 212.41 24.402 213.418 24.402C213.883 24.402 214.251 24.2603 214.523 23.977C214.807 23.6823 214.948 23.3253 214.948 22.906C214.948 22.43 214.784 22.0447 214.455 21.75C214.138 21.444 213.605 21.172 212.857 20.934C210.749 20.2313 209.695 19.013 209.695 17.279C209.695 16.3157 210.047 15.5337 210.749 14.933C211.452 14.3323 212.33 14.032 213.384 14.032C214.484 14.032 215.368 14.3437 216.036 14.967C216.705 15.579 217.062 16.4007 217.107 17.432ZM229.305 26L233.81 14.406H236.088L240.355 26H237.856L236.955 23.365H232.671L231.753 26H229.305ZM234.218 18.877L233.249 21.631H236.36L235.408 18.86C235.181 18.2027 235 17.6133 234.864 17.092H234.779C234.632 17.6813 234.445 18.2763 234.218 18.877ZM253.456 14.406L249.138 26H246.945L242.729 14.406H245.33L247.387 20.594C247.693 21.478 247.931 22.311 248.101 23.093H248.152C248.277 22.5037 248.515 21.665 248.866 20.577L250.94 14.406H253.456ZM255.795 26L260.3 14.406H262.578L266.845 26H264.346L263.445 23.365H259.161L258.243 26H255.795ZM260.708 18.877L259.739 21.631H262.85L261.898 18.86C261.671 18.2027 261.49 17.6133 261.354 17.092H261.269C261.121 17.6813 260.934 18.2763 260.708 18.877ZM271.305 26V14.406H273.736V26H271.305ZM279.436 26V14.406H281.867V23.892H286.542V26H279.436ZM290.598 26L295.103 14.406H297.381L301.648 26H299.149L298.248 23.365H293.964L293.046 26H290.598ZM295.511 18.877L294.542 21.631H297.653L296.701 18.86C296.474 18.2027 296.293 17.6133 296.157 17.092H296.072C295.925 17.6813 295.738 18.2763 295.511 18.877ZM306.108 26V14.406H309.321C310.557 14.406 311.531 14.6553 312.245 15.154C312.971 15.6527 313.333 16.378 313.333 17.33C313.333 17.9533 313.135 18.4803 312.738 18.911C312.353 19.3303 311.86 19.6137 311.259 19.761V19.795C312.109 19.9083 312.767 20.237 313.231 20.781C313.707 21.3137 313.945 21.9427 313.945 22.668C313.945 23.7107 313.566 24.5267 312.806 25.116C312.058 25.7053 311.089 26 309.899 26H306.108ZM311.497 22.464C311.497 21.9653 311.327 21.5687 310.987 21.274C310.647 20.968 310.171 20.815 309.559 20.815H308.403V24.164H309.661C310.251 24.164 310.704 24.0167 311.021 23.722C311.339 23.4273 311.497 23.008 311.497 22.464ZM310.936 17.568C310.936 17.1373 310.783 16.8087 310.477 16.582C310.171 16.344 309.746 16.225 309.202 16.225H308.403V19.03H309.287C310.387 19.03 310.936 18.5427 310.936 17.568ZM319.104 26V14.406H321.535V23.892H326.21V26H319.104ZM337.823 14.406V16.514H333.335V19.013H337.67V21.019H333.335V23.892H338.01V26H330.904V14.406H337.823ZM35.097 37.364C34.3943 38.1233 34.043 39.0697 34.043 40.203C34.043 41.3363 34.3887 42.2883 35.08 43.059C35.7827 43.8183 36.6553 44.198 37.698 44.198C38.7407 44.198 39.6133 43.8183 40.316 43.059C41.0187 42.2883 41.37 41.3363 41.37 40.203C41.37 39.0697 41.03 38.1233 40.35 37.364C39.6813 36.5933 38.803 36.208 37.715 36.208C36.6723 36.208 35.7997 36.5933 35.097 37.364ZM31.561 40.203C31.561 38.5257 32.1503 37.0807 33.329 35.868C34.5077 34.644 35.9753 34.032 37.732 34.032C38.9673 34.032 40.0553 34.3267 40.996 34.916C41.948 35.494 42.662 36.2477 43.138 37.177C43.614 38.1063 43.852 39.115 43.852 40.203C43.852 41.9143 43.2627 43.3707 42.084 44.572C40.9167 45.7733 39.4603 46.374 37.715 46.374C36.899 46.374 36.1453 46.2493 35.454 46C34.7627 45.762 34.179 45.439 33.703 45.031C33.2383 44.623 32.8417 44.1527 32.513 43.62C32.1843 43.076 31.9407 42.5207 31.782 41.954C31.6347 41.376 31.561 40.7923 31.561 40.203ZM51.0611 38.044H50.9931C51.0384 39.4947 51.0611 40.2257 51.0611 40.237V46H48.9701V34.406H51.0611L54.2911 39.387C54.9257 40.3617 55.5264 41.3817 56.0931 42.447H56.1441C56.1101 41.291 56.0931 40.594 56.0931 40.356V34.406H58.1841V46H56.0931L53.1351 41.461C52.3757 40.271 51.6844 39.132 51.0611 38.044ZM73.2755 46V36.514H70.5215V34.406H78.4945V36.514H75.7235V46H73.2755ZM87.4425 46.374C86.1165 46.374 85.0455 45.9773 84.2295 45.184C83.4249 44.3907 83.0225 43.1327 83.0225 41.41V34.406H85.4535V41.597C85.4535 42.447 85.6235 43.11 85.9635 43.586C86.3149 44.062 86.8022 44.3 87.4255 44.3C88.7629 44.3 89.4315 43.399 89.4315 41.597V34.406H91.8455V41.376C91.8455 43.0873 91.4489 44.351 90.6555 45.167C89.8735 45.9717 88.8025 46.374 87.4425 46.374ZM103.028 41.104L106.615 46H103.725L100.58 41.444H99.8145V46H97.3835V34.406H100.988C102.518 34.406 103.634 34.7347 104.337 35.392C105.039 36.0493 105.391 36.8993 105.391 37.942C105.391 38.7467 105.17 39.4267 104.728 39.982C104.286 40.5373 103.719 40.9113 103.028 41.104ZM102.892 38.044C102.892 37.5113 102.739 37.0977 102.433 36.803C102.127 36.5083 101.685 36.361 101.107 36.361H99.8145V39.659H101.124C101.668 39.659 102.098 39.5117 102.416 39.217C102.733 38.9223 102.892 38.5313 102.892 38.044ZM118.118 46L114.089 41.036C114.043 41.0927 113.924 41.2173 113.732 41.41C113.539 41.6027 113.42 41.7273 113.375 41.784V46H110.944V34.406H113.375V38.843L117.591 34.406H120.634L115.755 39.421L121.195 46H118.118ZM125.417 46V34.406H127.848V46H125.417ZM140.909 37.432H138.614C138.58 37.0013 138.433 36.6557 138.172 36.395C137.923 36.1343 137.589 36.004 137.169 36.004C136.784 36.004 136.467 36.1173 136.217 36.344C135.968 36.5707 135.843 36.871 135.843 37.245C135.843 37.653 136.008 37.9817 136.336 38.231C136.665 38.469 137.169 38.6957 137.849 38.911C140.037 39.625 141.13 40.9113 141.13 42.77C141.13 43.7107 140.79 44.5493 140.11 45.286C139.43 46.0113 138.456 46.374 137.186 46.374C136.019 46.374 135.067 46.0453 134.33 45.388C133.605 44.7307 133.197 43.807 133.106 42.617H135.503C135.639 43.807 136.212 44.402 137.22 44.402C137.685 44.402 138.053 44.2603 138.325 43.977C138.609 43.6823 138.75 43.3253 138.75 42.906C138.75 42.43 138.586 42.0447 138.257 41.75C137.94 41.444 137.407 41.172 136.659 40.934C134.551 40.2313 133.497 39.013 133.497 37.279C133.497 36.3157 133.849 35.5337 134.551 34.933C135.254 34.3323 136.132 34.032 137.186 34.032C138.286 34.032 139.17 34.3437 139.838 34.967C140.507 35.579 140.864 36.4007 140.909 37.432ZM153.566 46V41.07H148.925V46H146.494V34.406H148.925V38.962H153.566V34.406H155.997V46H153.566ZM168.344 46L172.849 34.406H175.127L179.394 46H176.895L175.994 43.365H171.71L170.792 46H168.344ZM173.257 38.877L172.288 41.631H175.399L174.447 38.86C174.221 38.2027 174.039 37.6133 173.903 37.092H173.818C173.671 37.6813 173.484 38.2763 173.257 38.877ZM183.854 46V34.406H186.285V46H183.854ZM197.63 41.104L201.217 46H198.327L195.182 41.444H194.417V46H191.986V34.406H195.59C197.12 34.406 198.236 34.7347 198.939 35.392C199.642 36.0493 199.993 36.8993 199.993 37.942C199.993 38.7467 199.772 39.4267 199.33 39.982C198.888 40.5373 198.321 40.9113 197.63 41.104ZM197.494 38.044C197.494 37.5113 197.341 37.0977 197.035 36.803C196.729 36.5083 196.287 36.361 195.709 36.361H194.417V39.659H195.726C196.27 39.659 196.701 39.5117 197.018 39.217C197.335 38.9223 197.494 38.5313 197.494 38.044ZM205.546 46V34.406H207.977V43.892H212.652V46H205.546ZM217.346 46V34.406H219.777V46H217.346ZM227.569 38.044H227.501C227.546 39.4947 227.569 40.2257 227.569 40.237V46H225.478V34.406H227.569L230.799 39.387C231.434 40.3617 232.034 41.3817 232.601 42.447H232.652C232.618 41.291 232.601 40.594 232.601 40.356V34.406H234.692V46H232.601L229.643 41.461C228.884 40.271 228.192 39.132 227.569 38.044ZM247.318 34.406V36.514H242.83V39.013H247.165V41.019H242.83V43.892H247.505V46H240.399V34.406H247.318ZM260.407 37.432H258.112C258.078 37.0013 257.931 36.6557 257.67 36.395C257.421 36.1343 257.087 36.004 256.667 36.004C256.282 36.004 255.965 36.1173 255.715 36.344C255.466 36.5707 255.341 36.871 255.341 37.245C255.341 37.653 255.506 37.9817 255.834 38.231C256.163 38.469 256.667 38.6957 257.347 38.911C259.535 39.625 260.628 40.9113 260.628 42.77C260.628 43.7107 260.288 44.5493 259.608 45.286C258.928 46.0113 257.954 46.374 256.684 46.374C255.517 46.374 254.565 46.0453 253.828 45.388C253.103 44.7307 252.695 43.807 252.604 42.617H255.001C255.137 43.807 255.71 44.402 256.718 44.402C257.183 44.402 257.551 44.2603 257.823 43.977C258.107 43.6823 258.248 43.3253 258.248 42.906C258.248 42.43 258.084 42.0447 257.755 41.75C257.438 41.444 256.905 41.172 256.157 40.934C254.049 40.2313 252.995 39.013 252.995 37.279C252.995 36.3157 253.347 35.5337 254.049 34.933C254.752 34.3323 255.63 34.032 256.684 34.032C257.784 34.032 258.668 34.3437 259.336 34.967C260.005 35.579 260.362 36.4007 260.407 37.432ZM280.578 34.406V36.514H276.073V39.302H280.408V41.308H276.073V46H273.642V34.406H280.578ZM285.825 46V34.406H288.256V43.892H292.931V46H285.825ZM297.625 46V34.406H300.056V46H297.625ZM310.601 39.54H317.129V40.101C317.129 40.713 317.056 41.3137 316.908 41.903C316.761 42.4923 316.529 43.059 316.211 43.603C315.905 44.1357 315.526 44.606 315.072 45.014C314.619 45.4107 314.058 45.7337 313.389 45.983C312.721 46.221 311.99 46.34 311.196 46.34C309.44 46.34 307.995 45.7563 306.861 44.589C305.728 43.4217 305.161 41.9823 305.161 40.271C305.161 38.4803 305.734 37.0013 306.878 35.834C308.023 34.6553 309.462 34.066 311.196 34.066C312.568 34.066 313.741 34.389 314.715 35.035C315.69 35.6697 316.376 36.548 316.772 37.67H314.137C313.877 37.1827 313.491 36.8087 312.981 36.548C312.483 36.276 311.905 36.14 311.247 36.14C310.216 36.14 309.355 36.5083 308.663 37.245C307.972 37.9817 307.626 38.9677 307.626 40.203C307.626 41.4497 307.972 42.4413 308.663 43.178C309.366 43.9033 310.273 44.266 311.383 44.266C312.222 44.266 312.936 44.0053 313.525 43.484C314.115 42.9627 314.455 42.3167 314.545 41.546H310.601V39.54ZM329.31 46V41.07H324.669V46H322.238V34.406H324.669V38.962H329.31V34.406H331.741V46H329.31ZM339.209 46V36.514H336.455V34.406H344.428V36.514H341.657V46H339.209ZM356.255 37.432H353.96C353.926 37.0013 353.779 36.6557 353.518 36.395C353.269 36.1343 352.934 36.004 352.515 36.004C352.13 36.004 351.812 36.1173 351.563 36.344C351.314 36.5707 351.189 36.871 351.189 37.245C351.189 37.653 351.353 37.9817 351.682 38.231C352.011 38.469 352.515 38.6957 353.195 38.911C355.382 39.625 356.476 40.9113 356.476 42.77C356.476 43.7107 356.136 44.5493 355.456 45.286C354.776 46.0113 353.801 46.374 352.532 46.374C351.365 46.374 350.413 46.0453 349.676 45.388C348.951 44.7307 348.543 43.807 348.452 42.617H350.849C350.985 43.807 351.557 44.402 352.566 44.402C353.031 44.402 353.399 44.2603 353.671 43.977C353.954 43.6823 354.096 43.3253 354.096 42.906C354.096 42.43 353.932 42.0447 353.603 41.75C353.286 41.444 352.753 41.172 352.005 40.934C349.897 40.2313 348.843 39.013 348.843 37.279C348.843 36.3157 349.194 35.5337 349.897 34.933C350.6 34.3323 351.478 34.032 352.532 34.032C353.631 34.032 354.515 34.3437 355.184 34.967C355.853 35.579 356.21 36.4007 356.255 37.432Z" fill="#DC1723"/>
<rect x="1" y="1" width="390" height="60" rx="30" stroke="#C70A0C" stroke-width="2"/>
</svg>
