<?xml version="1.0" encoding="UTF-8" standalone="no"?>
<!-- Created with Inkscape (http://www.inkscape.org/) -->
<svg
   xmlns:svg="http://www.w3.org/2000/svg"
   xmlns="http://www.w3.org/2000/svg"
   xmlns:xlink="http://www.w3.org/1999/xlink"
   version="1.0"
   width="624"
   height="560"
   id="Kazakhstan_svg">
  <desc
     id="desc4286">Flag of the Republic of Kazakhstan</desc>
  <defs
     id="defs4288">
    <path
       d="M 0,-76.45 C 4,-76.5 5.5,-79 5.5,-82 C 5.5,-86 0,-105.05 0,-105.05 C 0,-105.05 -5.5,-86 -5.5,-82 C -5.5,-79 -4,-76.45 0,-76.45 L 0,-76.45 z"
       id="be" />
    <path
       d="M -1,15 C -1,5 8,-0.14 15.072121,-0.14 C 24.6,-0.14 29.67324,5.5429809 29.67324,12.982057 C 29.67324,17.199 28.89871,19.84505 26.949517,23.881429 C 26.949517,23.881429 11.232327,56.486937 5.1137557,69.098798 C 4.3506632,70.671717 4.1044619,72.462248 4.1044619,75.087275 C 4.1044619,79.141224 8.0460365,82.454615 12.178813,82.556049 C 15.946272,82.650047 20.051305,79.052198 20.051305,74.952702 C 20.051305,69.973065 17.461945,67.753072 14.802977,67.753072 C 11.531226,67.753072 10.227511,69.094843 10.227511,71.38653 C 10.227511,72.983378 11.000593,73.674263 12.111527,73.674263 C 14.91779,73.674263 14.130114,69.906232 14.130114,69.906232 C 15.523896,70.210636 16.668963,71.631261 16.01413,73.405118 C 17.033704,73.631586 17.988792,74.165521 18.739224,75.019988 C 17.986945,75.74755 17.124043,76.309176 16.01413,76.500286 C 16.67135,78.664697 15.793133,79.722271 13.894613,80.167388 C 14.277724,79.334786 14.290906,78.568919 14.163757,77.846011 C 11.174887,78.693888 6.5940534,77.344608 6.5940534,72.193965 C 6.5940534,67.08021 10.151694,62.774364 16.821565,63.850469 C 15.234698,63.093596 14.427615,61.544954 14.264687,59.813294 C 15.475839,60.284298 16.821565,60.351584 16.821565,60.351584 C 16.041676,58.979728 14.958426,57.79719 15.004835,55.103255 C 16.241582,55.664112 17.389899,56.702686 18.974725,56.045263 C 16.487428,51.162666 19.543319,44.446508 27.318221,42.857157 C 24.472701,46.184414 23.079188,49.777263 23.079188,53.353813 C 23.079188,64.945481 26.308927,66.893455 26.308927,74.952702 C 26.308927,78.32444 24.571421,81.965678 21.127885,84.440065 L 21.127885,84.305492 C 23.404326,84.912519 24.861687,86.031471 25.7,87.55 C 20.49988,89.02142 12.941391,88.993633 8.8817862,87.40066 C 4.2161824,86.86237 0.95971684,83.290648 0,81.479469 C -0.95971684,79.66829 -2.8236958,73.114579 0,67.214782 C 3.0903362,60.75787 17.661431,29.937676 22.204465,20.248974 C 23.168066,18.19395 23.752049,16.014637 23.752049,13.65492 C 23.752049,7.7199823 18.301863,5.6478554 15.206695,5.6478554 C 11.50595,5.6478554 7.7379198,8.4603205 7.7379198,11.972764 C 7.7379198,14.198379 8.9490725,15.538935 10.698515,15.538935 C 14.881836,15.538935 14.627762,11.98893 13.793683,9.7523172 C 16.397163,10.919875 17.910448,13.004341 17.494428,15.202504 C 18.968382,15.403909 20.371469,16.101382 21.666175,17.557523 C 20.647466,18.840724 19.405016,19.810686 17.494428,19.845256 C 18.328868,23.25524 16.040174,24.697462 13.793683,25.497302 C 14.504358,22.994613 14.970869,20.114401 10.698515,20.114401 C 7.5835529,20.114401 5.1305772,19.576111 3.7007442,17.557523 C 3.6166365,20.248973 3.3643129,30.880202 3.3643129,30.880202 C 3.184883,34.875197 8.7247852,34.760959 12.2461,33.571652 C 10.917154,38.173425 8.1918319,40.661436 1.8840153,40.031134 C 3.4147776,40.670353 5.0464694,42.107348 5.0464694,44.875744 C 5.0464694,48.622585 2,52.772886 0,54 L -1,15 z"
       id="orn" />
    <path
       d="M 0,-35.598637 C 0,-35.598637 4.7530782,-39.583055 6.3671251,-37.584572 C 8.9631893,-34.370174 -1.6148703,-18.359773 -1.6148703,-12.721308 C -1.6148703,-3.4663271 4.5753036,-0.9495749 12.219049,0.37164156 C 17.347761,1.258136 25.7,0 25.7,0 C 24.127458,-2.1078802 23.104712,-2.7289755 20.455023,-2.8975143 C 23.404894,-4.4252648 26.408867,-7.7416056 26.408867,-12.90486 C 26.408867,-20.866568 23.123385,-24.147608 23.123385,-33.123391 C 23.123385,-38.102574 27.216302,-44.441008 27.216302,-44.441008 C 19.982003,-43.718733 16.396176,-37.036315 18.436436,-31.696034 C 17.284843,-31.530555 16.239265,-31.78914 15.341267,-32.638042 C 14.811816,-31.157744 15.647621,-29.439553 16.767224,-27.959255 C 15.865491,-27.478574 15.203266,-27.766834 13.767214,-28.062576 C 13.903389,-26.537421 14.81955,-24.917108 17.060859,-23.391953 C 10.556777,-25.076417 6.5546382,-20.554385 6.5546382,-15.820438 C 6.5546382,-12.244602 9.0665766,-9.6818822 11.521697,-9.6818822 C 12.315163,-9.6818822 13.480714,-10.007886 14.138278,-10.497481 C 14.601801,-9.5133367 14.362949,-8.1961425 13.885459,-7.2119982 C 15.685071,-7.686535 16.827225,-8.7527235 16.01413,-10.971863 C 17.396346,-11.098529 18.495865,-11.564431 19.243871,-12.452148 C 18.486057,-13.420288 17.336466,-13.977953 16.01413,-13.932434 C 17.020519,-16.004247 15.898976,-17.164115 14.264687,-18.104209 C 14.264687,-18.104209 15.304002,-13.932461 12.649817,-13.932461 C 11.456315,-13.932461 10.368847,-14.320046 10.368847,-16.074657 C 10.368847,-17.602563 11.707809,-19.71908 14.802977,-19.584507 C 17.898145,-19.449935 20.407444,-17.455622 20.407444,-12.526793 C 20.407444,-7.9800039 16.731198,-5.7186754 11.886919,-5.5726384 C 7.5180943,-5.4380659 4.2207273,-7.7989729 4.2207273,-12.294502 C 4.2207273,-18.277988 12.879547,-31.9162 12.879547,-37.248961 C 12.879547,-41.249522 9.273139,-43.482674 5.7444019,-43.482674 C 1.1689361,-43.482674 -2.6914504,-38.96295 -2.6914504,-38.96295 L 0,-35.598637 z"
       id="uorn" />
  </defs>
  <use
     transform="matrix(1.960637,0.3899949,-0.3899949,1.960637,312.17109,210)"
     id="use3938"
     style="fill:#fec50c;fill-opacity:1"
     x="0"
     y="0"
     width="1000"
     height="500"
     xlink:href="#be" />
  <use
     transform="matrix(1.8468795,0.7650026,-0.7650026,1.8468795,312.17109,210)"
     id="use3940"
     style="fill:#fec50c;fill-opacity:1"
     x="0"
     y="0"
     width="1000"
     height="500"
     xlink:href="#be" />
  <use
     transform="matrix(1.6621476,1.1106115,-1.1106115,1.6621476,312.17109,210)"
     id="use3942"
     style="fill:#fec50c;fill-opacity:1"
     x="0"
     y="0"
     width="1000"
     height="500"
     xlink:href="#be" />
  <use
     transform="matrix(1.4135403,1.4135403,-1.4135403,1.4135403,312.17109,210)"
     id="use3944"
     style="fill:#fec50c;fill-opacity:1"
     x="0"
     y="0"
     width="1000"
     height="500"
     xlink:href="#be" />
  <use
     transform="matrix(1.1106115,1.6621476,-1.6621476,1.1106115,312.17109,210)"
     id="use3946"
     style="fill:#fec50c;fill-opacity:1"
     x="0"
     y="0"
     width="1000"
     height="500"
     xlink:href="#be" />
  <use
     transform="matrix(0.7650026,1.8468795,-1.8468795,0.7650026,312.17109,210)"
     id="use3948"
     style="fill:#fec50c;fill-opacity:1"
     x="0"
     y="0"
     width="1000"
     height="500"
     xlink:href="#be" />
  <use
     transform="matrix(0.3899949,1.960637,-1.960637,0.3899949,312.17109,210)"
     id="use3950"
     style="fill:#fec50c;fill-opacity:1"
     x="0"
     y="0"
     width="1000"
     height="500"
     xlink:href="#be" />
  <use
     transform="matrix(0,1.9990481,-1.9990481,0,312.17109,210)"
     id="use3952"
     style="fill:#fec50c;fill-opacity:1"
     x="0"
     y="0"
     width="1000"
     height="500"
     xlink:href="#be" />
  <use
     transform="matrix(-0.3899949,1.960637,-1.960637,-0.3899949,312.17109,210)"
     id="use3954"
     style="fill:#fec50c;fill-opacity:1"
     x="0"
     y="0"
     width="1000"
     height="500"
     xlink:href="#be" />
  <use
     transform="matrix(-0.7650026,1.8468795,-1.8468795,-0.7650026,312.17109,210)"
     id="use3956"
     style="fill:#fec50c;fill-opacity:1"
     x="0"
     y="0"
     width="1000"
     height="500"
     xlink:href="#be" />
  <use
     transform="matrix(-1.1106115,1.6621476,-1.6621476,-1.1106115,312.17109,210)"
     id="use3958"
     style="fill:#fec50c;fill-opacity:1"
     x="0"
     y="0"
     width="1000"
     height="500"
     xlink:href="#be" />
  <use
     transform="matrix(-1.4135403,1.4135403,-1.4135403,-1.4135403,312.17109,210)"
     id="use3960"
     style="fill:#fec50c;fill-opacity:1"
     x="0"
     y="0"
     width="1000"
     height="500"
     xlink:href="#be" />
  <use
     transform="matrix(-1.6621476,1.1106115,-1.1106115,-1.6621476,312.17109,210)"
     id="use3962"
     style="fill:#fec50c;fill-opacity:1"
     x="0"
     y="0"
     width="1000"
     height="500"
     xlink:href="#be" />
  <use
     transform="matrix(-1.8468795,0.7650026,-0.7650026,-1.8468795,312.17109,210)"
     id="use3964"
     style="fill:#fec50c;fill-opacity:1"
     x="0"
     y="0"
     width="1000"
     height="500"
     xlink:href="#be" />
  <use
     transform="matrix(-1.6621476,-1.1106115,1.1106115,-1.6621476,312.17109,210)"
     id="use3974"
     style="fill:#fec50c;fill-opacity:1"
     x="0"
     y="0"
     width="1000"
     height="500"
     xlink:href="#be" />
  <use
     transform="matrix(-1.4135403,-1.4135403,1.4135403,-1.4135403,312.17109,210)"
     id="use3976"
     style="fill:#fec50c;fill-opacity:1"
     x="0"
     y="0"
     width="1000"
     height="500"
     xlink:href="#be" />
  <use
     transform="matrix(-1.1106115,-1.6621476,1.6621476,-1.1106115,312.17109,210)"
     id="use3978"
     style="fill:#fec50c;fill-opacity:1"
     x="0"
     y="0"
     width="1000"
     height="500"
     xlink:href="#be" />
  <use
     transform="matrix(-0.7650026,-1.8468795,1.8468795,-0.7650026,312.17109,210)"
     id="use3980"
     style="fill:#fec50c;fill-opacity:1"
     x="0"
     y="0"
     width="1000"
     height="500"
     xlink:href="#be" />
  <use
     transform="matrix(-0.3899949,-1.960637,1.960637,-0.3899949,312.17109,210)"
     id="use3982"
     style="fill:#fec50c;fill-opacity:1"
     x="0"
     y="0"
     width="1000"
     height="500"
     xlink:href="#be" />
  <use
     transform="matrix(0,-1.9990481,1.9990481,0,312.17109,210)"
     id="use3984"
     style="fill:#fec50c;fill-opacity:1"
     x="0"
     y="0"
     width="1000"
     height="500"
     xlink:href="#be" />
  <use
     transform="matrix(0.3899949,-1.960637,1.960637,0.3899949,312.17109,210)"
     id="use3986"
     style="fill:#fec50c;fill-opacity:1"
     x="0"
     y="0"
     width="1000"
     height="500"
     xlink:href="#be" />
  <use
     transform="matrix(0.7650026,-1.8468795,1.8468795,0.7650026,312.17109,210)"
     id="use3988"
     style="fill:#fec50c;fill-opacity:1"
     x="0"
     y="0"
     width="1000"
     height="500"
     xlink:href="#be" />
  <use
     transform="matrix(1.1106115,-1.6621476,1.6621476,1.1106115,312.17109,210)"
     id="use3990"
     style="fill:#fec50c;fill-opacity:1"
     x="0"
     y="0"
     width="1000"
     height="500"
     xlink:href="#be" />
  <use
     transform="matrix(1.4135403,-1.4135403,1.4135403,1.4135403,312.17109,210)"
     id="use3992"
     style="fill:#fec50c;fill-opacity:1"
     x="0"
     y="0"
     width="1000"
     height="500"
     xlink:href="#be" />
  <circle
     cx="0"
     cy="0"
     r="68.699997"
     transform="matrix(1.9585107,0,0,1.9585107,311.99999,210.17107)"
     id="circle3934"
     style="fill:#fec50c;fill-opacity:1" />
  <use
     transform="matrix(1.9990481,0,0,1.9990481,312.17109,210)"
     id="use3936"
     style="fill:#fec50c;fill-opacity:1"
     x="0"
     y="0"
     width="1000"
     height="500"
     xlink:href="#be" />
  <use
     transform="matrix(-1.960637,0.3899949,-0.3899949,-1.960637,312.17109,210)"
     id="use3966"
     style="fill:#fec50c;fill-opacity:1"
     x="0"
     y="0"
     width="1000"
     height="500"
     xlink:href="#be" />
  <use
     transform="matrix(-1.9990481,0,0,-1.9990481,312.17109,210)"
     id="use3968"
     style="fill:#fec50c;fill-opacity:1"
     x="0"
     y="0"
     width="1000"
     height="500"
     xlink:href="#be" />
  <use
     transform="matrix(-1.960637,-0.3899949,0.3899949,-1.960637,312.17109,210)"
     id="use3970"
     style="fill:#fec50c;fill-opacity:1"
     x="0"
     y="0"
     width="1000"
     height="500"
     xlink:href="#be" />
  <use
     transform="matrix(-1.8468795,-0.7650026,0.7650026,-1.8468795,312.17109,210)"
     id="use3972"
     style="fill:#fec50c;fill-opacity:1"
     x="0"
     y="0"
     width="1000"
     height="500"
     xlink:href="#be" />
  <use
     transform="matrix(1.6621476,-1.1106115,1.1106115,1.6621476,312.17109,210)"
     id="use3994"
     style="fill:#fec50c;fill-opacity:1"
     x="0"
     y="0"
     width="1000"
     height="500"
     xlink:href="#be" />
  <use
     transform="matrix(1.8468795,-0.7650026,0.7650026,1.8468795,312.17109,210)"
     id="use3996"
     style="fill:#fec50c;fill-opacity:1"
     x="0"
     y="0"
     width="1000"
     height="500"
     xlink:href="#be" />
  <use
     transform="matrix(1.960637,-0.3899949,0.3899949,1.960637,312.17109,210)"
     id="use3998"
     style="fill:#fec50c;fill-opacity:1"
     x="0"
     y="0"
     width="1000"
     height="500"
     xlink:href="#be" />
  <path
     d="M 307.48569,444.95081 L 305.16409,449.59405 L 302.58449,455.52708 L 301.03679,458.36461 L 299.74699,460.94419 L 298.71519,463.00785 L 297.42539,464.29764 L 294.32989,461.71806 L 290.97639,459.39644 L 287.36499,457.59074 L 283.49569,456.04299 L 279.36829,455.01116 L 275.24099,453.97933 L 271.11369,453.20546 L 266.72839,452.68954 L 257.69989,451.91567 L 248.67139,451.65771 L 239.90079,451.14179 L 231.64613,450.10996 L 227.00289,449.33609 L 222.61761,448.30426 L 220.29598,447.53038 L 217.97436,446.75651 L 215.9107,445.72468 L 214.105,444.69285 L 211.26746,442.88714 L 208.42992,440.82348 L 205.33443,438.50186 L 202.49689,435.92228 L 196.56386,430.24721 L 190.63083,424.57214 L 184.6978,419.15502 L 179.28069,414.25382 L 176.70111,412.44812 L 174.12153,410.64241 L 171.79991,409.61058 L 169.47829,408.83671 L 165.09301,407.80488 L 161.22364,406.51509 L 157.35427,405.2253 L 153.48491,403.41959 L 150.13145,401.87185 L 146.778,399.80818 L 143.68251,397.74452 L 140.84497,395.68086 L 137.74948,393.35924 L 135.1699,391.03762 L 132.59032,388.45804 L 130.01074,385.87846 L 125.10954,380.46135 L 120.4663,374.78628 L 111.17982,362.66226 L 101.37742,350.28028 L 95.70235,344.34725 L 89.76932,338.41422 L 86.41587,335.31873 L 83.06242,332.48119 L 79.45101,329.90161 L 75.58164,327.06408 L 74.80777,327.32203 L 74.03389,328.09591 L 73.26002,329.12774 L 72.7441,330.41753 L 71.97023,332.73915 L 71.71227,333.77098 L 69.90657,332.99711 L 68.35882,332.22323 L 66.55312,331.44936 L 65.00537,330.93344 L 61.65192,330.93344 L 59.84621,331.44936 L 58.04051,332.22323 L 59.84621,334.54485 L 62.16783,337.64035 L 64.48945,341.25176 L 66.55312,345.12112 L 68.61678,349.24845 L 70.16453,353.11782 L 70.68044,355.18148 L 71.19636,356.72923 L 71.45432,358.53493 L 71.45432,360.08268 L 68.61678,360.08268 L 57.52459,360.08268 L 59.58826,363.17817 L 61.90988,366.27367 L 64.48945,369.36916 L 67.32699,372.2067 L 70.16453,375.04423 L 73.00206,377.88177 L 75.8396,380.20339 L 78.41918,382.00909 L 75.58164,382.26705 L 71.71227,382.52501 L 67.84291,383.04093 L 65.00537,383.29888 L 67.32699,385.36255 L 70.16453,387.42621 L 73.26002,389.74783 L 76.61347,392.06945 L 79.96692,394.13311 L 83.32038,395.93882 L 86.41587,396.97065 L 89.25341,397.74452 L 90.5432,398.00248 L 91.57503,398.26044 L 92.3489,398.5184 L 92.86482,399.03431 L 93.12277,399.29227 L 93.12277,400.3241 L 92.86482,400.84002 L 92.3489,402.38776 L 92.09094,403.93551 L 91.83298,404.96734 L 91.83298,405.74122 L 92.09094,407.031 L 92.3489,408.06284 L 92.86482,408.57875 L 93.63869,409.09467 L 94.67052,409.61058 L 95.96031,409.86854 L 97.2501,410.38446 L 98.53989,410.90037 L 99.82968,411.41629 L 100.86151,412.19016 L 101.11947,412.44812 L 101.11947,412.96403 L 100.86151,413.22199 L 99.82968,413.99587 L 98.79785,414.76974 L 97.76601,415.80157 L 96.73418,417.09136 L 96.73418,418.12319 L 96.47623,419.15502 L 96.73418,420.44481 L 96.99214,421.99256 L 101.37742,423.54031 L 106.02067,425.08805 L 108.08433,425.60397 L 110.14799,426.37784 L 111.69574,427.15172 L 112.98553,427.92559 L 104.47292,434.63249 L 106.79454,436.69615 L 109.63207,438.2439 L 113.24348,440.04961 L 116.85489,441.3394 L 120.98222,442.62919 L 124.85159,443.40306 L 128.20504,444.17693 L 131.30053,444.17693 L 128.463,446.24059 L 124.85159,448.56222 L 120.98222,450.62588 L 118.14468,452.68954 L 120.72426,454.49525 L 124.33567,456.30095 L 128.463,458.36461 L 133.3642,460.68623 L 144.71434,465.58743 L 157.09632,470.48863 L 169.99421,475.13187 L 182.63414,479.2592 L 188.30921,481.0649 L 193.46837,482.35469 L 198.11161,483.64448 L 202.23894,484.41835 L 193.98429,483.64448 L 186.24555,482.61265 L 178.50682,481.32286 L 171.284,479.77511 L 164.06118,477.71145 L 157.09632,475.64779 L 150.38941,473.32617 L 143.94047,470.74659 L 131.30053,465.58743 L 119.43447,460.42828 L 113.7594,458.10665 L 108.08433,455.78503 L 102.66721,453.72137 L 97.2501,451.65771 L 98.53989,450.88384 L 100.08764,450.36792 L 102.1513,449.59405 L 104.47292,449.07813 L 109.37412,447.53038 L 113.7594,445.98264 L 106.02067,444.69285 L 95.44439,442.62919 L 90.28524,441.08144 L 85.89995,439.79165 L 84.09425,439.01778 L 82.5465,438.2439 L 81.25671,437.47003 L 80.48284,436.69615 L 80.48284,436.4382 L 80.7408,436.18024 L 81.51467,435.92228 L 82.28854,435.40637 L 84.35221,434.63249 L 87.18974,433.85862 L 93.38073,432.05291 L 98.53989,430.24721 L 85.89995,427.92559 L 76.09756,426.37784 L 72.48615,425.60397 L 69.64861,424.57214 L 68.61678,424.05622 L 67.58495,423.28235 L 66.81107,422.76643 L 66.29516,421.99256 L 67.06903,421.47664 L 69.39065,420.96073 L 72.7441,420.44481 L 76.61347,419.67094 L 80.7408,419.15502 L 84.35221,418.12319 L 86.15791,417.60728 L 87.70566,417.09136 L 88.73749,416.31749 L 89.76932,415.54361 L 87.70566,414.76974 L 85.642,413.99587 L 83.06242,413.47995 L 80.48284,412.96403 L 74.54981,412.19016 L 68.61678,411.41629 L 65.52129,410.64241 L 62.68375,410.1265 L 59.84621,409.09467 L 57.00868,408.06284 L 54.4291,406.77305 L 52.10748,404.96734 L 50.04382,403.16164 L 48.49607,400.84002 L 49.01198,400.58206 L 50.04382,400.3241 L 51.3336,400.3241 L 53.39727,400.58206 L 58.04051,400.84002 L 63.19967,401.09797 L 68.87474,401.61389 L 76.09756,401.61389 L 78.16122,401.35593 L 79.70897,400.84002 L 80.7408,400.3241 L 74.54981,397.74452 L 66.29516,394.13311 L 61.65192,391.81149 L 56.75072,389.48987 L 51.84952,386.91029 L 46.94832,384.33071 L 42.30508,381.49318 L 37.9198,378.39768 L 33.79247,375.30219 L 30.18106,372.2067 L 28.63332,370.40099 L 27.08557,368.85325 L 26.05374,367.3055 L 25.02191,365.49979 L 23.99007,363.95205 L 23.47416,362.14634 L 23.2162,360.59859 L 22.95824,358.79289 L 24.76395,358.79289 L 26.82761,359.05085 L 28.89127,359.82472 L 30.95494,360.59859 L 35.08226,363.17817 L 39.7255,365.75775 L 41.78917,367.04754 L 44.11079,368.33733 L 46.43241,369.36916 L 48.49607,370.14303 L 50.81769,370.65895 L 52.88135,370.91691 L 55.20297,370.91691 L 57.26664,370.14303 L 51.07565,365.49979 L 44.11079,359.56676 L 36.11409,352.6019 L 28.1174,344.86317 L 20.12071,336.60852 L 12.63993,328.35387 L 9.28648,323.96858 L 5.93303,319.84126 L 3.09549,315.71393 L 0.51591,311.84456 L 0,310.81273 L 0,309.00703 L 0.25795,308.23315 L 0.51591,307.45928 L 1.28979,306.94337 L 2.06366,306.16949 L 2.83753,305.65358 L 3.86936,305.39562 L 4.9012,305.13766 L 6.96486,305.13766 L 8.25465,305.39562 L 9.28648,305.65358 L 10.31831,306.42745 L 11.09218,307.20132 L 15.73542,311.84456 L 21.15254,317.26168 L 26.82761,323.19471 L 33.0186,329.12774 L 39.20959,334.54485 L 45.40057,339.70401 L 48.49607,341.76767 L 51.3336,343.57338 L 54.4291,345.12112 L 57.26664,346.15296 L 55.20297,344.86317 L 52.88135,342.54155 L 49.78586,339.44605 L 46.43241,335.57668 L 38.95163,326.54816 L 30.69698,315.97189 L 26.56965,310.29682 L 22.70029,304.62174 L 19.08888,298.94667 L 15.47747,293.52956 L 12.38197,288.3704 L 9.80239,283.72716 L 7.99669,279.34188 L 6.44894,275.73047 L 6.19098,274.44068 L 6.19098,272.37702 L 6.44894,271.60314 L 6.96486,270.82927 L 7.48077,270.0554 L 7.99669,269.53948 L 8.77056,269.02356 L 10.57627,268.50765 L 12.12401,267.99173 L 15.73542,267.99173 L 16.76726,268.24969 L 17.54113,268.50765 L 18.57296,269.02356 L 19.34683,269.79744 L 21.4105,271.60314 L 23.47416,274.18272 L 28.1174,280.11575 L 33.0186,287.59653 L 38.69367,295.59322 L 44.6267,303.84787 L 47.7222,307.71724 L 50.81769,311.58661 L 54.17114,314.94006 L 57.78255,318.03555 L 53.39727,309.52294 L 48.49607,299.72055 L 45.91649,294.30343 L 43.59487,288.88632 L 41.27325,283.21124 L 39.20959,277.53617 L 37.40388,271.60314 L 35.59818,265.92807 L 34.30839,260.253 L 33.27656,254.57793 L 32.76064,249.16081 L 32.50268,244.00165 L 32.76064,241.42208 L 33.0186,239.10046 L 33.27656,236.77884 L 33.79247,234.45721 L 34.30839,233.68334 L 34.56635,232.90947 L 35.34022,232.13559 L 35.85613,231.61968 L 37.66184,230.8458 L 39.46754,230.32989 L 41.27325,230.32989 L 42.821,230.58785 L 43.59487,230.8458 L 44.11079,231.10376 L 44.36874,231.61968 L 44.6267,232.39355 L 47.20628,240.6482 L 49.5279,249.41877 L 51.84952,258.44729 L 54.17114,267.21786 L 56.49276,275.98843 L 59.58826,284.24308 L 61.136,288.11244 L 62.94171,291.98181 L 65.00537,295.59322 L 67.32699,299.20463 L 65.77924,291.72385 L 64.74741,285.01695 L 63.71558,278.82596 L 63.19967,273.15089 L 62.68375,268.24969 L 62.42579,263.86441 L 62.68375,260.253 L 62.94171,257.1575 L 63.45762,254.57793 L 64.2315,252.51426 L 64.74741,251.74039 L 65.26333,250.96652 L 65.77924,250.4506 L 66.55312,249.93468 L 67.32699,249.67673 L 69.64861,249.67673 L 71.71227,250.4506 L 73.77594,251.48243 L 75.58164,259.73708 L 77.38735,267.73377 L 79.45101,275.21455 L 81.77263,282.43737 L 84.35221,289.66019 L 87.18974,296.88301 L 90.28524,304.36379 L 93.89665,311.84456 L 96.47623,316.74576 L 99.0558,321.64696 L 101.89334,326.54816 L 104.73088,331.44936 L 107.82637,336.0926 L 110.92186,340.73584 L 114.27532,345.37908 L 117.62877,350.02232 L 123.81976,357.76106 L 130.2687,364.98388 L 136.97561,372.2067 L 143.94047,378.9136 L 151.16329,385.6205 L 158.64406,391.81149 L 166.3828,397.74452 L 174.37949,403.41959 L 179.79661,407.031 L 185.47168,410.38446 L 191.40471,413.73791 L 197.07978,416.8334 L 206.1083,421.21868 L 214.87887,425.34601 L 224.16535,428.95742 L 233.45179,432.31087 L 242.22239,435.14841 L 251.25089,437.47003 L 260.53739,439.53369 L 269.56589,441.3394 L 279.11039,442.62919 L 288.39689,443.66102 L 297.94129,444.43489 L 307.48569,444.95081"
     id="path13"
     style="fill:#fec50c;fill-opacity:1;fill-rule:evenodd;stroke:none" />
  <path
     d="M 330.95989,523.36999 L 335.34519,523.8859 L 337.40889,524.65978 L 337.92479,524.91773 L 337.92479,525.17569 L 337.40889,525.17569 L 336.89289,525.43365 L 332.76559,526.20752 L 329.41219,526.20752 L 318.57789,525.43365 L 305.42209,525.17569 L 291.23439,524.91773 L 276.53079,525.17569 L 269.56589,525.43365 L 262.60109,525.94956 L 256.41009,526.46548 L 250.47709,526.9814 L 245.57589,527.75527 L 241.19059,528.7871 L 239.64279,529.30302 L 238.09509,529.81893 L 236.80529,530.33485 L 235.77349,531.10872 L 236.28939,528.52914 L 237.32119,525.94956 L 235.51549,526.46548 L 233.70979,526.9814 L 232.16209,527.75527 L 230.6143,528.52914 L 229.32451,529.30302 L 228.29268,530.33485 L 227.5188,531.62464 L 227.26085,532.91443 L 226.48697,531.10872 L 225.97106,529.56097 L 225.7131,527.75527 L 225.45514,526.20752 L 225.7131,524.91773 L 225.97106,523.36999 L 226.22901,522.0802 L 227.00289,520.79041 L 227.5188,519.75858 L 228.55064,518.46879 L 229.58247,517.43696 L 230.6143,516.40512 L 233.45179,514.59942 L 236.54729,512.79372 C 238.21879,513.80756 240.09809,514.5423 241.96449,515.11534 C 243.58279,515.33005 245.50829,515.06773 247.38159,514.59942 C 250.52959,517.37161 254.73959,517.03044 257.44189,514.0835 C 257.93509,513.54565 258.53039,512.72162 258.73169,512.01984 C 259.15839,510.53207 259.07619,508.58318 258.73169,506.86069 L 261.82719,506.60273 L 265.43859,506.08681 L 269.30799,505.05498 L 273.43529,504.02315 L 277.56259,503.24928 L 281.43199,502.21744 L 285.04339,501.70153 L 288.13889,501.44357 L 286.84909,502.4754 L 283.75359,504.79702 L 280.14219,507.63456 L 277.56259,509.44026 L 280.91609,510.21414 L 283.75359,510.73005 L 281.68999,513.05167 L 279.62629,515.37329 L 277.56259,517.69491 L 276.01489,519.75858 L 278.07849,520.53245 L 280.14219,521.04837 L 282.46379,521.56428 L 287.10709,521.56428 L 289.42869,521.04837 L 291.75029,520.53245 L 293.55599,519.50062 L 295.61969,520.53245 L 297.68329,521.30632 L 299.74699,521.82224 L 301.81069,522.33816 L 306.45389,522.85407 L 311.35509,523.36999 L 330.95989,523.36999"
     id="path17"
     style="fill:#fec50c;fill-opacity:1;fill-rule:evenodd;stroke:none" />
  <path
     d="M 251.76689,508.66639 L 252.54069,508.92435 L 253.31459,509.18231 L 253.57259,509.95618 L 253.83049,510.73005 L 253.57259,511.50393 L 253.31459,512.2778 L 252.54069,512.79372 L 250.73499,512.79372 L 250.21909,512.2778 L 249.70319,511.50393 L 249.44519,510.73005 L 249.70319,509.95618 L 250.21909,509.18231 L 250.73499,508.92435 L 251.76689,508.66639"
     id="path21"
     style="fill:#fec50c;fill-opacity:1;fill-rule:evenodd;stroke:none" />
  <path
     d="M 251.50889,509.69822 L 252.02479,509.95618 L 252.28279,510.47209 L 252.02479,510.98801 L 251.50889,511.24597 L 250.99299,510.98801 L 250.73499,510.47209 L 250.99299,509.95618 L 251.50889,509.69822"
     id="path25"
     style="fill:#fec50c;fill-opacity:1;fill-rule:evenodd;stroke:none" />
  <path
     d="M 251.67729,513.25149 C 250.37069,513.2524 249.31099,512.19346 249.31099,510.88687 C 249.31099,509.58029 250.37069,508.52135 251.67729,508.52226 C 252.98379,508.52135 254.04349,509.58029 254.04349,510.88687 C 254.04349,512.19346 252.98379,513.2524 251.67729,513.25149 z"
     id="path3166"
     style="fill:#fec50c;fill-opacity:1;stroke:none;stroke-opacity:1" />
  <path
     d="M 443.94539,536.00992 L 442.13969,536.78379 L 440.33399,537.04175 L 438.78629,537.29971 L 437.49649,537.04175 L 436.20669,536.78379 L 434.91689,536.26788 L 433.88509,535.75196 L 432.59529,534.97809 L 430.53159,533.43034 L 428.46799,531.88259 L 427.43609,531.10872 L 426.14629,530.59281 L 425.11449,530.33485 L 423.82469,530.33485 L 421.50309,535.23605 L 418.40759,541.42703 L 417.37579,542.97478 L 416.34389,544.26457 L 415.31209,545.03844 L 414.28029,545.81232 L 412.99049,546.32823 L 411.70069,546.32823 L 410.41089,545.81232 L 408.86319,545.03844 L 408.34729,544.26457 L 407.83129,543.4907 L 407.31539,542.45887 L 406.79949,541.16908 L 406.28359,538.84746 L 406.02559,537.29971 L 404.47789,538.5895 L 402.93009,540.3952 L 401.64039,542.45887 L 400.09259,544.78049 L 398.28689,547.10211 L 396.48119,548.90781 L 395.44939,549.93964 L 394.15959,550.71352 L 392.86979,551.22943 L 391.32199,551.74535 L 390.54819,551.74535 L 389.25839,552.00331 L 387.96859,551.74535 L 386.93679,551.22943 L 383.84129,547.61802 L 380.48779,544.00661 L 378.16619,547.61802 L 375.58659,550.71352 L 374.29679,552.00331 L 373.00699,553.29309 L 371.71719,554.32493 L 370.42749,555.0988 L 369.39559,555.61472 L 368.10579,555.87267 L 366.81599,555.87267 L 365.78419,555.61472 L 364.75239,555.0988 L 363.97849,554.32493 L 362.94669,553.03514 L 362.43079,551.48739 L 361.91479,549.93964 L 360.88299,547.36006 L 360.62509,546.07028 L 360.10909,545.03844 L 359.59319,544.52253 L 359.07729,544.52253 L 352.11239,555.87267 L 351.08059,556.9045 L 349.27489,557.67838 L 347.21119,558.19429 L 345.14759,558.71021 L 342.82599,558.71021 L 341.02029,558.19429 L 340.50429,557.93634 L 339.73049,557.16246 L 339.47249,556.64655 L 339.47249,555.61472 L 340.50429,544.26457 L 339.73049,544.52253 L 338.69859,545.03844 L 337.66679,545.55436 L 336.63499,546.58619 L 334.57129,548.90781 L 332.24969,551.48739 L 329.92809,554.32493 L 327.09049,556.64655 L 325.80069,557.67838 L 324.51099,558.71021 L 322.96319,559.48408 L 321.67339,559.74204 L 319.86769,560 L 318.57789,559.74204 L 318.06199,559.48408 L 317.54609,558.96817 L 317.28809,558.19429 L 317.28809,557.42042 L 317.54609,554.06697 L 318.06199,550.71352 L 318.31999,548.90781 L 318.06199,547.36006 L 317.80409,545.81232 L 316.77219,544.00661 L 315.22449,546.32823 L 312.64489,549.68169 L 309.54939,553.03514 L 306.19599,556.38859 L 304.39019,557.67838 L 302.58449,558.96817 L 301.03679,559.48408 L 299.74699,560 L 299.23109,559.74204 L 298.45719,559.74204 L 297.94129,559.22613 L 297.68329,558.96817 L 297.16739,558.19429 L 296.90949,557.42042 L 296.90949,556.38859 L 296.65149,555.0988 L 296.90949,545.2964 L 290.46049,549.68169 L 282.72179,554.58288 L 280.91609,555.35676 L 278.85239,556.38859 L 277.04669,556.9045 L 274.98309,557.42042 L 273.17739,557.93634 L 271.37159,557.93634 L 269.56589,557.67838 L 268.01819,557.16246 L 268.79209,555.0988 L 269.56589,553.29309 L 270.33979,551.48739 L 271.37159,549.93964 L 272.40349,548.3919 L 273.43529,546.84415 L 274.72509,545.55436 L 276.01489,544.26457 L 278.85239,542.20091 L 282.20589,540.13725 L 285.55929,538.5895 L 289.42869,537.29971 L 293.29809,536.26788 L 297.68329,535.494 L 302.06859,534.72013 L 306.45389,534.20422 L 315.99839,533.6883 L 325.80069,533.43034 L 345.40549,533.43034 L 350.30669,533.17238 L 354.94999,532.91443 L 359.59319,532.65647 L 363.97849,532.14055 L 368.36379,531.36668 L 372.23319,530.59281 L 376.10249,529.56097 L 379.71389,528.01323 L 383.06739,526.46548 L 385.90489,524.40182 L 388.74249,522.33816 L 391.06409,519.50062 L 388.48449,514.34146 L 390.54819,514.0835 L 392.61179,513.56759 L 394.67549,512.53576 L 396.48119,511.24597 L 397.25509,510.73005 L 398.02889,509.95618 L 398.54489,508.92435 L 399.06079,508.15047 L 399.31869,507.11864 L 399.31869,505.31294 L 398.80279,504.28111 L 403.18809,503.50723 L 407.83129,502.99132 L 412.73249,502.73336 L 417.89169,502.73336 L 428.46799,503.24928 L 439.30219,504.02315 L 450.39439,505.31294 L 461.22859,506.34477 L 471.80489,507.3766 L 481.60729,507.89252 L 481.60729,511.50393 L 481.34929,513.05167 L 480.83339,514.59942 L 480.31749,516.14717 L 479.80159,517.43696 L 479.02769,518.46879 L 477.99589,519.75858 L 476.19019,521.56428 L 473.86849,523.11203 L 471.54689,524.14386 L 468.96729,524.65978 L 466.12979,525.17569 L 463.29229,524.91773 L 460.71269,524.65978 L 457.87519,523.8859 L 455.29559,522.59611 L 452.71599,521.30632 L 450.65229,519.50062 L 448.58869,517.43696 L 448.58869,521.82224 L 447.81479,527.49731 L 447.29889,530.33485 L 446.52499,532.91443 L 446.00909,533.94626 L 445.23519,534.72013 L 444.71929,535.494 L 443.94539,536.00992 M 236.54729,511.76188 L 242.48039,514.34146 L 244.02809,513.05167 L 246.09179,511.50393 L 248.41339,510.21414 L 250.47709,508.92435 L 258.21579,505.82885 L 264.92269,502.73336 L 268.27619,501.44357 L 271.11369,499.89582 L 273.95119,498.34808 L 276.27279,496.80033 L 282.20589,492.93096 L 288.13889,489.06159 L 293.81399,485.45019 L 298.97309,481.83878 L 302.84249,478.74328 L 305.93799,475.90575 L 309.29139,472.81025 L 312.90289,469.4568 L 314.19259,468.16701 L 315.74039,467.13518 L 317.54609,466.10335 L 319.60979,465.07152 L 323.99499,463.00785 L 328.38029,461.46011 L 334.31339,459.91236 L 340.76229,458.36461 L 347.46919,457.07482 L 354.94999,455.78503 L 363.97849,454.7532 L 373.00699,453.46341 L 382.29349,452.43158 L 391.32199,450.88384 L 394.41749,450.36792 L 397.25509,449.59405 L 400.35059,448.82017 L 403.44609,448.0463 L 406.54149,444.17693 L 411.44269,438.75982 L 414.79619,435.40637 L 418.66559,432.31087 L 423.05089,428.95742 L 428.20999,425.60397 L 435.94869,420.96073 L 444.20339,416.8334 L 452.71599,412.44812 L 460.97069,408.57875 L 468.70939,404.70938 L 475.93219,401.09797 L 481.86519,398.00248 L 486.50849,394.90699 L 487.79829,391.03762 L 489.60399,387.16825 L 491.92559,383.29888 L 494.76309,379.42952 L 497.85859,375.30219 L 501.72799,371.17487 L 505.85529,366.53162 L 511.01449,361.63043 L 515.65769,357.5031 L 520.55889,353.37578 L 523.13849,351.57007 L 525.71809,349.76437 L 528.55559,348.21662 L 531.39309,346.66887 L 534.23069,345.37908 L 537.06819,344.34725 L 540.16369,343.57338 L 543.00119,342.7995 L 546.09669,342.54155 L 548.93429,342.28359 L 552.02979,342.54155 L 554.86729,343.05746 L 554.60929,346.15296 L 553.83549,349.24845 L 552.80359,352.34394 L 551.51389,355.6974 L 549.70809,359.05085 L 547.38649,362.4043 L 544.54899,366.01571 L 541.19549,369.62712 L 543.77509,369.36916 L 546.09669,368.85325 L 547.90239,368.33733 L 549.70809,367.56346 L 551.25589,367.04754 L 553.06159,366.53162 L 555.38319,366.27367 L 557.96279,366.01571 L 558.22079,367.82141 L 558.22079,369.62712 L 557.96279,371.43282 L 557.44689,372.98057 L 556.67299,374.52832 L 555.64119,376.07606 L 554.60929,377.36585 L 553.31959,378.65564 L 547.90239,383.8148 L 542.48529,388.716 L 545.58079,388.97396 L 548.93429,390.00579 L 552.28769,391.03762 L 554.86729,391.55353 L 551.77179,393.87515 L 548.16039,396.19678 L 544.54899,398.5184 L 540.42169,400.84002 L 536.29429,403.16164 L 532.16699,405.74122 L 528.03969,408.57875 L 524.17029,411.67425 L 525.97599,411.9322 L 528.29759,412.96403 L 529.32949,413.22199 L 530.36129,413.73791 L 531.13519,413.99587 L 531.90909,413.73791 L 526.74989,416.57544 L 520.30099,419.67094 L 517.20549,421.21868 L 514.62589,422.76643 L 513.33609,423.54031 L 512.56219,424.31418 L 512.04629,425.08805 L 511.53039,425.86193 L 511.78829,426.89376 L 512.30429,427.66763 L 513.33609,428.4415 L 514.10999,429.21538 L 513.85199,430.24721 L 513.33609,431.02108 L 512.30429,431.79496 L 511.27239,432.56883 L 508.95079,433.85862 L 505.85529,435.14841 L 502.75979,436.18024 L 499.92229,437.21207 L 497.85859,438.2439 L 496.31089,439.01778 L 501.46999,444.17693 L 499.66429,445.98264 L 497.85859,447.27243 L 496.31089,448.0463 L 494.50519,448.82017 L 490.89379,449.33609 L 485.99259,449.33609 L 486.50849,451.65771 L 487.28239,453.97933 L 487.79829,456.55891 L 488.31419,459.13849 L 483.92889,462.49194 L 478.51179,466.36131 L 472.57879,470.23067 L 465.87189,474.10004 L 462.00249,476.1637 L 458.13309,477.96941 L 454.00579,479.51715 L 449.62049,481.0649 L 444.97729,482.61265 L 440.07609,483.64448 L 434.91689,484.67631 L 429.49979,485.45019 L 439.04419,485.70814 L 447.29889,485.70814 L 455.03759,484.93427 L 462.00249,484.1604 L 468.45139,482.87061 L 474.12649,481.32286 L 479.80159,479.2592 L 485.21869,477.19553 L 492.44149,473.84208 L 499.40639,469.97272 L 506.11329,465.84539 L 513.07809,461.71806 L 508.95079,459.6544 L 504.82349,458.36461 L 502.75979,457.59074 L 500.69619,456.55891 L 498.37449,455.52708 L 496.05289,454.23729 L 498.11659,452.68954 L 500.43819,451.65771 L 503.27569,450.62588 L 506.37119,449.852 L 512.56219,448.56222 L 519.01119,447.78834 L 524.68619,447.01447 L 529.84539,446.49855 L 531.90909,445.98264 L 533.71479,445.46672 L 534.74659,444.95081 L 535.52049,444.17693 L 535.26249,443.91897 L 534.74659,443.40306 L 533.97269,443.1451 L 532.94089,442.62919 L 530.10339,442.11327 L 526.49189,441.59735 L 522.88049,441.3394 L 519.26909,440.82348 L 516.17359,440.04961 L 514.10999,439.27573 L 521.07479,437.72799 L 528.03969,436.18024 L 534.23069,434.89045 L 539.38979,433.60066 L 543.77509,432.31087 L 547.64449,430.76312 L 549.45019,429.98925 L 550.73999,429.21538 L 552.02979,428.4415 L 553.06159,427.40967 L 552.80359,427.15172 L 552.28769,426.6358 L 551.25589,426.37784 L 549.96609,426.11988 L 546.61269,425.86193 L 542.74329,425.86193 L 538.61599,425.60397 L 534.74659,425.34601 L 531.39309,424.83009 L 529.32949,424.31418 L 531.13519,423.54031 L 532.94089,422.76643 L 539.13189,420.96073 L 544.54899,419.41298 L 549.45019,418.12319 L 554.09339,416.57544 L 558.99459,415.0277 L 563.89579,412.96403 L 566.21739,411.67425 L 568.28109,410.38446 L 569.05499,409.61058 L 569.82889,408.57875 L 570.60269,407.80488 L 570.86069,407.031 L 570.60269,406.25713 L 569.82889,405.74122 L 569.05499,405.48326 L 561.83219,405.48326 L 558.47869,405.74122 L 553.83549,405.74122 L 552.54569,405.48326 L 551.51389,404.96734 L 550.48199,404.45143 L 560.80029,397.74452 L 570.34479,391.55353 L 578.85739,386.13642 L 586.33819,380.97726 L 589.43369,378.39768 L 592.27119,375.81811 L 594.59279,373.23853 L 596.65649,370.65895 L 598.20419,367.82141 L 599.49399,364.98388 L 600.26789,361.88838 L 600.26789,358.53493 L 598.46219,358.53493 L 596.65649,358.79289 L 594.59279,359.56676 L 592.52909,360.34064 L 588.40179,362.92021 L 584.01649,365.49979 L 581.69489,366.78958 L 579.63129,368.07937 L 577.30959,369.1112 L 574.98799,369.88508 L 572.92439,370.40099 L 570.86069,370.65895 L 568.53909,370.65895 L 566.47539,369.88508 L 572.66639,365.24184 L 579.63129,359.30881 L 587.62789,352.34394 L 595.62459,344.60521 L 603.62129,336.35056 L 611.10209,328.09591 L 614.45559,323.71062 L 617.80899,319.5833 L 620.64659,315.45597 L 623.22609,311.58661 L 623.74199,310.55478 L 623.99999,309.7809 L 623.74199,308.74907 L 623.48409,307.9752 L 623.22609,307.20132 L 622.45229,306.68541 L 621.67839,305.91153 L 620.90449,305.65358 L 619.87269,305.13766 L 618.84079,304.8797 L 616.77719,304.8797 L 615.74539,305.13766 L 614.45559,305.39562 L 613.68169,306.16949 L 612.64989,306.94337 L 608.00659,311.58661 L 602.58949,317.00372 L 596.91439,322.93675 L 590.72339,328.86978 L 584.53249,334.2869 L 578.34149,339.44605 L 575.24599,341.50971 L 572.40839,343.31542 L 569.31289,344.86317 L 566.73339,346.15296 L 568.53909,344.60521 L 570.86069,342.28359 L 573.95619,339.18809 L 577.30959,335.31873 L 584.79039,326.2902 L 593.04509,315.71393 L 597.17239,310.03886 L 601.04179,304.36379 L 604.91109,298.94667 L 608.26459,293.2716 L 611.36009,288.11244 L 613.93959,283.4692 L 616.00329,279.08392 L 617.29309,275.47251 L 617.55109,274.18272 L 617.55109,272.11906 L 617.29309,271.34518 L 616.77719,270.57131 L 616.26129,269.79744 L 615.74539,269.28152 L 614.97149,269.02356 L 613.42369,268.24969 L 611.61799,267.73377 L 608.00659,267.73377 L 606.97479,267.99173 L 606.20089,268.24969 L 605.16909,268.76561 L 604.39519,269.53948 L 602.33149,271.34518 L 600.26789,273.92476 L 595.62459,279.85779 L 590.72339,287.33857 L 585.30629,295.33526 L 579.37329,303.58991 L 576.01979,307.45928 L 572.92439,311.32865 L 569.57089,314.6821 L 565.95949,317.77759 L 570.60269,309.26499 L 575.24599,299.46259 L 577.82559,294.04547 L 580.14719,288.62836 L 582.46879,282.95329 L 584.53249,277.27821 L 586.33819,271.34518 L 588.14389,265.67011 L 589.43369,259.99504 L 590.46549,254.31997 L 590.98139,248.90285 L 591.23939,243.7437 L 590.98139,241.16412 L 590.72339,238.8425 L 590.46549,236.52088 L 589.94959,234.19926 L 589.69159,233.42538 L 589.17569,232.65151 L 588.40179,231.87764 L 587.88589,231.36172 L 586.08019,230.58785 L 584.27449,230.07193 L 582.46879,230.07193 L 580.92099,230.32989 L 580.40509,230.58785 L 579.63129,230.8458 L 579.37329,231.36172 L 579.11529,232.13559 L 576.53579,240.6482 L 574.21409,249.16081 L 571.89249,258.18934 L 569.57089,266.9599 L 567.24929,275.73047 L 564.15379,283.98512 L 562.60599,288.11244 L 560.80029,291.72385 L 558.73669,295.59322 L 556.41499,298.94667 L 557.96279,291.4659 L 558.99459,284.75899 L 560.02649,278.568 L 560.54239,272.89293 L 561.05829,267.99173 L 561.31619,263.60645 L 561.05829,259.99504 L 560.80029,256.89955 L 560.28439,254.31997 L 559.51049,252.2563 L 558.99459,251.48243 L 558.47869,250.70856 L 557.96279,250.19264 L 557.18889,249.93468 L 556.41499,249.67673 L 555.64119,249.41877 L 554.86729,249.41877 L 554.09339,249.67673 L 552.02979,250.19264 L 549.96609,251.22447 L 548.16039,259.47912 L 546.35469,267.47582 L 544.29099,274.95659 L 541.96939,282.17941 L 539.38979,289.40223 L 536.55229,296.62505 L 533.45679,304.10583 L 529.84539,311.58661 L 527.26579,316.48781 L 524.68619,321.389 L 521.84869,326.2902 L 519.01119,331.1914 L 515.91569,335.83464 L 512.82019,340.47788 L 509.46669,345.12112 L 506.11329,349.76437 L 499.92229,357.5031 L 493.47329,364.72592 L 486.76639,371.94874 L 479.80159,378.65564 L 472.57879,385.36255 L 465.09799,391.55353 L 457.35919,397.48656 L 449.36249,403.16164 L 443.94539,406.77305 L 438.27039,410.38446 L 432.59529,413.73791 L 426.92019,417.09136 L 417.89169,421.21868 L 408.86319,425.34601 L 399.57669,428.69946 L 390.29019,432.05291 L 382.55149,434.37453 L 374.81269,436.69615 L 366.81599,438.50186 L 358.81939,440.30756 L 350.82269,441.59735 L 342.56799,442.62919 L 334.57129,443.66102 L 326.31669,444.17693 L 325.54279,444.43489 L 324.76889,444.69285 L 323.22119,445.46672 L 321.41549,446.75651 L 318.83589,449.07813 L 315.48239,452.17362 L 311.35509,456.30095 L 306.45389,461.71806 L 301.81069,467.13518 L 296.39359,473.06821 L 293.55599,475.90575 L 290.71849,478.74328 L 287.36499,481.32286 L 284.01159,483.90244 L 281.43199,485.70814 L 278.85239,487.25589 L 276.01489,488.54568 L 273.17739,489.83547 L 266.98639,492.41505 L 260.79539,494.73667 L 254.60439,497.05829 L 249.18729,499.12195 L 246.86569,500.15378 L 244.54399,501.44357 L 242.48039,502.4754 L 240.93259,503.50723 L 239.38489,505.05498 L 238.09509,506.34477 L 237.32119,507.63456 L 236.80529,508.92435 L 236.54729,510.73005 L 236.54729,511.76188"
     id="path29"
     style="fill:#fec50c;fill-opacity:1;fill-rule:evenodd;stroke:none" />
  <path
     d="M 251.49319,511.46812 C 250.96019,511.46849 250.52789,511.03653 250.52789,510.50354 C 250.52789,509.97055 250.96019,509.53858 251.49319,509.53895 C 252.02619,509.53858 252.45839,509.97055 252.45839,510.50354 C 252.45839,511.03653 252.02619,511.46849 251.49319,511.46812 z"
     id="path3938"
     style="fill:#fec50c;fill-opacity:1;stroke:#00ff00;stroke-width:0.38127393;stroke-miterlimit:4;stroke-dasharray:none;stroke-opacity:1" />
</svg>
