<svg width="101" height="30" viewBox="0 0 101 30" fill="none" xmlns="http://www.w3.org/2000/svg">
<g clip-path="url(#clip0_356_4790)">
<path d="M81.9366 1.5605C81.9358 1.26419 82.0251 0.974294 82.1932 0.727499C82.3613 0.480703 82.6007 0.288099 82.8811 0.174056C83.1614 0.0600132 83.4702 0.029657 83.7682 0.0868272C84.0663 0.143997 84.3402 0.286123 84.5555 0.495226C84.7707 0.704328 84.9175 0.971012 84.9773 1.26153C85.0371 1.55204 85.0073 1.85334 84.8915 2.12729C84.7757 2.40124 84.5793 2.63554 84.3269 2.80054C84.0746 2.96554 83.7778 3.05383 83.4741 3.05423C83.2719 3.05694 83.0713 3.0202 82.8839 2.94617C82.6965 2.87214 82.5262 2.7623 82.3829 2.62314C82.2397 2.48397 82.1264 2.31827 82.0498 2.13579C81.9731 1.9533 81.9346 1.75771 81.9366 1.5605ZM84.7065 1.5605C84.6676 1.26798 84.5208 0.99929 84.2936 0.804604C84.0665 0.609918 83.7744 0.502545 83.472 0.502545C83.1696 0.502545 82.8775 0.609918 82.6504 0.804604C82.4232 0.99929 82.2764 1.26798 82.2374 1.5605C82.2146 1.73176 82.2295 1.90578 82.2812 2.07097C82.3328 2.23616 82.4199 2.38872 82.5367 2.51845C82.6536 2.64819 82.7974 2.75213 82.9587 2.82334C83.12 2.89454 83.295 2.93137 83.472 2.93137C83.649 2.93137 83.824 2.89454 83.9853 2.82334C84.1466 2.75213 84.2904 2.64819 84.4073 2.51845C84.5241 2.38872 84.6112 2.23616 84.6628 2.07097C84.7144 1.90578 84.7293 1.73176 84.7065 1.5605ZM84.2376 2.37011H83.8579L83.4907 1.68397H83.1691V2.37011H82.8475V0.750897H83.6421C83.7993 0.739449 83.957 0.76659 84.1007 0.829836C84.1656 0.878484 84.2166 0.942529 84.2489 1.01587C84.2813 1.08921 84.2938 1.1694 84.2853 1.24881C84.2853 1.54027 84.1277 1.66576 83.833 1.686L84.248 2.37214L84.2376 2.37011ZM83.6484 1.44514C83.833 1.44514 83.97 1.40466 83.97 1.20225C83.97 0.999853 83.7251 0.993781 83.5737 0.993781H83.1587V1.44919L83.6484 1.44514Z" fill="#231F20"/>
<path d="M0.00585938 12.2898L0.489302 10.2739L8.69952 1.88841H2.68865L3.19907 0H12.8783L12.426 1.91472L4.09956 10.3367H10.4362L9.94029 12.2898H0.00585938Z" fill="#231F20"/>
<path d="M10.8311 12.2919L13.5284 1.91473L14.0077 0.0931091H16.7755L15.5306 4.80098C16.1365 4.32128 16.9353 3.78897 18.5039 3.78897C20.5621 3.78897 21.6992 4.92242 21.6992 6.34935C21.6904 6.99124 21.6076 7.63013 21.4523 8.25395L20.4625 12.2898H17.6781L18.8359 7.69735C18.9041 7.39896 18.9478 7.09575 18.9666 6.79059C18.9666 6.12064 18.4935 5.59439 17.5142 5.59439C16.9145 5.59439 15.3086 5.83727 14.6571 8.2661L13.5948 12.2919H10.8311Z" fill="#231F20"/>
<path d="M26.9458 12.4679C24.5203 12.4679 22.2773 11.3163 22.2773 8.93806C22.2773 6.33719 24.4082 3.72418 28.1824 3.72418C31.0125 3.72418 32.2138 5.15516 32.2138 6.87558C32.1905 7.51866 32.0952 8.15732 31.9296 8.78018H24.7983C24.8398 9.82862 25.3295 10.8042 27.7031 10.8042C28.7866 10.809 29.8579 10.5802 30.8403 10.1343L30.5353 11.97C29.3679 12.2786 28.1655 12.4438 26.9562 12.4619L26.9458 12.4679ZM28.0185 5.30292C27.4003 5.28036 26.7918 5.45763 26.2875 5.80718C25.7832 6.15672 25.4114 6.65896 25.2299 7.23586H29.778C29.7987 7.03345 29.7987 6.74402 29.7987 6.64282C29.7987 5.92429 29.1763 5.30292 28.0247 5.30292H28.0185Z" fill="#231F20"/>
<path d="M31.8408 12.2919L33.9779 3.92256H36.5653L36.2105 5.40211C36.9055 4.54595 37.916 3.7829 39.3435 3.7829C39.6672 3.78683 39.9897 3.82208 40.3062 3.88814L39.7377 5.98706C39.4452 5.88496 39.1375 5.83026 38.8269 5.82513C36.4781 5.82513 35.8474 7.63258 35.5071 8.90973L34.6336 12.2919H31.8408Z" fill="#231F20"/>
<path d="M38.918 12.2919L41.0717 3.92254H43.5968L43.2918 5.12481C43.6783 4.6868 44.1611 4.33942 44.7043 4.1085C45.2474 3.87757 45.8369 3.76905 46.429 3.79098C47.512 3.79098 48.813 4.07232 49.0391 5.51139C49.4437 4.82323 50.6015 3.79098 52.6017 3.79098C54.3694 3.79098 55.6019 4.82323 55.6019 6.13277C55.5637 6.74891 55.4594 7.35945 55.2907 7.95438L54.1288 12.2878H51.4024L52.6473 7.52731C52.7273 7.22198 52.7801 6.91047 52.805 6.59626C52.805 5.90203 52.3153 5.61259 51.6265 5.61259C51.031 5.61259 49.6097 5.90203 48.9292 8.46241L47.9042 12.2878H45.1322L46.2547 8.11833C46.4056 7.62823 46.4934 7.1217 46.5161 6.61043C46.5161 5.98299 46.0493 5.61259 45.4019 5.61259C43.8852 5.61259 43.0532 6.95857 42.8125 7.90783L41.6692 12.2878L38.918 12.2919Z" fill="#231F20"/>
<path d="M58.6435 12.4173C56.8654 12.4173 55.4648 11.6077 55.4648 10.0877C55.4648 7.92808 58.3115 7.13871 60.7806 7.13871C61.4732 7.13085 62.1657 7.1572 62.8555 7.21765V6.81284C62.8555 5.92632 62.2662 5.33733 60.7184 5.33733C59.4924 5.36442 58.2844 5.63147 57.1662 6.12265L57.5978 4.25043C58.8248 3.95851 60.0821 3.80436 61.345 3.79099C63.8556 3.79099 65.3598 4.6431 65.3598 6.42221C65.3457 6.95419 65.2642 7.48242 65.1171 7.99487L64.4282 10.6301C64.2643 11.3547 64.2208 11.5652 64.1066 12.2919H61.7869L62.0069 11.2009C61.3554 11.7312 60.5026 12.4153 58.6498 12.4153L58.6435 12.4173ZM58.185 9.92376C58.185 10.4986 58.685 10.8791 59.4901 10.8791C61.4529 10.8791 62.2704 9.35096 62.4696 8.50897C62.1272 8.50897 61.9529 8.49885 61.8015 8.49885C60.0856 8.49885 58.185 8.79233 58.185 9.91566V9.92376Z" fill="#231F20"/>
<path d="M70.2172 12.4173C67.7543 12.4173 65.8164 11.0916 65.8164 8.74578C65.8164 7.63257 66.6754 3.79099 72.041 3.79099C72.9207 3.79738 73.7959 3.91439 74.6449 4.13912L73.9519 5.9243C73.3379 5.68322 72.6821 5.55954 72.0202 5.55998C71.1649 5.536 70.3349 5.84422 69.7124 6.4169C69.0899 6.98959 68.7259 7.77991 68.7005 8.61422C68.7005 10.1828 69.9454 10.6382 71.1426 10.6382C71.8448 10.634 72.5378 10.4814 73.1739 10.1909L72.9518 12.0449C72.0625 12.287 71.1446 12.4149 70.2213 12.4254L70.2172 12.4173Z" fill="#231F20"/>
<path d="M73.8213 12.2898L77.0207 0.0870361H79.7907L77.9627 6.98894L81.8468 3.92255H85.316L80.2845 7.77831L84.511 14.3098H81.4734L77.6743 8.08798L76.5746 12.2898H73.8213Z" fill="#231F20"/>
<path d="M0.674329 14.2572H1.63085C2.13711 14.2572 2.61018 14.4171 2.61018 14.9393C2.59714 15.1144 2.52071 15.2794 2.39453 15.4047C2.26836 15.53 2.10064 15.6075 1.92132 15.6234C2.07284 15.6368 2.21274 15.7082 2.31036 15.822C2.40798 15.9358 2.45536 16.0827 2.44211 16.2306C2.44211 17.0544 1.40468 17.1171 0.921238 17.1171H0L0.674329 14.2572ZM0.726201 16.6678H0.948212C1.34659 16.6678 1.78853 16.6293 1.78853 16.182C1.78853 15.8906 1.47937 15.842 1.12665 15.842H0.919161L0.724124 16.6678H0.726201ZM1.02084 15.4129H1.27812C1.60595 15.4129 1.96282 15.3319 1.96282 14.9919C1.96282 14.7227 1.66819 14.7065 1.41506 14.7065H1.19512L1.02084 15.4129Z" fill="#231F20"/>
<path d="M3.87794 14.2572H5.77851L5.68307 14.7065H4.42155L4.24727 15.4109H5.37807L5.27432 15.8642H4.14145L3.95679 16.6678H5.23075L5.12078 17.1171H3.19531L3.87794 14.2572Z" fill="#231F20"/>
<path d="M7.20593 15.9331L6.44238 14.2572H7.12501L7.61053 15.4574L8.66248 14.2572H9.41566L7.85121 15.9331L7.57318 17.1171H6.9196L7.20593 15.9331Z" fill="#231F20"/>
<path d="M12.8578 15.417C12.8557 15.8929 12.6628 16.3491 12.3204 16.6881C12.136 16.8524 11.92 16.9794 11.6849 17.0617C11.4499 17.1441 11.2004 17.1801 10.951 17.1677C10.1563 17.1677 9.67285 16.6617 9.67285 15.9776C9.67785 15.5158 9.86253 15.073 10.1895 14.7389C10.3597 14.5639 10.5656 14.4258 10.794 14.3334C11.0224 14.241 11.2682 14.1964 11.5153 14.2026C12.393 14.2026 12.8578 14.658 12.8578 15.417ZM10.3513 16.012C10.3421 16.1031 10.353 16.1951 10.3832 16.2818C10.4134 16.3685 10.4623 16.4478 10.5266 16.5146C10.5908 16.5813 10.669 16.6338 10.7558 16.6686C10.8426 16.7034 10.936 16.7197 11.0298 16.7164C11.7788 16.7164 12.1876 15.9311 12.1876 15.3603C12.197 15.2684 12.1859 15.1756 12.1551 15.0882C12.1243 15.0009 12.0744 14.9211 12.0089 14.8544C11.9435 14.7877 11.864 14.7355 11.7759 14.7016C11.6878 14.6677 11.5933 14.6528 11.4987 14.658C10.7414 14.658 10.3513 15.4311 10.3513 16.012Z" fill="#231F20"/>
<path d="M14.0949 14.2572H14.9144L15.6054 16.4289H15.6095L16.1365 14.2572H16.7465L16.0514 17.1171H15.2153L14.541 14.9231H14.5306L14.0202 17.1171H13.3936L14.0949 14.2572Z" fill="#231F20"/>
<path d="M17.7736 14.2572H18.7405C19.421 14.2572 20.1929 14.4859 20.1929 15.4716C20.1929 16.1355 19.8152 17.109 18.1886 17.109H17.1055L17.784 14.2491L17.7736 14.2572ZM17.8524 16.6678H18.1595C19.0849 16.6678 19.5123 16.182 19.5123 15.3947C19.5123 14.9474 19.1181 14.7065 18.5392 14.7065H18.311L17.8545 16.6678H17.8524Z" fill="#231F20"/>
<path d="M22.9832 14.2572H23.6616L22.9769 17.1171H22.3047L22.9832 14.2572Z" fill="#231F20"/>
<path d="M24.641 14.2572H25.4626L26.1515 16.4289H26.1556L26.6889 14.2572H27.2989L26.5976 17.1171H25.7677L25.0871 14.9231H25.0829L24.5622 17.1171H23.9521L24.641 14.2572Z" fill="#231F20"/>
<path d="M28.3093 14.2572H29.1289L29.8198 16.4289H29.824L30.351 14.2572H30.961L30.2618 17.1171H29.436L28.7554 14.9231H28.7451L28.2305 17.1171H27.6143L28.3093 14.2572Z" fill="#231F20"/>
<path d="M34.6608 15.4169C34.6616 15.6527 34.6147 15.8864 34.5229 16.1045C34.431 16.3226 34.2959 16.5209 34.1254 16.688C33.9412 16.8526 33.7252 16.9797 33.4901 17.062C33.255 17.1444 33.0055 17.1803 32.756 17.1677C31.9613 17.1677 31.4883 16.6617 31.4883 15.9776C31.4876 15.517 31.6681 15.0736 31.9925 14.7389C32.1632 14.5646 32.3693 14.4269 32.5975 14.3346C32.8258 14.2422 33.0713 14.1973 33.3183 14.2025C34.1939 14.2025 34.6608 14.6579 34.6608 15.4169ZM32.1564 16.012C32.1471 16.1036 32.1581 16.1962 32.1886 16.2833C32.2192 16.3704 32.2687 16.4501 32.3336 16.5169C32.3986 16.5837 32.4775 16.6361 32.5651 16.6705C32.6527 16.705 32.7468 16.7206 32.8411 16.7164C33.5777 16.7164 33.9926 15.931 33.9926 15.3603C34.0015 15.268 33.9898 15.1749 33.9583 15.0874C33.9268 15 33.8764 14.9201 33.8104 14.8535C33.7444 14.7868 33.6644 14.7348 33.5759 14.701C33.4874 14.6673 33.3924 14.6526 33.2976 14.6579C32.5465 14.6579 32.1564 15.4311 32.1564 16.012Z" fill="#231F20"/>
<path d="M35.5771 14.2572H36.2287L36.5295 16.4856H36.5399L37.8823 14.2572H38.5857L36.7764 17.1171H36.0025L35.5771 14.2572Z" fill="#231F20"/>
<path d="M40.2564 14.2572H40.9826L41.5677 17.1171H40.9245L40.8145 16.4654H39.4347L39.0198 17.1171H38.2998L40.2522 14.2572H40.2564ZM39.719 16.012H40.7191L40.5116 14.7652H40.4867L39.7128 16.012H39.719Z" fill="#231F20"/>
<path d="M42.6609 14.2572H45.1611L45.0449 14.7065H44.1402L43.5489 17.1171H42.8704L43.4659 14.7065H42.5488L42.6609 14.2572Z" fill="#231F20"/>
<path d="M45.8132 14.2572H46.4917L45.8132 17.1171H45.1348L45.8132 14.2572Z" fill="#231F20"/>
<path d="M50.1657 15.417C50.1706 15.6574 50.1237 15.8962 50.0282 16.1179C49.9327 16.3396 49.7907 16.5393 49.6113 16.7043C49.4318 16.8692 49.219 16.9956 48.9865 17.0755C48.7539 17.1553 48.5068 17.1867 48.261 17.1677C47.4601 17.1677 46.9912 16.6617 46.9912 15.9776C46.9917 15.518 47.1703 15.0755 47.4912 14.7389C47.6624 14.5652 47.8686 14.4279 48.0967 14.3356C48.3249 14.2433 48.5701 14.198 48.8171 14.2025C49.7031 14.2025 50.1657 14.658 50.1657 15.417ZM47.6759 16.012C47.6663 16.1032 47.6769 16.1953 47.707 16.2821C47.7371 16.369 47.786 16.4485 47.8503 16.5153C47.9147 16.5821 47.993 16.6346 48.0799 16.6693C48.1669 16.704 48.2605 16.72 48.3544 16.7164C49.091 16.7164 49.5018 15.9311 49.5018 15.3603C49.5112 15.2684 49.5001 15.1756 49.4693 15.0882C49.4385 15.0009 49.3886 14.9211 49.3231 14.8544C49.2577 14.7877 49.1782 14.7355 49.0901 14.7016C49.002 14.6677 48.9075 14.6528 48.8129 14.658C48.066 14.658 47.6759 15.4311 47.6759 16.012Z" fill="#231F20"/>
<path d="M51.4024 14.2572H52.2219L52.9066 16.4289H52.917L53.444 14.2572H54.0602L53.3548 17.1171H52.529L51.8484 14.9231H51.8381L51.3235 17.1171H50.7031L51.4024 14.2572Z" fill="#231F20"/>
<path d="M84.5107 14.3098L55.3008 30H71.7959L101 14.3098H84.5107Z" fill="#EE3224"/>
<path d="M66.402 22.4059L81.4738 14.3098H64.9849L49.9131 22.4059H66.402Z" fill="#EE3224"/>
</g>
<defs>
<clipPath id="clip0_356_4790">
<rect width="101" height="30" fill="white"/>
</clipPath>
</defs>
</svg>
