<svg width="116" height="52" viewBox="0 0 116 52" fill="none" xmlns="http://www.w3.org/2000/svg">
<g filter="url(#filter0_d_203_1296)">
<rect x="2" y="22.4731" width="30.3676" height="30.3676" rx="5" transform="rotate(-45 2 22.4731)" fill="#E1B65C"/>
<rect x="22.7071" y="12" width="15.9705" height="15.9705" rx="2.5" transform="rotate(-45 22.7071 12)" stroke="#01838C"/>
<path d="M52.06 35.4H59.74V36.06C59.74 36.78 59.6533 37.4867 59.48 38.18C59.3067 38.8733 59.0333 39.54 58.66 40.18C58.3 40.8067 57.8533 41.36 57.32 41.84C56.7867 42.3067 56.1267 42.6867 55.34 42.98C54.5533 43.26 53.6933 43.4 52.76 43.4C50.6933 43.4 48.9933 42.7133 47.66 41.34C46.3267 39.9667 45.66 38.2733 45.66 36.26C45.66 34.1533 46.3333 32.4133 47.68 31.04C49.0267 29.6533 50.72 28.96 52.76 28.96C54.3733 28.96 55.7533 29.34 56.9 30.1C58.0467 30.8467 58.8533 31.88 59.32 33.2H56.22C55.9133 32.6267 55.46 32.1867 54.86 31.88C54.2733 31.56 53.5933 31.4 52.82 31.4C51.6067 31.4 50.5933 31.8333 49.78 32.7C48.9667 33.5667 48.56 34.7267 48.56 36.18C48.56 37.6467 48.9667 38.8133 49.78 39.68C50.6067 40.5333 51.6733 40.96 52.98 40.96C53.9667 40.96 54.8067 40.6533 55.5 40.04C56.1933 39.4267 56.5933 38.6667 56.7 37.76H52.06V35.4ZM69.2106 32.84C68.384 33.7333 67.9706 34.8467 67.9706 36.18C67.9706 37.5133 68.3773 38.6333 69.1906 39.54C70.0173 40.4333 71.044 40.88 72.2706 40.88C73.4973 40.88 74.524 40.4333 75.3506 39.54C76.1773 38.6333 76.5906 37.5133 76.5906 36.18C76.5906 34.8467 76.1906 33.7333 75.3906 32.84C74.604 31.9333 73.5706 31.48 72.2906 31.48C71.064 31.48 70.0373 31.9333 69.2106 32.84ZM65.0506 36.18C65.0506 34.2067 65.744 32.5067 67.1306 31.08C68.5173 29.64 70.244 28.92 72.3106 28.92C73.764 28.92 75.044 29.2667 76.1506 29.96C77.2706 30.64 78.1106 31.5267 78.6706 32.62C79.2306 33.7133 79.5106 34.9 79.5106 36.18C79.5106 38.1933 78.8173 39.9067 77.4306 41.32C76.0573 42.7333 74.344 43.44 72.2906 43.44C71.3306 43.44 70.444 43.2933 69.6306 43C68.8173 42.72 68.1306 42.34 67.5706 41.86C67.024 41.38 66.5573 40.8267 66.1706 40.2C65.784 39.56 65.4973 38.9067 65.3106 38.24C65.1373 37.56 65.0506 36.8733 65.0506 36.18ZM85.5319 43V29.36H88.3919V40.52H93.8919V43H85.5319ZM99.4147 29.36H104.095C106.455 29.36 108.295 30.0067 109.615 31.3C110.935 32.5933 111.595 34.22 111.595 36.18C111.595 38.1133 110.915 39.7333 109.555 41.04C108.208 42.3467 106.375 43 104.055 43H99.4147V29.36ZM102.275 40.48H103.995C105.528 40.48 106.688 40.08 107.475 39.28C108.275 38.4667 108.675 37.4333 108.675 36.18C108.675 34.8733 108.268 33.8333 107.455 33.06C106.655 32.2733 105.501 31.88 103.995 31.88H102.275V40.48Z" fill="#3F3F3F"/>
</g>
<defs>
<filter id="filter0_d_203_1296" x="0.0710754" y="1.24268" width="115.524" height="50.1973" filterUnits="userSpaceOnUse" color-interpolation-filters="sRGB">
<feFlood flood-opacity="0" result="BackgroundImageFix"/>
<feColorMatrix in="SourceAlpha" type="matrix" values="0 0 0 0 0 0 0 0 0 0 0 0 0 0 0 0 0 0 127 0" result="hardAlpha"/>
<feOffset dy="4"/>
<feGaussianBlur stdDeviation="2"/>
<feComposite in2="hardAlpha" operator="out"/>
<feColorMatrix type="matrix" values="0 0 0 0 0 0 0 0 0 0 0 0 0 0 0 0 0 0 0.25 0"/>
<feBlend mode="normal" in2="BackgroundImageFix" result="effect1_dropShadow_203_1296"/>
<feBlend mode="normal" in="SourceGraphic" in2="effect1_dropShadow_203_1296" result="shape"/>
</filter>
</defs>
</svg>
