<svg width="266" height="48" viewBox="0 0 266 48" fill="none" xmlns="http://www.w3.org/2000/svg">
<g clip-path="url(#clip0_203_457)">
<path d="M20.9706 38.9959C20.2722 38.9959 19.5894 38.7893 19.0087 38.4023C18.428 38.0153 17.9753 37.4653 17.7081 36.8218C17.4408 36.1782 17.3708 35.4701 17.5071 34.7869C17.6434 34.1038 17.9797 33.4762 18.4736 32.9837C18.9674 32.4911 19.5967 32.1557 20.2817 32.0198C20.9667 31.8839 21.6768 31.9537 22.3221 32.2202C22.9673 32.4868 23.5189 32.9382 23.9069 33.5174C24.2949 34.0965 24.502 34.7775 24.502 35.474C24.4974 36.4066 24.1239 37.2998 23.4626 37.9592C22.8013 38.6187 21.9058 38.9912 20.9706 38.9959Z" fill="#00ABE1"/>
<path d="M20.9706 30.3054C20.2722 30.3054 19.5894 30.0989 19.0087 29.7119C18.428 29.3249 17.9753 28.7749 17.7081 28.1313C17.4408 27.4878 17.3708 26.7797 17.5071 26.0965C17.6434 25.4133 17.9797 24.7858 18.4736 24.2932C18.9674 23.8007 19.5967 23.4653 20.2817 23.3294C20.9667 23.1935 21.6768 23.2632 22.3221 23.5298C22.9673 23.7964 23.5189 24.2478 23.9069 24.8269C24.2949 25.4061 24.502 26.087 24.502 26.7836C24.4974 27.7162 24.1239 28.6093 23.4626 29.2688C22.8013 29.9283 21.9058 30.3008 20.9706 30.3054Z" fill="#00ABE1"/>
<path d="M15.8001 35.4623C15.8001 36.1588 15.593 36.8398 15.2049 37.4189C14.8169 37.9981 14.2654 38.4495 13.6201 38.7161C12.9748 38.9826 12.2648 39.0524 11.5797 38.9165C10.8947 38.7806 10.2655 38.4452 9.7716 37.9526C9.27772 37.4601 8.94139 36.8325 8.80513 36.1494C8.66887 35.4662 8.7388 34.7581 9.00609 34.1145C9.27337 33.471 9.726 32.921 10.3067 32.534C10.8875 32.147 11.5702 31.9404 12.2687 31.9404C13.2036 31.9458 14.0987 32.3186 14.7598 32.9779C15.4209 33.6372 15.7947 34.5299 15.8001 35.4623Z" fill="#00ABE1"/>
<path d="M7.08341 35.4623C7.08341 36.1588 6.87629 36.8398 6.48826 37.4189C6.10022 37.9981 5.54869 38.4495 4.90341 38.7161C4.25813 38.9826 3.54809 39.0524 2.86306 38.9165C2.17804 38.7806 1.5488 38.4452 1.05492 37.9526C0.561049 37.4601 0.224716 36.8325 0.0884559 36.1494C-0.0478041 35.4662 0.0221295 34.7581 0.289413 34.1145C0.556697 33.471 1.00933 32.921 1.59006 32.534C2.1708 32.147 2.85356 31.9404 3.552 31.9404C4.48692 31.9458 5.38201 32.3186 6.04311 32.9779C6.70421 33.6372 7.078 34.5299 7.08341 35.4623Z" fill="#00ABE1"/>
<path d="M15.8001 26.7719C15.8001 27.4684 15.593 28.1493 15.2049 28.7285C14.8169 29.3077 14.2654 29.7591 13.6201 30.0256C12.9748 30.2922 12.2648 30.3619 11.5797 30.226C10.8947 30.0902 10.2655 29.7547 9.7716 29.2622C9.27772 28.7696 8.94139 28.1421 8.80513 27.4589C8.66887 26.7758 8.7388 26.0676 9.00609 25.4241C9.27337 24.7806 9.726 24.2305 10.3067 23.8435C10.8875 23.4566 11.5702 23.25 12.2687 23.25C13.2034 23.2562 14.098 23.6292 14.7589 24.2883C15.4199 24.9475 15.7939 25.8397 15.8001 26.7719Z" fill="#00ABE1"/>
<path d="M20.9706 21.6155C20.2722 21.6155 19.5894 21.4089 19.0087 21.022C18.428 20.635 17.9753 20.0849 17.7081 19.4414C17.4408 18.7979 17.3708 18.0897 17.5071 17.4066C17.6434 16.7234 17.9797 16.0959 18.4736 15.6033C18.9674 15.1108 19.5967 14.7753 20.2817 14.6395C20.9667 14.5036 21.6768 14.5733 22.3221 14.8399C22.9673 15.1064 23.5189 15.5578 23.9069 16.137C24.2949 16.7162 24.502 17.3971 24.502 18.0936C24.4974 19.0263 24.1239 19.9194 23.4626 20.5789C22.8013 21.2383 21.9058 21.6109 20.9706 21.6155Z" fill="#E51D2B"/>
<path d="M28.3984 14.5513H34.4665V23.8196H43.0743V14.5513H49.1424V39.0018H43.0743V28.8119H34.4665V39.0018H28.3984V14.5513Z" fill="#1D1F23"/>
<path d="M52.0205 32.9705V21.4922H57.5678V31.82C57.5678 33.7365 58.4241 34.796 60.2163 34.796C62.135 34.796 63.3004 33.3579 63.3004 31.2741V21.4922H68.8918V39.0017H63.5417V36.8475H63.4534C62.1851 38.5556 60.6401 39.5153 58.2064 39.5153C54.16 39.5153 52.0264 36.8739 52.0264 32.9822" fill="#1D1F23"/>
<path d="M71.9052 14.5513H90.1479V19.6462H77.9734V24.6032H88.1585V29.4957H77.9734V39.0018H71.9052V14.5513Z" fill="#1D1F23"/>
<path d="M91.3456 21.492H96.7074V24.2273H96.8105C98.0435 22.1435 99.4855 21.219 101.61 21.219C101.982 21.195 102.354 21.2418 102.708 21.357V26.1438H102.57C99.1412 25.6654 96.9458 27.3412 96.9458 31.1331V38.9985H91.3544L91.3456 21.492Z" fill="#1D1F23"/>
<path d="M104.48 14.5513H110.071V19.0651H104.48V14.5513ZM104.48 21.4923H110.071V39.0018H104.48V21.4923Z" fill="#1D1F23"/>
<path d="M111.951 30.2117C111.951 24.9817 115.621 20.9814 120.971 20.9814C123.473 20.9814 125.462 21.8003 126.972 23.1679C129.061 25.0844 130.091 28.1279 130.056 31.6791H117.44C117.781 34.027 119.085 35.4944 121.38 35.4944C122.852 35.4944 123.817 34.8458 124.297 33.7511H129.747C129.309 35.4444 128.262 36.9177 126.804 37.8893C125.19 38.9873 123.271 39.5501 121.318 39.4976C115.524 39.4976 111.957 35.4944 111.957 30.194L111.951 30.2117ZM124.405 28.348C124.199 26.2613 122.896 24.9289 121.08 24.9289C118.952 24.9289 117.843 26.2613 117.478 28.348H124.405Z" fill="#1D1F23"/>
<path d="M131.153 30.247C131.153 24.7764 134.308 20.9816 138.834 20.9816C141.3 20.9816 142.707 22.0059 143.737 23.4762H143.84V14.5513H149.431V39.0018H144.087V36.6539H144.019C143.501 37.5596 142.745 38.3081 141.834 38.8197C140.922 39.3314 139.889 39.587 138.843 39.5594C134.349 39.5594 131.162 36.105 131.162 30.2588L131.153 30.247ZM143.984 30.2588C143.984 27.3239 142.783 25.199 140.35 25.199C138.122 25.199 136.818 27.2534 136.818 30.1883C136.818 33.2318 138.122 35.1453 140.282 35.1453C142.613 35.1453 143.984 33.1291 143.984 30.2558" fill="#1D1F23"/>
<path d="M152.683 40.4368H154.605C156.25 40.4368 156.9 39.7882 156.9 38.5908C156.9 37.8395 156.559 36.8123 155.838 34.9662L150.661 21.4922H156.547L158.901 28.9468C159.449 30.6578 159.999 32.9822 159.999 32.9822H160.067C160.067 32.9822 160.546 30.6578 161.097 28.9468L163.392 21.4922H168.984L162.915 39.2394C161.509 43.3482 159.831 44.7805 156.3 44.7805H152.683V40.4368Z" fill="#1D1F23"/>
<path d="M172.927 36.1284C170.802 33.804 169.637 30.5903 169.637 26.863C169.637 23.0476 170.938 19.6461 173.271 17.3217C175.293 15.2673 178.139 14.0728 181.67 14.0728C187.98 14.0728 191.752 17.4244 192.541 22.5516H186.655C186.208 20.5706 184.563 19.065 181.888 19.065C177.841 19.065 175.82 22.4166 175.82 26.863C175.82 31.3093 178.15 34.658 182 34.658C185.19 34.658 187.073 32.539 187.314 30.3848V30.3291H182.685V25.871H192.903V39.0016H188.65L188.309 36.0668H188.23C186.62 38.5614 184.219 39.5534 181.27 39.5534C177.774 39.5534 174.928 38.3237 172.903 36.1343" fill="#1D1F23"/>
<path d="M195.678 21.4921H201.025V24.2274H201.128C202.364 22.1436 203.803 21.2191 205.928 21.2191C206.299 21.1948 206.672 21.2417 207.026 21.3571V26.1439H206.89C203.462 25.6655 201.266 27.3413 201.266 31.1332V38.9986H195.675L195.678 21.4921Z" fill="#1D1F23"/>
<path d="M207.679 30.282C207.679 24.9992 211.449 21.0137 217.072 21.0137C222.696 21.0137 226.434 25.0139 226.434 30.282C226.434 35.5501 222.731 39.5475 217.069 39.5475C211.407 39.5475 207.676 35.5472 207.676 30.282H207.679ZM220.772 30.282C220.772 27.1006 219.471 24.9464 217.037 24.9464C214.603 24.9464 213.332 27.1006 213.332 30.282C213.332 33.4634 214.6 35.5824 217.037 35.5824C219.474 35.5824 220.772 33.4605 220.772 30.282Z" fill="#1D1F23"/>
<path d="M228.182 32.9705V21.4922H233.735V31.82C233.735 33.7365 234.591 34.796 236.383 34.796C238.305 34.796 239.47 33.3579 239.47 31.2741V21.4922H245.062V39.0017H239.703V36.8475H239.6C238.331 38.5556 236.786 39.5153 234.353 39.5153C230.306 39.5153 228.173 36.8739 228.173 32.9822" fill="#1D1F23"/>
<path d="M247.722 21.4921H253.072V23.6141H253.175C253.78 22.7772 254.58 22.0996 255.506 21.6395C256.432 21.1793 257.456 20.9505 258.49 20.9727C263.154 20.9727 266 24.9729 266 30.2381C266 35.9141 262.948 39.5387 258.349 39.5387C256.086 39.5387 254.476 38.6583 253.378 37.1908H253.311V44.7834H247.719L247.722 21.4921ZM260.329 30.4523C260.329 27.4441 259.199 25.463 256.798 25.463C254.396 25.463 253.131 27.6172 253.131 30.4523C253.131 33.2874 254.499 35.2391 256.901 35.2391C259.025 35.2391 260.329 33.4283 260.329 30.4523Z" fill="#1D1F23"/>
<path d="M169.39 42.9696H167.586V41.6694H172.75V42.9696H170.926V47.8591H169.39V42.9696Z" fill="#39AAE1"/>
<path d="M173.239 41.6694H174.654V43.9733H174.693C174.837 43.7578 175.034 43.5827 175.265 43.4645C175.497 43.3464 175.754 43.2892 176.014 43.2983C176.985 43.2983 177.559 43.9909 177.559 44.977V47.8591H176.143V45.2617C176.143 44.7951 175.908 44.4752 175.449 44.4752C174.99 44.4752 174.669 44.8655 174.669 45.4114V47.8591H173.254L173.239 41.6694Z" fill="#39AAE1"/>
<path d="M177.989 45.6344C177.972 45.3278 178.02 45.0211 178.128 44.7336C178.236 44.446 178.402 44.1839 178.617 43.9634C178.831 43.743 179.089 43.5691 179.374 43.4527C179.658 43.3362 179.964 43.2796 180.272 43.2865C180.83 43.2709 181.373 43.4682 181.791 43.8383C182.32 44.3255 182.582 45.0944 182.574 45.9954H179.378C179.466 46.5824 179.795 46.9669 180.378 46.9669C180.532 46.9785 180.686 46.9421 180.818 46.8627C180.951 46.7833 181.055 46.6648 181.117 46.5237H182.494C182.384 46.9524 182.119 47.3254 181.75 47.5714C181.341 47.8496 180.855 47.9923 180.361 47.9794C180.046 47.997 179.731 47.9485 179.436 47.837C179.142 47.7255 178.874 47.5535 178.65 47.3321C178.427 47.1107 178.252 46.8449 178.138 46.5519C178.024 46.259 177.973 45.9454 177.989 45.6315V45.6344ZM181.14 45.1648C181.143 44.939 181.056 44.7214 180.898 44.5593C180.74 44.3972 180.525 44.3037 180.299 44.299C179.76 44.299 179.484 44.6366 179.386 45.1648H181.14Z" fill="#39AAE1"/>
<path d="M184.486 41.6695H187.482C188 41.6385 188.512 41.7891 188.93 42.0951C189.104 42.2369 189.242 42.4163 189.336 42.6198C189.429 42.8233 189.475 43.0453 189.469 43.269C189.478 43.5404 189.397 43.8072 189.237 44.0269C189.077 44.2466 188.848 44.4065 188.586 44.4811V44.5075C188.913 44.6012 189.2 44.8008 189.402 45.0749C189.603 45.3491 189.707 45.6822 189.698 46.0219C189.713 46.2866 189.663 46.5509 189.553 46.7922C189.442 47.0334 189.275 47.2445 189.065 47.4072C188.619 47.721 188.08 47.876 187.535 47.8474H184.486V41.6695ZM187.256 44.1201C187.7 44.1201 188 43.903 188 43.4979C188 43.0929 187.706 42.8816 187.264 42.8816H186.005V44.1231L187.256 44.1201ZM187.376 46.6295C187.879 46.6295 188.194 46.336 188.194 45.9046C188.194 45.4115 187.829 45.1591 187.362 45.1591H186.005V46.6265L187.376 46.6295Z" fill="#E31013"/>
<path d="M190.116 45.6344C190.1 45.3277 190.147 45.021 190.255 44.7335C190.363 44.446 190.53 44.1838 190.744 43.9634C190.958 43.743 191.216 43.5691 191.501 43.4526C191.786 43.3361 192.092 43.2796 192.4 43.2864C192.958 43.2714 193.501 43.4687 193.918 43.8382C194.448 44.3254 194.707 45.0943 194.698 45.9953H191.505C191.59 46.5823 191.92 46.9668 192.503 46.9668C192.656 46.9792 192.81 46.943 192.942 46.8635C193.074 46.784 193.178 46.6651 193.238 46.5236H194.621C194.51 46.9527 194.244 47.3257 193.874 47.5714C193.465 47.8495 192.979 47.9923 192.485 47.9793C192.171 47.9966 191.856 47.9477 191.562 47.836C191.268 47.7243 191 47.5522 190.777 47.3309C190.554 47.1096 190.379 46.8439 190.265 46.5511C190.152 46.2584 190.101 45.945 190.116 45.6314V45.6344ZM193.268 45.1648C193.27 44.9385 193.183 44.7205 193.024 44.5583C192.866 44.396 192.65 44.3028 192.423 44.299C191.888 44.299 191.608 44.6365 191.514 45.1648H193.268Z" fill="#E31013"/>
<path d="M194.91 46.424H196.246C196.253 46.5219 196.281 46.6172 196.327 46.7041C196.373 46.7909 196.436 46.8675 196.512 46.9291C196.589 46.9907 196.678 47.036 196.772 47.0622C196.867 47.0884 196.967 47.0949 197.064 47.0814C197.488 47.0814 197.759 46.9259 197.759 46.6382C197.759 46.242 197.22 46.198 196.629 46.0953C195.857 45.9632 195.031 45.7578 195.031 44.7159C195.031 43.7826 195.899 43.2983 196.949 43.2983C198.209 43.2983 198.886 43.8442 198.956 44.7159H197.647C197.597 44.3197 197.326 44.1964 196.935 44.1964C196.59 44.1964 196.32 44.3285 196.32 44.6044C196.32 44.8802 196.823 44.9595 197.388 45.0651C198.168 45.1943 199.089 45.3938 199.089 46.5326C199.089 47.5011 198.229 48 197.067 48C195.763 48 194.948 47.413 194.904 46.424" fill="#E31013"/>
<path d="M199.774 46.6909V44.3107H199.186V43.4302H199.774V42.0273H201.155V43.4302H201.961V44.3107H201.155V46.3886C201.155 46.7349 201.346 46.82 201.649 46.82C201.77 46.82 201.908 46.82 201.961 46.82V47.8531C201.707 47.9047 201.449 47.9274 201.19 47.9206C200.363 47.9206 199.774 47.6535 199.774 46.6997" fill="#E31013"/>
<path d="M205.451 41.6694H203.915V47.8591H205.451V41.6694Z" fill="#39AAE1"/>
<path d="M206.219 43.4273H207.582V44.0348H207.608C207.751 43.8023 207.954 43.6117 208.195 43.4823C208.435 43.353 208.706 43.2894 208.98 43.2982C209.951 43.2982 210.525 43.9908 210.525 44.9769V47.859H209.124V45.2616C209.124 44.7949 208.891 44.475 208.429 44.475C207.967 44.475 207.649 44.8654 207.649 45.4113V47.859H206.234L206.219 43.4273Z" fill="#39AAE1"/>
<path d="M212.602 41.6696H215.398C216.018 41.6353 216.626 41.8462 217.09 42.2566C217.295 42.4528 217.457 42.6897 217.565 42.952C217.673 43.2144 217.725 43.4964 217.717 43.7798C217.717 44.9538 216.89 45.8049 215.616 45.8049H214.165V47.8593H212.602V41.6696ZM215.304 44.5781C215.418 44.593 215.535 44.5825 215.644 44.5474C215.754 44.5122 215.855 44.4533 215.939 44.3747C216.024 44.2962 216.09 44.2001 216.132 44.0931C216.175 43.9862 216.194 43.8712 216.187 43.7563C216.187 43.2633 215.863 42.961 215.304 42.961H214.165V44.5781H215.304Z" fill="#39AAE1"/>
<path d="M218.179 43.4277H219.533V44.1232H219.559C219.665 43.892 219.837 43.6967 220.053 43.5612C220.269 43.4257 220.52 43.3558 220.775 43.3602C220.868 43.3535 220.962 43.3655 221.051 43.3954V44.6075H221.019C220.151 44.4872 219.594 44.901 219.594 45.8724V47.8623H218.179V43.4277Z" fill="#39AAE1"/>
<path d="M221.166 46.6236C221.166 45.6434 221.949 45.3499 222.867 45.2296C223.703 45.1239 223.997 45.0388 223.997 44.7365C223.997 44.4342 223.814 44.2581 223.388 44.2581C222.961 44.2581 222.711 44.4577 222.67 44.8304H221.366C221.401 44.0087 222.034 43.3072 223.382 43.3072C223.889 43.2664 224.395 43.3944 224.821 43.6712C225.012 43.8191 225.163 44.0116 225.262 44.2317C225.36 44.4518 225.403 44.6927 225.386 44.9332V47.1666C225.386 47.5217 225.421 47.7213 225.542 47.8005V47.8592H224.171C224.088 47.7067 224.038 47.5389 224.023 47.3662H224.006C223.857 47.573 223.657 47.7377 223.426 47.8442C223.194 47.9507 222.939 47.9953 222.684 47.9737C221.802 47.9737 221.166 47.4953 221.166 46.6236ZM224.032 46.2773V45.749C223.798 45.8531 223.554 45.9309 223.302 45.9809C222.755 46.1042 222.528 46.2421 222.528 46.5679C222.528 46.8937 222.79 47.0609 223.138 47.0609C223.249 47.0715 223.361 47.0589 223.468 47.0238C223.574 46.9887 223.672 46.932 223.755 46.8571C223.838 46.7823 223.904 46.6911 223.95 46.5893C223.996 46.4874 224.02 46.3772 224.02 46.2656" fill="#39AAE1"/>
<path d="M225.874 45.6523C225.859 45.3421 225.909 45.0322 226.02 44.7422C226.131 44.4522 226.302 44.1884 226.52 43.9676C226.739 43.7468 227.002 43.5738 227.291 43.4596C227.581 43.3455 227.891 43.2926 228.202 43.3043C229.409 43.3043 230.18 44.0058 230.309 45.0007H228.947C228.929 44.8206 228.845 44.6535 228.711 44.532C228.576 44.4104 228.401 44.3432 228.22 44.3433C227.611 44.3433 227.308 44.8452 227.308 45.6493C227.308 46.4535 227.602 46.9407 228.22 46.9407C228.661 46.9407 228.929 46.6795 228.991 46.1776H230.345C230.309 47.1989 229.494 47.9972 228.235 47.9972C227.922 48.0105 227.61 47.9589 227.318 47.8456C227.026 47.7323 226.762 47.5598 226.54 47.3391C226.319 47.1184 226.146 46.8542 226.032 46.5633C225.919 46.2724 225.867 45.9612 225.88 45.6493" fill="#39AAE1"/>
<path d="M231.145 46.6909V44.3107H230.556V43.4302H231.145V42.0273H232.525V43.4302H233.335V44.3107H232.525V46.3886C232.525 46.7349 232.717 46.82 233.02 46.82C233.143 46.82 233.282 46.82 233.335 46.82V47.8531C233.08 47.9045 232.82 47.9271 232.561 47.9206C231.737 47.9206 231.145 47.6535 231.145 46.6997" fill="#39AAE1"/>
<path d="M233.844 41.6694H235.259V42.8111H233.844V41.6694ZM233.844 43.4304H235.259V47.862H233.844V43.4304Z" fill="#39AAE1"/>
<path d="M235.742 45.6519C235.726 45.3416 235.775 45.0315 235.886 44.7413C235.997 44.4511 236.168 44.1871 236.387 43.9662C236.606 43.7453 236.868 43.5724 237.158 43.4584C237.448 43.3443 237.758 43.2918 238.07 43.304C239.276 43.304 240.047 44.0054 240.177 45.0003H238.814C238.796 44.8198 238.712 44.6522 238.577 44.5306C238.442 44.409 238.266 44.3421 238.084 44.3429C237.478 44.3429 237.175 44.8448 237.175 45.6489C237.175 46.4531 237.469 46.9403 238.084 46.9403C238.529 46.9403 238.796 46.6791 238.858 46.1772H240.212C240.177 47.1986 239.361 47.9969 238.102 47.9969C237.789 48.0106 237.477 47.9593 237.185 47.8461C236.893 47.733 236.628 47.5605 236.407 47.3397C236.185 47.1189 236.012 46.8545 235.899 46.5635C235.785 46.2724 235.734 45.9609 235.748 45.6489" fill="#39AAE1"/>
<path d="M240.468 45.6344C240.451 45.3279 240.498 45.0213 240.606 44.7338C240.714 44.4462 240.88 44.184 241.094 43.9636C241.308 43.7431 241.566 43.5692 241.85 43.4527C242.135 43.3361 242.441 43.2796 242.749 43.2865C243.308 43.271 243.852 43.4683 244.27 43.8383C244.8 44.3254 245.059 45.0944 245.05 45.9954H241.857C241.942 46.5824 242.272 46.9668 242.855 46.9668C243.008 46.9787 243.162 46.9424 243.294 46.863C243.426 46.7835 243.529 46.6648 243.59 46.5237H244.971C244.861 46.953 244.596 47.3264 244.226 47.5714C243.817 47.8495 243.331 47.9923 242.837 47.9794C242.524 47.9945 242.211 47.9441 241.918 47.8314C241.626 47.7188 241.36 47.5463 241.139 47.3252C240.917 47.1041 240.744 46.8392 240.631 46.5475C240.518 46.2558 240.468 45.9438 240.483 45.6315L240.468 45.6344ZM243.632 45.1648C243.634 44.939 243.547 44.7214 243.389 44.5593C243.232 44.3972 243.016 44.3037 242.79 44.299C242.251 44.299 241.975 44.6365 241.878 45.1648H243.632Z" fill="#39AAE1"/>
<path d="M1.65388 0.478516V3.32829H4.97928V0.478516H5.86213V7.31973H4.97928V4.1119H1.65388V7.31973H0.771027V0.478516H1.65388Z" fill="#1D1D1B"/>
<path d="M11.5153 5.96969C11.5153 6.47742 11.5153 6.92646 11.5565 7.31093H10.7767L10.7237 6.5097H10.7061C10.5404 6.79719 10.3003 7.03496 10.0109 7.19813C9.72148 7.36129 9.3934 7.44384 9.06101 7.43713C8.28704 7.43713 7.36005 7.01157 7.36005 5.28586V2.40674H8.2429V5.12737C8.2429 6.06067 8.53718 6.69167 9.34058 6.69167C9.59502 6.68587 9.84216 6.60576 10.0514 6.46125C10.2606 6.31675 10.4228 6.1142 10.5177 5.8787C10.5711 5.73196 10.598 5.57696 10.5972 5.42086V2.40674H11.4947L11.5153 5.96969Z" fill="#1D1D1B"/>
<path d="M15.0997 4.24365V4.904H12.5836V4.24365H15.0997Z" fill="#1D1D1B"/>
<path d="M16.2709 0.478516H19.9642V1.21811H17.1567V3.49264H19.7523V4.22342H17.1567V7.31973H16.2739L16.2709 0.478516Z" fill="#1D1D1B"/>
<path d="M20.7823 3.93859C20.7823 3.35161 20.7823 2.86442 20.7411 2.40658H21.5268L21.5563 3.36922H21.5975C21.6811 3.0687 21.8585 2.80256 22.104 2.60941C22.3496 2.41627 22.6504 2.30616 22.9629 2.29505C23.0482 2.29364 23.1333 2.30351 23.216 2.3244V3.16671C23.1193 3.14608 23.0206 3.13623 22.9217 3.13737C22.292 3.13737 21.8447 3.61282 21.7211 4.2849C21.6956 4.42241 21.6818 4.56183 21.6799 4.70166V7.31957H20.797L20.7823 3.93859Z" fill="#1D1D1B"/>
<path d="M24.9435 1.02428C24.9462 1.09834 24.9332 1.17213 24.9053 1.24081C24.8774 1.30949 24.8352 1.3715 24.7816 1.42278C24.7279 1.47406 24.664 1.51344 24.594 1.53834C24.5241 1.56323 24.4496 1.57308 24.3755 1.56723C24.3033 1.56847 24.2316 1.55505 24.1648 1.52779C24.0979 1.50053 24.0374 1.46001 23.9867 1.40867C23.9361 1.35734 23.8964 1.29628 23.8702 1.22919C23.8439 1.1621 23.8316 1.09039 23.834 1.01841C23.8324 0.944492 23.8459 0.871013 23.8736 0.802433C23.9013 0.733854 23.9427 0.671603 23.9952 0.619458C24.0478 0.567313 24.1104 0.526361 24.1793 0.499085C24.2483 0.471809 24.322 0.458779 24.3961 0.460784C24.4702 0.458151 24.5441 0.471066 24.6128 0.498691C24.6816 0.526316 24.7438 0.568038 24.7954 0.621155C24.847 0.674271 24.8869 0.7376 24.9124 0.807043C24.9379 0.876486 24.9485 0.950496 24.9435 1.02428ZM23.9459 7.3196V2.40661H24.8434V7.3196H23.9459Z" fill="#1D1D1B"/>
<path d="M26.8063 5.02437C26.8269 6.23354 27.6009 6.72953 28.4984 6.72953C28.9655 6.74402 29.4302 6.65793 29.861 6.47713L30.014 7.11694C29.4943 7.32831 28.9358 7.4283 28.3748 7.41043C26.8593 7.41043 25.9529 6.4155 25.9529 4.93339C25.9529 3.45127 26.8357 2.29199 28.263 2.29199C29.8727 2.29199 30.2994 3.70367 30.2994 4.60468C30.2976 4.74404 30.2877 4.88318 30.27 5.02143L26.8063 5.02437ZM29.4343 4.38456C29.4343 3.81813 29.1988 2.93473 28.1924 2.93473C27.286 2.93473 26.8887 3.7653 26.8181 4.38456H29.4343Z" fill="#1D1D1B"/>
<path d="M35.623 0.0996094V6.05155C35.623 6.48591 35.623 6.98484 35.6642 7.31942H34.8608L34.8196 6.4683H34.799C34.6389 6.77128 34.3963 7.02296 34.099 7.19432C33.8016 7.36568 33.4618 7.44975 33.1187 7.43682C31.9415 7.43682 31.0116 6.43309 31.0116 4.93923C31.0116 3.3045 32.021 2.29784 33.2217 2.29784C33.5116 2.28244 33.8004 2.34383 34.0589 2.47579C34.3173 2.60775 34.5361 2.80558 34.6931 3.04917H34.7137V0.0996094H35.623ZM34.7402 4.39334C34.741 4.26695 34.7272 4.14089 34.699 4.01768C34.635 3.72364 34.4718 3.46038 34.2367 3.27183C34.0016 3.08329 33.7088 2.98087 33.4071 2.98166C32.4801 2.98166 31.9356 3.79463 31.9356 4.88053C31.9356 5.87546 32.4242 6.70016 33.3924 6.70016C33.7008 6.69919 33.9995 6.59252 34.2385 6.39803C34.4774 6.20353 34.6421 5.93303 34.7049 5.63186C34.7342 5.50585 34.748 5.37674 34.7461 5.24739L34.7402 4.39334Z" fill="#1D1D1B"/>
<path d="M37.377 2.40674L38.454 5.30934C38.5659 5.63511 38.6895 6.01958 38.7719 6.316H38.7895C38.8837 6.02251 38.9837 5.64391 39.1073 5.28879L40.0844 2.40674H41.0319L39.6871 5.90805C39.0455 7.59267 38.6071 8.45847 37.9979 8.98381C37.6884 9.27156 37.3091 9.47387 36.8973 9.57079L36.6736 8.81359C36.9596 8.71771 37.2251 8.5694 37.4564 8.37629C37.7812 8.10713 38.0391 7.76658 38.2098 7.38136C38.247 7.31493 38.2719 7.24236 38.2833 7.16712C38.275 7.08708 38.2542 7.00885 38.2215 6.93526L36.3999 2.40674H37.377Z" fill="#1D1D1B"/>
<path d="M40.7671 8.56991C41.0408 7.77972 41.2465 6.96774 41.3822 6.14276L42.3798 6.04004C42.148 6.89503 41.8244 7.72257 41.4145 8.50828L40.7671 8.56991Z" fill="#1D1D1B"/>
<path d="M51.5055 3.82693C51.5055 6.17483 50.0724 7.43096 48.3214 7.43096C46.5086 7.43096 45.2373 6.03102 45.2373 3.959C45.2373 1.78718 46.591 0.366699 48.4214 0.366699C50.296 0.366699 51.5055 1.79599 51.5055 3.82693ZM46.1819 3.93845C46.1819 5.40589 46.9765 6.71191 48.3714 6.71191C49.7663 6.71191 50.5697 5.42057 50.5697 3.86801C50.5697 2.50623 49.8575 1.08575 48.3802 1.08575C46.9029 1.08575 46.1819 2.44753 46.1819 3.93845Z" fill="#1D1D1B"/>
<path d="M52.6473 3.73626C52.6473 3.22853 52.6473 2.81178 52.6061 2.40676H53.3919L53.4331 3.19918H53.4625C53.6102 2.91942 53.8334 2.68648 54.107 2.52672C54.3806 2.36697 54.6935 2.28678 55.0104 2.29524C55.3166 2.29401 55.6155 2.38807 55.8656 2.56431C56.1156 2.74054 56.3043 2.99018 56.4053 3.27842H56.4259C56.5628 3.02848 56.7514 2.8104 56.9792 2.63862C57.2911 2.40134 57.6761 2.27991 58.068 2.29524C58.7214 2.29524 59.6866 2.7208 59.6866 4.42596V7.31975H58.8038V4.53749C58.8038 3.59539 58.4565 3.02602 57.7355 3.02602C57.4964 3.03592 57.2662 3.11937 57.0765 3.26492C56.8868 3.41048 56.7469 3.611 56.6761 3.83899C56.6291 3.98304 56.6052 4.1336 56.6055 4.28509V7.31975H55.7226V4.38487C55.7226 3.60419 55.3783 3.03483 54.6956 3.03483C54.4419 3.04864 54.1988 3.14082 54 3.29858C53.8012 3.45634 53.6566 3.67187 53.5861 3.91529C53.5367 4.05572 53.5128 4.2038 53.5155 4.35259V7.31975H52.6326L52.6473 3.73626Z" fill="#1D1D1B"/>
<path d="M61.1492 3.73615C61.1492 3.22842 61.1492 2.81166 61.108 2.40665H61.9026L61.9526 3.21961H61.982C62.1432 2.9317 62.3803 2.69331 62.6677 2.53033C62.9552 2.36735 63.2818 2.28601 63.6123 2.29512C64.2921 2.29512 65.3516 2.70014 65.3516 4.38476V7.31964H64.4687V4.50215C64.4687 3.70974 64.1744 3.03471 63.3269 3.03471C62.9844 3.04919 62.6611 3.19609 62.4254 3.44427C62.1898 3.69246 62.0603 4.02242 62.0644 4.36421V7.31964H61.1816L61.1492 3.73615Z" fill="#1D1D1B"/>
<path d="M67.7971 1.02426C67.7998 1.09831 67.7868 1.1721 67.7588 1.24078C67.7309 1.30946 67.6888 1.37148 67.6352 1.42276C67.5815 1.47403 67.5176 1.51342 67.4476 1.53831C67.3776 1.56321 67.3032 1.57306 67.2291 1.56721C67.1576 1.56802 67.0868 1.55448 67.0207 1.5274C66.9546 1.50033 66.8946 1.46027 66.8444 1.40961C66.7942 1.35895 66.7546 1.29873 66.7282 1.23253C66.7018 1.16632 66.689 1.0955 66.6906 1.02426C66.689 0.950591 66.7023 0.877361 66.7299 0.808982C66.7574 0.740604 66.7985 0.678492 66.8507 0.626389C66.903 0.574285 66.9653 0.53327 67.0338 0.505813C67.1024 0.478357 67.1758 0.465029 67.2497 0.466631C67.3233 0.464067 67.3966 0.47683 67.4649 0.504103C67.5333 0.531377 67.5952 0.572563 67.6467 0.625033C67.6982 0.677503 67.7382 0.740105 67.7641 0.808843C67.79 0.877582 67.8012 0.950948 67.7971 1.02426ZM66.7994 7.31958V2.40659H67.697V7.31958H66.7994Z" fill="#1D1D1B"/>
<path d="M71.8905 7.31968L71.8199 6.70042H71.7875C71.6137 6.93431 71.3861 7.12325 71.124 7.25141C70.8618 7.37958 70.5727 7.44324 70.2808 7.43708C70.087 7.45131 69.8923 7.42525 69.7091 7.36056C69.5259 7.29586 69.3582 7.19393 69.2166 7.06123C69.075 6.92853 68.9625 6.76794 68.8863 6.58964C68.8101 6.41133 68.7719 6.2192 68.7741 6.0254C68.7741 4.85144 69.8335 4.18816 71.7375 4.1999V4.09131C71.7375 3.6863 71.6257 2.95551 70.6192 2.95551C70.1662 2.95939 69.7231 3.08841 69.3391 3.32824L69.1331 2.74126C69.6213 2.44806 70.1818 2.29661 70.7517 2.30397C72.2584 2.30397 72.6262 3.32824 72.6262 4.31436V6.1516C72.6198 6.54455 72.6474 6.93732 72.7086 7.32555L71.8905 7.31968ZM71.7581 4.81329C70.7811 4.79275 69.6716 4.96591 69.6716 5.91974C69.6625 6.03308 69.6779 6.14706 69.717 6.25388C69.7561 6.3607 69.8178 6.45784 69.898 6.53866C69.9782 6.61948 70.075 6.68207 70.1817 6.72214C70.2884 6.76222 70.4025 6.77884 70.5162 6.77086C70.7766 6.77777 71.0325 6.70187 71.2468 6.55413C71.461 6.40639 71.6226 6.19449 71.7081 5.94909C71.7398 5.85442 71.7567 5.75542 71.7581 5.6556V4.81329Z" fill="#1D1D1B"/>
<path d="M73.4885 8.56991C73.7612 7.77963 73.966 6.96766 74.1006 6.14276L75.0982 6.04004C74.8643 6.89474 74.5397 7.72216 74.13 8.50828L73.4885 8.56991Z" fill="#1D1D1B"/>
<path d="M81.0634 7.3197L80.9927 6.70044H80.9604C80.7865 6.93433 80.5589 7.12327 80.2968 7.25144C80.0346 7.3796 79.7455 7.44327 79.4536 7.4371C79.2601 7.4509 79.0657 7.42453 78.8829 7.35964C78.7 7.29475 78.5327 7.19276 78.3914 7.0601C78.2501 6.92744 78.1379 6.767 78.0619 6.58891C77.9859 6.41082 77.9477 6.21895 77.9499 6.02542C77.9499 4.85147 79.0063 4.18818 80.9103 4.19992V4.09133C80.9103 3.68632 80.7985 2.95553 79.7921 2.95553C79.338 2.95887 78.8938 3.08791 78.509 3.32826L78.3059 2.74129C78.794 2.44779 79.3546 2.29632 79.9245 2.30399C81.4312 2.30399 81.7961 3.32826 81.7961 4.31438V6.15162C81.7897 6.54457 81.8172 6.93735 81.8785 7.32557L81.0634 7.3197ZM80.9309 4.81331C79.9539 4.79277 78.8445 4.96593 78.8445 5.91976C78.8353 6.0331 78.8508 6.14708 78.8898 6.2539C78.9289 6.36072 78.9907 6.45786 79.0709 6.53868C79.1511 6.6195 79.2478 6.68209 79.3545 6.72216C79.4612 6.76224 79.5753 6.77886 79.6891 6.77088C79.9495 6.77779 80.2053 6.70189 80.4196 6.55415C80.6338 6.40641 80.7954 6.19451 80.8809 5.94911C80.9126 5.85444 80.9295 5.75544 80.9309 5.65562V4.81331Z" fill="#1D1D1B"/>
<path d="M83.2234 3.73612C83.2234 3.22838 83.2234 2.81163 83.1822 2.40662H83.9768L84.0268 3.21958H84.0533C84.214 2.9319 84.4506 2.69363 84.7375 2.53064C85.0244 2.36766 85.3506 2.28619 85.6807 2.29509C86.3634 2.29509 87.4228 2.70011 87.4228 4.38473V7.31961H86.5253V4.50212C86.5253 3.70971 86.231 3.03468 85.3864 3.03468C85.044 3.04915 84.7206 3.19605 84.485 3.44424C84.2493 3.69243 84.1198 4.02239 84.1239 4.36418V7.31961H83.2411L83.2234 3.73612Z" fill="#1D1D1B"/>
<path d="M93.129 0.0996094V6.05155C93.129 6.48591 93.129 6.98484 93.1702 7.31942H92.3638L92.3226 6.4683H92.2932C92.1332 6.76877 91.8922 7.01866 91.5974 7.18979C91.3025 7.36092 90.9656 7.44648 90.6246 7.43681C89.4328 7.43681 88.5176 6.43309 88.5176 4.93923C88.5176 3.3045 89.524 2.29784 90.7247 2.29784C91.0156 2.27824 91.3066 2.33613 91.5677 2.46557C91.8289 2.59501 92.0508 2.79136 92.2108 3.03449H92.2314V0.0996094H93.129ZM92.2461 4.39334C92.248 4.26707 92.2352 4.141 92.2079 4.01768C92.1428 3.72365 91.9789 3.46063 91.7434 3.27221C91.5079 3.08379 91.2149 2.98128 90.913 2.98166C89.986 2.98166 89.4416 3.79463 89.4416 4.88053C89.4416 5.87546 89.9301 6.70016 90.8954 6.70016C91.204 6.69878 91.5029 6.59201 91.7422 6.39764C91.9816 6.20327 92.1469 5.93302 92.2108 5.63186C92.2391 5.50572 92.252 5.37662 92.2491 5.24739L92.2461 4.39334Z" fill="#1D1D1B"/>
<path d="M101.598 7.0964C101.025 7.33594 100.407 7.45195 99.7857 7.43685C97.8522 7.43685 96.4132 6.2042 96.4132 3.95901C96.4132 1.81655 97.867 0.366715 99.9946 0.366715C100.553 0.341075 101.111 0.441393 101.625 0.660204L101.41 1.38218C100.976 1.18389 100.504 1.08367 100.027 1.0887C98.4173 1.0887 97.349 2.11297 97.349 3.91205C97.349 5.58494 98.3143 6.66204 99.9976 6.66204C100.495 6.6667 100.987 6.56669 101.442 6.36855L101.598 7.0964Z" fill="#1D1D1B"/>
<path d="M102.658 3.93862C102.658 3.35165 102.658 2.86446 102.617 2.40662H103.402L103.432 3.36926H103.476C103.559 3.0692 103.736 2.8034 103.981 2.6103C104.226 2.41719 104.527 2.3068 104.839 2.29509C104.925 2.29349 105.011 2.30336 105.095 2.32444V3.16675C104.998 3.14611 104.899 3.13627 104.8 3.1374C104.171 3.1374 103.723 3.61285 103.6 4.28494C103.574 4.42245 103.56 4.56186 103.558 4.70169V7.31961H102.676L102.658 3.93862Z" fill="#1D1D1B"/>
<path d="M110.315 4.82186C110.315 6.63855 109.053 7.43097 107.861 7.43097C106.528 7.43097 105.507 6.45658 105.507 4.90403C105.507 3.25756 106.587 2.29492 107.952 2.29492C109.362 2.29492 110.315 3.328 110.315 4.82186ZM106.419 4.87175C106.419 5.94885 107.04 6.76181 107.917 6.76181C108.794 6.76181 109.412 5.96059 109.412 4.85414C109.412 4.02063 108.997 2.96407 107.94 2.96407C106.884 2.96407 106.419 3.93846 106.419 4.87175Z" fill="#1D1D1B"/>
<path d="M111.272 6.4067C111.625 6.62699 112.032 6.74955 112.449 6.76182C113.102 6.76182 113.408 6.43605 113.408 6.03103C113.408 5.62602 113.152 5.37069 112.49 5.12709C111.607 4.81306 111.189 4.32587 111.189 3.73596C111.189 2.94354 111.828 2.29493 112.887 2.29493C113.31 2.28643 113.728 2.38756 114.1 2.58842L113.876 3.23702C113.574 3.04694 113.224 2.94526 112.867 2.94354C112.337 2.94354 112.043 3.23703 112.043 3.61269C112.043 3.98836 112.337 4.19967 112.978 4.4462C113.835 4.77197 114.273 5.19753 114.273 5.91364C114.273 6.77649 113.599 7.38108 112.431 7.38108C111.948 7.38986 111.471 7.27465 111.045 7.0465L111.272 6.4067Z" fill="#1D1D1B"/>
<path d="M115.303 6.4067C115.657 6.62699 116.063 6.74955 116.48 6.76182C117.134 6.76182 117.44 6.43605 117.44 6.03103C117.44 5.62602 117.184 5.37069 116.522 5.12709C115.639 4.81306 115.221 4.32587 115.221 3.73596C115.221 2.94354 115.859 2.29493 116.919 2.29493C117.342 2.28643 117.759 2.38756 118.131 2.58842L117.908 3.23702C117.605 3.04694 117.256 2.94526 116.898 2.94354C116.369 2.94354 116.074 3.23703 116.074 3.61269C116.074 3.98836 116.369 4.19967 117.01 4.4462C117.866 4.77197 118.305 5.19753 118.305 5.91364C118.305 6.77649 117.631 7.38108 116.463 7.38108C115.98 7.38986 115.502 7.27465 115.077 7.0465L115.303 6.4067Z" fill="#1D1D1B"/>
<path d="M120.415 0.995117V2.4068H121.698V3.08769H120.415V5.72908C120.415 6.33954 120.589 6.68585 121.086 6.68585C121.261 6.68772 121.437 6.66701 121.607 6.62422L121.645 7.29337C121.391 7.3828 121.123 7.4246 120.853 7.41664C120.674 7.42726 120.495 7.39919 120.328 7.33435C120.161 7.26951 120.01 7.16944 119.885 7.04098C119.632 6.77684 119.538 6.33954 119.538 5.76137V3.08769H118.779V2.4068H119.541V1.23284L120.415 0.995117Z" fill="#1D1D1B"/>
<path d="M123.011 5.02437C123.031 6.23354 123.805 6.72953 124.7 6.72953C125.168 6.74398 125.633 6.6579 126.065 6.47713L126.218 7.11694C125.698 7.32806 125.14 7.42804 124.579 7.41043C123.061 7.41043 122.157 6.4155 122.157 4.93339C122.157 3.45127 123.04 2.29199 124.467 2.29199C126.074 2.29199 126.504 3.70367 126.504 4.60468C126.503 4.74418 126.492 4.88344 126.471 5.02143L123.011 5.02437ZM125.638 4.38456C125.638 3.81813 125.403 2.93473 124.397 2.93473C123.49 2.93473 123.093 3.7653 123.022 4.38456H125.638Z" fill="#1D1D1B"/>
<path d="M127.663 2.40674L128.366 3.4633C128.549 3.73624 128.702 3.98864 128.864 4.26452H128.896C129.058 3.97103 129.223 3.71569 129.385 3.45156L130.076 2.40674H131.044L129.373 4.79573L131.103 7.3344H130.085L129.361 6.22795C129.17 5.93447 129.005 5.67033 128.834 5.3739H128.814C128.649 5.66739 128.478 5.93447 128.293 6.22795L127.581 7.3344H126.595L128.361 4.82802L126.689 2.42141L127.663 2.40674Z" fill="#1D1D1B"/>
<path d="M136.848 7.31968L136.777 6.70042H136.745C136.571 6.93431 136.343 7.12325 136.081 7.25141C135.819 7.37958 135.53 7.44324 135.238 7.43708C135.044 7.45131 134.85 7.42525 134.666 7.36056C134.483 7.29586 134.315 7.19393 134.174 7.06123C134.032 6.92853 133.92 6.76794 133.844 6.58964C133.767 6.41133 133.729 6.2192 133.731 6.0254C133.731 4.85144 134.791 4.18816 136.695 4.1999V4.09131C136.695 3.6863 136.583 2.95551 135.574 2.95551C135.12 2.95924 134.677 3.08827 134.293 3.32824L134.087 2.74126C134.576 2.44806 135.136 2.29661 135.706 2.30397C137.213 2.30397 137.581 3.32824 137.581 4.31436V6.1516C137.574 6.54455 137.602 6.93732 137.663 7.32555L136.848 7.31968ZM136.73 4.81329C135.753 4.79275 134.644 4.96591 134.644 5.91974C134.634 6.03308 134.65 6.14706 134.689 6.25388C134.728 6.3607 134.79 6.45784 134.87 6.53866C134.95 6.61948 135.047 6.68207 135.154 6.72214C135.26 6.76222 135.374 6.77884 135.488 6.77086C135.746 6.77464 135.999 6.69728 136.21 6.54976C136.421 6.40224 136.581 6.19206 136.665 5.94909C136.697 5.85442 136.714 5.75542 136.715 5.6556L136.73 4.81329Z" fill="#1D1D1B"/>
<path d="M139.005 3.93859C139.005 3.35161 139.005 2.86442 138.967 2.40658H139.749L139.779 3.36922H139.82C139.904 3.0687 140.081 2.80256 140.327 2.60941C140.572 2.41627 140.873 2.30616 141.186 2.29505C141.271 2.29364 141.356 2.30351 141.439 2.3244V3.16671C141.342 3.14608 141.243 3.13623 141.144 3.13737C140.515 3.13737 140.067 3.61282 139.944 4.2849C139.918 4.42241 139.904 4.56183 139.902 4.70166V7.31957H139.02L139.005 3.93859Z" fill="#1D1D1B"/>
<path d="M142.713 5.02437C142.733 6.23354 143.504 6.72953 144.402 6.72953C144.869 6.74402 145.334 6.65793 145.765 6.47713L145.918 7.11694C145.398 7.32831 144.839 7.4283 144.278 7.41043C142.763 7.41043 141.856 6.4155 141.856 4.93339C141.856 3.45127 142.739 2.29199 144.167 2.29199C145.776 2.29199 146.203 3.70367 146.203 4.60468C146.201 4.74404 146.191 4.88318 146.174 5.02143L142.713 5.02437ZM145.338 4.38456C145.338 3.81813 145.105 2.93473 144.096 2.93473C143.19 2.93473 142.792 3.7653 142.722 4.38456H145.338Z" fill="#1D1D1B"/>
<path d="M149.473 3.73615C149.473 3.22842 149.473 2.81166 149.431 2.40665H150.226L150.276 3.21961H150.297C150.458 2.9317 150.695 2.69331 150.982 2.53033C151.27 2.36735 151.596 2.28601 151.927 2.29512C152.607 2.29512 153.666 2.70014 153.666 4.38476V7.31964H152.783V4.50215C152.783 3.70974 152.489 3.03471 151.641 3.03471C151.299 3.04919 150.976 3.19609 150.74 3.44427C150.504 3.69246 150.375 4.02242 150.379 4.36421V7.31964H149.496L149.473 3.73615Z" fill="#1D1D1B"/>
<path d="M159.54 4.82186C159.54 6.63855 158.277 7.43097 157.089 7.43097C155.755 7.43097 154.734 6.45658 154.734 4.90403C154.734 3.25756 155.814 2.29492 157.177 2.29492C158.584 2.29492 159.54 3.328 159.54 4.82186ZM155.632 4.87175C155.632 5.94885 156.253 6.76181 157.13 6.76181C158.007 6.76181 158.625 5.96059 158.625 4.85414C158.625 4.02063 158.207 2.96407 157.153 2.96407C156.1 2.96407 155.632 3.93846 155.632 4.87175Z" fill="#1D1D1B"/>
<path d="M160.785 2.40674L161.45 4.90432C161.591 5.45315 161.726 5.96088 161.818 6.46862H161.847C161.959 5.96969 162.121 5.44141 162.286 4.91313L163.089 2.40674H163.842L164.605 4.86323C164.79 5.45021 164.931 5.96969 165.043 6.46862H165.075C165.17 5.92953 165.295 5.39642 165.452 4.87204L166.153 2.40674H167.035L165.437 7.31973H164.622L163.869 4.97182C163.696 4.4414 163.549 3.90266 163.43 3.35764H163.41C163.294 3.90716 163.144 4.44915 162.962 4.98063L162.168 7.32854H161.353L159.881 2.41554L160.785 2.40674Z" fill="#1D1D1B"/>
<path d="M170.078 4.00882C170.078 3.38076 170.061 2.87303 170.04 2.40638H170.843L170.885 3.24869H170.905C171.084 2.94369 171.343 2.69343 171.654 2.52523C171.966 2.35703 172.317 2.27734 172.671 2.29485C173.848 2.29485 174.757 3.29858 174.757 4.79244C174.757 6.55337 173.677 7.43383 172.518 7.43383C172.219 7.44681 171.923 7.38254 171.657 7.24728C171.391 7.11202 171.164 6.91037 170.999 6.66196H170.979V9.3327H170.096L170.078 4.00882ZM170.961 5.32072C170.963 5.44304 170.977 5.56487 171.002 5.68464C171.077 5.98212 171.249 6.24634 171.491 6.43555C171.733 6.62476 172.031 6.72818 172.338 6.72946C173.286 6.72946 173.833 5.96052 173.833 4.83353C173.833 3.84741 173.315 3.0051 172.362 3.0051C172.045 3.01447 171.741 3.12812 171.496 3.3283C171.251 3.52847 171.08 3.80389 171.008 4.11155C170.972 4.2308 170.952 4.35403 170.946 4.47841L170.961 5.32072Z" fill="#1D1D1B"/>
<path d="M175.87 3.93862C175.87 3.35165 175.87 2.86446 175.829 2.40662H176.614L176.644 3.36926H176.685C176.768 3.0692 176.945 2.8034 177.19 2.6103C177.435 2.41719 177.735 2.3068 178.047 2.29509C178.134 2.29349 178.22 2.30336 178.304 2.32444V3.16675C178.207 3.14625 178.108 3.13641 178.009 3.1374C177.379 3.1374 176.929 3.61285 176.809 4.28494C176.783 4.42245 176.769 4.56186 176.767 4.70169V7.31961H175.884L175.87 3.93862Z" fill="#1D1D1B"/>
<path d="M183.521 4.82186C183.521 6.63855 182.259 7.43097 181.07 7.43097C179.737 7.43097 178.715 6.45658 178.715 4.90403C178.715 3.25756 179.795 2.29492 181.158 2.29492C182.571 2.29492 183.521 3.328 183.521 4.82186ZM179.613 4.87175C179.613 5.94885 180.234 6.76181 181.111 6.76181C181.988 6.76181 182.606 5.96059 182.606 4.85414C182.606 4.02063 182.188 2.96407 181.134 2.96407C180.081 2.96407 179.619 3.93846 179.619 4.87175H179.613Z" fill="#1D1D1B"/>
<path d="M188.742 5.96968C188.742 6.47742 188.742 6.92646 188.783 7.31093H187.988L187.935 6.51851H187.915C187.749 6.80171 187.512 7.03601 187.226 7.19743C186.94 7.35884 186.616 7.44156 186.287 7.43713C185.513 7.43713 184.589 7.01157 184.589 5.28586V2.40674H185.472V5.12737C185.472 6.06067 185.767 6.69167 186.57 6.69167C186.824 6.68625 187.072 6.60628 187.281 6.46173C187.49 6.31718 187.652 6.11442 187.747 5.8787C187.8 5.73196 187.827 5.57695 187.827 5.42086V2.40674H188.709L188.742 5.96968Z" fill="#1D1D1B"/>
<path d="M194.483 0.0996094V6.05155C194.483 6.48591 194.483 6.98484 194.524 7.31942H193.721L193.68 6.4683H193.659C193.499 6.77105 193.256 7.02254 192.959 7.19386C192.662 7.36519 192.322 7.4494 191.979 7.43682C190.802 7.43682 189.872 6.43309 189.872 4.93923C189.872 3.3045 190.881 2.29784 192.082 2.29784C192.372 2.28244 192.661 2.34383 192.919 2.47579C193.177 2.60775 193.396 2.80558 193.553 3.04917H193.574V0.0996094H194.483ZM193.6 4.39334C193.601 4.26695 193.587 4.14089 193.559 4.01768C193.495 3.72364 193.332 3.46038 193.097 3.27183C192.862 3.08329 192.569 2.98087 192.267 2.98166C191.34 2.98166 190.796 3.79463 190.796 4.88053C190.796 5.87546 191.284 6.70016 192.267 6.70016C192.576 6.69919 192.874 6.59252 193.113 6.39803C193.352 6.20353 193.517 5.93303 193.58 5.63186C193.609 5.50585 193.623 5.37674 193.621 5.24739L193.6 4.39334Z" fill="#1D1D1B"/>
<path d="M198.129 3.73634C198.129 3.22861 198.129 2.81186 198.088 2.40684H198.871L198.912 3.19926H198.945C199.092 2.91973 199.314 2.6869 199.588 2.52714C199.861 2.36738 200.173 2.28707 200.49 2.29532C200.796 2.29143 201.097 2.38445 201.347 2.56105C201.598 2.73765 201.786 2.98879 201.884 3.2785H201.905C202.042 3.02959 202.23 2.81174 202.455 2.6387C202.767 2.40098 203.152 2.2795 203.544 2.29532C204.198 2.29532 205.163 2.72088 205.163 4.42604V7.31983H204.28V4.53757C204.28 3.59547 203.933 3.0261 203.209 3.0261C202.97 3.03659 202.741 3.12031 202.551 3.26582C202.362 3.41133 202.223 3.61154 202.152 3.83907C202.105 3.98312 202.081 4.13368 202.082 4.28517V7.31983H201.199V4.38495C201.199 3.60427 200.852 3.03491 200.172 3.03491C199.918 3.04829 199.675 3.14031 199.476 3.29813C199.277 3.45596 199.132 3.67173 199.062 3.91537C199.011 4.05526 198.986 4.2036 198.989 4.35267V7.31983H198.106L198.129 3.73634Z" fill="#1D1D1B"/>
<path d="M207.108 5.02437C207.129 6.23354 207.903 6.72953 208.8 6.72953C209.267 6.74402 209.732 6.65793 210.163 6.47713L210.316 7.11694C209.796 7.32806 209.237 7.42804 208.677 7.41043C207.161 7.41043 206.255 6.4155 206.255 4.93339C206.255 3.45127 207.137 2.29199 208.565 2.29199C210.174 2.29199 210.601 3.70367 210.601 4.60468C210.599 4.74404 210.589 4.88318 210.572 5.02143L207.108 5.02437ZM209.736 4.38456C209.736 3.81813 209.501 2.93473 208.494 2.93473C207.588 2.93473 207.19 3.7653 207.12 4.38456H209.736Z" fill="#1D1D1B"/>
<path d="M211.669 3.73626C211.669 3.22852 211.669 2.81177 211.631 2.40675H212.414L212.455 3.19917H212.485C212.632 2.91941 212.855 2.68647 213.129 2.52672C213.403 2.36696 213.716 2.28677 214.032 2.29523C214.339 2.294 214.638 2.38806 214.888 2.5643C215.138 2.74053 215.326 2.99017 215.427 3.27842H215.448C215.584 3.02978 215.771 2.81195 215.995 2.63861C216.308 2.40134 216.694 2.27996 217.087 2.29523C217.737 2.29523 218.706 2.72079 218.706 4.42595V7.31975H217.823V4.53748C217.823 3.59538 217.479 3.02602 216.755 3.02602C216.515 3.03591 216.285 3.11936 216.096 3.26491C215.906 3.41047 215.766 3.611 215.695 3.83898C215.648 3.98303 215.624 4.13359 215.625 4.28508V7.31975H214.742V4.38487C214.742 3.60419 214.394 3.03482 213.712 3.03482C213.458 3.04863 213.215 3.14081 213.016 3.29857C212.817 3.45633 212.673 3.67186 212.602 3.91528C212.553 4.05571 212.529 4.20379 212.532 4.35258V7.31975H211.649L211.669 3.73626Z" fill="#1D1D1B"/>
<path d="M220.13 7.31942C220.151 6.98484 220.171 6.48591 220.171 6.05155V0.0996094H221.054V3.19885H221.075C221.244 2.90878 221.491 2.67098 221.788 2.51152C222.084 2.35206 222.419 2.27711 222.755 2.2949C223.976 2.2949 224.841 3.31037 224.833 4.80129C224.833 6.56222 223.723 7.44269 222.623 7.44269C222.288 7.46025 221.956 7.38266 221.664 7.21898C221.372 7.05529 221.133 6.81225 220.975 6.5182H220.942L220.895 7.31942H220.13ZM221.057 5.35011C221.06 5.45979 221.074 5.5689 221.098 5.67589C221.173 5.97483 221.346 6.24013 221.59 6.4295C221.834 6.61886 222.134 6.72138 222.443 6.7207C223.379 6.7207 223.938 5.96057 223.938 4.83357C223.938 3.84745 223.429 3.00514 222.467 3.00514C222.149 3.01111 221.843 3.12225 221.597 3.32102C221.35 3.51978 221.177 3.79485 221.104 4.10279C221.073 4.22185 221.056 4.34386 221.051 4.46671L221.057 5.35011Z" fill="#1D1D1B"/>
<path d="M226.442 5.02435C226.463 6.23352 227.237 6.72951 228.135 6.72951C228.602 6.744 229.066 6.65791 229.497 6.47711L229.65 7.11692C229.13 7.32829 228.572 7.42828 228.011 7.41041C226.487 7.43682 225.604 6.42722 225.604 4.94511C225.604 3.46299 226.487 2.30371 227.914 2.30371C229.524 2.30371 229.95 3.71539 229.95 4.6164C229.948 4.75576 229.939 4.8949 229.921 5.03315L226.442 5.02435ZM229.07 4.38454C229.07 3.81811 228.835 2.93471 227.828 2.93471C226.922 2.93471 226.525 3.76528 226.454 4.38454H229.07Z" fill="#1D1D1B"/>
<path d="M231.004 3.93859C231.004 3.35161 231.004 2.86442 230.965 2.40658H231.748L231.778 3.36922H231.819C231.903 3.0687 232.08 2.80256 232.326 2.60941C232.571 2.41627 232.872 2.30616 233.184 2.29505C233.27 2.29364 233.355 2.30351 233.438 2.3244V3.16671C233.341 3.14608 233.242 3.13623 233.143 3.13737C232.513 3.13737 232.066 3.61282 231.943 4.2849C231.917 4.42241 231.903 4.56183 231.901 4.70166V7.31957H231.018L231.004 3.93859Z" fill="#1D1D1B"/>
<path d="M234.138 6.40665C234.492 6.62695 234.898 6.7495 235.315 6.76177C235.968 6.76177 236.271 6.436 236.271 6.03099C236.271 5.62597 236.018 5.37064 235.356 5.12705C234.473 4.81301 234.053 4.32582 234.053 3.73591C234.053 2.94349 234.694 2.29488 235.754 2.29488C236.176 2.28679 236.594 2.38789 236.966 2.58837L236.742 3.23698C236.44 3.0469 236.09 2.94521 235.733 2.94349C235.203 2.94349 234.909 3.23698 234.909 3.61265C234.909 3.98831 235.203 4.19962 235.845 4.44615C236.701 4.77192 237.137 5.19748 237.137 5.91359C237.137 6.77645 236.466 7.38103 235.294 7.38103C234.812 7.38945 234.336 7.27424 233.911 7.04646L234.138 6.40665Z" fill="#1D1D1B"/>
<path d="M244.912 4.82186C244.912 6.63855 243.649 7.43097 242.457 7.43097C241.124 7.43097 240.103 6.45658 240.103 4.90403C240.103 3.25756 241.183 2.29492 242.546 2.29492C243.955 2.29492 244.912 3.328 244.912 4.82186ZM241.004 4.87175C241.004 5.94885 241.624 6.76181 242.499 6.76181C243.373 6.76181 243.996 5.96059 243.996 4.85414C243.996 4.02063 243.579 2.96407 242.525 2.96407C241.471 2.96407 241.004 3.93846 241.004 4.87175Z" fill="#1D1D1B"/>
<path d="M245.909 7.31942V3.08732H245.218V2.40643H245.909V2.17164C245.909 1.48194 246.062 0.853875 246.477 0.457666C246.804 0.155461 247.235 -0.00865396 247.681 -0.000175389C247.941 -0.000972456 248.2 0.0468053 248.443 0.140699L248.322 0.833331C248.143 0.754786 247.948 0.716708 247.751 0.721806C246.986 0.721806 246.795 1.39096 246.795 2.14229V2.40643H247.987V3.08732H246.795V7.31942H245.909Z" fill="#1D1D1B"/>
</g>
<defs>
<clipPath id="clip0_203_457">
<rect width="266" height="48" fill="white"/>
</clipPath>
</defs>
</svg>
