<svg width="256" height="34" viewBox="0 0 256 34" fill="none" xmlns="http://www.w3.org/2000/svg">
<path d="M20.1822 25.1836C19.51 25.1836 18.8529 24.9813 18.294 24.6024C17.7351 24.2235 17.2995 23.6849 17.0423 23.0548C16.785 22.4247 16.7177 21.7313 16.8489 21.0623C16.98 20.3934 17.3037 19.7789 17.779 19.2967C18.2543 18.8144 18.8599 18.4859 19.5192 18.3529C20.1784 18.2198 20.8618 18.2881 21.4828 18.5491C22.1038 18.8101 22.6346 19.2521 23.0081 19.8192C23.3815 20.3863 23.5809 21.0531 23.5809 21.7351C23.5764 22.6483 23.2169 23.5228 22.5805 24.1686C21.9441 24.8143 21.0822 25.1791 20.1822 25.1836Z" fill="#00ABE1"/>
<path d="M20.1822 16.6743C19.51 16.6743 18.8529 16.4721 18.294 16.0931C17.7351 15.7142 17.2995 15.1756 17.0423 14.5455C16.785 13.9154 16.7177 13.222 16.8489 12.5531C16.98 11.8841 17.3037 11.2697 17.779 10.7874C18.2543 10.3051 18.8599 9.97667 19.5192 9.84361C20.1784 9.71055 20.8618 9.77884 21.4828 10.0398C22.1038 10.3009 22.6346 10.7429 23.0081 11.31C23.3815 11.8771 23.5809 12.5438 23.5809 13.2258C23.5764 14.139 23.2169 15.0135 22.5805 15.6593C21.9441 16.305 21.0822 16.6698 20.1822 16.6743Z" fill="#00ABE1"/>
<path d="M15.2061 21.7234C15.2061 22.4054 15.0068 23.0722 14.6333 23.6393C14.2599 24.2064 13.7291 24.6484 13.1081 24.9094C12.487 25.1704 11.8037 25.2387 11.1444 25.1056C10.4851 24.9725 9.87956 24.6441 9.40425 24.1618C8.92895 23.6795 8.60526 23.0651 8.47412 22.3961C8.34298 21.7272 8.41029 21.0338 8.66752 20.4037C8.92476 19.7736 9.36037 19.235 9.91927 18.8561C10.4782 18.4771 11.1353 18.2749 11.8075 18.2749C12.7072 18.2802 13.5687 18.6452 14.2049 19.2908C14.8412 19.9363 15.2009 20.8104 15.2061 21.7234Z" fill="#00ABE1"/>
<path d="M6.81706 21.7234C6.81706 22.4054 6.61774 23.0722 6.24429 23.6393C5.87084 24.2064 5.34005 24.6484 4.71902 24.9094C4.098 25.1704 3.41465 25.2387 2.75538 25.1056C2.09611 24.9725 1.49053 24.6441 1.01522 24.1618C0.539908 23.6795 0.216218 23.0651 0.0850809 22.3961C-0.0460565 21.7272 0.021248 21.0338 0.278483 20.4037C0.535719 19.7736 0.971331 19.235 1.53024 18.8561C2.08914 18.4771 2.74623 18.2749 3.41842 18.2749C4.31819 18.2802 5.17963 18.6452 5.81587 19.2908C6.45212 19.9363 6.81186 20.8104 6.81706 21.7234Z" fill="#00ABE1"/>
<path d="M15.2061 13.2146C15.2061 13.8966 15.0068 14.5634 14.6333 15.1305C14.2599 15.6976 13.7291 16.1396 13.1081 16.4006C12.487 16.6616 11.8037 16.7299 11.1444 16.5968C10.4851 16.4638 9.87956 16.1353 9.40425 15.653C8.92895 15.1708 8.60526 14.5563 8.47412 13.8874C8.34298 13.2184 8.41029 12.5251 8.66752 11.8949C8.92476 11.2648 9.36037 10.7262 9.91927 10.3473C10.4782 9.96836 11.1353 9.76611 11.8075 9.76611C12.707 9.77214 13.568 10.1374 14.2041 10.7828C14.8402 11.4282 15.2002 12.3019 15.2061 13.2146Z" fill="#00ABE1"/>
<path d="M20.1822 8.16553C19.51 8.16553 18.8529 7.96328 18.294 7.58436C17.7351 7.20543 17.2995 6.66685 17.0423 6.03672C16.785 5.40659 16.7177 4.71322 16.8489 4.04428C16.98 3.37534 17.3037 2.76088 17.779 2.2786C18.2543 1.79632 18.8599 1.46788 19.5192 1.33482C20.1784 1.20176 20.8618 1.27005 21.4828 1.53106C22.1038 1.79206 22.6346 2.23407 23.0081 2.80117C23.3815 3.36827 23.5809 4.035 23.5809 4.71704C23.5764 5.63024 23.2169 6.50475 22.5805 7.15048C21.9441 7.79622 21.0822 8.161 20.1822 8.16553Z" fill="#E51D2B"/>
<path d="M27.3307 1.24805H33.1707V10.3233H41.4549V1.24805H47.2949V25.1892H41.4549V15.2115H33.1707V25.1892H27.3307V1.24805Z" fill="white"/>
<path d="M50.0648 19.2836V8.04443H55.4035V18.1571C55.4035 20.0337 56.2277 21.0711 57.9525 21.0711C59.7991 21.0711 60.9207 19.663 60.9207 17.6226V8.04443H66.3018V25.1892H61.1529V23.0798H61.0679C59.8472 24.7524 58.3603 25.6921 56.0181 25.6921C52.1238 25.6921 50.0705 23.1057 50.0705 19.2951" fill="white"/>
<path d="M69.202 1.24805H86.7589V6.23686H75.042V11.0906H84.8443V15.8811H75.042V25.1892H69.202V1.24805Z" fill="white"/>
<path d="M87.9115 8.04476H93.0718V10.7231H93.1709C94.3576 8.68273 95.7454 7.7775 97.7902 7.7775C98.1476 7.75393 98.5062 7.79977 98.8466 7.91257V12.5996H98.7135C95.414 12.1312 93.3012 13.7721 93.3012 17.485V25.1866H87.92L87.9115 8.04476Z" fill="white"/>
<path d="M100.552 1.24805H105.933V5.66786H100.552V1.24805ZM100.552 8.04444H105.933V25.1892H100.552V8.04444Z" fill="white"/>
<path d="M107.743 16.5823C107.743 11.4613 111.274 7.54443 116.423 7.54443C118.831 7.54443 120.745 8.34621 122.198 9.68537C124.209 11.5619 125.2 14.542 125.166 18.0192H113.025C113.353 20.3182 114.608 21.7551 116.817 21.7551C118.233 21.7551 119.162 21.12 119.624 20.0481H124.869C124.448 21.7061 123.44 23.1486 122.037 24.1001C120.484 25.1752 118.637 25.7263 116.757 25.6749C111.181 25.6749 107.748 21.7551 107.748 16.5651L107.743 16.5823ZM119.728 14.7575C119.53 12.7143 118.276 11.4096 116.528 11.4096C114.48 11.4096 113.413 12.7143 113.061 14.7575H119.728Z" fill="white"/>
<path d="M126.223 16.6168C126.223 11.2602 129.259 7.54441 133.615 7.54441C135.988 7.54441 137.342 8.54734 138.333 9.98709H138.432V1.24805H143.814V25.1892H138.67V22.8902H138.605C138.106 23.777 137.379 24.5099 136.502 25.0109C135.624 25.5119 134.63 25.7622 133.623 25.7352C129.299 25.7352 126.231 22.3528 126.231 16.6283L126.223 16.6168ZM138.571 16.6283C138.571 13.7546 137.416 11.674 135.073 11.674C132.929 11.674 131.675 13.6856 131.675 16.5593C131.675 19.5394 132.929 21.4131 135.008 21.4131C137.251 21.4131 138.571 19.4388 138.571 16.6254" fill="white"/>
<path d="M146.943 26.5944H148.793C150.376 26.5944 151.002 25.9593 151.002 24.7868C151.002 24.0512 150.673 23.0453 149.979 21.2378L144.997 8.04443H150.662L152.928 15.3437C153.454 17.0191 153.984 19.2951 153.984 19.2951H154.049C154.049 19.2951 154.511 17.0191 155.04 15.3437L157.25 8.04443H162.631L156.791 25.4219C155.437 29.4452 153.823 30.8475 150.424 30.8475H146.943V26.5944Z" fill="white"/>
<path d="M166.426 22.3759C164.381 20.0999 163.26 16.9532 163.26 13.3035C163.26 9.56768 164.511 6.23702 166.757 3.96101C168.703 1.9494 171.442 0.779785 174.84 0.779785C180.913 0.779785 184.544 4.0616 185.303 9.08202H179.638C179.208 7.14224 177.624 5.66802 175.05 5.66802C171.156 5.66802 169.21 8.94983 169.21 13.3035C169.21 17.6573 171.453 20.9362 175.158 20.9362C178.228 20.9362 180.04 18.8614 180.273 16.752V16.6974H175.818V12.3322H185.651V25.1893H181.558L181.23 22.3156H181.153C179.604 24.7583 177.293 25.7296 174.455 25.7296C171.091 25.7296 168.352 24.5255 166.403 22.3817" fill="white"/>
<path d="M188.322 8.04436H193.468V10.7227H193.567C194.756 8.68233 196.141 7.7771 198.186 7.7771C198.544 7.75332 198.902 7.79916 199.243 7.91217V12.5992H199.112C195.813 12.1308 193.7 13.7717 193.7 17.4846V25.1862H188.319L188.322 8.04436Z" fill="white"/>
<path d="M199.871 16.6514C199.871 11.4787 203.499 7.57617 208.912 7.57617C214.324 7.57617 217.921 11.4931 217.921 16.6514C217.921 21.8098 214.358 25.7238 208.909 25.7238C203.46 25.7238 199.868 21.8069 199.868 16.6514H199.871ZM212.472 16.6514C212.472 13.5363 211.22 11.427 208.878 11.427C206.535 11.427 205.312 13.5363 205.312 16.6514C205.312 19.7666 206.533 21.8414 208.878 21.8414C211.223 21.8414 212.472 19.7637 212.472 16.6514Z" fill="white"/>
<path d="M219.603 19.2836V8.04443H224.948V18.1571C224.948 20.0337 225.772 21.0711 227.497 21.0711C229.346 21.0711 230.468 19.663 230.468 17.6226V8.04443H235.849V25.1892H230.691V23.0798H230.592C229.371 24.7524 227.885 25.6921 225.542 25.6921C221.648 25.6921 219.595 23.1057 219.595 19.2951" fill="white"/>
<path d="M238.409 8.04476H243.558V10.1225H243.657C244.239 9.30309 245.009 8.63956 245.9 8.18901C246.791 7.73847 247.777 7.5144 248.772 7.53611C253.261 7.53611 256 11.453 256 16.6085C256 22.1663 253.063 25.7154 248.636 25.7154C246.458 25.7154 244.909 24.8533 243.853 23.4164H243.787V30.8507H238.406L238.409 8.04476ZM250.542 16.8183C250.542 13.8727 249.455 11.9329 247.144 11.9329C244.833 11.9329 243.615 14.0422 243.615 16.8183C243.615 19.5943 244.932 21.5053 247.243 21.5053C249.288 21.5053 250.542 19.7323 250.542 16.8183Z" fill="white"/>
<path d="M163.022 29.0748H161.285V27.8018H166.256V29.0748H164.5V33.8625H163.022V29.0748Z" fill="#39AAE1"/>
<path d="M166.726 27.8018H168.088V30.0576H168.125C168.264 29.8466 168.454 29.6752 168.676 29.5595C168.899 29.4438 169.147 29.3878 169.397 29.3967C170.331 29.3967 170.884 30.0749 170.884 31.0405V33.8625H169.521V31.3192C169.521 30.8623 169.295 30.5491 168.853 30.5491C168.411 30.5491 168.103 30.9313 168.103 31.4658V33.8625H166.74L166.726 27.8018Z" fill="#39AAE1"/>
<path d="M171.297 31.6841C171.282 31.3839 171.327 31.0836 171.431 30.802C171.535 30.5205 171.695 30.2638 171.902 30.048C172.108 29.8321 172.356 29.6619 172.63 29.5478C172.904 29.4338 173.199 29.3784 173.495 29.3851C174.032 29.3698 174.555 29.563 174.956 29.9254C175.466 30.4024 175.718 31.1553 175.71 32.0376H172.634C172.719 32.6123 173.036 32.9888 173.597 32.9888C173.745 33.0002 173.893 32.9646 174.021 32.8868C174.148 32.8091 174.248 32.6931 174.308 32.5549H175.633C175.527 32.9746 175.272 33.3399 174.917 33.5808C174.524 33.8531 174.056 33.9929 173.58 33.9802C173.277 33.9975 172.974 33.95 172.691 33.8408C172.407 33.7316 172.149 33.5632 171.934 33.3464C171.719 33.1297 171.551 32.8694 171.441 32.5825C171.332 32.2957 171.282 31.9886 171.297 31.6812V31.6841ZM174.33 31.2243C174.333 31.0032 174.249 30.7902 174.097 30.6314C173.946 30.4727 173.738 30.3811 173.52 30.3766C173.002 30.3766 172.736 30.707 172.642 31.2243H174.33Z" fill="#39AAE1"/>
<path d="M177.551 27.8018H180.434C180.932 27.7714 181.425 27.9188 181.827 28.2184C181.994 28.3573 182.128 28.533 182.218 28.7323C182.308 28.9315 182.351 29.1489 182.346 29.3679C182.355 29.6337 182.277 29.8949 182.123 30.1101C181.969 30.3252 181.748 30.4818 181.496 30.5548V30.5807C181.811 30.6723 182.088 30.8678 182.281 31.1362C182.475 31.4047 182.576 31.7309 182.567 32.0635C182.581 32.3227 182.533 32.5815 182.427 32.8177C182.321 33.0539 182.16 33.2606 181.958 33.4199C181.528 33.7271 181.01 33.879 180.485 33.851H177.551V27.8018ZM180.216 30.2013C180.644 30.2013 180.932 29.9887 180.932 29.5921C180.932 29.1955 180.649 28.9886 180.224 28.9886H179.012V30.2042L180.216 30.2013ZM180.332 32.6584C180.816 32.6584 181.119 32.371 181.119 31.9486C181.119 31.4658 180.768 31.2186 180.318 31.2186H179.012V32.6555L180.332 32.6584Z" fill="#E31013"/>
<path d="M182.969 31.684C182.953 31.3838 182.999 31.0835 183.103 30.802C183.207 30.5204 183.367 30.2637 183.573 30.0479C183.78 29.8321 184.028 29.6618 184.302 29.5478C184.576 29.4337 184.87 29.3783 185.167 29.3851C185.704 29.3703 186.226 29.5635 186.628 29.9253C187.138 30.4024 187.387 31.1553 187.379 32.0375H184.306C184.388 32.6123 184.705 32.9887 185.266 32.9887C185.414 33.0008 185.562 32.9654 185.689 32.8876C185.816 32.8097 185.916 32.6933 185.974 32.5548H187.305C187.198 32.9749 186.942 33.3401 186.586 33.5807C186.192 33.8531 185.725 33.9928 185.249 33.9802C184.946 33.997 184.644 33.9492 184.36 33.8398C184.077 33.7305 183.82 33.562 183.605 33.3452C183.39 33.1285 183.222 32.8684 183.113 32.5817C183.003 32.2951 182.954 31.9883 182.969 31.6812V31.684ZM186.002 31.2243C186.004 31.0027 185.92 30.7892 185.768 30.6304C185.616 30.4715 185.408 30.3803 185.189 30.3765C184.674 30.3765 184.405 30.707 184.314 31.2243H186.002Z" fill="#E31013"/>
<path d="M187.582 32.457H188.868C188.875 32.5529 188.902 32.6462 188.946 32.7312C188.99 32.8163 189.051 32.8913 189.125 32.9516C189.198 33.0119 189.284 33.0563 189.375 33.0819C189.466 33.1076 189.562 33.114 189.656 33.1007C190.063 33.1007 190.324 32.9484 190.324 32.6668C190.324 32.2788 189.806 32.2357 189.236 32.1352C188.494 32.0058 187.698 31.8047 187.698 30.7845C187.698 29.8707 188.534 29.3965 189.545 29.3965C190.757 29.3965 191.409 29.931 191.477 30.7845H190.216C190.168 30.3965 189.908 30.2758 189.531 30.2758C189.2 30.2758 188.939 30.4052 188.939 30.6753C188.939 30.9454 189.423 31.023 189.967 31.1265C190.718 31.2529 191.604 31.4483 191.604 32.5633C191.604 33.5117 190.777 34.0002 189.658 34.0002C188.404 34.0002 187.619 33.4255 187.577 32.457" fill="#E31013"/>
<path d="M192.264 32.7187V30.3881H191.698V29.526H192.264V28.1523H193.592V29.526H194.368V30.3881H193.592V32.4227C193.592 32.7618 193.776 32.8451 194.068 32.8451C194.184 32.8451 194.317 32.8451 194.368 32.8451V33.8567C194.124 33.9073 193.875 33.9295 193.626 33.9228C192.83 33.9228 192.264 33.6613 192.264 32.7273" fill="#E31013"/>
<path d="M197.727 27.8018H196.249V33.8625H197.727V27.8018Z" fill="#39AAE1"/>
<path d="M198.467 29.5227H199.778V30.1176H199.803C199.941 29.8899 200.136 29.7033 200.367 29.5766C200.599 29.4499 200.86 29.3877 201.123 29.3963C202.058 29.3963 202.61 30.0745 202.61 31.0401V33.8621H201.262V31.3188C201.262 30.8619 201.038 30.5487 200.593 30.5487C200.149 30.5487 199.843 30.9309 199.843 31.4654V33.8621H198.481L198.467 29.5227Z" fill="#39AAE1"/>
<path d="M204.61 27.8014H207.3C207.897 27.7677 208.482 27.9743 208.929 28.3762C209.126 28.5682 209.282 28.8002 209.386 29.0571C209.49 29.314 209.54 29.5901 209.532 29.8676C209.532 31.0171 208.736 31.8505 207.51 31.8505H206.114V33.8621H204.61V27.8014ZM207.21 30.6493C207.32 30.6639 207.432 30.6536 207.537 30.6192C207.643 30.5848 207.74 30.527 207.821 30.4501C207.903 30.3733 207.966 30.2791 208.007 30.1744C208.048 30.0697 208.066 29.9571 208.059 29.8446C208.059 29.3618 207.748 29.0658 207.21 29.0658H206.114V30.6493H207.21Z" fill="#39AAE1"/>
<path d="M209.977 29.5229H211.279V30.204H211.305C211.407 29.9776 211.572 29.7864 211.78 29.6537C211.988 29.521 212.229 29.4526 212.475 29.4568C212.565 29.4503 212.655 29.462 212.741 29.4913V30.6782H212.71C211.874 30.5603 211.339 30.9655 211.339 31.9167V33.8651H209.977V29.5229Z" fill="#39AAE1"/>
<path d="M212.851 32.6525C212.851 31.6927 213.605 31.4053 214.488 31.2875C215.293 31.1841 215.576 31.1007 215.576 30.8047C215.576 30.5087 215.4 30.3363 214.99 30.3363C214.579 30.3363 214.338 30.5317 214.299 30.8967H213.044C213.078 30.092 213.687 29.4052 214.984 29.4052C215.472 29.3653 215.959 29.4906 216.369 29.7616C216.553 29.9064 216.698 30.0949 216.793 30.3104C216.888 30.5259 216.929 30.7618 216.913 30.9973V33.1842C216.913 33.5319 216.947 33.7273 217.063 33.8049V33.8624H215.743C215.664 33.713 215.615 33.5487 215.601 33.3796H215.584C215.441 33.5821 215.249 33.7434 215.026 33.8477C214.803 33.952 214.557 33.9956 214.313 33.9744C213.463 33.9744 212.851 33.506 212.851 32.6525ZM215.61 32.3134V31.7962C215.385 31.8981 215.149 31.9742 214.908 32.0232C214.381 32.1439 214.163 32.2789 214.163 32.5979C214.163 32.9169 214.415 33.0807 214.749 33.0807C214.856 33.0911 214.964 33.0787 215.067 33.0444C215.169 33.01 215.263 32.9544 215.343 32.8812C215.423 32.8079 215.487 32.7186 215.531 32.6189C215.575 32.5191 215.598 32.4112 215.599 32.3019" fill="#39AAE1"/>
<path d="M217.383 31.7014C217.368 31.3978 217.416 31.0943 217.523 30.8103C217.63 30.5264 217.794 30.2681 218.004 30.0519C218.215 29.8357 218.468 29.6663 218.746 29.5545C219.025 29.4427 219.324 29.3909 219.623 29.4025C220.784 29.4025 221.526 30.0893 221.651 31.0635H220.34C220.323 30.8871 220.242 30.7235 220.112 30.6045C219.983 30.4855 219.815 30.4196 219.64 30.4198C219.054 30.4198 218.762 30.9112 218.762 31.6986C218.762 32.486 219.045 32.963 219.64 32.963C220.065 32.963 220.323 32.7073 220.382 32.2158H221.685C221.651 33.2159 220.866 33.9976 219.654 33.9976C219.353 34.0106 219.053 33.96 218.772 33.8491C218.491 33.7381 218.237 33.5693 218.024 33.3531C217.811 33.137 217.644 32.8783 217.535 32.5935C217.425 32.3087 217.376 32.0039 217.388 31.6986" fill="#39AAE1"/>
<path d="M222.455 32.7187V30.3881H221.889V29.526H222.455V28.1523H223.784V29.526H224.562V30.3881H223.784V32.4227C223.784 32.7618 223.968 32.8452 224.259 32.8452C224.378 32.8452 224.512 32.8452 224.562 32.8452V33.8567C224.317 33.907 224.068 33.9292 223.818 33.9228C223.025 33.9228 222.455 33.6613 222.455 32.7273" fill="#39AAE1"/>
<path d="M225.052 27.8018H226.415V28.9196H225.052V27.8018ZM225.052 29.526H226.415V33.8654H225.052V29.526Z" fill="#39AAE1"/>
<path d="M226.879 31.7011C226.864 31.3973 226.911 31.0937 227.018 30.8095C227.125 30.5253 227.289 30.2668 227.5 30.0505C227.711 29.8343 227.964 29.6649 228.242 29.5532C228.521 29.4416 228.82 29.3901 229.119 29.4021C230.281 29.4021 231.023 30.0889 231.147 31.0631H229.836C229.819 30.8863 229.738 30.7223 229.608 30.6032C229.478 30.4841 229.309 30.4186 229.134 30.4194C228.55 30.4194 228.258 30.9108 228.258 31.6982C228.258 32.4856 228.542 32.9627 229.134 32.9627C229.561 32.9627 229.819 32.7069 229.878 32.2155H231.181C231.147 33.2155 230.363 33.9972 229.151 33.9972C228.85 34.0107 228.549 33.9604 228.268 33.8496C227.987 33.7388 227.732 33.57 227.519 33.3538C227.306 33.1375 227.14 32.8787 227.03 32.5937C226.921 32.3086 226.872 32.0037 226.885 31.6982" fill="#39AAE1"/>
<path d="M231.428 31.6841C231.412 31.384 231.457 31.0838 231.561 30.8022C231.664 30.5207 231.824 30.2639 232.03 30.0481C232.236 29.8322 232.484 29.6619 232.758 29.5478C233.032 29.4337 233.327 29.3783 233.623 29.3851C234.161 29.3699 234.684 29.5631 235.087 29.9254C235.597 30.4024 235.846 31.1553 235.838 32.0376H232.765C232.847 32.6123 233.164 32.9888 233.725 32.9888C233.873 33.0004 234.02 32.9649 234.147 32.8871C234.274 32.8092 234.374 32.6931 234.433 32.5548H235.761C235.656 32.9752 235.401 33.3409 235.044 33.5808C234.651 33.8531 234.184 33.9929 233.708 33.9802C233.406 33.995 233.105 33.9456 232.824 33.8353C232.542 33.725 232.287 33.5562 232.073 33.3397C231.86 33.1232 231.693 32.8638 231.585 32.5782C231.476 32.2926 231.427 31.987 231.442 31.6812L231.428 31.6841ZM234.472 31.2243C234.475 31.0032 234.391 30.7901 234.239 30.6314C234.088 30.4727 233.88 30.3811 233.662 30.3765C233.144 30.3765 232.878 30.707 232.784 31.2243H234.472Z" fill="#39AAE1"/>
</svg>
