<svg width="23" height="23" viewBox="0 0 23 23" fill="none" xmlns="http://www.w3.org/2000/svg">
<path d="M14.3137 0.809307C13.9692 0.454148 13.6164 0.119986 13.1171 0H12.5811C12.0734 0.125385 11.7229 0.471545 11.3725 0.831504C10.9817 1.22815 10.5878 1.62008 10.1939 2.01197C9.91417 2.29032 9.63401 2.56909 9.35543 2.84907C9.34277 2.86187 9.3289 2.87388 9.31479 2.8861C9.2674 2.92715 9.21725 2.97058 9.2006 3.05425C10.941 4.78685 12.6814 6.52424 14.4217 8.26644C14.5057 8.35039 14.594 8.35014 14.6906 8.34986L14.7074 8.34983H21.3544C21.3677 8.34983 21.3813 8.35096 21.3952 8.3521C21.4405 8.35584 21.4886 8.3598 21.5345 8.32584C21.4775 8.04447 21.3232 7.82249 21.1258 7.62452C20.4696 6.96899 19.8133 6.31267 19.1568 5.65554C18.6563 5.1546 18.0735 5.02322 17.4104 5.27459C17.0683 5.40297 16.7568 5.36038 16.5 5.10301C16.2431 4.84564 16.2005 4.53487 16.3295 4.19291C16.5792 3.53059 16.449 2.94746 15.9473 2.44712C15.8044 2.30462 15.6612 2.1625 15.5181 2.02039C15.1139 1.61925 14.7099 1.21818 14.3137 0.809307Z" fill="#FDBE3D"/>
<path d="M22.9222 21.9071C22.9324 21.857 22.9427 21.8064 23 21.7799V18.2781L22.9934 18.2596C22.8919 17.9748 22.7906 17.6907 22.5685 17.4676C22.3915 17.2894 22.1748 17.1796 21.9546 17.0686C21.8249 17.0085 21.7149 16.913 21.6369 16.7932C21.559 16.6735 21.5165 16.5342 21.5141 16.3913C21.4973 16.0727 21.6167 15.789 21.9012 15.6648C22.4569 15.4212 22.82 15.0307 23 14.4613V10.9583C22.9952 10.9539 22.9896 10.9499 22.984 10.9458C22.972 10.9371 22.9601 10.9284 22.9568 10.9169C22.7053 10.0986 22.1742 9.70268 21.3202 9.70268H18.4912C18.4723 9.70268 18.4529 9.70097 18.4336 9.69927C18.3797 9.6945 18.326 9.68977 18.2818 9.72247V22.9887C18.6073 22.9887 18.9319 22.991 19.2556 22.9932C20.0238 22.9984 20.7879 23.0036 21.5477 22.9791C22.203 22.9581 22.6537 22.576 22.9058 21.9689C22.9136 21.9496 22.9179 21.9284 22.9222 21.9071Z" fill="#FDBE3D"/>
<path fill-rule="evenodd" clip-rule="evenodd" d="M16.9009 9.70987V22.9683C16.8562 23.0068 16.8022 23.0016 16.7485 22.9965C16.7301 22.9947 16.7118 22.9929 16.6938 22.9929H1.64676C0.662544 22.9929 0.00120026 22.3294 0 21.3455V18.6063C0 17.9085 0.315069 17.4064 0.952408 17.1178C1.29088 16.9642 1.48952 16.7159 1.48532 16.3379C1.48052 15.969 1.28188 15.7302 0.952408 15.5802C0.315069 15.2898 0.000600131 14.7889 0 14.0906V11.3069C0 10.3794 0.676948 9.70567 1.60175 9.70507C6.64765 9.70267 11.6933 9.70267 16.7388 9.70507C16.7787 9.70275 16.8183 9.7051 16.8616 9.70767C16.8743 9.70842 16.8874 9.70919 16.9009 9.70987ZM4.74043 16.8946H14.8676V15.5652H4.74043V16.8946ZM4.74043 14.186H14.8676V12.8619H4.74103L4.74043 14.186ZM4.74043 19.6015H14.867V18.2775H4.74223L4.74043 19.6015Z" fill="#FDBE3D"/>
<path d="M12.5619 8.33603L8.24758 4.03453L3.94465 8.33603H12.5619Z" fill="#FDBE3D"/>
</svg>
