<svg width="141" height="39" viewBox="0 0 141 39" fill="none" xmlns="http://www.w3.org/2000/svg">
<path d="M135.325 17.2722V10.9119H129.139V17.2722H125.737V2.19824H129.139V8.17695H135.325V2.19824H138.727V17.2722H135.325Z" fill="black"/>
<path d="M62.3315 2.19824V11.6115C62.3315 12.6292 62.4553 13.5832 62.7646 14.2829C63.0738 14.9825 63.5069 15.6185 64.0017 16.0638C64.5585 16.509 65.2389 16.8906 65.9812 17.0814C66.7235 17.2722 67.5895 17.3994 68.5793 17.3994C69.5071 17.3994 70.3732 17.2722 71.1155 17.0814C71.8578 16.8906 72.4764 16.509 72.9712 16.0638C73.4661 15.6185 73.8991 14.9825 74.1465 14.2829C74.4558 13.5196 74.5796 12.6292 74.5796 11.6115V2.19824H71.4248V11.5479C71.4248 12.502 71.1773 13.2652 70.7443 13.8376C70.3113 14.4101 69.569 14.7281 68.5793 14.7281C67.5895 14.7281 66.8472 14.4101 66.4142 13.8376C65.9812 13.2652 65.7338 12.502 65.7338 11.5479V2.19824H62.3315Z" fill="black"/>
<path d="M52.5578 17.2722V4.99679H48.5989V2.19824H59.9809V3.53391C59.9809 4.36075 59.3623 4.99679 58.5581 4.99679H55.9601V17.2722H52.5578Z" fill="black"/>
<path d="M106.993 2.19824H110.396V17.2722H106.993V2.19824Z" fill="black"/>
<path d="M95.7352 10.2123L95.8589 10.3395L100.189 16.0638C100.746 16.7634 101.55 17.2086 102.478 17.2086H105.2L99.0137 9.0674L98.9519 8.94019L99.0137 8.81299L104.086 2.19824H100.56L95.8589 8.68578L95.7352 8.81299V8.55857V2.19824H92.333V17.2722H95.7352V10.4667V10.2123Z" fill="black"/>
<path d="M87.941 17.2722C86.9513 17.2722 85.9616 16.6998 85.4667 15.873L82.8068 11.4207H81.1366V17.3358H77.7344V2.19824H83.7965C85.343 2.19824 86.5802 2.64347 87.3843 3.40671C88.2503 4.23355 88.6833 5.37841 88.6833 6.71408C88.6833 7.41371 88.4978 8.11335 88.1266 8.81299C87.7555 9.51262 87.1369 10.0851 86.2709 10.5303L86.0853 10.5939L90.2298 17.2086H87.941V17.2722ZM81.1366 9.0674H83.1161C83.7965 9.0674 84.3532 8.87659 84.7244 8.49497C85.0956 8.11335 85.2811 7.60452 85.2811 6.96849C85.2811 6.33246 85.0955 5.82363 84.7863 5.44201C84.4151 5.06039 83.9202 4.86958 83.1779 4.86958H81.1985V9.0674H81.1366Z" fill="black"/>
<path d="M113.179 16.6362V13.7741C114.231 14.2829 115.654 14.7917 117.076 14.7917C118.746 14.7917 119.551 14.2193 119.551 13.0744C119.551 11.7388 118.437 11.6116 116.148 10.5939C114.602 9.89426 113.179 8.813 113.179 6.26887C113.179 3.34312 115.344 1.94385 118.375 1.94385C119.984 1.94385 121.345 2.32547 122.087 2.64348V5.44203C121.345 5.06041 119.984 4.61519 118.561 4.61519C117.076 4.61519 116.396 5.18762 116.396 6.14167C116.396 7.15932 117.262 7.47734 118.746 8.04977C120.664 9.06742 122.953 9.51264 122.953 12.8836C122.953 15.8094 120.664 17.3995 117.633 17.3995C115.839 17.4631 114.355 17.145 113.179 16.6362Z" fill="black"/>
<path d="M118.499 36.9255V21.8516H127.654V23.1872C127.654 24.0141 127.036 24.6501 126.231 24.6501H121.839V27.8939H126.788V30.438H121.839V34.127H127.654V36.9255H118.499Z" fill="black"/>
<path d="M84.9717 36.9255V21.8516H86.6419C87.6316 21.8516 88.3739 22.6784 88.3739 23.6325V34.1906H93.7556V36.9255H84.9717Z" fill="black"/>
<path d="M64.0015 36.9255V21.8516H67.4037V36.9255H64.0015Z" fill="black"/>
<path d="M80.6415 36.9255C79.6517 36.9255 78.662 36.3531 78.1671 35.5263L75.5072 31.074H73.837V36.9891H70.4348V21.8516H76.497C78.0434 21.8516 79.2806 22.2968 80.0848 23.06C80.9508 23.8869 81.3838 25.0317 81.3838 26.3674C81.3838 27.067 81.1982 27.7667 80.8271 28.5299C80.4559 29.2295 79.8373 29.802 78.9713 30.2472L78.7857 30.3108L82.9302 36.9255H80.6415ZM73.8989 28.7207H75.8784C76.6207 28.7207 77.1155 28.5299 77.4867 28.1483C77.8578 27.7667 78.0434 27.2578 78.0434 26.6218C78.0434 25.9858 77.8578 25.4769 77.5486 25.0953C77.1774 24.7137 76.6825 24.5229 75.9402 24.5229H73.9608L73.8989 28.7207Z" fill="black"/>
<path d="M56.5785 21.8516H52.6814L47.176 36.9255H49.5885C50.2071 36.9255 50.7638 36.5439 50.9494 35.9079L51.5061 34.127H57.4446L58.3106 36.9255H61.9602L56.5785 21.8516ZM52.3721 31.4557L53.6712 27.6395C53.9805 26.8126 54.2898 25.8586 54.4753 25.2225H54.5372C54.7228 25.9222 55.0321 26.749 55.2795 27.6395L56.5785 31.4557H52.3721Z" fill="black"/>
<path d="M130.376 36.2895V33.4274C131.428 33.9362 132.85 34.445 134.273 34.445C135.943 34.445 136.747 33.8726 136.747 32.7277C136.747 31.3921 135.634 31.2649 133.345 30.2472C131.799 29.5476 130.376 28.4663 130.376 25.9222C130.376 22.9964 132.541 21.5972 135.572 21.5972C137.18 21.5972 138.541 21.9788 139.284 22.2968V25.0953C138.541 24.7137 137.18 24.2685 135.758 24.2685C134.273 24.2685 133.593 24.8409 133.593 25.795C133.593 26.8126 134.459 27.1307 135.943 27.7031C137.861 28.7207 140.15 29.166 140.15 32.5369C140.15 35.4627 137.861 37.0528 134.83 37.0528C133.036 37.1164 131.551 36.7984 130.376 36.2895Z" fill="black"/>
<path d="M102.478 21.8516H104.581C105.57 21.8516 106.498 22.3604 107.055 23.2508L111.138 29.9928C111.571 30.756 112.127 31.7101 112.437 32.4097H112.499C112.437 31.7101 112.437 30.8196 112.437 30.12V21.8516H115.406V36.9255H111.694L106.746 28.7843C106.313 28.0211 105.818 27.1306 105.447 26.431H105.385C105.385 27.067 105.447 27.8303 105.447 28.5935V36.9255H102.478V21.8516Z" fill="black"/>
<path d="M95.9824 21.8516H99.3846V36.9255H95.9824V21.8516Z" fill="black"/>
<path d="M21.6903 0.417246C31.0928 1.4349 38.454 9.57612 38.454 19.5618C38.454 30.1836 30.1031 38.77 19.7727 38.77C9.44231 38.77 1.02954 30.1836 1.02954 19.5618C1.02954 8.94009 9.38045 0.290039 19.7727 0.290039C20.3913 0.290039 21.0717 0.353642 21.6903 0.417246ZM22.6801 37.4344C32.2681 35.7807 38.7633 26.431 37.155 16.5089C35.7941 8.30406 29.2989 2.32534 21.6285 1.4985C20.082 1.30769 18.4737 1.3713 16.8653 1.62571C14.9477 1.94372 13.1538 2.57976 11.5455 3.4702C19.9583 6.45956 24.5358 10.9754 24.8451 15.5548C25.0307 18.417 23.7316 20.4523 21.9996 22.106L34.0002 21.2791C34.3095 21.2791 34.4332 21.6607 34.062 21.788L5.4215 30.1836C8.32886 34.3178 12.8445 37.0527 17.8551 37.5616C19.4634 37.7524 21.0717 37.7524 22.6801 37.4344ZM14.824 19.9435C16.3705 13.9011 14.5766 7.54082 10.3083 4.16984C4.49362 7.98604 1.0914 15.1096 2.32857 22.5512C2.69972 25.0317 3.56574 27.2578 4.80292 29.2295C9.38045 27.9575 13.4013 25.4769 14.824 19.9435Z" fill="white"/>
<path d="M22.6801 37.4345C32.2682 35.7808 38.7634 26.4311 37.1551 16.509C35.7942 8.30419 29.299 2.32548 21.6285 1.49864C20.0821 1.30783 18.4738 1.37143 16.8654 1.62585C14.9478 1.94386 13.1539 2.5799 11.5456 3.47034C19.9584 6.4597 24.5359 10.9755 24.8452 15.555C25.0308 18.4171 23.7317 20.4524 21.9997 22.1061L34.0003 21.2793C34.3096 21.2793 34.4333 21.6609 34.0621 21.7881L5.4216 30.1837C8.32895 34.3179 12.8446 37.0529 17.8552 37.5617C19.4635 37.7525 21.0718 37.7525 22.6801 37.4345ZM14.8241 19.9436C16.3706 13.9013 14.5767 7.54095 10.3084 4.16998C4.49372 7.98618 1.0915 15.1097 2.32867 22.5513C2.69982 25.0319 3.56584 27.258 4.80301 29.2297C9.38055 27.9576 13.4014 25.4771 14.8241 19.9436Z" fill="#C70A0C"/>
</svg>
