<svg width="31" height="38" viewBox="0 0 31 38" fill="none" xmlns="http://www.w3.org/2000/svg">
<path d="M26.4598 27.2539C29.3686 24.2482 31 20.1921 31 15.9655C31 11.739 29.3686 7.68286 26.4598 4.67713C25.0268 3.19549 23.3202 2.01915 21.4388 1.21628C19.5574 0.413415 17.5388 0 15.4999 0C13.4609 0 11.4423 0.413415 9.56092 1.21628C7.67956 2.01915 5.97291 3.19549 4.53992 4.67713C1.62431 7.68977 -0.00752255 11.7575 2.60729e-05 15.9938C0.0075747 20.2301 1.65389 24.2917 4.58021 27.2935L10.1354 32.5802C11.558 34.0171 13.4765 34.8253 15.4771 34.8307C17.4777 34.836 19.4003 34.038 20.8302 32.6087L26.4598 27.2539ZM17.5799 23.1942C16.9335 23.5212 16.2219 23.6913 15.5006 23.6913C14.7793 23.6913 14.0677 23.5212 13.4213 23.1942L10.3214 21.6109C9.54702 21.2185 8.89574 20.6124 8.44127 19.8614C7.9868 19.1103 7.74731 18.2442 7.74993 17.3612V12.6666C7.74688 11.7836 7.986 10.9173 8.4402 10.1659C8.8944 9.41453 9.54553 8.80812 10.3198 8.41539L13.4198 6.83205C14.0659 6.50401 14.7776 6.33329 15.4991 6.33329C16.2206 6.33329 16.9323 6.50401 17.5784 6.83205L20.6784 8.41539C21.4529 8.8079 22.1044 9.41421 22.5589 10.1656C23.0133 10.917 23.2527 11.7834 23.2498 12.6666V17.3628C23.2525 18.2456 23.0133 19.1116 22.5591 19.8626C22.1049 20.6137 21.4539 21.2199 20.6799 21.6125L17.5799 23.1942ZM20.0708 12.1821C20.1216 12.3385 20.1483 12.5019 20.1498 12.6666V17.3628C20.151 17.6573 20.0713 17.9462 19.9198 18.1967C19.7683 18.4472 19.551 18.6493 19.2927 18.7799L16.1927 20.3632C15.9771 20.4726 15.7397 20.5295 15.4991 20.5295C15.2584 20.5295 15.021 20.4726 14.8055 20.3632L11.7055 18.7799C11.4472 18.6489 11.2301 18.4465 11.0788 18.1957C10.9276 17.9449 10.8483 17.6558 10.8499 17.3612V12.6666C10.8524 12.5051 10.879 12.3449 10.929 12.1916L14.3079 13.9175C14.678 14.1064 15.0861 14.2048 15.4999 14.2048C15.9136 14.2048 16.3217 14.1064 16.6918 13.9175L20.0708 12.1821ZM27.8997 36.4167C27.8997 36.8366 27.7364 37.2393 27.4457 37.5363C27.1551 37.8332 26.7608 38 26.3497 38H4.64996C4.23888 38 3.84464 37.8332 3.55396 37.5363C3.26328 37.2393 3.09998 36.8366 3.09998 36.4167C3.09998 35.9967 3.26328 35.594 3.55396 35.2971C3.84464 35.0001 4.23888 34.8333 4.64996 34.8333H26.3497C26.7608 34.8333 27.1551 35.0001 27.4457 35.2971C27.7364 35.594 27.8997 35.9967 27.8997 36.4167Z" fill="#FDBE3D"/>
</svg>
