<svg width="112" height="48" viewBox="0 0 112 48" fill="none" xmlns="http://www.w3.org/2000/svg">
<rect y="22.4727" width="30.3676" height="30.3676" rx="5" transform="rotate(-45 0 22.4727)" fill="#E1B65C"/>
<rect x="20.7071" y="12" width="15.9705" height="15.9705" rx="2.5" transform="rotate(-45 20.7071 12)" stroke="#01838C"/>
<path d="M50.06 35.4H57.74V36.06C57.74 36.78 57.6533 37.4867 57.48 38.18C57.3067 38.8733 57.0333 39.54 56.66 40.18C56.3 40.8067 55.8533 41.36 55.32 41.84C54.7867 42.3067 54.1267 42.6867 53.34 42.98C52.5533 43.26 51.6933 43.4 50.76 43.4C48.6933 43.4 46.9933 42.7133 45.66 41.34C44.3267 39.9667 43.66 38.2733 43.66 36.26C43.66 34.1533 44.3333 32.4133 45.68 31.04C47.0267 29.6533 48.72 28.96 50.76 28.96C52.3733 28.96 53.7533 29.34 54.9 30.1C56.0467 30.8467 56.8533 31.88 57.32 33.2H54.22C53.9133 32.6267 53.46 32.1867 52.86 31.88C52.2733 31.56 51.5933 31.4 50.82 31.4C49.6067 31.4 48.5933 31.8333 47.78 32.7C46.9667 33.5667 46.56 34.7267 46.56 36.18C46.56 37.6467 46.9667 38.8133 47.78 39.68C48.6067 40.5333 49.6733 40.96 50.98 40.96C51.9667 40.96 52.8067 40.6533 53.5 40.04C54.1933 39.4267 54.5933 38.6667 54.7 37.76H50.06V35.4ZM67.2106 32.84C66.384 33.7333 65.9706 34.8467 65.9706 36.18C65.9706 37.5133 66.3773 38.6333 67.1906 39.54C68.0173 40.4333 69.044 40.88 70.2706 40.88C71.4973 40.88 72.524 40.4333 73.3506 39.54C74.1773 38.6333 74.5906 37.5133 74.5906 36.18C74.5906 34.8467 74.1906 33.7333 73.3906 32.84C72.604 31.9333 71.5706 31.48 70.2906 31.48C69.064 31.48 68.0373 31.9333 67.2106 32.84ZM63.0506 36.18C63.0506 34.2067 63.744 32.5067 65.1306 31.08C66.5173 29.64 68.244 28.92 70.3106 28.92C71.764 28.92 73.044 29.2667 74.1506 29.96C75.2706 30.64 76.1106 31.5267 76.6706 32.62C77.2306 33.7133 77.5106 34.9 77.5106 36.18C77.5106 38.1933 76.8173 39.9067 75.4306 41.32C74.0573 42.7333 72.344 43.44 70.2906 43.44C69.3306 43.44 68.444 43.2933 67.6306 43C66.8173 42.72 66.1306 42.34 65.5706 41.86C65.024 41.38 64.5573 40.8267 64.1706 40.2C63.784 39.56 63.4973 38.9067 63.3106 38.24C63.1373 37.56 63.0506 36.8733 63.0506 36.18ZM83.5319 43V29.36H86.3919V40.52H91.8919V43H83.5319ZM97.4147 29.36H102.095C104.455 29.36 106.295 30.0067 107.615 31.3C108.935 32.5933 109.595 34.22 109.595 36.18C109.595 38.1133 108.915 39.7333 107.555 41.04C106.208 42.3467 104.375 43 102.055 43H97.4147V29.36ZM100.275 40.48H101.995C103.528 40.48 104.688 40.08 105.475 39.28C106.275 38.4667 106.675 37.4333 106.675 36.18C106.675 34.8733 106.268 33.8333 105.455 33.06C104.655 32.2733 103.501 31.88 101.995 31.88H100.275V40.48Z" fill="#EDEDED"/>
</svg>
