<svg width="81" height="119" viewBox="0 0 81 119" fill="none" xmlns="http://www.w3.org/2000/svg">
<g clip-path="url(#clip0_415_66667)">
<path d="M57.5894 37.3585C57.5894 37.224 57.5894 37.0894 57.5894 36.9549V7.85741C57.5894 7.73184 57.5894 7.59729 57.5894 7.46275C57.6223 7.4492 57.6498 7.42514 57.6676 7.39431C57.6855 7.36349 57.6926 7.32763 57.688 7.29232C59.0492 8.33563 60.3045 9.51032 61.4358 10.7994C65.9157 15.7099 68.7714 21.884 69.6129 28.4786C69.8659 30.2636 69.8659 32.0754 69.6129 33.8604C69.5125 34.5985 69.2656 35.309 68.8867 35.9503C68.6495 36.344 68.5198 36.7931 68.5103 37.2527C68.5009 37.7122 68.6121 38.1663 68.8329 38.5694C69.0929 39.186 69.3924 39.7852 69.7295 40.3633C71.5227 43.1619 73.1545 46.0142 74.7774 48.8934C75.4689 49.9219 76.0461 51.0227 76.4989 52.1763C76.6915 52.774 76.6472 53.4228 76.3752 53.9887C76.1032 54.5546 75.6243 54.9943 75.0374 55.217C74.0161 55.6058 72.9631 55.9059 71.8903 56.114C71.3161 56.2151 70.7639 56.4154 70.2585 56.706C70.0144 56.8405 69.8138 57.0419 69.6803 57.2866C69.5469 57.5314 69.4862 57.8092 69.5053 58.0873C69.51 58.7044 69.6381 59.3143 69.8819 59.8812C70.1025 60.4029 70.2648 60.9474 70.3661 61.5047C70.4422 61.7457 70.4319 62.0056 70.337 62.2397C70.242 62.4739 70.0684 62.6676 69.846 62.7874C69.3201 63.1558 68.6948 63.3559 68.0528 63.3614H67.3355C67.3893 63.5588 67.5686 63.5857 67.6942 63.6664C67.902 63.7618 68.0881 63.8987 68.2411 64.0687C68.3941 64.2387 68.5107 64.4382 68.5838 64.655C68.6568 64.8717 68.6848 65.1011 68.6659 65.3291C68.6471 65.5571 68.5819 65.7788 68.4742 65.9806C68.0986 66.924 67.5272 67.777 66.7976 68.4831L65.9009 69.4608C65.8289 69.5288 65.7832 69.62 65.7717 69.7185C65.7602 69.8169 65.7838 69.9162 65.8382 69.999C66.3861 71.0569 66.75 72.2004 66.9141 73.3805C67.0168 74.2901 66.8957 75.211 66.5613 76.063C66.2268 76.915 65.6893 77.6723 64.9954 78.269C64.7389 78.4812 64.4284 78.6179 64.0987 78.6636C61.8606 79.2283 59.5825 79.6212 57.2845 79.8386C54.9276 80.0568 52.5512 79.9147 50.2371 79.4171C48.4298 78.882 46.7842 77.9048 45.4492 76.5737C45.1015 76.2737 44.775 75.95 44.4719 75.605C40.9959 71.6025 36.6201 68.4823 31.7041 66.5008C29.7585 65.7025 27.8846 64.7069 26.0017 63.8099C24.4685 63.0475 22.8456 62.4734 21.3572 61.6213C12.2028 56.3741 6.49139 48.6154 4.78782 38.2017C3.04839 27.4919 6.01618 18.0379 13.485 10.1447C18.7046 4.58004 25.7501 1.07821 33.336 0.278068C37.5991 -0.206258 41.9156 0.134822 46.0499 1.28268C46.3548 1.3634 46.3637 1.52484 46.3637 1.77599V19.1053C46.3637 25.3063 46.3637 31.5073 46.3637 37.7083C46.394 39.0722 46.2707 40.4352 45.9961 41.7715C45.8289 42.8055 45.3052 43.7483 44.5158 44.4364C43.7264 45.1245 42.7212 45.5145 41.6745 45.5388C40.6531 45.6482 39.6204 45.5722 38.626 45.3146C37.9809 45.1548 37.3853 44.8377 36.8925 44.3917C36.3997 43.9456 36.0249 43.3844 35.8017 42.7582C35.3027 41.2734 35.0013 39.7293 34.905 38.1658C34.7616 36.611 34.6899 35.0593 34.6899 33.5105C34.7236 33.4025 34.7236 33.2867 34.6899 33.1787H24.1726C24.1726 33.6989 24.1726 34.2191 24.1726 34.7483C24.1416 38.1679 24.6252 41.5726 25.6072 44.8482C25.9079 45.743 26.2581 46.6203 26.6562 47.4762C27.3236 49.0085 28.3295 50.3695 29.5982 51.457C30.867 52.5445 32.3656 53.3302 33.9815 53.755C37.0468 54.5988 40.2387 54.8844 43.4049 54.5981C45.5013 54.491 47.5609 54.0048 49.484 53.163C51.2883 52.3621 52.8819 51.1528 54.1391 49.6305C55.3964 48.1081 56.2828 46.3144 56.7286 44.3907C57.1496 42.7576 57.4109 41.0873 57.5086 39.4036C57.5086 39.269 57.5086 39.1345 57.5086 38.9999C57.7362 38.4813 57.765 37.897 57.5894 37.3585Z" fill="#9B1F1F"/>
<path d="M70.3482 107.008H65.6769C65.632 106.649 65.6141 91.8669 65.6769 91.2749C65.7934 91.1763 65.9369 91.2211 66.0624 91.2211C67.6315 91.2211 69.1916 91.2211 70.7606 91.2211C70.878 91.2082 70.9965 91.2324 71.0995 91.2903C71.2024 91.3482 71.2846 91.437 71.3345 91.544C72.9036 94.2349 74.4995 96.9258 76.0865 99.6167C76.1465 99.7384 76.2359 99.8432 76.3465 99.9217V91.2301H80.9731V106.972C80.8655 107.052 80.7399 107.017 80.6234 107.017C79.0453 107.017 77.4673 107.017 75.8893 107.017C75.7723 107.027 75.6551 107 75.5539 106.941C75.4526 106.881 75.3724 106.792 75.3244 106.685C73.7583 103.994 72.1833 101.303 70.5992 98.6121L70.3213 98.1546L70.3482 107.008Z" fill="#9B1F1F"/>
<path d="M44.9652 105.339L47.3054 107.869C47.177 107.94 47.0274 107.962 46.884 107.931C45.7901 107.931 44.6962 107.931 43.6024 107.931C43.3782 107.964 43.1493 107.93 42.9439 107.835C42.7385 107.739 42.5654 107.586 42.4457 107.393C42.2036 106.999 41.9078 106.963 41.4684 107.07C39.3949 107.59 37.2156 107.5 35.1921 106.81C33.8456 106.374 32.6561 105.553 31.7702 104.448C30.8844 103.344 30.341 102.004 30.207 100.594C29.9804 99.1623 30.0753 97.6977 30.4849 96.3069C30.8098 95.0724 31.458 93.9469 32.3627 93.0466C33.2674 92.1463 34.3958 91.5037 35.6315 91.1852C37.6808 90.5867 39.8584 90.5867 41.9078 91.1852C43.3696 91.5831 44.6742 92.4199 45.6458 93.5827C46.6174 94.7455 47.2091 96.1784 47.3412 97.6882C47.605 99.5584 47.3216 101.465 46.5253 103.178C46.1448 103.989 45.6157 104.723 44.9652 105.339ZM41.9257 102.074C42.3451 101.405 42.6172 100.654 42.7238 99.8717C42.8305 99.0891 42.7693 98.2928 42.5444 97.5357C42.3963 96.7865 42.0097 96.1054 41.4424 95.5945C40.875 95.0835 40.1575 94.7701 39.3973 94.7013C38.4934 94.5234 37.5557 94.6873 36.7657 95.1612C35.9757 95.6351 35.3894 96.3853 35.1204 97.2666C34.6989 98.49 34.6989 99.8194 35.1204 101.043C35.3815 101.819 35.9 102.482 36.5899 102.923C37.2798 103.363 38.0996 103.554 38.9131 103.465L36.9226 101.258C38.0344 101.258 39.0296 101.258 40.0249 101.258C40.3517 101.187 40.6925 101.219 41.0006 101.349C41.3088 101.479 41.5692 101.701 41.7464 101.985C41.7464 101.985 41.854 102.021 41.9257 102.074Z" fill="#9B1F1F"/>
<path d="M30.6013 107.007C29.0412 107.007 27.49 107.007 25.9389 107.007C25.7147 107.007 25.6699 106.882 25.6161 106.729C25.3561 106.039 25.0782 105.348 24.8271 104.648C24.8118 104.57 24.7671 104.5 24.7021 104.453C24.6371 104.407 24.5567 104.387 24.4774 104.397H18.8915L17.8963 107.007H12.9739L13.7181 105.169C15.5711 100.642 17.4241 96.1154 19.2771 91.5887C19.3109 91.4628 19.39 91.3538 19.4992 91.2826C19.6084 91.2114 19.74 91.1831 19.8688 91.203C21.2048 91.203 22.5587 91.203 23.8767 91.203C24.065 91.203 24.1905 91.203 24.2712 91.4272C26.3812 96.5937 28.4942 101.757 30.6102 106.918C30.6102 106.918 30.6103 106.918 30.6013 107.007ZM23.3477 100.836L21.7965 96.8897L20.2633 100.818L23.3477 100.836Z" fill="#9B1F1F"/>
<path d="M64.5831 107.008H61.2477C60.7366 107.008 60.109 107.205 59.7504 106.927C59.3917 106.649 59.3648 106.03 59.1676 105.581C58.9703 105.133 58.9972 104.685 58.6744 104.469C58.3517 104.254 57.8854 104.415 57.4819 104.415H52.8823L51.9857 106.757C51.9229 106.927 51.8602 107.017 51.6539 107.017C50.1387 107.017 48.6234 107.017 47.1171 107.017H46.9736L48.5158 103.24C50.1118 99.3536 51.6988 95.4667 53.2768 91.5799C53.3067 91.4583 53.3818 91.3527 53.4866 91.2844C53.5915 91.2161 53.7185 91.1903 53.8417 91.2122C55.1776 91.2122 56.5315 91.2122 57.8495 91.2122C57.9394 91.1963 58.0319 91.2128 58.1107 91.2588C58.1895 91.3048 58.2495 91.3773 58.2799 91.4633C60.372 96.5939 62.4641 101.719 64.5562 106.837C64.5383 106.846 64.5562 106.9 64.5831 107.008ZM55.7604 96.8989C55.2225 98.2712 54.7293 99.536 54.2362 100.819H57.2847L55.7604 96.8989Z" fill="#9B1F1F"/>
<path d="M0 103.178L4.13339 102.074C4.23201 102.245 4.30374 102.388 4.38444 102.523C4.6419 102.957 5.05144 103.28 5.53356 103.429C6.01569 103.578 6.53603 103.543 6.99358 103.33C7.26127 103.193 7.48631 102.985 7.64434 102.729C7.80238 102.472 7.8874 102.178 7.8902 101.877C7.90364 101.659 7.90364 101.44 7.8902 101.222V91.2031H12.5346C12.6153 91.3108 12.5346 91.4363 12.5346 91.5529C12.5346 94.8448 12.5346 98.1366 12.5346 101.42C12.5474 102.231 12.4324 103.039 12.1939 103.814C11.9657 104.597 11.5356 105.306 10.947 105.869C10.3584 106.433 9.63199 106.832 8.8406 107.026C7.03703 107.552 5.11754 107.531 3.32643 106.963C2.48352 106.688 1.72993 106.192 1.14467 105.526C0.559403 104.86 0.164029 104.049 0 103.178Z" fill="#9B1F1F"/>
<path d="M54.2002 110.075H56.3879C55.4913 113.008 54.5947 115.905 53.6981 118.821C53.0974 118.821 52.5146 118.821 51.9049 118.821C51.6718 118.821 51.6538 118.686 51.609 118.525C51.1607 116.955 50.7124 115.394 50.2282 113.789C50.0708 114.15 49.9477 114.525 49.8606 114.91C49.5109 116.094 49.1523 117.287 48.8295 118.498C48.7578 118.749 48.6681 118.856 48.3991 118.839C47.9419 118.839 47.5025 118.839 47.0184 118.839C46.839 118.839 46.7404 118.838 46.6776 118.605C45.8259 115.78 44.9561 112.963 44.0864 110.102H46.2742C46.7673 111.833 47.2694 113.582 47.7984 115.484C48.3364 113.627 48.8385 111.896 49.3406 110.102H51.08C51.5821 111.833 52.0752 113.573 52.5773 115.313H52.667L54.2002 110.075Z" fill="#9B1F1F"/>
<path d="M0.0986328 118.821V110.057C1.67746 110.008 3.2578 110.044 4.83275 110.165C5.74342 110.305 6.57336 110.768 7.17094 111.469C7.76851 112.171 8.09384 113.064 8.08746 113.986C8.13867 114.646 8.08112 115.309 7.9171 115.95C7.70005 116.789 7.20477 117.528 6.51243 118.048C5.8201 118.568 4.97178 118.837 4.10649 118.812C2.78847 118.847 1.46148 118.821 0.0986328 118.821ZM2.12497 117.027C2.76157 117.027 3.38023 117.027 3.99889 117.027C4.37953 117.03 4.7518 116.915 5.06477 116.698C5.37773 116.481 5.61611 116.173 5.7473 115.816C5.93151 115.38 6.02642 114.912 6.02642 114.439C6.02642 113.966 5.93151 113.498 5.7473 113.062C5.63102 112.727 5.41824 112.434 5.1358 112.221C4.85336 112.007 4.51391 111.881 4.16029 111.86C3.48783 111.806 2.81536 111.86 2.12497 111.86V117.027Z" fill="#9B1F1F"/>
<path d="M78.8392 118.794V118.049C78.5423 118.391 78.164 118.653 77.7393 118.81C77.3145 118.966 76.8571 119.013 76.4094 118.946C76.0173 118.921 75.6341 118.818 75.2817 118.644C74.9294 118.47 74.6149 118.228 74.3561 117.933C73.8328 117.249 73.5598 116.407 73.5826 115.547C73.6055 114.687 73.9228 113.86 74.4816 113.206C75.0629 112.637 75.8433 112.319 76.6559 112.319C77.4686 112.319 78.2489 112.637 78.8302 113.206V109.564H80.8386V118.767L78.8392 118.794ZM78.8392 115.672C78.8769 115.308 78.7914 114.941 78.5964 114.63C78.4014 114.32 78.1081 114.083 77.7632 113.959C77.4689 113.862 77.1536 113.848 76.8517 113.918C76.5499 113.988 76.273 114.139 76.0511 114.356C75.8293 114.572 75.671 114.845 75.5934 115.145C75.5159 115.445 75.5221 115.761 75.6114 116.058C75.643 116.361 75.7638 116.648 75.9585 116.883C76.1532 117.118 76.413 117.289 76.7052 117.376C76.9633 117.468 77.2404 117.492 77.5104 117.447C77.7805 117.402 78.0346 117.289 78.2489 117.119C78.4632 116.948 78.6307 116.726 78.7355 116.473C78.8403 116.22 78.8791 115.944 78.8481 115.672H78.8392Z" fill="#9B1F1F"/>
<path d="M15.7088 116.39H10.9567C10.9368 116.649 11.0198 116.905 11.1877 117.104C11.3555 117.302 11.5947 117.426 11.8533 117.448C12.7275 117.602 13.6276 117.42 14.3728 116.937L15.3501 118.058C14.8346 118.454 14.2423 118.739 13.6109 118.893C12.9796 119.048 12.323 119.069 11.683 118.955C11.1167 118.877 10.5799 118.655 10.1241 118.31C9.66831 117.965 9.30886 117.509 9.08021 116.984C8.85156 116.46 8.76139 115.886 8.81837 115.317C8.87534 114.748 9.07753 114.203 9.40555 113.735C9.68161 113.339 10.0452 113.011 10.4681 112.778C10.891 112.544 11.3619 112.412 11.8443 112.39C12.3568 112.334 12.875 112.365 13.3776 112.479C14.037 112.621 14.6277 112.986 15.0505 113.512C15.4733 114.037 15.7025 114.693 15.6998 115.368C15.7267 115.664 15.7088 115.977 15.7088 116.39ZM10.9567 115.08H13.7272C13.7373 114.906 13.7094 114.732 13.6454 114.57C13.5814 114.407 13.4828 114.261 13.3565 114.141C13.2303 114.02 13.0793 113.929 12.9142 113.873C12.749 113.817 12.5737 113.797 12.4002 113.816C12.2191 113.785 12.0334 113.795 11.8565 113.845C11.6797 113.895 11.5163 113.984 11.378 114.105C11.2398 114.226 11.1303 114.376 11.0574 114.545C10.9845 114.714 10.9501 114.897 10.9567 115.08Z" fill="#9B1F1F"/>
<path d="M36.2769 118.802H34.3492C34.2506 118.614 34.3492 118.408 34.2685 118.175C33.9599 118.543 33.5474 118.809 33.0851 118.938C32.6228 119.068 32.1321 119.055 31.6773 118.901C31.2429 118.822 30.8464 118.603 30.5485 118.277C30.2507 117.951 30.0679 117.537 30.0282 117.097C29.9885 116.657 30.0941 116.216 30.3288 115.842C30.5635 115.468 30.9144 115.182 31.3276 115.026C32.0262 114.765 32.7705 114.649 33.5153 114.685H34.2685C34.2685 114.156 34.1609 113.95 33.6678 113.86C32.8294 113.754 31.9779 113.875 31.2021 114.21L30.5296 112.918C31.9497 112.263 33.5606 112.152 35.0575 112.604C35.4303 112.728 35.7525 112.97 35.9744 113.294C36.1963 113.618 36.3057 114.006 36.2859 114.398C36.3128 115.851 36.2769 117.322 36.2769 118.802ZM34.2416 115.842C33.6353 115.769 33.0201 115.843 32.4484 116.058C32.2863 116.11 32.1494 116.22 32.0648 116.368C31.9802 116.516 31.9539 116.69 31.9911 116.856C32.0184 117.018 32.1016 117.165 32.2261 117.271C32.3507 117.378 32.5087 117.437 32.6725 117.439C33.7664 117.583 34.394 116.946 34.2416 115.842Z" fill="#9B1F1F"/>
<path d="M59.5978 112.39C60.0152 112.373 60.4327 112.421 60.8352 112.533C61.5757 112.688 62.2362 113.104 62.6967 113.705C63.1573 114.305 63.3875 115.051 63.3457 115.807C63.3367 116.571 63.0555 117.307 62.5525 117.883C62.0496 118.458 61.358 118.835 60.602 118.946C59.8281 119.098 59.0293 119.064 58.2708 118.848C57.5565 118.641 56.9341 118.196 56.5059 117.588C56.0778 116.98 55.8695 116.243 55.9154 115.501C55.9614 114.758 56.2588 114.054 56.7586 113.503C57.2585 112.952 57.931 112.588 58.6654 112.47C58.9716 112.404 59.2849 112.377 59.5978 112.39ZM61.3373 115.708C61.3197 115.376 61.2051 115.055 61.0076 114.787C60.8101 114.519 60.5383 114.315 60.2259 114.199C59.9135 114.084 59.5741 114.063 59.2498 114.138C58.9255 114.214 58.6303 114.383 58.401 114.624C58.1716 114.866 58.0181 115.169 57.9593 115.497C57.9005 115.825 57.939 116.163 58.0702 116.469C58.2014 116.775 58.4194 117.036 58.6972 117.22C58.9751 117.404 59.3007 117.502 59.6337 117.502C59.8729 117.516 60.1122 117.477 60.3345 117.388C60.5568 117.298 60.7565 117.161 60.9194 116.985C61.0822 116.809 61.2042 116.6 61.2764 116.371C61.3487 116.143 61.3695 115.901 61.3373 115.663V115.708Z" fill="#9B1F1F"/>
<path d="M16.7307 112.515H18.7122V113.143C18.9794 112.811 19.3355 112.563 19.7388 112.426C20.1421 112.289 20.576 112.271 20.9896 112.372C21.5642 112.4 22.1087 112.638 22.5212 113.039C22.9337 113.44 23.1861 113.978 23.2312 114.551C23.3404 115.966 23.3733 117.385 23.3298 118.803H21.3034C21.3034 117.807 21.3034 116.821 21.3034 115.825C21.3156 115.525 21.2975 115.224 21.2496 114.928C21.1997 114.636 21.0482 114.371 20.8217 114.18C20.5953 113.989 20.3086 113.884 20.0123 113.884C19.716 113.884 19.4293 113.989 19.2029 114.18C18.9765 114.371 18.8249 114.636 18.775 114.928C18.7229 115.263 18.7018 115.603 18.7122 115.942V118.821H16.7307V112.515Z" fill="#9B1F1F"/>
<path d="M29.0681 112.488V114.022H27.2749C27.2446 114.919 27.2596 115.817 27.3197 116.713C27.3915 117.305 27.6784 117.493 28.2791 117.44C28.4853 117.44 28.6915 117.359 28.9247 117.314L29.3281 118.677C28.8095 118.91 28.2432 119.015 27.6758 118.986C27.1084 118.956 26.5561 118.792 26.0645 118.507C25.6397 118.144 25.3754 117.628 25.3293 117.072C25.259 116.359 25.238 115.643 25.2665 114.928C25.2665 114.65 25.2665 114.363 25.2665 114.031H24.1099V112.488H25.2486V110.694H27.257V112.488H29.0681Z" fill="#9B1F1F"/>
<path d="M39.5406 109.609V116.524C39.5406 117.134 39.6661 117.251 40.24 117.296V118.803C39.7364 118.873 39.2237 118.84 38.7337 118.704C38.4339 118.616 38.1667 118.441 37.9658 118.202C37.7648 117.963 37.6389 117.669 37.6039 117.359C37.5534 117.096 37.5294 116.828 37.5322 116.56C37.5322 114.318 37.5322 112.076 37.5322 109.833V109.609H39.5406Z" fill="#9B1F1F"/>
<path d="M70.0971 109.591H72.0517C72.1593 109.716 72.1055 109.869 72.1055 110.012C72.1055 112.022 72.1055 114.031 72.1055 116.04C72.1055 116.219 72.1055 116.39 72.1055 116.569C72.1055 117.134 72.24 117.251 72.8049 117.296V118.803C72.3263 118.864 71.8404 118.84 71.3703 118.731C71.0534 118.652 70.7681 118.478 70.5519 118.233C70.3358 117.988 70.1991 117.683 70.1599 117.359C70.1138 117.092 70.0897 116.822 70.0881 116.551V109.591H70.0971Z" fill="#9B1F1F"/>
<path d="M66.2776 118.811H64.2961V112.533H66.2687V113.143C66.4423 112.906 66.667 112.711 66.9263 112.573C67.1855 112.434 67.4725 112.356 67.766 112.344C68.3393 112.298 68.9151 112.394 69.4427 112.622L68.5461 114.12C68.2244 113.983 67.8819 113.901 67.5329 113.878C67.2401 113.85 66.9479 113.938 66.7185 114.122C66.4891 114.306 66.3406 114.573 66.3046 114.865C66.2346 115.292 66.2135 115.725 66.2418 116.156C66.2687 117.027 66.2776 117.906 66.2776 118.811Z" fill="#9B1F1F"/>
<path d="M57.5895 37.3584C57.772 37.8871 57.756 38.4641 57.5447 38.9819L57.5895 37.3584Z" fill="#8F0909"/>
<path d="M57.6611 7.29248C57.6658 7.32779 57.6586 7.36365 57.6408 7.39447C57.6229 7.4253 57.5954 7.44936 57.5625 7.46291V7.29248H57.6611Z" fill="#8F0909"/>
<path d="M57.6612 7.2921H57.5715V7.23828L57.6612 7.2921Z" fill="#9B1F1F"/>
</g>
<defs>
<clipPath id="clip0_415_66667">
<rect width="81" height="119" fill="white"/>
</clipPath>
</defs>
</svg>
