<svg width="111" height="100" viewBox="0 0 111 100" fill="none" xmlns="http://www.w3.org/2000/svg">
<g clip-path="url(#clip0_208_1300)">
<path d="M9.12415 0.127386C9.33141 -0.000239678 9.49587 0.0423027 9.65132 0.0423027C30.6481 0.0423027 51.6452 0.0389437 72.6427 0.0322266C73.011 0.0322266 73.2194 0.159852 73.4312 0.446449C76.6528 4.83049 79.8819 9.21005 83.1185 13.5851L92.086 25.7353L95.1781 29.9256C95.2457 30.0186 95.3302 30.107 95.2772 30.2436C95.1477 30.3309 94.9979 30.294 94.8559 30.2951C88.8888 30.3182 82.9214 30.3436 76.9535 30.3712C76.5029 30.3712 76.2112 30.2469 75.9251 29.8853C72.6629 25.7655 69.3903 21.6546 66.1071 17.5527C64.3288 15.3137 62.5596 13.0683 60.7993 10.8166C60.7314 10.7158 60.6379 10.6346 60.5284 10.5812C60.4188 10.5277 60.297 10.5039 60.1753 10.5121C54.7954 10.5621 49.4148 10.608 44.0335 10.6498C40.7206 10.68 37.4078 10.7259 34.0949 10.7684C33.9215 10.7684 33.7435 10.7382 33.543 10.8266C33.6083 11.3293 33.8573 11.7782 34.0285 12.2473C34.6018 13.8202 35.2157 15.382 35.7947 16.9493C35.9074 17.2538 36.064 17.3087 36.358 17.2426C38.5988 16.7388 40.8408 16.241 43.0839 15.7492C45.6285 15.1894 48.1765 14.6509 50.7211 14.0945C52.8512 13.6277 54.979 13.1508 57.108 12.6772C57.6228 12.5652 58.1353 12.4421 58.6512 12.3324C58.7864 12.3033 58.9328 12.2305 59.0928 12.3816C58.9407 12.8765 58.5645 13.2526 58.2896 13.6781C56.2699 16.7926 54.2187 19.888 52.1866 22.9958C50.6689 25.3155 49.1614 27.6411 47.664 29.9727C47.6047 30.0795 47.5157 30.1671 47.4076 30.2249C47.2995 30.2827 47.1769 30.3082 47.0546 30.2984C41.1468 30.2932 35.239 30.2932 29.3313 30.2984C28.9269 30.2984 28.7038 30.163 28.4887 29.8294C26.6053 26.9119 24.711 24.0011 22.8058 21.0971C19.5392 16.1093 16.2714 11.1196 13.0025 6.12801C11.7814 4.26215 10.5626 2.39255 9.34605 0.519217C9.27283 0.405026 9.20638 0.271804 9.12415 0.127386Z" fill="#0198D9"/>
<path d="M7.55048 99.9711C8.22634 98.93 8.85038 97.9649 9.47893 97.0033C11.5223 93.8776 13.5656 90.753 15.609 87.6295C17.4113 84.8681 19.2113 82.1066 21.0091 79.3451C23.0209 76.2589 25.0324 73.172 27.0434 70.0844C27.0959 69.9902 27.1747 69.9131 27.2702 69.8623C27.3657 69.8114 27.4739 69.7891 27.5819 69.7978C33.579 69.8023 39.5761 69.8023 45.5733 69.7978C45.8234 69.7978 45.9563 69.893 46.0937 70.1034C49.3559 75.1114 52.6244 80.1146 55.8993 85.1129C56.3769 85.8428 56.8579 86.5682 57.3299 87.3049C57.4223 87.4471 57.5484 87.5792 57.5552 87.7684C57.393 87.8624 57.2341 87.7941 57.0854 87.7616C54.0835 87.0899 51.0861 86.4182 48.083 85.7543C45.9247 85.2808 43.7575 84.8431 41.5992 84.3717C39.441 83.9004 37.3188 83.4123 35.1785 82.9309C35.0208 82.8962 34.8609 82.8738 34.7043 82.8335C34.497 82.7809 34.3765 82.8492 34.2999 83.0507C33.5437 85.0427 32.7901 87.0321 32.0392 89.0189C32.0109 89.0732 31.9978 89.134 32.0012 89.195C32.0045 89.256 32.0243 89.315 32.0583 89.3659C32.7928 89.3659 33.5801 89.3659 34.3664 89.3659C39.7327 89.4129 45.0987 89.4618 50.4643 89.5126C53.1902 89.5372 55.9173 89.5551 58.6444 89.5853C58.7587 89.5952 58.8736 89.5751 58.9776 89.527C59.0816 89.4788 59.171 89.4044 59.2369 89.3111C61.9562 85.8607 64.6806 82.4152 67.4104 78.9745C69.7759 75.9921 72.1628 73.0198 74.5305 70.0363C74.6006 69.9371 74.6954 69.8577 74.8055 69.8057C74.9157 69.7537 75.0375 69.7309 75.1591 69.7396C81.2141 69.7665 87.2694 69.7881 93.3251 69.8045C93.4513 69.8045 93.5887 69.7687 93.7104 69.8773C93.7385 70.1202 93.5515 70.2691 93.4287 70.4371C90.8154 73.9859 88.1991 77.5311 85.5798 81.0725L76.4849 93.3984C74.9507 95.4774 73.412 97.5552 71.8879 99.6409C71.8154 99.7561 71.7131 99.8499 71.5916 99.9123C71.4701 99.9748 71.334 100.004 71.1974 99.9958C50.1421 99.989 29.0864 99.9868 8.03034 99.989C7.89629 99.9935 7.76788 99.9812 7.55048 99.9711Z" fill="#0198D9"/>
<path d="M111.002 65.5615C110.846 65.6836 110.694 65.6421 110.552 65.6421C107.444 65.6421 104.336 65.6365 101.227 65.6545C100.837 65.6545 100.699 65.5156 100.602 65.1686C99.6174 61.6339 98.6242 58.1022 97.6225 54.5734C96.846 51.8276 96.0687 49.0811 95.2907 46.3338C94.8312 44.7097 94.3738 43.0842 93.9187 41.4571C93.8883 41.3452 93.8917 41.2232 93.7126 41.1101L90.3727 51.7914C90.5574 51.9661 90.723 51.8765 90.8762 51.8765C91.8145 51.8765 92.7529 51.8866 93.6923 51.8765C93.9874 51.8765 94.1429 51.9773 94.2364 52.2594C95.4762 56.0979 96.7209 59.9344 97.9705 63.7692C98.1722 64.3894 98.4008 65.0007 98.563 65.7082H96.2831C95.2164 65.7082 95.195 65.7149 94.8582 64.7006C94.09 62.3765 93.3454 60.0457 92.5907 57.7182C92.5467 57.5794 92.478 57.4461 92.451 57.3039C92.389 57.0218 92.2178 56.9513 91.9418 56.9558C91.0182 56.9703 90.0945 56.9726 89.1708 56.9558C88.8689 56.9502 88.7349 57.0509 88.6459 57.3398C87.8349 59.9706 87.0024 62.5948 86.1936 65.2268C86.0968 65.5425 85.9684 65.6623 85.6203 65.6589C83.9194 65.6399 82.2184 65.6511 80.5187 65.6489C80.3767 65.6489 80.2269 65.6802 80.05 65.566C80.2956 64.8428 80.5378 64.1106 80.7901 63.3897C81.9323 60.1177 83.076 56.8457 84.2212 53.5737C85.7434 49.23 87.2664 44.8862 88.7901 40.5425C89.6026 38.2199 90.4076 35.8943 91.2052 33.5656C91.3178 33.2533 91.4597 33.1413 91.7977 33.1436C94.3051 33.1578 96.8122 33.1578 99.3189 33.1436C99.6174 33.1436 99.7604 33.2309 99.8573 33.5164C100.421 35.171 101.006 36.819 101.584 38.4691C102.43 40.8828 103.283 43.2943 104.123 45.7102C105.215 48.8449 106.292 51.9862 107.39 55.1209C108.435 58.1178 109.51 61.1058 110.53 64.1117C110.689 64.5898 110.945 65.0555 111.002 65.5615Z" fill="#0198D9"/>
<path d="M33.1792 49.0754C33.1792 54.467 33.1822 59.8582 33.1882 65.2491C33.1882 65.6476 33.0868 65.7663 32.6768 65.764C29.32 65.7484 25.9628 65.7484 22.6053 65.764C22.1852 65.764 22.0973 65.6308 22.0973 65.2423C22.1063 54.4457 22.1063 43.6494 22.0973 32.8535C22.0973 32.4259 22.2257 32.3162 22.6425 32.3184C25.9553 32.3329 29.2693 32.3262 32.5821 32.3262C33.178 32.3262 33.1803 32.3262 33.1803 32.9453L33.1792 49.0754Z" fill="#0198D9"/>
<path d="M69.3895 60.3308C65.4109 54.6482 61.6092 48.8804 57.6836 43.1708C57.7962 42.9469 58.0024 42.8283 58.1804 42.6883C60.3476 40.9755 62.5175 39.2663 64.69 37.5609C65.1744 37.1803 65.2285 37.1859 65.5912 37.6729C68.0055 40.8963 70.4183 44.1206 72.8296 47.3455C75.1276 50.4197 77.4041 53.5096 79.7313 56.5625C80.2179 57.2007 80.3396 57.7492 79.9667 58.4657C79.4767 59.4072 78.9845 60.3387 78.2838 61.1526C76.5604 63.142 74.4213 64.5257 71.9645 65.4437C69.6711 66.3158 67.2184 66.6972 64.7666 66.5632C62.4171 66.438 60.1233 65.805 58.0452 64.7082C56.8063 64.044 55.6537 63.2319 54.6129 62.29C54.3505 62.0571 54.3246 61.8937 54.5645 61.6183C55.4375 60.6107 56.2902 59.6032 57.1361 58.5743C57.4031 58.2519 57.6352 58.2485 57.9449 58.5105C59.0414 59.4571 60.2605 60.2534 61.5698 60.8783C64.048 62.0291 66.4946 61.9866 68.9085 60.688C69.0212 60.6253 69.1338 60.5559 69.2465 60.4842C69.2982 60.437 69.3461 60.3857 69.3895 60.3308Z" fill="#0198D9"/>
<path d="M37.1645 51.8079C37.018 52.1135 37.0868 52.4214 37.0901 52.717C37.1112 55.265 37.1397 57.8138 37.1757 60.3633C37.1971 61.9653 37.2354 63.5673 37.2602 65.1694C37.2704 65.7683 37.2602 65.7694 36.6812 65.7694C36.1022 65.7694 35.5075 65.7493 34.9217 65.7762C34.5545 65.7929 34.4509 65.6698 34.4498 65.3082C34.4453 61.4906 34.4306 57.6734 34.4058 53.8566C34.3916 51.278 34.3694 48.6997 34.3394 46.1219C34.3311 45.9778 34.3575 45.8338 34.4162 45.7018C34.475 45.5699 34.5645 45.4537 34.6773 45.3628C36.6568 43.6112 38.6315 41.8535 40.6012 40.0899C43.0906 37.8509 45.5729 35.6081 48.0481 33.3616C48.1703 33.2387 48.3165 33.1419 48.4776 33.077C48.6387 33.0122 48.8115 32.9806 48.9853 32.9843C50.9779 33 52.9717 32.9899 54.9655 32.9944C55.1311 32.9944 55.3192 32.9294 55.4724 33.0963C55.3767 33.3773 55.1108 33.5038 54.9171 33.6885C52.0777 36.3843 49.2353 39.0775 46.39 41.7681C45.609 42.5002 44.8216 43.2216 44.0278 43.9321C43.7755 44.156 43.7203 44.3374 43.887 44.6732C45.3942 47.7161 46.9025 50.76 48.359 53.8286C50.1613 57.6205 52.0503 61.3697 53.8785 65.1503C53.9585 65.3172 54.0734 65.4761 54.07 65.6754C53.9393 65.8243 53.7659 65.7661 53.6194 65.7672C50.3798 65.7672 47.1402 65.7672 43.9005 65.775C43.5987 65.775 43.4342 65.7 43.3035 65.4045C41.3818 61.0607 39.45 56.7211 37.508 52.3856C37.4112 52.1919 37.3627 51.9702 37.1645 51.8079Z" fill="#0198D9"/>
<path d="M75.0848 0.155426C75.1974 0.0311595 75.3596 0.0703429 75.4982 0.0681038C76.8611 0.0434744 78.2241 0.0333986 79.5871 -0.000186943C79.8991 -0.00690406 80.085 0.0983313 80.2754 0.350223C81.8174 2.40118 83.3821 4.43535 84.9354 6.47847C87.8123 10.2639 90.6878 14.0502 93.5617 17.8371C95.5577 20.4598 97.5579 23.0791 99.5622 25.695C100.58 27.0273 101.597 28.361 102.611 29.6962C102.7 29.8137 102.849 29.9268 102.784 30.1126C102.707 30.2179 102.598 30.1955 102.499 30.1977C101.107 30.2224 99.7154 30.238 98.3231 30.2739C98.1878 30.2855 98.052 30.2604 97.9299 30.2013C97.8079 30.1421 97.7044 30.0511 97.6304 29.938C93.3672 24.3292 89.0984 18.7245 84.8239 13.1239C81.6271 8.92201 78.4355 4.71635 75.2492 0.506956C75.1715 0.40508 75.0769 0.300964 75.0848 0.155426Z" fill="#0198D9"/>
<path d="M25.8911 30.199C25.4123 30.199 24.9618 30.1923 24.5112 30.199C23.4557 30.218 22.4014 30.2348 21.347 30.2729C21.2114 30.2884 21.0742 30.2626 20.9536 30.1991C20.8329 30.1355 20.7345 30.0371 20.6712 29.9169C17.8821 25.5732 15.0863 21.2339 12.2838 16.8991C8.86164 11.5933 5.44179 6.28719 2.02418 0.980672C1.85522 0.717585 1.62542 0.476888 1.57361 0.128718C1.88113 0.016766 2.1909 0.0671446 2.49278 0.061547C3.7082 0.0369175 4.92475 0.0313196 6.1413 -2.69441e-05C6.27003 -0.0122275 6.39948 0.0142131 6.51293 0.0758792C6.62638 0.137545 6.71862 0.231604 6.77774 0.345905C9.54276 4.65232 12.3145 8.95463 15.0931 13.2528C17.0598 16.3054 19.0228 19.3598 20.9821 22.4161C22.5377 24.832 24.1046 27.2412 25.6624 29.6549C25.7537 29.7982 25.8877 29.9247 25.8911 30.199Z" fill="#0198D9"/>
<path d="M73.4446 99.9495C74.0901 99.0919 74.6961 98.2792 75.31 97.4709C77.4773 94.6116 79.6498 91.7535 81.8276 88.8965C85.6424 83.8795 89.4584 78.8637 93.2755 73.849C94.2307 72.5951 95.1905 71.3458 96.1401 70.0863C96.1928 70.0009 96.268 69.9314 96.3575 69.8853C96.447 69.8391 96.5474 69.818 96.6481 69.8243C98.055 69.8568 99.4642 69.8736 100.869 69.9016C101.01 69.9016 101.165 69.9016 101.279 70.0225C101.279 70.2016 101.134 70.3046 101.041 70.4266C98.4414 73.8404 95.8393 77.252 93.235 80.6613C90.3738 84.4229 87.5202 88.1886 84.6741 91.9584C82.7051 94.5489 80.7301 97.1346 78.749 99.7155C78.6364 99.8689 78.5294 99.9999 78.2985 99.9987C76.7586 99.9876 75.2188 99.992 73.6801 99.9898C73.6007 99.9821 73.522 99.9687 73.4446 99.9495Z" fill="#0198D9"/>
<path d="M24.3197 69.9792C24.3039 70.2165 24.162 70.3553 24.0606 70.5109C20.6746 75.7734 17.2863 81.0352 13.8957 86.2962C11.6038 89.851 9.3081 93.4033 7.00867 96.9529C6.41504 97.872 5.82817 98.7945 5.23679 99.7147C5.15118 99.8468 5.0836 99.9946 4.87972 99.9935C3.26891 99.9935 1.65699 99.9935 0 99.9935C0.0754711 99.6005 0.33793 99.3487 0.513654 99.0665C2.85889 95.4094 5.21013 91.755 7.56739 88.1031C9.0126 85.864 10.4725 83.6362 11.9165 81.3972C13.2762 79.2891 14.62 77.1721 15.9717 75.0618C17.0272 73.4172 18.0917 71.7794 19.1505 70.1359C19.1987 70.0451 19.2708 69.9689 19.359 69.9155C19.4473 69.8621 19.5485 69.8334 19.6518 69.8325C21.1612 69.8549 22.6706 69.8818 24.18 69.9131C24.2206 69.9142 24.2578 69.9478 24.3197 69.9792Z" fill="#0198D9"/>
<path d="M75.1377 32.4917C78.1498 32.5085 80.5266 33.4993 82.4156 35.5592C83.1377 36.3429 83.5882 37.3314 84.1548 38.2292C84.7214 39.1271 84.7113 39.1506 83.7133 39.585C82.7479 40.0048 81.7803 40.4213 80.824 40.8612C80.5243 40.9989 80.3666 40.9396 80.1706 40.681C79.4835 39.7753 78.784 38.8786 78.0552 38.0053C77.154 36.9239 74.8482 36.4794 73.5776 37.1097C72.7362 37.5251 72.4298 38.2404 72.6765 39.145C72.8691 39.8436 73.3196 40.3765 73.7578 40.9239C74.4795 41.8195 75.1993 42.7196 75.9172 43.6242C76.3678 44.1907 76.3441 44.6385 75.8564 45.1725C75.589 45.4641 75.233 45.6608 74.8426 45.7323C74.7014 45.769 74.5521 45.7605 74.416 45.7081C74.2799 45.6556 74.1639 45.5618 74.0845 45.4401C71.6514 42.2696 69.2108 39.1047 66.7627 35.9454C66.6084 35.745 66.3729 35.5547 66.7525 35.3174C69.3839 33.6683 72.1842 32.5354 75.1377 32.4917Z" fill="#0198D9"/>
</g>
<defs>
<clipPath id="clip0_208_1300">
<rect width="111" height="100" fill="white"/>
</clipPath>
</defs>
</svg>
