<svg width="125" height="50" viewBox="0 0 125 50" fill="none" xmlns="http://www.w3.org/2000/svg">
<rect y="22.4731" width="30.3676" height="30.3676" rx="5" transform="rotate(-45 0 22.4731)" fill="#BAB6AF"/>
<rect x="20.7071" y="12" width="15.9705" height="15.9705" rx="2.5" transform="rotate(-45 20.7071 12)" stroke="#01838C"/>
<path d="M54.02 32.92H51.32C51.28 32.4133 51.1067 32.0067 50.8 31.7C50.5067 31.3933 50.1133 31.24 49.62 31.24C49.1667 31.24 48.7933 31.3733 48.5 31.64C48.2067 31.9067 48.06 32.26 48.06 32.7C48.06 33.18 48.2533 33.5667 48.64 33.86C49.0267 34.14 49.62 34.4067 50.42 34.66C52.9933 35.5 54.28 37.0133 54.28 39.2C54.28 40.3067 53.88 41.2933 53.08 42.16C52.28 43.0133 51.1333 43.44 49.64 43.44C48.2667 43.44 47.1467 43.0533 46.28 42.28C45.4267 41.5067 44.9467 40.42 44.84 39.02H47.66C47.82 40.42 48.4933 41.12 49.68 41.12C50.2267 41.12 50.66 40.9533 50.98 40.62C51.3133 40.2733 51.48 39.8533 51.48 39.36C51.48 38.8 51.2867 38.3467 50.9 38C50.5267 37.64 49.9 37.32 49.02 37.04C46.54 36.2133 45.3 34.78 45.3 32.74C45.3 31.6067 45.7133 30.6867 46.54 29.98C47.3667 29.2733 48.4 28.92 49.64 28.92C50.9333 28.92 51.9733 29.2867 52.76 30.02C53.5467 30.74 53.9667 31.7067 54.02 32.92ZM60.5905 43V29.36H63.4505V43H60.5905ZM70.1569 43V29.36H73.0169V40.52H78.5169V43H70.1569ZM93.9516 29.36L88.8716 43H86.2916L81.3316 29.36H84.3916L86.8116 36.64C87.1716 37.68 87.4516 38.66 87.6516 39.58H87.7116C87.8582 38.8867 88.1382 37.9 88.5516 36.62L90.9916 29.36H93.9516ZM107.391 29.36V31.84H102.111V34.78H107.211V37.14H102.111V40.52H107.611V43H99.2506V29.36H107.391ZM120.77 37.24L124.99 43H121.59L117.89 37.64H116.99V43H114.13V29.36H118.37C120.17 29.36 121.483 29.7467 122.31 30.52C123.136 31.2933 123.55 32.2933 123.55 33.52C123.55 34.4667 123.29 35.2667 122.77 35.92C122.25 36.5733 121.583 37.0133 120.77 37.24ZM120.61 33.64C120.61 33.0133 120.43 32.5267 120.07 32.18C119.71 31.8333 119.19 31.66 118.51 31.66H116.99V35.54H118.53C119.17 35.54 119.676 35.3667 120.05 35.02C120.423 34.6733 120.61 34.2133 120.61 33.64Z" fill="#3F3F3F"/>
</svg>
