<svg width="133" height="135" viewBox="0 0 133 135" fill="none" xmlns="http://www.w3.org/2000/svg">
<g clip-path="url(#clip0_681_17330)">
<path d="M110.78 88.6701C96.8616 82.4211 81.7814 79.1906 66.5289 79.1906C51.2764 79.1906 36.1962 82.4211 22.2773 88.6701V0H110.78V88.6701Z" fill="#141E8C"/>
<path d="M32.7667 27.0607C31.6247 27.0654 30.5268 27.5035 29.6942 28.2867C28.8616 29.0699 28.3561 30.1401 28.2795 31.2817H26.2884V25.0225H41.8421C41.5863 28.7724 40.0057 32.3085 37.3838 34.9968C37.3838 34.9968 33.0553 40.0562 32.911 42.2245H35.4215C39.0286 42.2245 39.3893 38.0035 39.3893 38.0035H41.4093V44.2772H25.5381C25.5381 44.2772 24.961 39.5213 30.4582 33.7536C30.4582 33.7536 33.8344 29.9662 34.6135 26.9884L32.7667 27.0607Z" fill="white"/>
<path d="M72.2136 44.3206V42.2679H71.7519C71.5499 42.2698 71.3494 42.2316 71.1622 42.1554C70.975 42.0793 70.8047 41.9667 70.6611 41.8242C70.5176 41.6818 70.4036 41.5122 70.3259 41.3253C70.2481 41.1385 70.2081 40.938 70.2081 40.7356V28.6219C70.2081 28.2117 70.3707 27.8182 70.6603 27.5282C70.9498 27.2381 71.3425 27.0751 71.7519 27.0751H72.2136V25.0225H61.9407V27.0751H62.4168C62.6195 27.0732 62.8207 27.1114 63.0087 27.1873C63.1967 27.2633 63.368 27.3756 63.5127 27.5179C63.6574 27.6602 63.7727 27.8297 63.852 28.0166C63.9314 28.2035 63.9732 28.4043 63.9751 28.6074V40.7067C63.9751 41.1169 63.8124 41.5103 63.5229 41.8004C63.2334 42.0905 62.8407 42.2534 62.4312 42.2534H61.9407V44.3061L72.2136 44.3206Z" fill="white"/>
<path d="M59.8196 44.3348V38.0611H57.7131C57.7131 38.0611 57.3235 42.2821 53.7165 42.2821H51.6965V35.7049H52.4323C52.842 35.7086 53.234 35.8723 53.525 36.1612C53.8161 36.45 53.9831 36.8413 53.9906 37.2516V38.0322H56.025V31.2815H53.9906V32.0766C53.9869 32.487 53.8235 32.8798 53.5352 33.1713C53.2469 33.4629 52.8564 33.6302 52.4468 33.6378H51.6965V27.0605H53.7597C57.3668 27.0605 57.7564 31.2815 57.7564 31.2815H59.8196V25.0078H43.5012V27.075H43.9774C44.1794 27.073 44.3798 27.1113 44.5671 27.1874C44.7543 27.2636 44.9246 27.3761 45.0681 27.5186C45.2117 27.6611 45.3256 27.8306 45.4034 28.0175C45.4812 28.2044 45.5212 28.4048 45.5212 28.6072V40.7065C45.5212 41.1167 45.3585 41.5101 45.069 41.8002C44.7795 42.0903 44.3868 42.2532 43.9774 42.2532H43.5012V44.3059L59.8196 44.3348Z" fill="white"/>
<path d="M83.006 27.0607C84.1481 27.0654 85.246 27.5035 86.0786 28.2867C86.9111 29.0699 87.4166 30.1401 87.4932 31.2817H89.4555V25.0225H74.6954C74.6954 25.0225 72.3435 28.087 78.4756 34.9968C78.4756 34.9968 82.8041 40.0562 82.9195 42.2245H80.4234C76.8307 42.2245 76.4412 38.0035 76.4412 38.0035H74.3635V44.2772H89.2824C89.2824 44.2772 91.9949 41.3861 85.2857 33.7536C85.2857 33.7536 81.7652 30.1397 81.1159 26.9884L83.006 27.0607Z" fill="white"/>
<path d="M100.32 27.0607C101.46 27.0657 102.557 27.5042 103.387 28.2877C104.217 29.0713 104.719 30.1413 104.793 31.2817H106.769V25.0225H91.9947C91.9947 25.0225 89.6573 28.087 95.7749 34.9968C95.7749 34.9968 100.103 40.0562 100.233 42.2245H97.7372C94.1301 42.2245 93.755 38.0035 93.755 38.0035H91.6773V44.2772H106.611C106.611 44.2772 109.309 41.3861 102.599 33.7536C102.599 33.7536 99.0934 30.1397 98.4586 26.9884L100.32 27.0607Z" fill="white"/>
<path d="M0.0865698 127.772C0.586613 128.047 1.12009 128.256 1.67368 128.394C2.22934 128.546 2.80062 128.633 3.37622 128.654C3.69967 128.627 4.0191 128.564 4.32849 128.466C4.63094 128.379 4.91471 128.237 5.16533 128.047C5.42353 127.853 5.6314 127.6 5.77132 127.31C5.92282 126.969 5.99675 126.598 5.98774 126.225C5.98863 125.918 5.91432 125.615 5.77132 125.344C5.6448 125.089 5.47377 124.859 5.26633 124.664C5.04433 124.449 4.79142 124.269 4.51606 124.129L3.6215 123.652L2.56824 123.117C2.24385 122.95 1.93058 122.762 1.6304 122.554C1.33051 122.354 1.06697 122.105 0.851269 121.816C0.628053 121.523 0.45273 121.196 0.331851 120.848C0.0201306 119.831 0.0920168 118.736 0.533847 117.769C0.778001 117.274 1.13969 116.847 1.58711 116.526C2.01806 116.199 2.50797 115.958 3.02994 115.817C3.56299 115.685 4.11153 115.627 4.66034 115.644C5.70651 115.632 6.74815 115.783 7.74799 116.092L7.63257 117.986C7.17192 117.78 6.68709 117.635 6.18974 117.552C5.71509 117.454 5.23155 117.406 4.74691 117.408C4.45457 117.409 4.16359 117.447 3.88121 117.523C3.5933 117.583 3.32228 117.707 3.08765 117.885C2.84881 118.049 2.65127 118.267 2.51052 118.521C2.35389 118.829 2.27934 119.172 2.2941 119.518C2.28335 119.786 2.33266 120.052 2.43838 120.299C2.5428 120.515 2.68445 120.71 2.8568 120.877C3.04482 121.055 3.25305 121.21 3.47722 121.339L4.19863 121.73L5.32404 122.279C5.71447 122.463 6.09065 122.675 6.44945 122.915C6.79037 123.127 7.0969 123.391 7.35843 123.696C7.63035 124.005 7.84092 124.363 7.97885 124.751C8.14349 125.215 8.22174 125.705 8.2097 126.196C8.22347 126.847 8.09545 127.494 7.83456 128.09C7.60441 128.605 7.2588 129.06 6.82458 129.42C6.39791 129.767 5.90782 130.027 5.38175 130.186C4.78185 130.363 4.16028 130.456 3.53493 130.461C2.96013 130.449 2.38665 130.401 1.81796 130.316C1.1968 130.208 0.587837 130.039 0 129.81L0.0865698 127.772Z" fill="black"/>
<path d="M12.4804 125.213C12.4775 125.704 12.5505 126.191 12.6968 126.659C12.8373 127.078 13.064 127.463 13.3622 127.79C13.6605 128.116 14.0236 128.376 14.4282 128.553C14.8837 128.749 15.3752 128.847 15.871 128.842C16.3578 128.838 16.8423 128.775 17.3139 128.654C17.7758 128.549 18.222 128.383 18.6413 128.162L18.7711 129.753C18.3072 129.949 17.8234 130.094 17.3283 130.186C16.7808 130.285 16.2254 130.334 15.669 130.331C14.8911 130.334 14.1189 130.197 13.3894 129.926C12.7661 129.668 12.2088 129.273 11.759 128.77C11.3013 128.251 10.9616 127.64 10.7634 126.977C10.5314 126.238 10.4194 125.467 10.4316 124.693C10.4276 123.977 10.5347 123.265 10.749 122.583C10.9396 121.94 11.2532 121.341 11.6724 120.819C12.0609 120.315 12.5529 119.901 13.1152 119.605C13.7245 119.286 14.4046 119.127 15.0919 119.142C15.788 119.129 16.4783 119.272 17.1119 119.561C17.6435 119.824 18.1002 120.216 18.4393 120.703C18.7875 121.225 19.0324 121.809 19.1607 122.424C19.3048 123.123 19.3773 123.835 19.3771 124.549V125.199H12.4804V125.213ZM17.386 123.884C17.381 123.487 17.3473 123.09 17.285 122.698C17.2216 122.334 17.0998 121.983 16.9243 121.657C16.747 121.335 16.4819 121.071 16.16 120.894C15.8381 120.717 15.4726 120.636 15.1063 120.66C14.7067 120.646 14.3114 120.746 13.9665 120.949C13.6485 121.135 13.3733 121.387 13.1585 121.686C12.932 122 12.7657 122.353 12.6679 122.727C12.5553 123.103 12.4923 123.492 12.4804 123.884H17.386Z" fill="black"/>
<path d="M23.3737 125.214C23.3683 125.705 23.4464 126.194 23.6046 126.659C23.7367 127.084 23.9583 127.476 24.2545 127.808C24.5508 128.139 24.9146 128.403 25.3215 128.582C25.777 128.778 26.2685 128.877 26.7644 128.871C27.25 128.878 27.7347 128.825 28.2072 128.712C28.6731 128.605 29.1238 128.439 29.549 128.221L29.6644 129.811C29.2005 130.007 28.7168 130.152 28.2216 130.244C27.6741 130.343 27.1187 130.392 26.5624 130.389C25.789 130.393 25.0213 130.256 24.2971 129.984C23.6674 129.73 23.1046 129.335 22.6523 128.828C22.1858 128.303 21.8409 127.681 21.6423 127.006C21.4103 126.268 21.2983 125.497 21.3105 124.722C21.3112 124.006 21.4232 123.294 21.6423 122.612C21.8388 121.972 22.1519 121.374 22.5657 120.848C22.9573 120.348 23.4487 119.934 24.0086 119.634C24.6146 119.32 25.2887 119.161 25.9708 119.171C26.6717 119.157 27.367 119.3 28.0052 119.591C28.5299 119.857 28.9809 120.25 29.3182 120.733C29.6724 121.251 29.9179 121.836 30.0396 122.453C30.1982 123.15 30.2853 123.862 30.2993 124.578V125.228H23.3737V125.214ZM28.2649 123.884C28.2671 123.487 28.2333 123.09 28.1639 122.699C28.1005 122.334 27.9787 121.983 27.8032 121.658C27.6391 121.361 27.4003 121.111 27.1106 120.935C26.7642 120.75 26.3777 120.654 25.9852 120.654C25.5928 120.654 25.2063 120.75 24.8598 120.935C24.5374 121.121 24.2573 121.372 24.0374 121.672C23.8167 121.989 23.6509 122.341 23.5469 122.713C23.4343 123.089 23.3712 123.477 23.3593 123.87L28.2649 123.884Z" fill="black"/>
<path d="M32.7378 117.176V115.08H34.7866V117.176H32.7378ZM32.7378 130.099V119.388H34.7866V130.099H32.7378Z" fill="black"/>
<path d="M37.8888 130.1V121.846C37.8888 121.426 37.8888 121.007 37.8888 120.617C37.8888 120.227 37.8888 119.793 37.8022 119.388H39.7212V121.238C40.0087 120.604 40.4773 120.069 41.0679 119.701C41.6585 119.333 42.3446 119.149 43.0397 119.171C43.5845 119.156 44.1261 119.259 44.6268 119.475C45.0527 119.658 45.4214 119.953 45.6945 120.328C45.9735 120.723 46.1699 121.17 46.2717 121.643C46.399 122.203 46.4619 122.775 46.4592 123.349V130.1H44.4104V123.811C44.4084 123.444 44.3843 123.077 44.3383 122.713C44.3087 122.383 44.2104 122.063 44.0497 121.773C43.9157 121.502 43.7049 121.275 43.4437 121.123C43.1259 120.948 42.7669 120.863 42.4049 120.877C41.9803 120.861 41.5599 120.966 41.1929 121.181C40.883 121.38 40.6217 121.647 40.4282 121.961C40.2258 122.3 40.0842 122.672 40.0098 123.06C39.9285 123.474 39.8898 123.895 39.8943 124.317V130.1H37.8888Z" fill="black"/>
<path d="M49.9796 132.586C50.4373 132.829 50.9215 133.018 51.4224 133.15C51.9412 133.282 52.4743 133.35 53.0096 133.352C53.5277 133.362 54.0427 133.269 54.5245 133.077C54.9362 132.904 55.2982 132.631 55.5778 132.282C55.8569 131.923 56.0584 131.509 56.1694 131.068C56.2926 130.557 56.3508 130.032 56.3425 129.507V128.235C56.0539 128.843 55.5854 129.348 55.0007 129.68C54.4247 129.993 53.78 130.156 53.125 130.156C52.47 130.156 51.8253 129.993 51.2493 129.68C50.7382 129.368 50.3002 128.949 49.9652 128.452C49.6252 127.92 49.381 127.333 49.2438 126.717C49.0981 126.058 49.0351 125.383 49.0562 124.708C49.0529 124.007 49.1303 123.309 49.2871 122.626C49.4178 121.999 49.6623 121.401 50.0085 120.862C50.3519 120.321 50.8313 119.88 51.3986 119.584C51.9658 119.287 52.601 119.144 53.2404 119.171C53.9026 119.166 54.5546 119.335 55.1305 119.663C55.7088 119.999 56.1716 120.503 56.4579 121.108V119.388H58.4202V129.507C58.5109 130.967 58.07 132.41 57.1793 133.569C56.6849 134.073 56.0868 134.464 55.4265 134.714C54.7663 134.963 54.0597 135.066 53.3558 135.014C52.7656 135.012 52.1767 134.959 51.5956 134.855C51.0103 134.752 50.432 134.612 49.8642 134.436L49.9796 132.586ZM51.7687 127.208C51.9549 127.556 52.2161 127.857 52.5334 128.09C52.9115 128.321 53.3458 128.444 53.7887 128.444C54.2316 128.444 54.6659 128.321 55.044 128.09C55.3757 127.85 55.6554 127.545 55.8664 127.194C56.0678 126.817 56.2136 126.413 56.2992 125.994C56.3829 125.575 56.4311 125.149 56.4435 124.722C56.4439 124.276 56.4004 123.83 56.3136 123.392C56.2422 122.949 56.1009 122.519 55.8952 122.12C55.6977 121.747 55.4161 121.425 55.0728 121.18C54.7108 120.925 54.2742 120.798 53.832 120.819C53.372 120.8 52.9177 120.926 52.5334 121.18C52.1964 121.414 51.9274 121.733 51.7543 122.106C51.5533 122.504 51.4215 122.935 51.3647 123.378C51.2956 123.827 51.2618 124.282 51.2637 124.737C51.2729 125.167 51.3115 125.597 51.3792 126.023C51.4363 126.443 51.5682 126.85 51.7687 127.223V127.208Z" fill="black"/>
<path d="M67.9861 130.1V114.632H70.0205V121.152C70.2664 120.539 70.7145 120.029 71.2902 119.706C71.8535 119.37 72.4959 119.191 73.1514 119.186C73.8343 119.169 74.51 119.328 75.1137 119.648C75.6444 119.94 76.0915 120.363 76.4122 120.877C76.7584 121.416 77.0029 122.014 77.1336 122.641C77.4216 124.013 77.4216 125.431 77.1336 126.804C77.0101 127.424 76.7859 128.02 76.4699 128.567C76.1374 129.088 75.6877 129.524 75.1569 129.84C74.5655 130.18 73.8913 130.351 73.2091 130.331C72.5437 130.347 71.8877 130.171 71.319 129.825C70.7436 129.485 70.2816 128.982 69.9916 128.38V130.158H67.9861V130.1ZM70.5255 127.339C70.7251 127.714 71.0002 128.044 71.3334 128.307C71.6897 128.577 72.1281 128.715 72.5743 128.698C73.0315 128.713 73.4816 128.582 73.8584 128.322C74.1936 128.07 74.4654 127.743 74.652 127.368C74.8465 126.961 74.9779 126.527 75.0415 126.081C75.1155 125.632 75.1541 125.178 75.1569 124.722C75.1598 124.267 75.126 123.813 75.0559 123.363C74.9971 122.927 74.8705 122.503 74.6808 122.106C74.4951 121.742 74.2286 121.425 73.9017 121.181C73.5226 120.945 73.0853 120.82 72.6392 120.82C72.1931 120.82 71.7558 120.945 71.3767 121.181C71.0376 121.426 70.7609 121.748 70.5687 122.12C70.3538 122.513 70.2028 122.938 70.1215 123.378C70.0347 123.816 69.9912 124.261 69.9916 124.708C69.9936 125.154 70.0322 125.598 70.107 126.038C70.1784 126.49 70.3196 126.929 70.5255 127.339Z" fill="black"/>
<path d="M81.4766 125.214C81.4737 125.704 81.5467 126.192 81.693 126.659C81.8276 127.085 82.0517 127.477 82.3504 127.809C82.6491 128.141 83.0154 128.404 83.4244 128.582C83.8791 128.781 84.3712 128.879 84.8673 128.871C85.353 128.879 85.8377 128.826 86.3101 128.712C86.7774 128.609 87.2287 128.444 87.6519 128.221L87.7818 129.811C87.2947 130.012 86.7865 130.158 86.2668 130.244C85.7192 130.343 85.1639 130.391 84.6075 130.389C83.8295 130.393 83.0571 130.256 82.3279 129.984C81.6967 129.733 81.1332 129.337 80.683 128.828C80.2349 128.305 79.9008 127.695 79.7019 127.035C79.4619 126.288 79.345 125.507 79.3556 124.722C79.3517 124.007 79.4588 123.295 79.6731 122.612C79.8637 121.97 80.1773 121.371 80.5965 120.848C80.9826 120.342 81.4752 119.928 82.0393 119.634C82.6486 119.315 83.3287 119.156 84.016 119.171C84.7121 119.158 85.4023 119.302 86.036 119.591C86.5649 119.857 87.0207 120.249 87.3634 120.733C87.7116 121.254 87.9565 121.838 88.0848 122.453C88.2289 123.152 88.3014 123.864 88.3012 124.578V125.228H81.4766V125.214ZM86.3678 123.884C86.3677 123.487 86.3387 123.091 86.2812 122.699C86.2111 122.336 86.0896 121.986 85.9205 121.658C85.7432 121.336 85.4781 121.071 85.1562 120.894C84.8343 120.718 84.4688 120.637 84.1026 120.66C83.7029 120.646 83.3076 120.747 82.9627 120.949C82.6448 121.136 82.3695 121.387 82.1547 121.687C81.924 122 81.7528 122.352 81.6497 122.728C81.5489 123.105 81.4908 123.493 81.4766 123.884H86.3678Z" fill="black"/>
<path d="M89.9892 133.179C90.318 133.271 90.6576 133.32 90.9991 133.323C91.222 133.331 91.4434 133.286 91.6462 133.193C91.849 133.101 92.0275 132.962 92.1678 132.788C92.4985 132.289 92.7424 131.736 92.8893 131.155L93.1057 130.49L89.4553 119.388H91.6917L94.1878 128.206L96.6695 119.388H98.7471L94.7938 131.545C94.6613 131.963 94.5072 132.373 94.3321 132.774C94.1612 133.165 93.9432 133.534 93.6828 133.873C93.4113 134.228 93.0587 134.514 92.6546 134.705C92.2504 134.896 91.8065 134.987 91.3599 134.971C90.8745 134.972 90.3905 134.919 89.917 134.812L89.9892 133.179Z" fill="black"/>
<path d="M102.6 129.941C101.68 129.527 100.927 128.814 100.464 127.917C99.6443 126.216 99.5099 124.265 100.089 122.467C100.313 121.822 100.656 121.223 101.099 120.704C101.545 120.222 102.085 119.838 102.686 119.576C103.347 119.293 104.059 119.151 104.778 119.157C105.514 119.153 106.244 119.291 106.928 119.562C107.531 119.813 108.073 120.193 108.515 120.675C108.956 121.189 109.285 121.79 109.482 122.438C109.703 123.179 109.81 123.949 109.799 124.722C109.809 125.481 109.702 126.237 109.482 126.963C109.279 127.622 108.951 128.236 108.515 128.77C108.083 129.277 107.54 129.678 106.928 129.941C106.249 130.229 105.516 130.372 104.778 130.36C104.031 130.366 103.291 130.224 102.6 129.941ZM102.6 127.454C102.829 127.819 103.134 128.13 103.494 128.365C103.887 128.599 104.336 128.723 104.793 128.723C105.25 128.723 105.698 128.599 106.091 128.365C106.451 128.13 106.757 127.819 106.986 127.454C107.215 127.059 107.381 126.63 107.476 126.182C107.574 125.707 107.622 125.222 107.621 124.737C107.63 124.252 107.587 123.767 107.491 123.291C107.401 122.842 107.235 122.412 107 122.019C106.793 121.651 106.495 121.342 106.134 121.123C105.736 120.878 105.274 120.757 104.807 120.776C104.349 120.758 103.897 120.879 103.509 121.123C103.149 121.355 102.848 121.666 102.628 122.034C102.408 122.433 102.243 122.861 102.138 123.306C102.04 123.781 101.987 124.265 101.979 124.751C101.989 125.237 102.042 125.721 102.138 126.197C102.224 126.642 102.38 127.072 102.6 127.469V127.454Z" fill="black"/>
<path d="M112.339 130.099V121.845C112.339 121.426 112.339 121.007 112.339 120.617C112.339 120.226 112.339 119.793 112.339 119.388H114.258V121.238C114.547 120.605 115.016 120.071 115.606 119.703C116.196 119.336 116.881 119.151 117.576 119.171C118.126 119.155 118.672 119.259 119.178 119.475C119.597 119.662 119.96 119.956 120.231 120.327C120.515 120.719 120.712 121.168 120.808 121.643C120.935 122.202 120.998 122.775 120.996 123.349V130.099H118.875V123.811C118.897 123.445 118.897 123.078 118.875 122.713C118.845 122.383 118.747 122.063 118.586 121.773C118.442 121.504 118.228 121.279 117.966 121.122C117.642 120.95 117.279 120.865 116.912 120.877C116.492 120.86 116.076 120.965 115.715 121.18C115.401 121.379 115.135 121.646 114.936 121.961C114.738 122.301 114.601 122.672 114.532 123.06C114.446 123.473 114.402 123.895 114.402 124.317V130.099H112.339Z" fill="black"/>
<path d="M131.095 130.099L130.98 128.321C130.703 128.928 130.244 129.434 129.667 129.767C129.087 130.099 128.43 130.273 127.762 130.273C127.076 130.291 126.398 130.121 125.8 129.781C125.277 129.462 124.833 129.027 124.502 128.509C124.145 127.964 123.895 127.356 123.766 126.717C123.478 125.344 123.478 123.926 123.766 122.554C123.902 121.926 124.151 121.328 124.502 120.79C124.834 120.286 125.279 119.865 125.8 119.561C126.405 119.244 127.08 119.085 127.762 119.099C128.415 119.095 129.055 119.275 129.609 119.619C130.18 119.944 130.622 120.454 130.865 121.065V114.646H132.913V126.905C132.913 127.497 132.913 128.061 132.913 128.582C132.913 129.102 132.913 129.622 132.913 130.114H131.095V130.099ZM126.247 127.367C126.429 127.742 126.696 128.069 127.027 128.321C127.404 128.579 127.854 128.711 128.311 128.697C128.757 128.717 129.196 128.579 129.552 128.307C129.894 128.049 130.175 127.718 130.374 127.338C130.58 126.939 130.721 126.51 130.792 126.066C130.879 125.628 130.923 125.183 130.922 124.736C130.925 124.289 130.877 123.843 130.778 123.407C130.708 122.961 130.562 122.53 130.345 122.134C130.152 121.758 129.87 121.436 129.523 121.195C129.146 120.959 128.711 120.834 128.267 120.834C127.824 120.834 127.389 120.959 127.012 121.195C126.672 121.425 126.402 121.745 126.233 122.12C126.032 122.519 125.9 122.949 125.843 123.392C125.706 124.298 125.706 125.219 125.843 126.124C125.914 126.555 126.045 126.974 126.233 127.367H126.247Z" fill="black"/>
</g>
<defs>
<clipPath id="clip0_681_17330">
<rect width="133" height="135" fill="white"/>
</clipPath>
</defs>
</svg>
