<svg width="195" height="59" viewBox="0 0 195 59" fill="none" xmlns="http://www.w3.org/2000/svg">
<g clip-path="url(#clip0_311_119)">
<path d="M158.218 3.06915C158.217 2.48735 158.39 1.91838 158.714 1.4342C159.039 0.950009 159.501 0.572351 160.041 0.348978C160.582 0.125605 161.177 0.0665548 161.752 0.179286C162.326 0.292018 162.854 0.571474 163.269 0.982312C163.683 1.39315 163.966 1.91692 164.081 2.48739C164.196 3.05785 164.138 3.6494 163.915 4.18721C163.691 4.72503 163.312 5.18496 162.826 5.50885C162.34 5.83274 161.768 6.00603 161.182 6.00682C160.792 6.01215 160.405 5.93987 160.043 5.79422C159.682 5.64858 159.353 5.43253 159.077 5.15878C158.801 4.88503 158.582 4.55912 158.435 4.20025C158.287 3.84138 158.213 3.45679 158.218 3.06915ZM163.562 3.06915C163.486 2.49385 163.203 1.96543 162.764 1.58254C162.326 1.19966 161.762 0.988502 161.178 0.988502C160.594 0.988502 160.03 1.19966 159.592 1.58254C159.153 1.96543 158.87 2.49385 158.795 3.06915C158.751 3.40595 158.779 3.7482 158.879 4.07308C158.979 4.39795 159.147 4.69797 159.372 4.95312C159.598 5.20827 159.876 5.41269 160.187 5.55272C160.498 5.69275 160.836 5.76518 161.178 5.76518C161.52 5.76518 161.858 5.69275 162.169 5.55272C162.48 5.41269 162.758 5.20827 162.984 4.95312C163.209 4.69797 163.378 4.39795 163.477 4.07308C163.577 3.7482 163.606 3.40595 163.562 3.06915ZM162.656 4.66138H161.903L161.194 3.31197H160.573V4.66138H159.956V1.47693H161.491C161.793 1.45673 162.095 1.51002 162.372 1.63217C162.497 1.72835 162.595 1.85439 162.657 1.99849C162.719 2.14259 162.744 2.30005 162.728 2.45615C162.728 3.03333 162.424 3.28013 161.855 3.31993L162.636 4.66934L162.656 4.66138ZM161.519 2.84226C161.875 2.84226 162.139 2.76265 162.139 2.3646C162.139 1.96654 161.671 1.94265 161.378 1.94265H160.577V2.84226H161.519Z" fill="white"/>
<path d="M0.0119629 24.17L0.945342 20.2054L16.7968 3.71387H5.19161L6.17707 0H24.8647L23.9914 3.76562L7.91564 20.3288H20.1497L19.1923 24.17H0.0119629Z" fill="white"/>
<path d="M20.9109 24.17L26.1186 3.76562L27.0399 0.183105H32.3878L29.9843 9.44191C31.154 8.49852 32.7003 7.45163 35.7288 7.45163C39.6986 7.45163 41.8939 9.67677 41.8939 12.4831C41.8789 13.7469 41.719 15.0049 41.4172 16.2328L39.5064 24.166H34.1304L36.3657 15.1341C36.5008 14.5491 36.5865 13.954 36.6221 13.3548C36.6221 12.0372 35.7047 11.0023 33.8179 11.0023C32.6602 11.0023 29.5597 11.48 28.3018 16.2566L26.2187 24.166L20.9109 24.17Z" fill="white"/>
<path d="M52.0248 24.5203C47.3419 24.5203 43.0115 22.2514 43.0115 17.5782C43.0115 12.4631 47.1255 7.32422 54.4123 7.32422C59.8804 7.32422 62.1958 10.1345 62.1958 13.518C62.1533 14.7829 61.9692 16.0392 61.647 17.2637H47.8787C47.9588 19.3296 48.9042 21.2443 53.4669 21.2443C55.5592 21.256 57.6279 20.806 59.5239 19.9267L58.935 23.5371C56.6816 24.1472 54.36 24.4735 52.0248 24.5083V24.5203ZM54.0958 10.4291C52.9026 10.3861 51.7284 10.7352 50.755 11.4225C49.7817 12.1097 49.0636 13.0967 48.7119 14.2305H57.4808C57.5209 13.8126 57.5209 13.2632 57.5209 13.0642C57.5209 11.6511 56.3191 10.4291 54.0958 10.4291Z" fill="white"/>
<path d="M61.4749 24.17L65.6009 7.7143H70.6003L69.8993 10.6201C71.2413 8.94032 73.1922 7.45557 75.9442 7.45557C76.5692 7.46308 77.1918 7.53242 77.803 7.66256L76.7374 11.7705C76.1726 11.5697 75.5786 11.4621 74.9788 11.4521C70.4481 11.4521 69.2263 15.0067 68.5693 17.5224L66.8828 24.17H61.4749Z" fill="white"/>
<path d="M75.1389 24.1702L79.3011 7.7145H84.1763L83.5874 10.075C84.3341 9.2143 85.2664 8.53187 86.315 8.07842C87.3636 7.62497 88.5016 7.41215 89.6443 7.45577C91.7394 7.45577 94.2471 8.00509 94.6838 10.8393C95.485 9.48586 97.7002 7.45577 101.562 7.45577C104.979 7.45577 107.354 9.48586 107.354 12.0613C107.281 13.2731 107.08 14.4739 106.754 15.6438L104.51 24.1662H99.2425L101.646 14.8079C101.803 14.2065 101.904 13.5923 101.951 12.9728C101.951 11.6115 101.005 11.0423 99.6751 11.0423C98.5254 11.0423 95.7854 11.6115 94.4675 16.6429L92.4885 24.1662H87.1326L89.2958 15.9702C89.5877 15.0063 89.7586 14.0102 89.8046 13.0047C89.8046 11.7667 88.8992 11.0423 87.6494 11.0423C84.7211 11.0423 83.1187 13.6854 82.65 15.5562L80.4468 24.1662L75.1389 24.1702Z" fill="white"/>
<path d="M113.223 24.4166C109.79 24.4166 107.086 22.8244 107.086 19.839C107.086 15.5877 112.582 14.0393 117.349 14.0393C118.686 14.0218 120.024 14.0736 121.355 14.1945V13.3984C121.355 11.6589 120.218 10.4966 117.229 10.4966C114.861 10.5509 112.529 11.0789 110.371 12.049L111.204 8.36696C113.573 7.79325 116.001 7.4901 118.439 7.46338C123.286 7.46338 126.19 9.1392 126.19 12.6381C126.162 13.6853 126.006 14.7252 125.726 15.735L124.372 20.9097C124.059 22.3308 123.971 22.7448 123.755 24.1738H119.28L119.705 22.0283C118.447 23.0752 116.801 24.4166 113.223 24.4166ZM112.342 19.5165C112.342 20.647 113.303 21.3954 114.862 21.3954C118.651 21.3954 120.226 18.39 120.61 16.7341C119.949 16.7341 119.617 16.7142 119.32 16.7142C116.007 16.7142 112.342 17.2914 112.342 19.5006V19.5165Z" fill="white"/>
<path d="M135.568 24.4168C130.813 24.4168 127.072 21.8135 127.072 17.2C127.072 15.0067 128.73 7.45557 139.089 7.45557C140.784 7.47329 142.47 7.7074 144.105 8.15217L142.763 11.667C141.578 11.191 140.311 10.9477 139.033 10.9505C137.382 10.9034 135.779 11.5095 134.578 12.6358C133.376 13.7621 132.673 15.3164 132.624 16.9572C132.624 20.0421 135.027 20.9378 137.339 20.9378C138.695 20.9294 140.033 20.6293 141.261 20.0581L140.84 23.6764C139.122 24.1491 137.35 24.3993 135.568 24.4208V24.4168Z" fill="white"/>
<path d="M142.526 24.1702L148.704 0.171387H154.052L150.522 13.7451L158.021 7.71457H164.719L155.005 15.2976L163.165 28.1428H157.3L149.965 15.9066L147.842 24.1702H142.526Z" fill="white"/>
<path d="M1.30195 28.0552H3.15269C4.12613 28.0552 5.03947 28.3657 5.03947 29.3966C5.01418 29.7407 4.86648 30.0646 4.62281 30.3104C4.37913 30.5562 4.05538 30.7078 3.70951 30.7381C3.85455 30.7506 3.99569 30.7914 4.1248 30.8583C4.25392 30.9251 4.36847 31.0167 4.4619 31.1276C4.55532 31.2386 4.62578 31.3668 4.66921 31.5049C4.71265 31.6429 4.7282 31.7882 4.71499 31.9322C4.71499 33.5523 2.71204 33.6718 1.77866 33.6718H-0.0159912L1.30195 28.0552ZM1.4021 32.796H1.83074C2.60388 32.796 3.45714 32.7204 3.45714 31.8407C3.45714 31.2635 2.85625 31.168 2.17525 31.168H1.77465L1.3981 32.796H1.4021ZM1.97095 30.3241H2.47169C3.10061 30.3241 3.78963 30.1689 3.78963 29.4961C3.78963 28.9667 3.22079 28.9389 2.73607 28.9389H2.30744L1.97095 30.3241Z" fill="white"/>
<path d="M7.48701 28.0391H11.1564L10.9722 28.9227H8.53656L8.20007 30.308H10.3833L10.183 31.1996H7.99577L7.63924 32.7799H10.0989L9.88656 33.6636H6.16907L7.48701 28.0391Z" fill="white"/>
<path d="M13.9125 31.335L12.4384 28.0391H13.7563L14.6937 30.3995L16.7247 28.0391H18.1788L15.1584 31.335L14.6216 33.6636H13.3597L13.9125 31.335Z" fill="white"/>
<path d="M24.8207 30.3201C24.8168 31.256 24.4444 32.1533 23.7832 32.8199C23.4273 33.1421 23.0109 33.3912 22.5579 33.5531C22.1049 33.715 21.6241 33.7864 21.1433 33.7633C19.609 33.7633 18.6716 32.7682 18.6716 31.4187C18.6791 30.5112 19.036 29.6408 19.6691 28.9866C19.9977 28.6425 20.3953 28.3708 20.8363 28.1891C21.2772 28.0074 21.7517 27.9197 22.2289 27.9318C23.9274 27.9318 24.8207 28.8234 24.8207 30.3201ZM19.9856 31.4904C19.9677 31.6696 19.9887 31.8505 20.047 32.0209C20.1054 32.1914 20.1998 32.3475 20.3239 32.4787C20.4479 32.6099 20.5988 32.7132 20.7664 32.7817C20.934 32.8502 21.1144 32.8822 21.2955 32.8756C22.7376 32.8756 23.5308 31.3312 23.5308 30.2086C23.5483 30.0275 23.5263 29.8448 23.4663 29.6728C23.4064 29.5009 23.3098 29.3439 23.1832 29.2124C23.0566 29.0809 22.9029 28.9781 22.7327 28.911C22.5625 28.8439 22.3797 28.814 22.1968 28.8234C20.7347 28.8234 19.9856 30.344 19.9856 31.4904Z" fill="white"/>
<path d="M27.2122 28.0391H28.7945L30.1285 32.3102H30.1365L31.154 28.0391H32.3317L30.9897 33.6636H29.3753L28.0734 29.3487H28.0534L27.0679 33.6636H25.8582L27.2122 28.0391Z" fill="white"/>
<path d="M34.3147 28.0552H36.1855C37.4954 28.0552 38.9696 28.505 38.9696 30.4435C38.9696 31.7531 38.2365 33.6638 35.0959 33.6638H33.0048L34.3147 28.0552ZM34.4669 32.796H35.0558C36.8464 32.796 37.6677 31.8407 37.6677 30.2923C37.6677 29.4125 36.9065 28.9389 35.7889 28.9389H35.3522L34.4669 32.796Z" fill="white"/>
<path d="M44.3735 28.0391H45.6835L44.3615 33.6636H43.0636L44.3735 28.0391Z" fill="white"/>
<path d="M47.5742 28.0391H49.1606L50.4905 32.3102H50.4985L51.5281 28.0391H52.7058L51.3518 33.6636H49.7494L48.4355 29.3487H48.4275L47.422 33.6636H46.2443L47.5742 28.0391Z" fill="white"/>
<path d="M54.6567 28.0391H56.239L57.573 32.3102H57.581L58.5985 28.0391H59.7762L58.4262 33.6636H56.8319L55.518 29.3487H55.4979L54.5045 33.6636H53.3147L54.6567 28.0391Z" fill="white"/>
<path d="M66.9229 30.3199C66.9239 30.7839 66.8328 31.2436 66.6548 31.6725C66.4768 32.1015 66.2153 32.4913 65.8853 32.8197C65.5292 33.1427 65.1122 33.3924 64.6584 33.5543C64.2046 33.7162 63.723 33.7872 63.2414 33.7631C61.7072 33.7631 60.7938 32.768 60.7938 31.4185C60.7944 30.5142 61.1426 29.6441 61.7673 28.9864C62.0974 28.6432 62.4958 28.3721 62.9373 28.1905C63.3787 28.0088 63.8534 27.9207 64.331 27.9316C66.0175 27.9316 66.9229 28.8232 66.9229 30.3199ZM62.0757 31.4902C62.0577 31.6704 62.0789 31.8524 62.138 32.0237C62.197 32.1951 62.2925 32.3518 62.4179 32.4832C62.5433 32.6146 62.6958 32.7177 62.8648 32.7853C63.0339 32.853 63.2156 32.8837 63.3977 32.8754C64.8198 32.8754 65.621 31.331 65.621 30.2084C65.6379 30.0271 65.6153 29.8443 65.5548 29.6724C65.4944 29.5004 65.3974 29.3435 65.2705 29.2121C65.1436 29.0807 64.9897 28.9779 64.8193 28.9109C64.6489 28.8438 64.466 28.8139 64.283 28.8232C62.8288 28.8232 62.0757 30.3438 62.0757 31.4902Z" fill="white"/>
<path d="M68.6895 28.0391H69.9473L70.5282 32.4217H70.5482L73.14 28.0391H74.498L71.0049 33.6636H69.5107L68.6895 28.0391Z" fill="white"/>
<path d="M77.7229 28.0552H79.1129L80.2426 33.6757H79.0007L78.7884 32.394H76.1285L75.3273 33.6757H73.9373L77.7229 28.0552ZM76.6853 31.5063H78.6162L78.2156 29.0543H78.1635L76.6693 31.5063H76.6853Z" fill="white"/>
<path d="M82.3656 28.0391H87.1927L86.9684 28.9227H85.2218L84.0801 33.6636H82.7702L83.9199 28.9227H82.1493L82.3656 28.0391Z" fill="white"/>
<path d="M88.4507 28.0391H89.7606L88.4507 33.6636H87.1407L88.4507 28.0391Z" fill="white"/>
<path d="M96.855 30.3201C96.8511 31.2561 96.4787 32.1533 95.8175 32.8199C95.4622 33.143 95.0459 33.3927 94.5927 33.5547C94.1396 33.7166 93.6585 33.7875 93.1776 33.7633C91.6313 33.7633 90.726 32.7682 90.726 31.4188C90.7279 30.5161 91.0727 29.6475 91.6914 28.9866C92.0227 28.6449 92.4214 28.3749 92.8625 28.1934C93.3037 28.0119 93.7778 27.9228 94.2552 27.9318C95.9617 27.9318 96.855 28.8234 96.855 30.3201ZM92.0279 31.4904C92.0094 31.6697 92.0298 31.8509 92.0879 32.0217C92.146 32.1924 92.2404 32.3488 92.3646 32.4801C92.4888 32.6115 92.64 32.7148 92.8079 32.783C92.9758 32.8513 93.1566 32.8828 93.3378 32.8756C94.7599 32.8756 95.5531 31.3312 95.5531 30.2087C95.5712 30.0277 95.5498 29.8451 95.4903 29.6731C95.4308 29.5012 95.3346 29.3441 95.2083 29.2125C95.082 29.081 94.9285 28.9781 94.7585 28.9109C94.5885 28.8438 94.4058 28.8139 94.2231 28.8234C92.781 28.8234 92.0279 30.344 92.0279 31.4904Z" fill="white"/>
<path d="M99.2426 28.0391H100.825L102.147 32.3102H102.167L103.184 28.0391H104.374L103.012 33.6636H101.418L100.104 29.3487H100.084L99.0903 33.6636H97.8926L99.2426 28.0391Z" fill="white"/>
<path d="M163.165 28.1426L106.77 59H138.617L195 28.1426H163.165Z" fill="#EE3224"/>
<path d="M128.201 44.0649L157.3 28.1426H125.465L96.3663 44.0649H128.201Z" fill="#EE3224"/>
</g>
<defs>
<clipPath id="clip0_311_119">
<rect width="195" height="59" fill="white"/>
</clipPath>
</defs>
</svg>
