<svg width="152" height="48" viewBox="0 0 152 48" fill="none" xmlns="http://www.w3.org/2000/svg">
<rect y="22.4727" width="30.3676" height="30.3676" rx="5" transform="rotate(-45 0 22.4727)" fill="#BA4D1F"/>
<rect x="20.7071" y="12" width="15.9705" height="15.9705" rx="2.5" transform="rotate(-45 20.7071 12)" stroke="#01838C"/>
<path d="M44.36 43V29.36H48.14C49.5933 29.36 50.74 29.6533 51.58 30.24C52.4333 30.8267 52.86 31.68 52.86 32.8C52.86 33.5333 52.6267 34.1533 52.16 34.66C51.7067 35.1533 51.1267 35.4867 50.42 35.66V35.7C51.42 35.8333 52.1933 36.22 52.74 36.86C53.3 37.4867 53.58 38.2267 53.58 39.08C53.58 40.3067 53.1333 41.2667 52.24 41.96C51.36 42.6533 50.22 43 48.82 43H44.36ZM50.7 38.84C50.7 38.2533 50.5 37.7867 50.1 37.44C49.7 37.08 49.14 36.9 48.42 36.9H47.06V40.84H48.54C49.2333 40.84 49.7667 40.6667 50.14 40.32C50.5133 39.9733 50.7 39.48 50.7 38.84ZM50.04 33.08C50.04 32.5733 49.86 32.1867 49.5 31.92C49.14 31.64 48.64 31.5 48 31.5H47.06V34.8H48.1C49.3933 34.8 50.04 34.2267 50.04 33.08ZM66.2891 37.24L70.5091 43H67.1091L63.4091 37.64H62.5091V43H59.6491V29.36H63.8891C65.6891 29.36 67.0024 29.7467 67.8291 30.52C68.6557 31.2933 69.0691 32.2933 69.0691 33.52C69.0691 34.4667 68.8091 35.2667 68.2891 35.92C67.7691 36.5733 67.1024 37.0133 66.2891 37.24ZM66.1291 33.64C66.1291 33.0133 65.9491 32.5267 65.5891 32.18C65.2291 31.8333 64.7091 31.66 64.0291 31.66H62.5091V35.54H64.0491C64.6891 35.54 65.1957 35.3667 65.5691 35.02C65.9424 34.6733 66.1291 34.2133 66.1291 33.64ZM78.8083 32.84C77.9816 33.7333 77.5683 34.8467 77.5683 36.18C77.5683 37.5133 77.9749 38.6333 78.7883 39.54C79.6149 40.4333 80.6416 40.88 81.8683 40.88C83.0949 40.88 84.1216 40.4333 84.9483 39.54C85.7749 38.6333 86.1883 37.5133 86.1883 36.18C86.1883 34.8467 85.7883 33.7333 84.9883 32.84C84.2016 31.9333 83.1683 31.48 81.8883 31.48C80.6616 31.48 79.6349 31.9333 78.8083 32.84ZM74.6483 36.18C74.6483 34.2067 75.3416 32.5067 76.7283 31.08C78.1149 29.64 79.8416 28.92 81.9083 28.92C83.3616 28.92 84.6416 29.2667 85.7483 29.96C86.8683 30.64 87.7083 31.5267 88.2683 32.62C88.8283 33.7133 89.1083 34.9 89.1083 36.18C89.1083 38.1933 88.4149 39.9067 87.0283 41.32C85.6549 42.7333 83.9416 43.44 81.8883 43.44C80.9283 43.44 80.0416 43.2933 79.2283 43C78.4149 42.72 77.7283 42.34 77.1683 41.86C76.6216 41.38 76.1549 40.8267 75.7683 40.2C75.3816 39.56 75.0949 38.9067 74.9083 38.24C74.7349 37.56 74.6483 36.8733 74.6483 36.18ZM97.5895 33.64H97.5095C97.5629 35.3467 97.5895 36.2067 97.5895 36.22V43H95.1295V29.36H97.5895L101.39 35.22C102.136 36.3667 102.843 37.5667 103.51 38.82H103.57C103.53 37.46 103.51 36.64 103.51 36.36V29.36H105.97V43H103.51L100.03 37.66C99.1362 36.26 98.3229 34.92 97.5895 33.64ZM112.424 31.84V29.36H122.624V31.7L115.664 40.52H122.944V43H112.084V40.68L119.024 31.84H112.424ZM137.207 29.36V31.84H131.927V34.78H137.027V37.14H131.927V40.52H137.427V43H129.067V29.36H137.207Z" fill="#EDEDED"/>
</svg>
