<svg width="163" height="240" viewBox="0 0 163 240" fill="none" xmlns="http://www.w3.org/2000/svg">
<g clip-path="url(#clip0_712_10870)">
<path d="M115.89 75.3448C115.89 75.0734 115.89 74.8021 115.89 74.5307V15.8468C115.89 15.5935 115.89 15.3222 115.89 15.0508C115.956 15.0235 116.011 14.975 116.047 14.9128C116.083 14.8506 116.098 14.7783 116.088 14.7071C118.827 16.8112 121.354 19.1804 123.63 21.7803C132.645 31.6837 138.392 44.1356 140.085 57.4357C140.594 61.0357 140.594 64.6897 140.085 68.2897C139.883 69.7783 139.386 71.2114 138.624 72.5046C138.147 73.2987 137.886 74.2044 137.867 75.1313C137.848 76.0582 138.071 76.9739 138.516 77.7869C139.039 79.0305 139.642 80.239 140.32 81.4049C143.928 87.049 147.212 92.8016 150.478 98.6085C151.87 100.683 153.031 102.903 153.942 105.229C154.33 106.435 154.241 107.743 153.693 108.885C153.146 110.026 152.182 110.913 151.001 111.362C148.946 112.146 146.827 112.751 144.668 113.171C143.513 113.375 142.402 113.779 141.384 114.365C140.893 114.636 140.49 115.042 140.221 115.536C139.952 116.03 139.83 116.59 139.869 117.151C139.878 118.395 140.136 119.625 140.627 120.769C141.07 121.821 141.397 122.919 141.601 124.043C141.754 124.529 141.733 125.053 141.542 125.525C141.351 125.998 141.002 126.388 140.554 126.63C139.496 127.373 138.238 127.777 136.946 127.788H135.502C135.611 128.186 135.972 128.24 136.224 128.403C136.642 128.595 137.017 128.871 137.325 129.214C137.633 129.557 137.867 129.959 138.014 130.396C138.161 130.834 138.218 131.296 138.18 131.756C138.142 132.216 138.01 132.663 137.794 133.07C137.038 134.973 135.888 136.693 134.42 138.117L132.616 140.089C132.471 140.226 132.379 140.41 132.355 140.609C132.332 140.807 132.38 141.007 132.489 141.174C133.592 143.308 134.324 145.614 134.654 147.994C134.861 149.829 134.617 151.686 133.944 153.404C133.271 155.123 132.19 156.65 130.793 157.853C130.277 158.281 129.652 158.557 128.989 158.649C124.485 159.788 119.901 160.58 115.276 161.019C110.533 161.459 105.751 161.172 101.095 160.169C97.4575 159.09 94.1461 157.119 91.4596 154.434C90.76 153.829 90.1028 153.176 89.4929 152.481C82.4979 144.408 73.6924 138.116 63.7998 134.119C59.8845 132.509 56.1135 130.501 52.3245 128.692C49.2391 127.155 45.9733 125.997 42.9782 124.278C24.5563 113.696 13.063 98.0477 9.63484 77.0452C6.1345 55.4458 12.1067 36.3789 27.1365 20.4597C37.6402 9.23695 51.8182 2.17443 67.0836 0.560703C75.6625 -0.416089 84.3488 0.271802 92.6685 2.5868C93.2819 2.74961 93.3 3.07521 93.3 3.58173V38.5316C93.3 51.0378 93.3 63.544 93.3 76.0503C93.3608 78.801 93.1127 81.5499 92.5602 84.245C92.2237 86.3304 91.1697 88.2318 89.5813 89.6196C87.9928 91.0074 85.9699 91.7939 83.8635 91.8429C81.8082 92.0634 79.73 91.9102 77.7289 91.3906C76.4307 91.0684 75.2323 90.4289 74.2406 89.5293C73.2488 88.6297 72.4947 87.4979 72.0454 86.2349C71.0414 83.2403 70.4347 80.1262 70.2411 76.9729C69.9524 73.8373 69.8081 70.7077 69.8081 67.5842C69.876 67.3662 69.876 67.1328 69.8081 66.9148H48.6437C48.6437 67.9641 48.6437 69.0133 48.6437 70.0806C48.5814 76.9771 49.5546 83.8438 51.5306 90.45C52.1357 92.2546 52.8404 94.0241 53.6416 95.7503C54.9846 98.8406 57.0087 101.586 59.5619 103.779C62.1151 105.972 65.1309 107.557 68.3827 108.413C74.551 110.115 80.9742 110.691 87.3458 110.114C91.5644 109.898 95.7091 108.917 99.5789 107.219C103.21 105.604 106.417 103.165 108.947 100.095C111.477 97.0247 113.261 93.4071 114.158 89.5273C115.005 86.2336 115.531 82.8651 115.727 79.4693C115.727 79.198 115.727 78.9266 115.727 78.6552C116.185 77.6092 116.243 76.4308 115.89 75.3448Z" fill="#9B1F1F"/>
<path d="M141.564 215.814H132.164C132.074 215.09 132.037 185.278 132.164 184.084C132.398 183.885 132.687 183.975 132.94 183.975C136.097 183.975 139.237 183.975 142.394 183.975C142.63 183.949 142.869 183.998 143.076 184.115C143.283 184.232 143.448 184.411 143.549 184.627C146.706 190.054 149.918 195.481 153.112 200.908C153.232 201.153 153.412 201.364 153.635 201.523V183.993H162.945V215.741C162.729 215.904 162.476 215.832 162.241 215.832C159.066 215.832 155.89 215.832 152.715 215.832C152.479 215.853 152.243 215.799 152.04 215.679C151.836 215.559 151.675 215.379 151.578 215.163C148.427 209.736 145.257 204.309 142.069 198.882L141.51 197.959L141.564 215.814Z" fill="#9B1F1F"/>
<path d="M90.4852 212.449L95.1944 217.55C94.9361 217.693 94.6351 217.738 94.3464 217.677C92.1452 217.677 89.9439 217.677 87.7427 217.677C87.2915 217.742 86.831 217.674 86.4177 217.482C86.0043 217.289 85.6559 216.98 85.4151 216.591C84.928 215.796 84.3326 215.723 83.4485 215.94C79.2759 216.988 74.8902 216.806 70.8184 215.416C68.1086 214.535 65.7149 212.879 63.9324 210.652C62.1498 208.424 61.0563 205.722 60.7865 202.879C60.3306 199.991 60.5216 197.037 61.3458 194.232C61.9997 191.743 63.3041 189.473 65.1246 187.657C66.9452 185.841 69.2158 184.545 71.7025 183.903C75.8264 182.696 80.2086 182.696 84.3325 183.903C87.2742 184.705 89.8997 186.393 91.8548 188.738C93.81 191.083 95.0008 193.973 95.2666 197.018C95.7974 200.79 95.2271 204.635 93.6247 208.089C92.859 209.726 91.7941 211.205 90.4852 212.449ZM84.3686 205.864C85.2126 204.514 85.7601 203 85.9748 201.422C86.1894 199.844 86.0663 198.237 85.6136 196.711C85.3157 195.2 84.5377 193.826 83.396 192.795C82.2544 191.765 80.8105 191.133 79.2805 190.994C77.4617 190.635 75.5748 190.966 73.985 191.922C72.3951 192.877 71.2154 194.39 70.674 196.168C69.8258 198.635 69.8258 201.316 70.674 203.784C71.1994 205.349 72.2428 206.687 73.6312 207.575C75.0195 208.464 76.6691 208.849 78.3062 208.668L74.3007 204.218C76.538 204.218 78.5408 204.218 80.5435 204.218C81.2012 204.074 81.887 204.138 82.5071 204.401C83.1272 204.663 83.6513 205.111 84.0078 205.683C84.0078 205.683 84.2243 205.756 84.3686 205.864Z" fill="#9B1F1F"/>
<path d="M61.5799 215.814C58.4404 215.814 55.3189 215.814 52.1975 215.814C51.7464 215.814 51.6562 215.56 51.548 215.253C51.0247 213.86 50.4654 212.467 49.9602 211.056C49.9294 210.898 49.8394 210.757 49.7086 210.663C49.5778 210.569 49.4161 210.528 49.2565 210.549H38.0158L36.013 215.814H26.1074L27.605 212.105C31.3339 202.976 35.0627 193.846 38.7916 184.717C38.8597 184.463 39.0188 184.243 39.2386 184.1C39.4583 183.956 39.7232 183.899 39.9825 183.939C42.6709 183.939 45.3953 183.939 48.0477 183.939C48.4266 183.939 48.6791 183.939 48.8415 184.391C53.0876 194.811 57.3398 205.225 61.5979 215.633C61.5979 215.633 61.5979 215.633 61.5799 215.814ZM46.9831 203.368L43.8617 195.408L40.7763 203.332L46.9831 203.368Z" fill="#9B1F1F"/>
<path d="M129.964 215.814H123.252C122.223 215.814 120.96 216.212 120.239 215.651C119.517 215.09 119.463 213.842 119.066 212.937C118.669 212.033 118.723 211.128 118.073 210.694C117.424 210.26 116.486 210.586 115.674 210.586H106.418L104.613 215.307C104.487 215.651 104.361 215.832 103.946 215.832C100.896 215.832 97.8473 215.832 94.816 215.832H94.5273L97.6307 208.216C100.842 200.377 104.036 192.538 107.212 184.699C107.272 184.454 107.423 184.241 107.634 184.103C107.845 183.965 108.1 183.913 108.348 183.957C111.037 183.957 113.761 183.957 116.413 183.957C116.594 183.925 116.78 183.959 116.939 184.051C117.098 184.144 117.218 184.29 117.279 184.464C121.49 194.811 125.7 205.147 129.91 215.47C129.873 215.488 129.91 215.597 129.964 215.814ZM112.209 195.426C111.127 198.194 110.134 200.745 109.142 203.332H115.277L112.209 195.426Z" fill="#9B1F1F"/>
<path d="M0 208.089L8.3178 205.864C8.51627 206.208 8.66061 206.497 8.823 206.769C9.34111 207.644 10.1652 208.296 11.1354 208.597C12.1056 208.898 13.1528 208.826 14.0735 208.397C14.6122 208.12 15.065 207.7 15.3831 207.184C15.7011 206.667 15.8722 206.073 15.8778 205.466C15.9049 205.027 15.9049 204.585 15.8778 204.146V183.939H25.224C25.3864 184.156 25.224 184.41 25.224 184.645C25.224 191.284 25.224 197.923 25.224 204.544C25.2497 206.18 25.0183 207.81 24.5384 209.374C24.079 210.952 23.2137 212.381 22.0292 213.518C20.8448 214.654 19.3829 215.459 17.7903 215.85C14.1609 216.913 10.2983 216.868 6.69392 215.723C4.99769 215.17 3.48122 214.169 2.30347 212.826C1.12571 211.483 0.330082 209.847 0 208.089Z" fill="#9B1F1F"/>
<path d="M109.069 222H113.472C111.667 227.916 109.863 233.759 108.059 239.638C106.85 239.638 105.677 239.638 104.45 239.638C103.981 239.638 103.945 239.367 103.855 239.041C102.953 235.875 102.051 232.728 101.076 229.49C100.759 230.219 100.512 230.976 100.336 231.751C99.6328 234.139 98.911 236.545 98.2615 238.987C98.1172 239.493 97.9367 239.711 97.3954 239.674C96.4753 239.674 95.5912 239.674 94.6168 239.674C94.256 239.674 94.0575 239.674 93.9312 239.204C92.2171 233.506 90.467 227.825 88.7168 222.055H93.1193C94.1116 225.546 95.122 229.074 96.1866 232.909C97.2692 229.164 98.2796 225.673 99.29 222.055H102.79C103.801 225.546 104.793 229.056 105.803 232.565H105.984L109.069 222Z" fill="#9B1F1F"/>
<path d="M0.199219 239.638V221.964C3.37636 221.864 6.55656 221.937 9.72589 222.181C11.5585 222.464 13.2286 223.398 14.4311 224.813C15.6337 226.227 16.2883 228.029 16.2755 229.888C16.3786 231.218 16.2627 232.557 15.9327 233.849C15.4959 235.54 14.4992 237.032 13.106 238.081C11.7128 239.129 10.0057 239.672 8.26442 239.62C5.61211 239.693 2.94175 239.638 0.199219 239.638ZM4.27692 236.02C5.55797 236.02 6.80292 236.02 8.04789 236.02C8.81386 236.026 9.563 235.795 10.1928 235.358C10.8226 234.921 11.3023 234.299 11.5663 233.578C11.937 232.7 12.128 231.755 12.128 230.801C12.128 229.847 11.937 228.903 11.5663 228.024C11.3323 227.349 10.9041 226.759 10.3357 226.327C9.76737 225.896 9.08428 225.643 8.37267 225.6C7.01945 225.492 5.66622 225.6 4.27692 225.6V236.02Z" fill="#9B1F1F"/>
<path d="M158.651 239.584V238.082C158.054 238.772 157.292 239.3 156.438 239.616C155.583 239.932 154.662 240.027 153.761 239.891C152.972 239.84 152.201 239.633 151.492 239.282C150.783 238.931 150.15 238.444 149.629 237.847C148.576 236.469 148.027 234.771 148.073 233.036C148.119 231.3 148.758 229.634 149.882 228.314C151.052 227.168 152.622 226.526 154.258 226.526C155.893 226.526 157.463 227.168 158.633 228.314V220.969H162.675V239.53L158.651 239.584ZM158.651 233.289C158.727 232.553 158.555 231.813 158.162 231.187C157.77 230.56 157.18 230.084 156.486 229.833C155.893 229.638 155.259 229.61 154.652 229.751C154.044 229.892 153.487 230.197 153.04 230.633C152.594 231.07 152.275 231.621 152.119 232.226C151.963 232.831 151.976 233.468 152.155 234.066C152.219 234.678 152.462 235.257 152.854 235.731C153.246 236.204 153.769 236.55 154.357 236.726C154.876 236.91 155.434 236.959 155.977 236.868C156.52 236.777 157.032 236.549 157.463 236.206C157.894 235.862 158.231 235.414 158.442 234.903C158.653 234.393 158.731 233.837 158.669 233.289H158.651Z" fill="#9B1F1F"/>
<path d="M31.6121 234.736H22.0494C22.0094 235.258 22.1764 235.775 22.5141 236.175C22.8519 236.574 23.3332 236.824 23.8537 236.87C25.6129 237.181 27.4242 236.813 28.9237 235.839L30.8904 238.1C29.8531 238.899 28.6612 239.473 27.3906 239.784C26.1201 240.096 24.7988 240.138 23.5109 239.909C22.3713 239.752 21.2911 239.304 20.3739 238.608C19.4567 237.912 18.7334 236.991 18.2732 235.934C17.8131 234.877 17.6317 233.72 17.7463 232.572C17.861 231.424 18.2678 230.326 18.9279 229.381C19.4835 228.582 20.2151 227.921 21.0661 227.45C21.9171 226.98 22.8648 226.712 23.8356 226.668C24.867 226.556 25.9096 226.617 26.921 226.848C28.2481 227.135 29.4367 227.87 30.2875 228.93C31.1383 229.991 31.5996 231.312 31.5941 232.673C31.6482 233.27 31.6121 233.904 31.6121 234.736ZM22.0494 232.095H27.6246C27.645 231.743 27.5887 231.392 27.4599 231.064C27.3311 230.737 27.1328 230.442 26.8787 230.199C26.6246 229.956 26.3208 229.772 25.9885 229.659C25.6562 229.546 25.3033 229.507 24.9543 229.544C24.5897 229.482 24.216 229.502 23.8602 229.603C23.5044 229.704 23.1754 229.883 22.8972 230.127C22.6191 230.371 22.3987 230.675 22.252 231.015C22.1054 231.355 22.0361 231.724 22.0494 232.095Z" fill="#9B1F1F"/>
<path d="M73.0012 239.602H69.1219C68.9235 239.222 69.122 238.806 68.9596 238.336C68.3385 239.078 67.5085 239.615 66.5782 239.876C65.6478 240.138 64.6604 240.111 63.7452 239.801C62.8711 239.642 62.0732 239.2 61.4737 238.543C60.8743 237.885 60.5065 237.049 60.4266 236.162C60.3467 235.275 60.5593 234.386 61.0316 233.632C61.5039 232.878 62.21 232.3 63.0415 231.986C64.4473 231.46 65.9452 231.226 67.444 231.299H68.9596C68.9596 230.231 68.7431 229.815 67.7507 229.635C66.0636 229.421 64.3501 229.664 62.7889 230.34L61.4357 227.735C64.2934 226.414 67.5351 226.188 70.5473 227.102C71.2976 227.35 71.9458 227.839 72.3923 228.493C72.8389 229.146 73.0591 229.929 73.0192 230.72C73.0734 233.65 73.0012 236.617 73.0012 239.602ZM68.9054 233.632C67.6853 233.484 66.4473 233.633 65.2968 234.067C64.9706 234.171 64.6953 234.394 64.525 234.692C64.3547 234.99 64.3018 235.341 64.3766 235.677C64.4316 236.003 64.599 236.299 64.8496 236.514C65.1002 236.729 65.4182 236.849 65.7479 236.852C67.9492 237.142 69.2122 235.857 68.9054 233.632Z" fill="#9B1F1F"/>
<path d="M119.931 226.668C120.771 226.633 121.611 226.731 122.421 226.957C123.911 227.27 125.24 228.109 126.167 229.32C127.094 230.531 127.557 232.035 127.473 233.56C127.455 235.101 126.889 236.586 125.877 237.746C124.865 238.907 123.473 239.668 121.951 239.891C120.394 240.197 118.787 240.128 117.26 239.692C115.823 239.275 114.57 238.379 113.709 237.152C112.847 235.925 112.428 234.44 112.52 232.943C112.613 231.445 113.211 230.024 114.217 228.913C115.223 227.802 116.576 227.067 118.054 226.83C118.67 226.698 119.301 226.643 119.931 226.668ZM123.431 233.361C123.396 232.69 123.165 232.044 122.768 231.503C122.37 230.962 121.823 230.55 121.195 230.317C120.566 230.085 119.883 230.042 119.23 230.194C118.578 230.347 117.984 230.687 117.522 231.174C117.061 231.662 116.752 232.274 116.633 232.935C116.515 233.596 116.593 234.278 116.857 234.895C117.12 235.513 117.559 236.04 118.118 236.41C118.678 236.78 119.333 236.978 120.003 236.979C120.484 237.007 120.966 236.928 121.413 236.748C121.86 236.568 122.262 236.29 122.59 235.936C122.918 235.581 123.163 235.159 123.309 234.698C123.454 234.237 123.496 233.749 123.431 233.27V233.361Z" fill="#9B1F1F"/>
<path d="M33.668 226.921H37.6554V228.187C38.1931 227.518 38.9096 227.017 39.7213 226.741C40.5329 226.466 41.406 226.428 42.2384 226.631C43.3946 226.689 44.4903 227.168 45.3204 227.977C46.1506 228.786 46.6585 229.87 46.7491 231.027C46.9689 233.88 47.0352 236.742 46.9476 239.602H42.8699C42.8699 237.594 42.8699 235.604 42.8699 233.596C42.8943 232.991 42.858 232.385 42.7616 231.787C42.6612 231.198 42.3562 230.663 41.9005 230.278C41.4448 229.892 40.8678 229.681 40.2717 229.681C39.6755 229.681 39.0985 229.892 38.6429 230.278C38.1872 230.663 37.8822 231.198 37.7818 231.787C37.6769 232.463 37.6346 233.147 37.6554 233.831V239.638H33.668V226.921Z" fill="#9B1F1F"/>
<path d="M58.4953 226.867V229.96H54.8867C54.8258 231.769 54.856 233.581 54.977 235.387C55.1213 236.581 55.6987 236.961 56.9075 236.852C57.3225 236.852 57.7375 236.689 58.2066 236.599L59.0186 239.349C57.975 239.817 56.8353 240.03 55.6934 239.97C54.5516 239.911 53.4402 239.58 52.4509 239.005C51.5962 238.274 51.0644 237.233 50.9714 236.111C50.83 234.674 50.7878 233.229 50.8451 231.787C50.8451 231.226 50.8451 230.647 50.8451 229.978H48.5176V226.867H50.809V223.249H54.8506V226.867H58.4953Z" fill="#9B1F1F"/>
<path d="M79.5694 221.06V235.007C79.5694 236.237 79.822 236.473 80.9768 236.563V239.602C79.9634 239.744 78.9318 239.676 77.9455 239.403C77.3422 239.225 76.8047 238.873 76.4003 238.39C75.9959 237.908 75.7426 237.316 75.6721 236.69C75.5705 236.159 75.5221 235.62 75.5278 235.08C75.5278 230.557 75.5278 226.035 75.5278 221.512V221.06H79.5694Z" fill="#9B1F1F"/>
<path d="M141.059 221.024H144.992C145.209 221.277 145.101 221.584 145.101 221.874C145.101 225.926 145.101 229.978 145.101 234.03C145.101 234.392 145.101 234.736 145.101 235.098C145.101 236.237 145.371 236.473 146.508 236.563V239.602C145.545 239.727 144.567 239.678 143.621 239.457C142.984 239.297 142.409 238.947 141.974 238.453C141.539 237.959 141.264 237.344 141.185 236.69C141.093 236.152 141.044 235.607 141.041 235.062V221.024H141.059Z" fill="#9B1F1F"/>
<path d="M133.374 239.62H129.387V226.957H133.356V228.187C133.705 227.709 134.158 227.316 134.679 227.037C135.201 226.759 135.779 226.601 136.369 226.577C137.523 226.484 138.682 226.677 139.743 227.138L137.939 230.159C137.292 229.882 136.602 229.717 135.9 229.671C135.311 229.614 134.723 229.791 134.261 230.162C133.8 230.534 133.501 231.072 133.428 231.661C133.287 232.521 133.245 233.395 133.302 234.266C133.356 236.02 133.374 237.793 133.374 239.62Z" fill="#9B1F1F"/>
<path d="M115.889 75.345C116.256 76.4112 116.224 77.5749 115.799 78.6193L115.889 75.345Z" fill="#8F0909"/>
<path d="M116.034 14.7073C116.044 14.7785 116.029 14.8508 115.993 14.913C115.958 14.9751 115.902 15.0237 115.836 15.051V14.7073H116.034Z" fill="#8F0909"/>
<path d="M116.034 14.7072H115.854V14.5986L116.034 14.7072Z" fill="#9B1F1F"/>
</g>
<defs>
<clipPath id="clip0_712_10870">
<rect width="163" height="240" fill="white"/>
</clipPath>
</defs>
</svg>
