<svg width="162" height="52" viewBox="0 0 162 52" fill="none" xmlns="http://www.w3.org/2000/svg">
<g filter="url(#filter0_d_415_66663)">
<rect x="2" y="22.4731" width="30.3676" height="30.3676" rx="5" transform="rotate(-45 2 22.4731)" fill="#BA4D1F"/>
<rect x="22.7071" y="12" width="15.9705" height="15.9705" rx="2.5" transform="rotate(-45 22.7071 12)" stroke="#01838C"/>
<path d="M46.36 43V29.36H50.14C51.5933 29.36 52.74 29.6533 53.58 30.24C54.4333 30.8267 54.86 31.68 54.86 32.8C54.86 33.5333 54.6267 34.1533 54.16 34.66C53.7067 35.1533 53.1267 35.4867 52.42 35.66V35.7C53.42 35.8333 54.1933 36.22 54.74 36.86C55.3 37.4867 55.58 38.2267 55.58 39.08C55.58 40.3067 55.1333 41.2667 54.24 41.96C53.36 42.6533 52.22 43 50.82 43H46.36ZM52.7 38.84C52.7 38.2533 52.5 37.7867 52.1 37.44C51.7 37.08 51.14 36.9 50.42 36.9H49.06V40.84H50.54C51.2333 40.84 51.7667 40.6667 52.14 40.32C52.5133 39.9733 52.7 39.48 52.7 38.84ZM52.04 33.08C52.04 32.5733 51.86 32.1867 51.5 31.92C51.14 31.64 50.64 31.5 50 31.5H49.06V34.8H50.1C51.3933 34.8 52.04 34.2267 52.04 33.08ZM68.2891 37.24L72.5091 43H69.1091L65.4091 37.64H64.5091V43H61.6491V29.36H65.8891C67.6891 29.36 69.0024 29.7467 69.8291 30.52C70.6557 31.2933 71.0691 32.2933 71.0691 33.52C71.0691 34.4667 70.8091 35.2667 70.2891 35.92C69.7691 36.5733 69.1024 37.0133 68.2891 37.24ZM68.1291 33.64C68.1291 33.0133 67.9491 32.5267 67.5891 32.18C67.2291 31.8333 66.7091 31.66 66.0291 31.66H64.5091V35.54H66.0491C66.6891 35.54 67.1957 35.3667 67.5691 35.02C67.9424 34.6733 68.1291 34.2133 68.1291 33.64ZM80.8083 32.84C79.9816 33.7333 79.5683 34.8467 79.5683 36.18C79.5683 37.5133 79.9749 38.6333 80.7883 39.54C81.6149 40.4333 82.6416 40.88 83.8683 40.88C85.0949 40.88 86.1216 40.4333 86.9483 39.54C87.7749 38.6333 88.1883 37.5133 88.1883 36.18C88.1883 34.8467 87.7883 33.7333 86.9883 32.84C86.2016 31.9333 85.1683 31.48 83.8883 31.48C82.6616 31.48 81.6349 31.9333 80.8083 32.84ZM76.6483 36.18C76.6483 34.2067 77.3416 32.5067 78.7283 31.08C80.1149 29.64 81.8416 28.92 83.9083 28.92C85.3616 28.92 86.6416 29.2667 87.7483 29.96C88.8683 30.64 89.7083 31.5267 90.2683 32.62C90.8283 33.7133 91.1083 34.9 91.1083 36.18C91.1083 38.1933 90.4149 39.9067 89.0283 41.32C87.6549 42.7333 85.9416 43.44 83.8883 43.44C82.9283 43.44 82.0416 43.2933 81.2283 43C80.4149 42.72 79.7283 42.34 79.1683 41.86C78.6216 41.38 78.1549 40.8267 77.7683 40.2C77.3816 39.56 77.0949 38.9067 76.9083 38.24C76.7349 37.56 76.6483 36.8733 76.6483 36.18ZM99.5895 33.64H99.5095C99.5629 35.3467 99.5895 36.2067 99.5895 36.22V43H97.1295V29.36H99.5895L103.39 35.22C104.136 36.3667 104.843 37.5667 105.51 38.82H105.57C105.53 37.46 105.51 36.64 105.51 36.36V29.36H107.97V43H105.51L102.03 37.66C101.136 36.26 100.323 34.92 99.5895 33.64ZM114.424 31.84V29.36H124.624V31.7L117.664 40.52H124.944V43H114.084V40.68L121.024 31.84H114.424ZM139.207 29.36V31.84H133.927V34.78H139.027V37.14H133.927V40.52H139.427V43H131.067V29.36H139.207Z" fill="#3F3F3F"/>
</g>
<defs>
<filter id="filter0_d_415_66663" x="0.0710449" y="1.24268" width="143.356" height="50.1973" filterUnits="userSpaceOnUse" color-interpolation-filters="sRGB">
<feFlood flood-opacity="0" result="BackgroundImageFix"/>
<feColorMatrix in="SourceAlpha" type="matrix" values="0 0 0 0 0 0 0 0 0 0 0 0 0 0 0 0 0 0 127 0" result="hardAlpha"/>
<feOffset dy="4"/>
<feGaussianBlur stdDeviation="2"/>
<feComposite in2="hardAlpha" operator="out"/>
<feColorMatrix type="matrix" values="0 0 0 0 0 0 0 0 0 0 0 0 0 0 0 0 0 0 0.25 0"/>
<feBlend mode="normal" in2="BackgroundImageFix" result="effect1_dropShadow_415_66663"/>
<feBlend mode="normal" in="SourceGraphic" in2="effect1_dropShadow_415_66663" result="shape"/>
</filter>
</defs>
</svg>
