<svg width="38" height="38" viewBox="0 0 38 38" fill="none" xmlns="http://www.w3.org/2000/svg">
<g clip-path="url(#clip0_288_359)">
<path d="M0 30.0834C0.00251411 32.1823 0.837396 34.1945 2.32151 35.6786C3.80563 37.1627 5.81781 37.9976 7.91667 38.0001H30.0833C32.1822 37.9976 34.1944 37.1627 35.6785 35.6786C37.1626 34.1945 37.9975 32.1823 38 30.0834V15.8335H0V30.0834ZM26.9167 22.9584C27.3864 22.9584 27.8456 23.0977 28.2361 23.3587C28.6267 23.6197 28.9311 23.9906 29.1109 24.4246C29.2906 24.8586 29.3377 25.3361 29.246 25.7968C29.1544 26.2575 28.9282 26.6807 28.596 27.0128C28.2639 27.345 27.8407 27.5712 27.38 27.6628C26.9193 27.7545 26.4418 27.7074 26.0078 27.5277C25.5738 27.3479 25.2029 27.0435 24.9419 26.6529C24.681 26.2624 24.5417 25.8032 24.5417 25.3335C24.5417 24.7036 24.7919 24.0995 25.2373 23.6541C25.6827 23.2087 26.2868 22.9584 26.9167 22.9584ZM19 22.9584C19.4697 22.9584 19.9289 23.0977 20.3195 23.3587C20.71 23.6197 21.0145 23.9906 21.1942 24.4246C21.374 24.8586 21.421 25.3361 21.3294 25.7968C21.2377 26.2575 21.0115 26.6807 20.6794 27.0128C20.3472 27.345 19.924 27.5712 19.4633 27.6628C19.0026 27.7545 18.5251 27.7074 18.0911 27.5277C17.6572 27.3479 17.2862 27.0435 17.0253 26.6529C16.7643 26.2624 16.625 25.8032 16.625 25.3335C16.625 24.7036 16.8752 24.0995 17.3206 23.6541C17.766 23.2087 18.3701 22.9584 19 22.9584ZM11.0833 22.9584C11.5531 22.9584 12.0122 23.0977 12.4028 23.3587C12.7934 23.6197 13.0978 23.9906 13.2775 24.4246C13.4573 24.8586 13.5043 25.3361 13.4127 25.7968C13.3211 26.2575 13.0949 26.6807 12.7627 27.0128C12.4306 27.345 12.0074 27.5712 11.5467 27.6628C11.086 27.7545 10.6084 27.7074 10.1745 27.5277C9.74049 27.3479 9.36956 27.0435 9.10859 26.6529C8.84762 26.2624 8.70833 25.8032 8.70833 25.3335C8.70833 24.7036 8.95856 24.0995 9.40395 23.6541C9.84935 23.2087 10.4534 22.9584 11.0833 22.9584Z" fill="white"/>
<path d="M30.0833 3.16667H28.5V1.58333C28.5 1.16341 28.3332 0.76068 28.0363 0.463748C27.7393 0.166815 27.3366 0 26.9167 0C26.4967 0 26.094 0.166815 25.7971 0.463748C25.5001 0.76068 25.3333 1.16341 25.3333 1.58333V3.16667H12.6667V1.58333C12.6667 1.16341 12.4999 0.76068 12.2029 0.463748C11.906 0.166815 11.5033 0 11.0833 0C10.6634 0 10.2607 0.166815 9.96375 0.463748C9.66682 0.76068 9.5 1.16341 9.5 1.58333V3.16667H7.91667C5.81781 3.16918 3.80563 4.00406 2.32151 5.48818C0.837396 6.9723 0.00251411 8.98448 0 11.0833L0 12.6667H38V11.0833C37.9975 8.98448 37.1626 6.9723 35.6785 5.48818C34.1944 4.00406 32.1822 3.16918 30.0833 3.16667Z" fill="white"/>
</g>
<defs>
<clipPath id="clip0_288_359">
<rect width="38" height="38" fill="white"/>
</clipPath>
</defs>
</svg>
