<svg width="434" height="118" viewBox="0 0 434 118" fill="none" xmlns="http://www.w3.org/2000/svg">
<g clip-path="url(#clip0_736_6954)">
<path d="M57.6419 9.75198e-06C50.0598 -0.00440528 42.5515 1.49034 35.5474 4.39854C28.5434 7.30674 22.1813 11.5712 16.8262 16.9473C11.4711 22.3234 7.22815 28.7055 4.34077 35.7275C1.4534 42.7496 -0.0216431 50.2734 0.000239961 57.8676C0.0750561 89.1578 26.2607 115.094 57.5837 114.903C89.1229 114.719 114.943 88.8164 114.801 57.4513C114.764 42.2602 108.737 27.699 98.0309 16.9386C87.3251 6.17812 72.8084 0.0900088 57.6419 9.75198e-06ZM68.9308 53.4797C68.9308 59.841 69.0472 66.2022 68.9308 72.5635C68.6814 83.7707 60.8341 89.5491 49.8777 86.8181C47.2108 86.0989 44.6823 84.9395 42.396 83.3877C37.8821 80.4652 38.0816 75.6526 42.8034 73.0298C43.3272 72.7091 43.9378 72.56 44.5502 72.6033C45.1626 72.6465 45.7463 72.88 46.22 73.2712C47.2034 74.0329 48.2304 74.7362 49.2957 75.3778C55.6136 78.9081 59.4874 76.685 59.5289 69.3995C59.5954 57.3681 59.6536 45.3283 59.4707 33.2968C59.4209 29.7331 60.5431 28.301 64.1509 28.301C67.5758 28.301 69.1386 29.3668 68.9973 33.1303C68.7396 39.9162 68.9308 46.6938 68.9308 53.4797ZM22.2206 43.0302C15.3957 59.2415 21.0069 78.3253 35.6376 88.6998C42.6044 93.5664 50.9985 95.9542 59.4791 95.4818C67.9597 95.0094 76.0376 91.7041 82.4227 86.0937C85.6896 83.1795 89.4304 83.8206 91.7082 87.7007C92.8637 89.6657 91.4422 90.7564 90.2451 91.9138C84.4076 97.4561 77.2638 101.427 69.4799 103.457C61.6961 105.486 53.5258 105.508 45.7311 103.521C37.9365 101.533 30.7715 97.6003 24.9044 92.0894C19.0373 86.5786 14.6593 79.6692 12.1786 72.0057C5.87746 52.339 12.9601 31.3901 29.4861 18.859C48.373 4.5295 75.2902 8.70097 89.2143 22.1895C90.6192 23.5467 94.202 24.8373 91.2011 27.6099C86.4045 32.0312 86.4212 32.2893 82.8882 29.2169C62.4301 11.6068 32.5452 18.501 22.2206 43.0302Z" fill="#4773B3"/>
<path d="M68.9975 33.1469C68.7398 39.9162 68.931 46.6938 68.931 53.4797C68.931 59.841 69.0474 66.2022 68.931 72.5635C68.6816 83.7707 60.8343 89.5491 49.8779 86.8181C47.211 86.0989 44.6825 84.9395 42.3962 83.3877C37.8823 80.4652 38.0819 75.6526 42.8036 73.0298C43.3274 72.7091 43.938 72.56 44.5504 72.6033C45.1628 72.6465 45.7465 72.88 46.2202 73.2712C47.2036 74.0328 48.2306 74.7362 49.296 75.3778C55.6138 78.9081 59.4876 76.685 59.5291 69.3995C59.5956 57.3681 59.6538 45.3283 59.4709 33.2968C59.4211 29.7331 60.5433 28.301 64.1511 28.301C67.576 28.3094 69.1472 29.3834 68.9975 33.1469Z" fill="#EDEDED"/>
<path d="M91.7092 87.7007C92.8647 89.6656 91.4432 90.7564 90.2461 91.9137C84.4086 97.456 77.2648 101.427 69.4809 103.457C61.6971 105.486 53.5268 105.508 45.7322 103.521C37.9375 101.533 30.7725 97.6002 24.9054 92.0894C19.0383 86.5786 14.6603 79.6692 12.1796 72.0056C5.87847 52.339 12.9611 31.39 29.4871 18.859C48.374 4.52947 75.2912 8.70093 89.2153 22.1895C90.6202 23.5467 94.203 24.8373 91.2021 27.6099C86.4055 32.0312 86.4222 32.2893 82.8892 29.2169C62.4311 11.6068 32.5463 18.501 22.2216 43.0302C15.3967 59.2414 21.0079 78.3253 35.6387 88.6998C42.6054 93.5664 50.9995 95.9542 59.4801 95.4818C67.9607 95.0094 76.0387 91.704 82.4237 86.0937C85.6906 83.1795 89.4314 83.8206 91.7092 87.7007Z" fill="#EDEDED"/>
<path d="M124.055 57.2015C124.263 46.8519 126.474 36.927 135.693 30.0662C153.15 17.1105 178.255 26.8439 182.287 48.1092C183.717 55.3275 183.481 62.7777 181.597 69.8907C178.055 83.0629 167.348 90.8397 153.175 90.5399C138.827 90.2318 128.527 82.3219 125.352 69.1081C124.486 65.1986 124.052 61.2059 124.055 57.2015ZM174.256 57.2515C174.44 53.0328 173.767 48.8207 172.278 44.8703C169.244 36.7438 162.56 32.1477 153.815 32.0395C145.07 31.9312 138.303 36.4108 135.136 44.5289C132.392 51.679 131.97 59.5141 133.93 66.9183C136.507 77.4677 143.906 83.3294 154.039 83.1295C164.173 82.9297 171.247 76.7266 173.475 66.1189C174.066 63.2017 174.328 60.2273 174.256 57.2515Z" fill="#707575"/>
<path d="M363.905 26.6441L339.998 51.8477L365.493 88.3751C359.134 89.5074 354.612 89.0578 351.062 83.1129C345.841 74.3869 339.549 66.2938 332.774 56.627C329.789 60.0741 327.246 63.1048 324.585 66.0273C323.505 67.218 323.688 68.5252 323.688 69.924C323.688 75.9939 323.688 82.0638 323.688 88.2419C320.936 89.216 318.392 88.7831 315.574 88.6249V26.6441C318.068 25.7032 320.62 26.3776 323.596 26.2694V55.378L324.536 55.8859C326.481 53.8293 328.393 51.7228 330.355 49.7245C336.29 43.7379 342.658 38.1177 348.094 31.7064C352.558 26.4859 357.538 25.187 363.905 26.6441Z" fill="#707575"/>
<path d="M200.059 88.5499C196.85 88.883 194.406 89.0495 191.746 88.4583V26.1778C202.661 26.6024 213.559 25.112 224.308 27.2685C231.848 28.7756 236.212 35.8113 235.946 44.6705C235.68 53.7628 230.825 60.2406 223.169 61.7643C219.351 62.3956 215.481 62.6494 211.614 62.522H200.059V88.5499ZM200.425 34.4291C199.643 35.6531 199.943 36.927 199.934 38.1343C199.934 43.613 199.934 49.0834 199.934 55.02C206.809 54.7203 213.235 55.5446 219.644 54.3706C225.164 53.3631 227.35 50.5904 227.342 44.4789C227.334 38.3675 225.014 34.9703 219.686 34.5374C213.285 34.0545 206.826 34.4208 200.425 34.4208V34.4291Z" fill="#707575"/>
<path d="M259.761 33.9629H240.392C239.848 31.4981 239.814 28.9477 240.292 26.4692H287.676V34.0795H268.365V88.5583H259.761V33.9629Z" fill="#707575"/>
<path d="M305.083 88.6082H297.402C296.779 85.2777 296.671 31.0403 297.269 26.5608C299.763 25.853 302.307 26.3443 305.083 26.3027V88.6082Z" fill="#707575"/>
<path d="M139.915 113.404V100.365L134.446 113.404H132.891L127.687 100.798V113.404H125.875V97.6506H128.41L133.581 110.357C133.626 110.454 133.665 110.554 133.697 110.656L133.797 110.423L139.242 97.6506H141.736V113.404H139.915Z" fill="#6C7171"/>
<path d="M126.123 97.9004H128.243L133.355 110.456C133.438 110.65 133.505 110.851 133.555 111.056L133.713 111.789C133.703 111.7 133.703 111.611 133.713 111.522C133.713 111.456 133.713 111.314 133.788 111.123C133.837 110.922 133.907 110.726 133.995 110.54L139.374 97.9004H141.444V113.154H140.155V99.4241L140.247 98.9495C140.064 99.3325 139.914 99.6905 139.789 100.024V100.09L134.311 113.154H133.089L127.694 100.09L127.445 99.3242L127.337 98.9495L127.412 99.7821L127.47 100.282V113.154H126.156L126.123 97.9004Z" fill="#6C7171"/>
<path d="M145.053 113.404V101.955H146.932V113.404H145.053ZM144.953 99.0827V96.8346H147.015V99.0827H144.953Z" fill="#6C7171"/>
<path d="M145.201 97.0844H146.764V98.8662H145.201V97.0844ZM145.301 102.205H146.681V113.154H145.301V102.205Z" fill="#6C7171"/>
<path d="M157.073 113.404L152.027 108.033V113.404H150.148V96.5265H152.027V105.927L156.516 101.955H158.985L153.382 106.859L159.575 113.404H157.073Z" fill="#6C7171"/>
<path d="M150.397 96.7764H151.777V106.485L156.615 102.205H158.278L152.982 106.843L158.951 113.154H157.139L151.735 107.409V113.154H150.355L150.397 96.7764Z" fill="#6C7171"/>
<path d="M160.332 113.404V101.955H162.103V103.412C162.329 103.069 162.61 102.766 162.934 102.513C163.519 102.046 164.247 101.796 164.996 101.805H165.303C165.451 101.806 165.599 101.823 165.744 101.855H165.935V103.779L165.22 103.654H164.904C164.53 103.639 164.158 103.717 163.822 103.882C163.485 104.046 163.195 104.291 162.976 104.595C162.444 105.405 162.187 106.366 162.244 107.334V113.387L160.332 113.404Z" fill="#6C7171"/>
<path d="M165.651 102.097V103.529L165.227 103.446H164.894C164.477 103.425 164.062 103.509 163.685 103.691C163.309 103.873 162.985 104.146 162.741 104.486C162.173 105.338 161.898 106.353 161.96 107.376V113.204H160.58V102.205H161.852V104.511C162.074 103.809 162.492 103.185 163.057 102.713C163.593 102.274 164.268 102.041 164.961 102.055H165.269C165.397 102.057 165.525 102.071 165.651 102.097Z" fill="#6C7171"/>
<path d="M172.078 113.67C171.354 113.693 170.633 113.556 169.968 113.268C169.303 112.98 168.709 112.549 168.229 112.005C167.295 110.749 166.791 109.225 166.791 107.659C166.791 106.093 167.295 104.568 168.229 103.312C168.734 102.798 169.335 102.39 169.999 102.111C170.663 101.833 171.375 101.689 172.095 101.689C172.814 101.689 173.527 101.833 174.19 102.111C174.854 102.39 175.456 102.798 175.96 103.312C176.966 104.523 177.48 106.069 177.398 107.642C177.475 109.222 176.962 110.774 175.96 111.997C175.478 112.547 174.88 112.984 174.208 113.273C173.536 113.563 172.809 113.698 172.078 113.67ZM172.078 103.379C171.616 103.364 171.157 103.46 170.741 103.66C170.324 103.86 169.962 104.158 169.684 104.528C169.028 105.436 168.7 106.54 168.753 107.659C168.699 108.777 169.031 109.879 169.692 110.781C169.968 111.152 170.328 111.451 170.744 111.652C171.159 111.854 171.617 111.952 172.078 111.938C172.544 111.955 173.007 111.86 173.429 111.662C173.852 111.464 174.22 111.167 174.505 110.798C175.156 109.886 175.473 108.777 175.403 107.659C175.463 106.535 175.137 105.425 174.481 104.511C174.198 104.146 173.832 103.853 173.415 103.657C172.997 103.46 172.539 103.365 172.078 103.379Z" fill="#6C7171"/>
<path d="M172.077 101.972C172.766 101.94 173.454 102.062 174.09 102.328C174.727 102.595 175.297 102.999 175.759 103.512C176.723 104.678 177.212 106.164 177.131 107.675C177.203 109.185 176.714 110.668 175.759 111.839C175.281 112.33 174.71 112.721 174.079 112.987C173.448 113.254 172.77 113.391 172.085 113.391C171.4 113.391 170.722 113.254 170.091 112.987C169.46 112.721 168.888 112.33 168.411 111.839C167.525 110.632 167.047 109.173 167.047 107.675C167.047 106.178 167.525 104.719 168.411 103.512C168.87 103 169.437 102.597 170.071 102.33C170.705 102.064 171.39 101.942 172.077 101.972ZM172.077 103.129C171.577 103.116 171.082 103.221 170.631 103.437C170.18 103.653 169.787 103.972 169.483 104.37C168.781 105.333 168.435 106.51 168.502 107.7C168.447 108.876 168.799 110.035 169.5 110.981C169.799 111.379 170.189 111.7 170.637 111.917C171.086 112.135 171.579 112.242 172.077 112.23C172.58 112.246 173.081 112.142 173.537 111.928C173.993 111.714 174.393 111.395 174.703 110.998C175.344 110.016 175.685 108.869 175.685 107.696C175.685 106.524 175.344 105.377 174.703 104.395C174.397 103.991 173.999 103.665 173.542 103.445C173.086 103.225 172.583 103.117 172.077 103.129Z" fill="#6C7171"/>
<path d="M181.986 113.537C181.465 113.536 180.945 113.492 180.431 113.404C179.949 113.317 179.478 113.177 179.027 112.988L178.877 112.921V111.056L179.234 111.239C179.662 111.449 180.111 111.613 180.573 111.73C180.797 111.785 181.025 111.827 181.254 111.855C181.47 111.869 181.687 111.869 181.903 111.855C182.516 111.881 183.121 111.712 183.632 111.372C183.825 111.248 183.984 111.077 184.093 110.874C184.202 110.672 184.258 110.445 184.255 110.215C184.267 109.85 184.143 109.494 183.906 109.216C183.313 108.699 182.635 108.288 181.903 108C181.041 107.674 180.246 107.192 179.559 106.576C179.32 106.297 179.142 105.972 179.034 105.621C178.926 105.27 178.892 104.901 178.934 104.536C178.975 104.171 179.091 103.819 179.274 103.501C179.458 103.183 179.704 102.906 179.999 102.688C180.782 102.111 181.738 101.817 182.709 101.855C183.193 101.854 183.677 101.887 184.156 101.955C184.372 101.955 184.596 102.022 184.821 102.063C185.045 102.105 185.27 102.172 185.477 102.238L185.652 102.297V104.078L185.303 103.937C185.128 103.862 184.937 103.795 184.738 103.729C184.527 103.66 184.314 103.601 184.097 103.554C183.69 103.466 183.275 103.421 182.859 103.421C182.329 103.396 181.805 103.532 181.354 103.812C181.195 103.913 181.063 104.053 180.973 104.219C180.883 104.386 180.837 104.572 180.839 104.761C180.839 105.119 181.18 105.71 182.809 106.485L183.117 106.635C184.001 106.991 184.804 107.524 185.477 108.2C185.94 108.725 186.19 109.406 186.176 110.107C186.193 110.586 186.096 111.063 185.892 111.498C185.688 111.932 185.383 112.312 185.004 112.605C184.132 113.248 183.068 113.577 181.986 113.537Z" fill="#6C7171"/>
<path d="M185.428 102.463V103.737C185.245 103.662 185.046 103.587 184.838 103.521C184.63 103.454 184.414 103.396 184.181 103.337C183.753 103.263 183.319 103.233 182.884 103.246C182.297 103.211 181.715 103.366 181.222 103.687C181.029 103.809 180.87 103.979 180.761 104.18C180.652 104.381 180.596 104.607 180.598 104.836C180.598 105.469 181.297 106.118 182.71 106.784L183.017 106.934C183.866 107.282 184.639 107.791 185.295 108.433C185.718 108.916 185.946 109.539 185.935 110.182C185.942 110.609 185.85 111.031 185.667 111.417C185.484 111.803 185.214 112.141 184.879 112.405C184.038 113.004 183.017 113.297 181.987 113.237C181.479 113.236 180.973 113.192 180.474 113.104C180.011 113.024 179.559 112.89 179.127 112.704V111.406C179.568 111.632 180.034 111.805 180.515 111.922C180.773 111.98 181.006 112.022 181.222 112.055C181.448 112.082 181.676 112.096 181.903 112.097C182.571 112.128 183.23 111.941 183.782 111.564C184.006 111.416 184.189 111.214 184.315 110.977C184.442 110.74 184.507 110.475 184.505 110.207C184.522 109.779 184.373 109.362 184.09 109.041C183.471 108.505 182.769 108.075 182.012 107.767C181.182 107.424 180.421 106.933 179.767 106.318C179.553 106.064 179.393 105.769 179.297 105.451C179.201 105.133 179.171 104.799 179.21 104.469C179.248 104.139 179.353 103.82 179.519 103.532C179.685 103.245 179.908 102.994 180.174 102.796C180.918 102.262 181.82 101.994 182.735 102.039C183.207 102.039 183.679 102.069 184.148 102.13C184.356 102.13 184.572 102.197 184.796 102.247C185.012 102.304 185.223 102.376 185.428 102.463Z" fill="#6C7171"/>
<path d="M195.27 113.404L190.224 108.033V113.404H188.346V96.5265H190.224V105.927L194.713 101.955H197.182L191.579 106.859L197.773 113.404H195.27Z" fill="#6C7171"/>
<path d="M188.595 96.7764H189.975V106.485L194.813 102.205H196.517L191.197 106.843L197.166 113.154H195.354L189.95 107.409V113.154H188.57L188.595 96.7764Z" fill="#6C7171"/>
<path d="M202.951 113.67C202.227 113.693 201.507 113.556 200.841 113.268C200.176 112.98 199.582 112.549 199.102 112.005C198.166 110.75 197.66 109.225 197.66 107.659C197.66 106.092 198.166 104.567 199.102 103.312C199.606 102.799 200.207 102.391 200.87 102.112C201.533 101.833 202.245 101.69 202.964 101.69C203.683 101.69 204.395 101.833 205.058 102.112C205.72 102.391 206.321 102.799 206.825 103.312C207.831 104.523 208.345 106.069 208.263 107.642C208.339 109.221 207.83 110.771 206.833 111.997C206.351 112.547 205.752 112.982 205.081 113.271C204.409 113.561 203.682 113.697 202.951 113.67ZM202.951 103.379C202.489 103.364 202.031 103.46 201.614 103.66C201.197 103.86 200.835 104.158 200.557 104.528C199.901 105.436 199.573 106.54 199.626 107.659C199.573 108.777 199.904 109.879 200.566 110.781C200.841 111.152 201.202 111.45 201.617 111.652C202.033 111.853 202.49 111.951 202.951 111.939C203.418 111.957 203.881 111.862 204.304 111.664C204.726 111.465 205.095 111.168 205.379 110.798C206.044 109.891 206.376 108.782 206.318 107.659C206.375 106.534 206.047 105.424 205.387 104.511C205.101 104.141 204.731 103.845 204.307 103.648C203.883 103.451 203.418 103.359 202.951 103.379Z" fill="#6C7171"/>
<path d="M202.952 101.972C203.641 101.94 204.329 102.062 204.965 102.328C205.602 102.595 206.172 102.999 206.634 103.512C207.598 104.678 208.087 106.164 208.006 107.675C208.078 109.185 207.589 110.668 206.634 111.839C206.156 112.33 205.585 112.721 204.954 112.987C204.323 113.254 203.645 113.391 202.96 113.391C202.275 113.391 201.597 113.254 200.966 112.987C200.335 112.721 199.763 112.33 199.286 111.839C198.4 110.632 197.922 109.173 197.922 107.675C197.922 106.178 198.4 104.719 199.286 103.512C199.746 103.001 200.313 102.598 200.947 102.332C201.581 102.066 202.265 101.943 202.952 101.972ZM202.952 103.129C202.452 103.116 201.957 103.221 201.506 103.437C201.055 103.653 200.662 103.972 200.358 104.37C199.66 105.335 199.314 106.51 199.377 107.7C199.322 108.876 199.674 110.035 200.375 110.981C200.674 111.379 201.064 111.7 201.512 111.917C201.961 112.135 202.454 112.242 202.952 112.23C203.456 112.248 203.957 112.145 204.413 111.931C204.87 111.717 205.269 111.397 205.578 110.998C206.224 110.018 206.568 108.87 206.568 107.696C206.568 106.523 206.224 105.375 205.578 104.395C205.272 103.99 204.874 103.664 204.418 103.444C203.961 103.224 203.458 103.116 202.952 103.129Z" fill="#6C7171"/>
<path d="M210.732 118V101.955H212.503V103.496C212.831 103.046 213.244 102.664 213.717 102.372C214.404 101.941 215.2 101.715 216.011 101.722C216.66 101.702 217.304 101.836 217.891 102.114C218.478 102.392 218.99 102.806 219.386 103.321C220.272 104.541 220.715 106.027 220.641 107.534C220.719 109.086 220.268 110.619 219.361 111.88C218.952 112.416 218.42 112.846 217.812 113.136C217.203 113.425 216.535 113.566 215.861 113.545C215.114 113.55 214.378 113.361 213.725 112.996C213.304 112.754 212.927 112.441 212.611 112.072V118.008L210.732 118ZM215.72 103.396C215.28 103.384 214.844 103.48 214.45 103.676C214.056 103.872 213.716 104.162 213.459 104.52C212.833 105.418 212.523 106.498 212.578 107.592C212.504 108.728 212.795 109.857 213.409 110.814C213.667 111.173 214.011 111.461 214.409 111.653C214.807 111.845 215.246 111.935 215.687 111.913C216.102 111.915 216.511 111.814 216.877 111.617C217.242 111.421 217.554 111.137 217.782 110.789C218.379 109.843 218.669 108.735 218.613 107.617C218.679 106.514 218.403 105.418 217.823 104.478C217.596 104.138 217.288 103.861 216.926 103.672C216.565 103.483 216.161 103.388 215.753 103.396H215.72Z" fill="#6C7171"/>
<path d="M212.362 111.289V117.75H210.982V102.205H212.254V104.362C212.614 103.633 213.166 103.017 213.85 102.58C214.498 102.174 215.248 101.963 216.012 101.972C216.624 101.952 217.232 102.078 217.785 102.34C218.339 102.602 218.822 102.993 219.196 103.479C220.046 104.653 220.469 106.085 220.393 107.534C220.465 109.021 220.032 110.489 219.162 111.697C218.536 112.462 217.663 112.985 216.693 113.174C215.724 113.364 214.718 113.21 213.85 112.738C213.238 112.391 212.726 111.892 212.362 111.289ZM218.905 107.617C218.986 106.447 218.695 105.281 218.073 104.287C217.819 103.911 217.473 103.605 217.069 103.398C216.665 103.192 216.216 103.09 215.762 103.104C215.279 103.088 214.8 103.19 214.365 103.402C213.93 103.614 213.554 103.929 213.268 104.32C212.606 105.262 212.278 106.4 212.337 107.55C212.273 108.728 212.588 109.896 213.235 110.881C213.518 111.274 213.894 111.59 214.33 111.801C214.765 112.012 215.246 112.111 215.729 112.088C216.184 112.095 216.634 111.985 217.035 111.769C217.437 111.554 217.777 111.239 218.023 110.856C218.64 109.892 218.947 108.761 218.905 107.617Z" fill="#6C7171"/>
<path d="M227.583 113.67C226.845 113.708 226.107 113.582 225.422 113.303C224.737 113.024 224.121 112.598 223.618 112.055C222.607 110.806 222.097 109.223 222.188 107.617C222.119 106.072 222.613 104.554 223.577 103.346C224.02 102.808 224.58 102.379 225.213 102.09C225.847 101.801 226.538 101.661 227.234 101.681C227.857 101.659 228.477 101.781 229.045 102.038C229.613 102.295 230.114 102.68 230.509 103.163C231.369 104.295 231.799 105.697 231.723 107.118V108.158H224.025C224.04 108.665 224.126 109.167 224.283 109.649C224.443 110.127 224.701 110.566 225.04 110.939C225.386 111.292 225.805 111.566 226.267 111.743C226.729 111.92 227.223 111.995 227.716 111.963C228.191 111.963 228.664 111.899 229.121 111.772C229.608 111.642 230.077 111.452 230.518 111.206L230.892 110.989V112.946L230.742 113.013C230.259 113.223 229.754 113.382 229.238 113.487C228.694 113.608 228.14 113.669 227.583 113.67ZM229.886 106.66C229.876 106.232 229.803 105.809 229.67 105.402C229.53 104.984 229.316 104.595 229.038 104.253C228.807 103.957 228.508 103.721 228.167 103.564C227.825 103.408 227.451 103.336 227.076 103.354C226.693 103.349 226.313 103.43 225.964 103.591C225.616 103.752 225.309 103.99 225.064 104.287C224.523 104.969 224.188 105.792 224.1 106.66H229.886Z" fill="#6C7171"/>
<path d="M231.473 107.134V107.967H223.776C223.765 108.586 223.857 109.202 224.05 109.79C224.226 110.302 224.51 110.771 224.881 111.164C225.25 111.544 225.697 111.84 226.19 112.031C226.684 112.222 227.213 112.304 227.741 112.272C228.235 112.269 228.727 112.202 229.204 112.072C229.715 111.939 230.207 111.74 230.667 111.481V112.846C230.196 113.048 229.706 113.202 229.204 113.304C228.679 113.412 228.144 113.465 227.608 113.462C226.905 113.5 226.203 113.383 225.55 113.118C224.898 112.853 224.312 112.448 223.834 111.93C222.859 110.728 222.37 109.204 222.462 107.659C222.39 106.174 222.863 104.714 223.792 103.554C224.213 103.046 224.744 102.641 225.345 102.37C225.946 102.099 226.6 101.968 227.259 101.989C227.845 101.967 228.428 102.081 228.963 102.322C229.498 102.563 229.971 102.925 230.343 103.379C231.149 104.459 231.55 105.788 231.473 107.134ZM230.135 106.909C230.146 106.37 230.068 105.833 229.902 105.319C229.752 104.875 229.524 104.46 229.229 104.095C228.973 103.772 228.645 103.514 228.271 103.342C227.897 103.17 227.487 103.088 227.076 103.104C226.657 103.098 226.243 103.185 225.863 103.361C225.483 103.537 225.147 103.797 224.881 104.12C224.246 104.917 223.874 105.891 223.817 106.909H230.135Z" fill="#6C7171"/>
<path d="M239.635 113.404V101.955H241.506V113.404H239.635ZM239.527 99.0827V96.8346H241.597V99.0827H239.527Z" fill="#6C7171"/>
<path d="M239.777 97.0844H241.348V98.8662H239.777V97.0844ZM239.885 102.205H241.257V113.154H239.885V102.205Z" fill="#6C7171"/>
<path d="M251.948 113.404V106.801C252.015 105.909 251.809 105.017 251.358 104.245C251.149 103.976 250.876 103.763 250.563 103.627C250.251 103.49 249.91 103.433 249.571 103.462C249.154 103.444 248.74 103.528 248.363 103.706C247.987 103.885 247.659 104.153 247.409 104.486C246.814 105.362 246.522 106.409 246.578 107.467V113.404H244.699V101.955H246.47V103.396C246.78 102.975 247.166 102.616 247.609 102.338C248.31 101.914 249.118 101.7 249.936 101.722C250.479 101.691 251.022 101.787 251.521 102.002C252.02 102.218 252.462 102.546 252.813 102.963C253.525 103.987 253.871 105.222 253.794 106.468V113.404H251.948Z" fill="#6C7171"/>
<path d="M253.543 106.468V113.129H252.172V106.776C252.24 105.83 252.017 104.885 251.532 104.07C251.3 103.769 250.997 103.53 250.65 103.376C250.303 103.222 249.923 103.157 249.545 103.188C249.09 103.17 248.637 103.263 248.226 103.459C247.815 103.655 247.458 103.947 247.184 104.312C246.567 105.234 246.275 106.335 246.353 107.442V113.129H244.973V102.205H246.245V104.278C246.583 103.572 247.11 102.973 247.766 102.546C248.428 102.151 249.189 101.951 249.96 101.972C250.465 101.94 250.97 102.028 251.435 102.228C251.9 102.427 252.312 102.733 252.637 103.121C253.312 104.1 253.632 105.281 253.543 106.468Z" fill="#6C7171"/>
<path d="M277.193 113.404V100.365L271.723 113.404H270.169L264.957 100.798V113.404H263.145V97.6506H265.688L270.859 110.357C270.9 110.448 270.934 110.548 270.975 110.656C271.003 110.576 271.036 110.498 271.075 110.423L276.512 97.6506H279.006V113.404H277.193Z" fill="#6C7171"/>
<path d="M263.402 97.9004H265.522L270.635 110.456C270.72 110.65 270.79 110.851 270.842 111.056L270.992 111.789C270.992 111.68 270.992 111.597 270.992 111.522C270.992 111.447 271.034 111.314 271.075 111.123C271.117 110.919 271.187 110.723 271.283 110.54L276.661 97.9004H278.731V113.154H277.418V99.4241L277.501 98.9495C277.332 99.2991 277.182 99.6577 277.052 100.024V100.09L271.566 113.154H270.352L264.949 100.09L264.699 99.3242L264.599 98.9495L264.674 99.7821L264.724 100.282V113.154H263.411L263.402 97.9004Z" fill="#6C7171"/>
<path d="M286.987 113.67C286.248 113.708 285.51 113.583 284.825 113.304C284.14 113.025 283.524 112.599 283.021 112.055C282.101 110.792 281.601 109.272 281.592 107.708C281.583 106.145 282.066 104.619 282.971 103.346C283.417 102.809 283.979 102.38 284.614 102.092C285.248 101.803 285.94 101.663 286.637 101.681C287.26 101.66 287.88 101.782 288.447 102.039C289.015 102.296 289.517 102.681 289.913 103.163C290.766 104.298 291.193 105.698 291.118 107.118V108.158H283.47C283.48 108.665 283.567 109.168 283.728 109.649C283.889 110.125 284.143 110.564 284.476 110.939C284.824 111.291 285.242 111.565 285.704 111.741C286.165 111.918 286.66 111.994 287.153 111.963C287.628 111.964 288.1 111.9 288.558 111.772C289.048 111.643 289.52 111.453 289.963 111.206L290.328 110.989V112.946L290.179 113.013C289.696 113.225 289.191 113.384 288.674 113.487C288.12 113.61 287.554 113.672 286.987 113.67ZM289.289 106.66C289.279 106.232 289.206 105.809 289.073 105.402C288.937 104.983 288.722 104.593 288.441 104.253C288.21 103.957 287.911 103.721 287.57 103.564C287.228 103.408 286.854 103.336 286.479 103.354C286.096 103.345 285.716 103.424 285.369 103.586C285.022 103.748 284.716 103.988 284.476 104.287C283.916 104.962 283.567 105.787 283.47 106.66H289.289Z" fill="#6C7171"/>
<path d="M290.869 107.134V107.967H283.172C283.16 108.586 283.253 109.202 283.446 109.79C283.625 110.301 283.908 110.769 284.277 111.164C284.646 111.544 285.093 111.839 285.586 112.03C286.08 112.221 286.609 112.303 287.137 112.271C287.634 112.269 288.129 112.202 288.608 112.072C289.117 111.938 289.606 111.74 290.063 111.48V112.846C289.595 113.048 289.107 113.202 288.608 113.304C288.083 113.412 287.548 113.465 287.012 113.462C286.308 113.5 285.604 113.383 284.95 113.118C284.297 112.853 283.709 112.448 283.23 111.93C282.261 110.726 281.775 109.203 281.866 107.659C281.796 106.175 282.266 104.717 283.188 103.554C283.61 103.045 284.142 102.639 284.744 102.368C285.347 102.097 286.003 101.967 286.663 101.989C287.249 101.969 287.832 102.084 288.366 102.325C288.901 102.566 289.373 102.926 289.747 103.379C290.547 104.461 290.944 105.79 290.869 107.134ZM289.539 106.909C289.546 106.37 289.468 105.833 289.306 105.319C289.156 104.874 288.928 104.46 288.633 104.095C288.376 103.771 288.046 103.513 287.671 103.341C287.295 103.169 286.884 103.088 286.472 103.104C286.054 103.099 285.639 103.188 285.26 103.364C284.88 103.539 284.544 103.798 284.277 104.12C283.645 104.917 283.276 105.892 283.221 106.909H289.539Z" fill="#6C7171"/>
<path d="M296.771 113.554C296.124 113.564 295.484 113.418 294.905 113.128C294.326 112.838 293.826 112.413 293.446 111.889C292.558 110.627 292.111 109.109 292.174 107.567C292.111 106.074 292.563 104.604 293.454 103.404C294.122 102.604 295.046 102.061 296.069 101.867C297.092 101.673 298.151 101.839 299.065 102.338C299.486 102.584 299.858 102.906 300.162 103.287V96.6265H302.033V113.404H300.27V111.789C299.949 112.231 299.549 112.609 299.09 112.904C298.396 113.342 297.59 113.567 296.771 113.554ZM297.045 103.354C296.635 103.345 296.23 103.441 295.867 103.634C295.505 103.826 295.198 104.108 294.975 104.453C294.383 105.389 294.093 106.485 294.144 107.592C294.089 108.713 294.379 109.823 294.975 110.773C295.199 111.121 295.508 111.405 295.874 111.597C296.24 111.79 296.649 111.885 297.062 111.872C297.493 111.877 297.919 111.776 298.303 111.579C298.687 111.382 299.017 111.094 299.265 110.74C299.893 109.836 300.206 108.75 300.154 107.65C300.219 106.526 299.928 105.41 299.323 104.461C299.062 104.097 298.713 103.804 298.309 103.611C297.905 103.417 297.459 103.329 297.012 103.354H297.045Z" fill="#6C7171"/>
<path d="M300.387 96.7764H301.759V113.154H300.495V110.914C300.138 111.634 299.599 112.248 298.933 112.696C298.276 113.11 297.513 113.321 296.738 113.304C296.127 113.311 295.524 113.168 294.98 112.888C294.437 112.608 293.97 112.199 293.621 111.697C292.761 110.485 292.331 109.019 292.399 107.534C292.325 106.085 292.76 104.656 293.629 103.496C294.014 103.003 294.51 102.608 295.076 102.343C295.643 102.079 296.263 101.951 296.888 101.972C297.598 101.957 298.299 102.135 298.916 102.488C299.537 102.858 300.046 103.391 300.387 104.029V96.7764ZM297.012 103.104C296.562 103.096 296.116 103.202 295.718 103.413C295.319 103.624 294.981 103.934 294.735 104.312C294.184 105.325 293.895 106.46 293.895 107.613C293.895 108.766 294.184 109.901 294.735 110.914C294.983 111.295 295.324 111.606 295.725 111.817C296.127 112.028 296.576 112.133 297.029 112.122C297.501 112.128 297.967 112.02 298.389 111.807C298.81 111.594 299.173 111.282 299.448 110.898C300.113 109.953 300.444 108.813 300.387 107.659C300.453 106.481 300.138 105.313 299.49 104.328C299.211 103.934 298.838 103.616 298.406 103.402C297.973 103.188 297.494 103.086 297.012 103.104Z" fill="#6C7171"/>
<path d="M305.251 113.404V101.955H307.129V113.404H305.251ZM305.143 99.0827V96.8346H307.212V99.0827H305.143Z" fill="#6C7171"/>
<path d="M305.391 97.0844H306.962V98.8662H305.391V97.0844ZM305.499 102.205H306.879V113.154H305.499V102.205Z" fill="#6C7171"/>
<path d="M309.207 113.404V111.855L315.475 103.646H309.506V101.955H317.819V103.546L311.535 111.739H317.819V113.404H309.207Z" fill="#6C7171"/>
<path d="M309.755 102.205H317.553V103.462L311.011 111.988H317.553V113.154H309.439V111.938L315.957 103.396H309.739L309.755 102.205Z" fill="#6C7171"/>
<path d="M320.188 113.404V101.955H322.059V113.404H320.188ZM320.047 99.0827V96.8346H322.108V99.0827H320.047Z" fill="#6C7171"/>
<path d="M320.33 97.0844H321.893V98.8662H320.33V97.0844ZM320.438 102.205H321.81V113.154H320.438V102.205Z" fill="#6C7171"/>
<path d="M332.516 113.404V106.801C332.581 105.91 332.379 105.02 331.934 104.245C331.723 103.975 331.449 103.762 331.135 103.625C330.822 103.489 330.479 103.433 330.138 103.462C329.723 103.439 329.308 103.521 328.932 103.7C328.556 103.879 328.23 104.149 327.985 104.486C327.39 105.362 327.098 106.409 327.154 107.467V113.404H325.275V101.955H327.046V103.396C327.355 102.977 327.738 102.618 328.177 102.338C328.88 101.913 329.691 101.7 330.513 101.722C331.055 101.692 331.597 101.789 332.096 102.004C332.595 102.219 333.038 102.547 333.389 102.963C334.101 103.987 334.447 105.222 334.37 106.468V113.404H332.516Z" fill="#6C7171"/>
<path d="M334.121 106.468V113.129H332.741V106.776C332.812 105.831 332.591 104.886 332.11 104.07C331.877 103.768 331.572 103.529 331.224 103.375C330.876 103.221 330.494 103.157 330.115 103.188C329.661 103.17 329.21 103.263 328.8 103.459C328.39 103.655 328.034 103.947 327.762 104.312C327.145 105.234 326.853 106.335 326.931 107.442V113.129H325.551V102.205H326.823V104.278C327.161 103.574 327.684 102.976 328.336 102.546C329.002 102.153 329.765 101.954 330.539 101.972C331.043 101.941 331.548 102.029 332.013 102.229C332.478 102.428 332.889 102.734 333.215 103.121C333.891 104.1 334.21 105.281 334.121 106.468Z" fill="#6C7171"/>
<path d="M348.004 113.67C346.669 113.728 345.361 113.282 344.338 112.421C343.873 112.019 343.503 111.518 343.254 110.955C343.005 110.392 342.884 109.781 342.9 109.166C342.881 108.151 343.216 107.162 343.847 106.368C344.487 105.596 345.303 104.988 346.225 104.595C345.748 104.07 345.337 103.489 345.003 102.863C344.692 102.287 344.524 101.644 344.512 100.989C344.504 100.501 344.603 100.016 344.803 99.5699C345.003 99.1238 345.298 98.7273 345.668 98.4083C346.496 97.7586 347.514 97.4 348.566 97.388C349.618 97.376 350.644 97.7111 351.487 98.3417C351.845 98.6496 352.13 99.0336 352.321 99.4657C352.512 99.8978 352.605 100.367 352.593 100.84C352.584 101.734 352.246 102.593 351.645 103.254C350.944 104.008 350.095 104.609 349.151 105.019L352.568 108.841C352.883 108.318 353.134 107.759 353.316 107.176C353.44 106.777 353.54 106.371 353.615 105.96C353.691 105.56 353.73 105.153 353.731 104.745V104.495H355.544V104.745C355.547 105.236 355.503 105.727 355.411 106.21C355.31 106.721 355.177 107.224 355.012 107.717C354.714 108.602 354.298 109.443 353.773 110.215L356.624 113.404H354.047L352.626 111.739C352.043 112.326 351.359 112.803 350.606 113.146C349.784 113.499 348.898 113.677 348.004 113.67ZM347.389 105.835C346.683 106.141 346.06 106.609 345.568 107.201C345.122 107.727 344.872 108.392 344.862 109.083C344.853 109.471 344.931 109.857 345.09 110.212C345.25 110.566 345.487 110.88 345.784 111.131C346.444 111.699 347.293 111.996 348.162 111.964C348.807 111.969 349.445 111.823 350.024 111.539C350.569 111.261 351.057 110.883 351.462 110.423L347.389 105.835ZM348.577 99.1744C348.003 99.1474 347.44 99.3443 347.006 99.7239C346.811 99.8975 346.657 100.112 346.555 100.353C346.453 100.593 346.406 100.853 346.416 101.114C346.415 101.32 346.443 101.525 346.499 101.722C346.57 101.946 346.665 102.161 346.782 102.363C347.146 102.901 347.567 103.398 348.037 103.845C348.773 103.557 349.445 103.127 350.016 102.58C350.222 102.383 350.388 102.147 350.504 101.885C350.619 101.624 350.682 101.342 350.689 101.056C350.699 100.802 350.651 100.55 350.549 100.317C350.447 100.085 350.293 99.8791 350.099 99.7156C349.687 99.3315 349.14 99.1252 348.577 99.141V99.1744Z" fill="#6C7171"/>
<path d="M348.744 104.978L352.609 109.291C353.024 108.669 353.346 107.991 353.565 107.276C353.69 106.86 353.79 106.443 353.873 106.027C353.949 105.612 353.988 105.191 353.989 104.77H355.303C355.305 105.247 355.263 105.724 355.178 106.193C355.071 106.691 354.938 107.183 354.779 107.667C354.473 108.599 354.03 109.48 353.466 110.282L356.067 113.154H354.172L352.651 111.372C352.047 112.024 351.321 112.551 350.514 112.921C349.726 113.257 348.877 113.427 348.021 113.421C346.745 113.478 345.494 113.057 344.513 112.238C344.074 111.859 343.726 111.386 343.493 110.854C343.26 110.323 343.148 109.746 343.166 109.166C343.151 108.21 343.465 107.278 344.055 106.526C344.749 105.698 345.646 105.064 346.657 104.686C346.101 104.11 345.625 103.46 345.244 102.755C344.95 102.212 344.791 101.607 344.779 100.989C344.767 100.536 344.858 100.086 345.044 99.6726C345.229 99.259 345.505 98.8924 345.851 98.5998C346.612 97.9468 347.593 97.6076 348.594 97.6506C349.577 97.6041 350.544 97.9179 351.312 98.5332C351.646 98.8239 351.91 99.1857 352.086 99.592C352.261 99.9983 352.343 100.439 352.327 100.881C352.322 101.716 352.004 102.518 351.437 103.129C350.683 103.933 349.764 104.563 348.744 104.978ZM347.455 105.536C346.646 105.854 345.931 106.372 345.377 107.043C344.892 107.612 344.622 108.334 344.612 109.083C344.604 109.507 344.689 109.929 344.863 110.316C345.037 110.703 345.295 111.047 345.618 111.322C346.324 111.93 347.232 112.248 348.162 112.213C348.845 112.221 349.52 112.067 350.132 111.764C350.773 111.437 351.339 110.98 351.795 110.423L347.455 105.536ZM347.979 104.104C348.805 103.799 349.558 103.325 350.19 102.713C350.649 102.278 350.918 101.68 350.938 101.048C350.945 100.759 350.888 100.472 350.771 100.207C350.655 99.9424 350.482 99.7064 350.265 99.5157C349.806 99.1131 349.212 98.8989 348.603 98.9162C347.966 98.8919 347.344 99.1123 346.865 99.5324C346.645 99.7298 346.471 99.9729 346.355 100.245C346.239 100.517 346.183 100.81 346.192 101.106C346.188 101.334 346.219 101.562 346.283 101.78C346.357 102.025 346.46 102.26 346.591 102.48C346.993 103.063 347.458 103.599 347.979 104.079V104.104Z" fill="#6C7171"/>
<path d="M366.99 113.404V99.4741H362.543V97.6506H373.325V99.4741H368.886V113.404H366.99Z" fill="#6C7171"/>
<path d="M362.791 97.9004H373.074V99.2159H368.635V113.154H367.238V99.2159H362.791V97.9004Z" fill="#6C7171"/>
<path d="M379.444 113.67C378.705 113.708 377.967 113.583 377.282 113.304C376.597 113.025 375.981 112.599 375.478 112.055C374.558 110.793 374.058 109.272 374.049 107.709C374.04 106.145 374.523 104.619 375.428 103.346C375.873 102.809 376.433 102.381 377.066 102.093C377.7 101.804 378.39 101.663 379.086 101.681C379.717 101.652 380.346 101.772 380.923 102.029C381.5 102.286 382.01 102.674 382.411 103.163C383.265 104.298 383.692 105.698 383.617 107.118V108.158H375.927C375.934 108.665 376.018 109.168 376.177 109.649C376.34 110.125 376.597 110.564 376.933 110.939C377.281 111.291 377.699 111.565 378.161 111.741C378.623 111.918 379.117 111.994 379.61 111.963C380.085 111.963 380.557 111.899 381.015 111.772C381.502 111.643 381.972 111.453 382.411 111.206L382.785 110.989V112.946L382.636 113.013C382.153 113.225 381.648 113.384 381.131 113.487C380.577 113.61 380.011 113.672 379.444 113.67ZM381.738 106.66C381.728 106.232 381.655 105.809 381.522 105.402C381.382 104.984 381.168 104.595 380.89 104.253C380.659 103.957 380.36 103.721 380.019 103.564C379.677 103.408 379.303 103.336 378.928 103.354C378.545 103.345 378.165 103.424 377.818 103.586C377.47 103.748 377.165 103.988 376.925 104.287C376.377 104.966 376.039 105.791 375.952 106.66H381.738Z" fill="#6C7171"/>
<path d="M383.324 107.134V107.967H375.627C375.615 108.586 375.708 109.202 375.901 109.79C376.08 110.301 376.363 110.769 376.732 111.164C377.101 111.544 377.548 111.84 378.041 112.031C378.535 112.222 379.064 112.304 379.592 112.272C380.089 112.269 380.583 112.202 381.063 112.072C381.572 111.939 382.061 111.74 382.518 111.481V112.846C382.05 113.048 381.563 113.202 381.063 113.304C380.538 113.412 380.003 113.465 379.467 113.462C378.763 113.5 378.059 113.383 377.406 113.118C376.752 112.854 376.164 112.448 375.685 111.93C374.716 110.726 374.23 109.203 374.321 107.659C374.251 106.175 374.721 104.717 375.643 103.554C376.064 103.046 376.595 102.641 377.196 102.37C377.797 102.099 378.451 101.968 379.11 101.989C379.696 101.967 380.279 102.081 380.814 102.322C381.349 102.563 381.821 102.925 382.194 103.379C383 104.459 383.4 105.788 383.324 107.134ZM381.994 106.909C382.003 106.37 381.922 105.832 381.753 105.319C381.609 104.874 381.383 104.459 381.088 104.095C380.831 103.771 380.501 103.513 380.126 103.341C379.75 103.169 379.339 103.088 378.927 103.104C378.509 103.099 378.095 103.188 377.715 103.364C377.335 103.539 376.999 103.798 376.732 104.12C376.097 104.917 375.725 105.891 375.668 106.909H381.994Z" fill="#6C7171"/>
<path d="M390.149 113.537C389.405 113.564 388.664 113.434 387.974 113.156C387.284 112.877 386.66 112.457 386.142 111.922C385.097 110.755 384.55 109.225 384.621 107.659C384.576 106.886 384.693 106.113 384.966 105.39C385.239 104.666 385.66 104.008 386.204 103.458C386.747 102.908 387.4 102.479 388.12 102.199C388.84 101.918 389.61 101.793 390.382 101.83C390.841 101.828 391.299 101.861 391.753 101.93C392.176 102.002 392.59 102.113 392.992 102.263L393.166 102.33L393.017 104.287L392.676 104.095C392.33 103.914 391.961 103.779 391.579 103.695C391.164 103.605 390.74 103.56 390.315 103.562C389.815 103.544 389.318 103.635 388.857 103.829C388.396 104.023 387.983 104.316 387.647 104.686C386.928 105.495 386.553 106.552 386.599 107.634C386.539 108.722 386.892 109.793 387.588 110.631C387.921 110.997 388.331 111.284 388.788 111.471C389.246 111.658 389.739 111.741 390.232 111.714C390.44 111.714 390.631 111.714 390.822 111.714C391.027 111.689 391.23 111.65 391.429 111.597C391.872 111.5 392.304 111.358 392.718 111.172L393.033 111.031L393.208 112.921L393.033 112.988C392.591 113.164 392.131 113.296 391.662 113.379C391.163 113.477 390.657 113.53 390.149 113.537Z" fill="#6C7171"/>
<path d="M392.901 102.538L392.793 103.92C392.429 103.722 392.036 103.579 391.63 103.496C391.198 103.402 390.758 103.355 390.316 103.354C389.783 103.338 389.252 103.436 388.76 103.643C388.268 103.85 387.827 104.16 387.465 104.553C386.699 105.407 386.299 106.529 386.351 107.675C386.286 108.826 386.664 109.958 387.407 110.839C387.763 111.229 388.202 111.536 388.69 111.738C389.179 111.939 389.705 112.03 390.233 112.005C390.441 112.018 390.649 112.018 390.856 112.005C391.073 111.984 391.287 111.945 391.497 111.888C391.951 111.787 392.394 111.639 392.818 111.447L392.943 112.813C392.512 112.977 392.067 113.1 391.613 113.179C391.131 113.272 390.641 113.319 390.15 113.321C389.44 113.352 388.731 113.23 388.072 112.965C387.412 112.699 386.817 112.295 386.326 111.78C385.321 110.651 384.803 109.169 384.888 107.659C384.859 106.922 384.98 106.188 385.242 105.499C385.505 104.811 385.905 104.183 386.417 103.654C386.941 103.139 387.565 102.738 388.25 102.474C388.935 102.211 389.666 102.091 390.399 102.122C390.847 102.12 391.295 102.153 391.738 102.222C392.135 102.289 392.525 102.395 392.901 102.538Z" fill="#6C7171"/>
<path d="M402.42 113.404V106.801C402.486 105.91 402.283 105.02 401.838 104.245C401.628 103.975 401.353 103.762 401.04 103.625C400.726 103.489 400.383 103.433 400.043 103.462C399.627 103.439 399.212 103.521 398.836 103.7C398.46 103.879 398.135 104.149 397.89 104.486C397.291 105.36 396.998 106.409 397.058 107.467V113.404H395.18V96.5265H397.058V103.246C397.36 102.852 397.736 102.522 398.164 102.272C398.849 101.881 399.628 101.685 400.417 101.705C400.958 101.674 401.5 101.77 401.997 101.986C402.495 102.201 402.936 102.53 403.285 102.946C404.004 103.967 404.353 105.204 404.274 106.451V113.387L402.42 113.404Z" fill="#6C7171"/>
<path d="M395.453 96.7764H396.833V104.079C397.169 103.419 397.681 102.865 398.313 102.48C398.963 102.117 399.697 101.936 400.441 101.955C400.946 101.924 401.451 102.012 401.915 102.212C402.38 102.411 402.792 102.717 403.118 103.104C403.798 104.076 404.126 105.251 404.049 106.435V113.096H402.669V106.743C402.739 105.797 402.519 104.853 402.037 104.037C401.804 103.735 401.5 103.496 401.151 103.342C400.803 103.188 400.421 103.123 400.042 103.154C399.588 103.137 399.137 103.23 398.727 103.426C398.317 103.621 397.961 103.914 397.689 104.278C397.073 105.2 396.78 106.302 396.858 107.409V113.096H395.478L395.453 96.7764Z" fill="#6C7171"/>
<path d="M414.623 113.404V106.801C414.69 105.909 414.485 105.017 414.033 104.245C413.825 103.975 413.552 103.761 413.24 103.624C412.927 103.488 412.585 103.432 412.246 103.462C411.83 103.439 411.415 103.521 411.039 103.7C410.663 103.879 410.338 104.149 410.093 104.486C409.494 105.361 409.202 106.409 409.262 107.467V113.404H407.383V101.955H409.153V103.396C409.462 102.977 409.846 102.618 410.284 102.338C410.988 101.913 411.798 101.7 412.62 101.722C413.161 101.691 413.703 101.787 414.201 102.002C414.698 102.218 415.139 102.547 415.488 102.963C416.207 103.984 416.556 105.221 416.477 106.468V113.404H414.623Z" fill="#6C7171"/>
<path d="M416.252 106.468V113.129H414.872V106.776C414.943 105.831 414.722 104.886 414.241 104.07C414.008 103.768 413.703 103.529 413.355 103.375C413.006 103.221 412.625 103.157 412.245 103.188C411.792 103.17 411.34 103.263 410.931 103.459C410.521 103.655 410.165 103.947 409.893 104.312C409.276 105.234 408.984 106.335 409.062 107.442V113.129H407.682V102.205H408.954V104.278C409.292 103.574 409.815 102.976 410.466 102.546C411.133 102.153 411.896 101.954 412.669 101.972C413.174 101.941 413.679 102.029 414.144 102.229C414.609 102.428 415.02 102.734 415.346 103.121C416.021 104.1 416.341 105.281 416.252 106.468Z" fill="#6C7171"/>
<path d="M419.477 113.404V101.955H421.355V113.404H419.477ZM419.377 99.0827V96.8346H421.463V99.0827H419.377Z" fill="#6C7171"/>
<path d="M419.627 97.0844H421.19V98.8662H419.627V97.0844ZM419.727 102.205H421.107V113.154H419.727V102.205Z" fill="#6C7171"/>
<path d="M431.499 113.404L426.453 108.033V113.404H424.574V96.5265H426.453V105.927L430.942 101.955H433.411L427.808 106.859L434.001 113.404H431.499Z" fill="#6C7171"/>
<path d="M424.789 96.7764H426.169V106.485L431.007 102.205H432.711L427.416 106.843L433.385 113.154H431.606L426.202 107.409V113.154H424.789V96.7764Z" fill="#6C7171"/>
</g>
<defs>
<clipPath id="clip0_736_6954">
<rect width="434" height="118" fill="white"/>
</clipPath>
</defs>
</svg>
