<svg width="126" height="51" viewBox="0 0 126 51" fill="none" xmlns="http://www.w3.org/2000/svg">
<g clip-path="url(#clip0_199_1715)">
<path d="M81.939 40.2437C76.2307 43.0144 69.96 44.4547 63.6053 44.4547C57.2506 44.4547 50.9799 43.0144 45.2716 40.2437C39.4431 37.3755 34.2452 33.3898 29.9782 28.5168L28.4256 32.5004C32.3135 38.2146 37.557 42.8933 43.6949 46.125C49.8328 49.3566 56.6771 51.0423 63.6256 51.0335C70.5741 51.0248 77.414 49.3221 83.5436 46.075C89.6733 42.828 94.9049 38.1361 98.7782 32.4122L97.2666 28.5439C92.9899 33.4163 87.7828 37.3997 81.9458 40.2641L81.939 40.2437ZM100.912 17.9232C100.57 17.4753 100.659 16.5659 101.152 15.3511L104.093 8.17787H107.895L108.867 5.66688H105.071L106.213 2.61978L100.433 3.60383L99.64 5.63975H97.0956L96.1723 8.15072H98.6961L95.6593 15.6158C94.8796 17.5092 94.8386 18.8936 95.5362 19.8505C96.2339 20.8074 97.5881 21.2078 99.64 21.2078C100.996 21.1753 102.343 20.9862 103.655 20.6445L104.879 17.706C104.005 18.0496 103.082 18.2534 102.143 18.31C101.913 18.3513 101.675 18.333 101.453 18.2569C101.232 18.1809 101.034 18.0496 100.878 17.8757L100.912 17.9232ZM34.9574 12.0054C33.5895 18.7443 29.4857 19.0904 28.6444 19.0904C27.3381 19.0904 26.3874 18.7647 25.8334 18.12C25.2793 17.4753 25.0742 16.3419 25.3683 14.9032C25.9086 12.2972 28.1862 8.40861 32.2831 8.40861C32.6881 8.37621 33.0952 8.43371 33.475 8.57692C33.8548 8.72013 34.1976 8.94546 34.4787 9.23655C34.7638 9.63367 34.9544 10.0898 35.0361 10.5706C35.1179 11.0513 35.0886 11.5443 34.9506 12.0122L34.9574 12.0054ZM40.5181 12.684C41.5372 8.2593 37.6044 5.77547 32.3926 5.77547C26.9209 5.77547 20.8541 9.03974 19.7461 14.5368C18.5628 20.4138 23.8499 21.6761 27.215 21.71C34.8275 21.7982 39.4511 17.2853 40.5181 12.6773V12.684ZM120.747 11.7543H113.613C113.942 10.7149 114.605 9.81094 115.5 9.18092C116.396 8.55091 117.475 8.22957 118.572 8.2661C118.948 8.22456 119.329 8.26969 119.685 8.39798C120.041 8.52628 120.362 8.73428 120.624 9.00582C121.075 9.58945 121.096 10.5395 120.686 11.7204L120.747 11.7543ZM119.379 5.53794C113.477 5.53794 108.436 8.80221 107.15 13.4713C106.466 15.833 106.835 17.9028 108.135 19.4569C109.564 21.1739 112.081 22.1172 115.207 22.1172C117.226 22.0913 119.231 21.7852 121.164 21.2078L122.792 17.8892C120.916 18.6387 118.912 19.0235 116.89 19.0226C116.232 19.0639 115.573 18.9565 114.962 18.7085C114.352 18.4605 113.807 18.0782 113.367 17.5906C113.031 17.1424 112.809 16.6199 112.721 16.0679C112.633 15.5159 112.681 14.9509 112.861 14.4214H125.33L125.391 14.2585C126.369 11.5439 126.246 9.22977 125.042 7.67568C123.948 6.25732 122.026 5.53117 119.379 5.53117V5.53794ZM6.46347 12.0665C7.35946 7.11241 12.1746 3.35271 17.8857 3.35271C19.513 3.34159 21.1263 3.6507 22.6324 4.26211L24.3013 1.03856C22.6353 0.348768 20.8467 -0.00202736 19.0416 0.00700607C9.9175 0.00700607 1.38845 5.17149 0.177828 12.0461C-0.889157 18.12 4.39789 21.4996 10.8819 21.4996C12.6618 21.4669 14.4326 21.2393 16.1621 20.821L17.8994 16.9459C16.2251 17.6586 14.4328 18.0589 12.6123 18.1268C7.48941 18.1268 5.92313 15.039 6.45662 12.019L6.46347 12.0665ZM57.5283 13.2541C58.9578 10.1934 61.8441 8.79543 63.684 8.72757C64.2941 8.64928 64.914 8.69946 65.5033 8.87486C66.0925 9.05026 66.6379 9.34694 67.1038 9.74553C64.9493 18.0385 60.5925 18.7172 59.2998 18.7172C56.1262 18.7172 56.4134 15.6565 57.5283 13.2881V13.2541ZM52.3644 19.9863C53.363 21.0653 54.8677 21.4861 56.6528 21.5675C59.2563 21.7447 61.8471 21.0753 64.0328 19.6605C62.6649 23.6577 58.0481 24.4857 54.9429 24.4653C53.4135 24.5577 51.8817 24.3264 50.4492 23.7867L49.0813 27.1798C50.7258 27.5711 52.4105 27.7715 54.1016 27.7771C61.721 27.7771 66.625 25.0625 68.6701 19.7487L73.8751 6.17587C73.0238 6.40663 72.1503 6.54768 71.2692 6.59664C68.4786 6.59664 68.3555 5.83655 63.8139 5.83655C57.2957 5.83655 51.9335 10.5871 51.1674 15.8601C51.0368 16.6009 51.0759 17.3613 51.2819 18.085C51.4879 18.8087 51.8556 19.4771 52.3575 20.0406L52.3644 19.9863ZM78.355 16.4302C78.6013 15.0729 79.6682 14.3196 82.5409 14.021C84.1319 13.8625 85.7335 13.8375 87.3286 13.9463L85.9812 17.3599C84.5799 17.9922 83.0671 18.345 81.5286 18.3982C78.8543 18.5136 78.1088 17.4888 78.3345 16.3623L78.355 16.4302ZM78.8064 21.6693C83.006 21.6693 84.114 20.9907 86.6789 20.9499C88.1062 20.8492 89.5405 20.9915 90.9195 21.3707C90.7348 20.5495 90.5433 19.6741 91.4324 17.3667C92.0685 15.7176 92.8003 13.7563 93.5459 11.89C95.2216 7.56031 91.6308 5.63975 85.7829 5.63975C83.2591 5.63063 80.74 5.85785 78.2593 6.3184L76.8913 9.86091C79.5683 9.08042 82.3505 8.71417 85.14 8.77508C88.9975 8.77508 88.6487 10.3834 88.4161 11.1571C86.2463 10.9986 84.0678 10.9986 81.898 11.1571C80.1146 11.2374 78.3544 11.5899 76.6793 12.2022C74.0802 13.227 72.9175 15.0322 72.7602 17.1088C72.5824 19.4705 74.2444 21.7032 78.7928 21.7032L78.8064 21.6693ZM45.5521 21.3639L53.7596 0.434554H48.3358L40.1282 21.3639H45.5521Z" fill="#F5010B"/>
</g>
<defs>
<clipPath id="clip0_199_1715">
<rect width="126" height="51" fill="white"/>
</clipPath>
</defs>
</svg>
