<svg width="194" height="88" viewBox="0 0 194 88" fill="none" xmlns="http://www.w3.org/2000/svg">
<g clip-path="url(#clip0_736_7380)">
<path d="M139.212 69.8525C137.45 68.1238 135.859 66.2293 134.462 64.1953C129.476 56.9311 127.171 48.1623 127.941 39.3884C128.712 30.6145 132.51 22.3803 138.685 16.094C144.861 9.80769 153.032 5.85962 161.799 4.92488C170.567 3.99015 179.388 6.12682 186.753 10.9695C179.643 3.93975 170.043 -0.00248228 160.039 -5.19421e-05C158.737 -0.00434693 157.436 0.0633449 156.141 0.202713C148.315 1.00474 140.931 4.20936 135.003 9.3757C129.075 14.542 124.896 21.4162 123.039 29.0525C121.183 36.6889 121.742 44.7121 124.638 52.0184C127.534 59.3247 132.625 65.5551 139.212 69.8525Z" fill="#233E82"/>
<path d="M0 87.8581H3.38998L3.59297 84.695H7.65282L7.77461 82.566H3.71476L3.81626 81.1263H7.99791L8.14 79.0176H0.568379L0 87.8581Z" fill="#233E82"/>
<path d="M17.9439 81.4507C17.8338 81.119 17.6765 80.8049 17.477 80.5179C17.2683 80.2112 17.0072 79.9436 16.7056 79.7272C16.3532 79.4994 15.9705 79.322 15.5689 79.2C15.0553 79.0923 14.5299 79.0514 14.0058 79.0783H9.15432L8.58594 87.8986H13.4375C13.9843 87.9063 14.5299 87.845 15.0614 87.7161C15.4758 87.594 15.8718 87.4167 16.2388 87.1889C16.5616 86.9627 16.8548 86.697 17.1116 86.3981C17.3275 86.1041 17.5176 85.792 17.68 85.4654C17.8182 85.1536 17.9204 84.8271 17.9845 84.4921C18.1114 84.1571 18.2066 83.8109 18.2687 83.458C18.2989 83.1275 18.2989 82.795 18.2687 82.4645C18.2133 82.1119 18.1038 81.7699 17.9439 81.4507ZM14.4321 84.411C14.4043 84.6727 14.3286 84.927 14.2088 85.1613C14.0996 85.3091 13.9615 85.4333 13.8028 85.5262C13.6561 85.6078 13.4991 85.6691 13.336 85.7087H12.8691H12.1789L12.4022 81.106H13.0924C13.2542 81.0864 13.4177 81.0864 13.5796 81.106C13.7355 81.1273 13.8828 81.1903 14.0058 81.2885C14.1569 81.3856 14.2822 81.5178 14.3712 81.6737C14.4716 81.8855 14.54 82.111 14.5742 82.3428C14.6163 82.6863 14.6163 83.0335 14.5742 83.3769C14.5716 83.7263 14.5239 84.0739 14.4321 84.411Z" fill="#233E82"/>
<path d="M18.959 87.8581H22.349L22.9173 79.0176H19.5274L18.959 87.8581Z" fill="#233E82"/>
<path d="M37.7761 79.0378L36.3349 84.6747H36.2943L35.2793 79.0378H32.0314L30.2654 84.6747H30.2248L29.5143 79.0378H26.3477L27.8498 87.8581H31.5646L33.3103 82.0996H33.3712L34.4674 87.8581H38.1009L40.8007 79.0378H37.7761Z" fill="#233E82"/>
<path d="M47.2767 81.9981C46.9106 81.6822 46.4816 81.4473 46.0182 81.3087C45.4697 81.156 44.9026 81.081 44.3333 81.0857C43.7574 81.082 43.1837 81.157 42.6282 81.3087C42.14 81.4467 41.6844 81.6812 41.2884 81.9981C40.9156 82.295 40.6111 82.6684 40.3953 83.093C40.17 83.5417 40.0388 84.0316 40.0096 84.5327C39.9684 85.0283 40.0378 85.5269 40.2126 85.9926C40.3685 86.4139 40.6265 86.7902 40.9636 87.0875C41.3236 87.3967 41.7459 87.6249 42.2019 87.7566C42.7472 87.9255 43.3158 88.0077 43.8867 87.9999C44.4709 88.0073 45.0528 87.9252 45.6122 87.7566C46.0964 87.6185 46.5507 87.3916 46.9519 87.0875C47.3247 86.7906 47.6293 86.4172 47.8451 85.9926C48.073 85.5377 48.2043 85.0406 48.2308 84.5327C48.2604 84.044 48.1914 83.5544 48.0278 83.093C47.8719 82.6716 47.6138 82.2954 47.2767 81.9981ZM44.8205 84.5327V85.0801C44.7984 85.2512 44.7645 85.4206 44.719 85.587C44.6673 85.726 44.5839 85.8509 44.4754 85.952C44.3638 86.0528 44.2198 86.1104 44.0694 86.1142C43.9257 86.1074 43.7891 86.0499 43.6837 85.952C43.5954 85.8461 43.5329 85.7212 43.501 85.587C43.4905 85.4182 43.4905 85.2489 43.501 85.0801C43.4909 84.8978 43.4909 84.715 43.501 84.5327C43.501 84.3704 43.501 84.188 43.501 84.0055C43.5297 83.8339 43.5704 83.6645 43.6228 83.4986C43.6632 83.3591 43.7404 83.2331 43.8461 83.1336C43.8997 83.0811 43.9632 83.0398 44.0329 83.0119C44.1026 82.9841 44.1771 82.9703 44.2521 82.9714C44.3279 82.9632 44.4045 82.9738 44.4753 83.0021C44.5461 83.0303 44.6088 83.0755 44.6581 83.1336C44.7113 83.1792 44.7549 83.235 44.7862 83.2977C44.8176 83.3604 44.8362 83.4286 44.8408 83.4986C44.862 83.6669 44.862 83.8372 44.8408 84.0055C44.8408 84.188 44.8205 84.3704 44.8205 84.5327Z" fill="#233E82"/>
<path d="M54.3609 81.1059C54.1099 81.1002 53.8607 81.1486 53.6301 81.2479C53.4056 81.3295 53.1989 81.4534 53.0211 81.6128C52.8501 81.7686 52.7 81.9458 52.5746 82.14C52.4429 82.3295 52.3339 82.5336 52.2498 82.7483L52.3513 81.2479H49.3267L48.9004 87.858H52.0874L52.2295 85.4654C52.2432 85.1261 52.3484 84.7969 52.534 84.5124C52.6871 84.2562 52.9133 84.0515 53.1835 83.9244C53.4525 83.7838 53.7529 83.714 54.0564 83.7216H54.3812H54.706L54.8075 81.1059H54.5639H54.3609Z" fill="#233E82"/>
<path d="M55.2344 87.8581H58.4214L59.0303 78.3281H55.8434L55.2344 87.8581Z" fill="#233E82"/>
<path d="M64.5923 82.0792C64.3908 81.7561 64.1024 81.4961 63.76 81.329C63.405 81.1611 63.0159 81.0778 62.6232 81.0857C62.3398 81.0558 62.0541 81.0558 61.7707 81.0857C61.4909 81.1695 61.2244 81.2924 60.979 81.4507C60.7097 81.6204 60.4697 81.8327 60.2685 82.0792C60.0554 82.3715 59.8846 82.6923 59.761 83.0322C59.6094 83.4486 59.5271 83.887 59.5174 84.3299C59.4753 84.8256 59.5096 85.3248 59.6189 85.8101C59.6817 86.1761 59.8275 86.5229 60.0452 86.8239C60.2134 87.0836 60.4348 87.3047 60.6948 87.4728C60.9355 87.6304 61.2043 87.7406 61.4865 87.7972C61.7495 87.8268 62.0151 87.8268 62.2781 87.7972C62.7267 87.8108 63.17 87.6982 63.5576 87.4724C63.9452 87.2465 64.2615 86.9164 64.4705 86.5198V87.635H67.3936L68.0228 78.0239H64.8359L64.5923 82.0792ZM64.5923 84.4516C64.58 84.5933 64.58 84.7357 64.5923 84.8774C64.5758 85.0406 64.5275 85.199 64.4502 85.3437C64.3934 85.4851 64.3028 85.6104 64.1863 85.7087C64.0633 85.8009 63.9137 85.8507 63.76 85.8507C63.6063 85.8507 63.4567 85.8009 63.3337 85.7087C63.2353 85.6068 63.1653 85.481 63.1307 85.3437C63.1001 85.1898 63.1001 85.0313 63.1307 84.8774V84.4516C63.143 84.3099 63.143 84.1674 63.1307 84.0258C63.1495 83.8654 63.1905 83.7085 63.2525 83.5594C63.3166 83.4222 63.4061 83.2983 63.5164 83.1944C63.6424 83.0933 63.8016 83.0427 63.963 83.0525C64.0368 83.0464 64.1112 83.0558 64.1811 83.0803C64.2511 83.1047 64.3151 83.1436 64.369 83.1944C64.4733 83.2951 64.5501 83.4208 64.5923 83.5594C64.6037 83.7147 64.6037 83.8705 64.5923 84.0258V84.4516Z" fill="#233E82"/>
<path d="M80.9529 81.4506C80.8496 81.1199 80.6992 80.8058 80.5063 80.5179C80.2955 80.2062 80.0268 79.9377 79.7146 79.7271C79.3663 79.4919 78.9825 79.3139 78.5779 79.1999C78.1045 79.0989 77.6203 79.058 77.1366 79.0783H72.1836L71.6152 87.8986H76.4668C77.0136 87.9063 77.5592 87.8449 78.0907 87.7161C78.5202 87.591 78.9301 87.4068 79.3087 87.1686C79.6315 86.9424 79.9247 86.6767 80.1815 86.3778C80.3983 86.0882 80.5822 85.7754 80.7296 85.4451C80.874 85.1338 80.9829 84.8074 81.0544 84.4718C81.1285 84.1587 81.176 83.8399 81.1965 83.5188C81.2267 83.1883 81.2267 82.8558 81.1965 82.5253C81.1838 82.1549 81.1012 81.7903 80.9529 81.4506ZM77.4614 84.411C77.4022 84.6795 77.2919 84.9342 77.1366 85.1612C77.0274 85.3091 76.8893 85.4332 76.7306 85.5262C76.5824 85.6045 76.4258 85.6657 76.2638 85.7087H75.7969H75.1067L75.4315 81.1059H76.1014C76.263 81.0837 76.4269 81.0837 76.5886 81.1059C76.7506 81.1275 76.9044 81.1904 77.0351 81.2884C77.1849 81.3809 77.3048 81.5147 77.3802 81.6737C77.497 81.8803 77.5729 82.1075 77.6035 82.3428C77.6456 82.6862 77.6456 83.0335 77.6035 83.3769C77.6009 83.7263 77.5532 84.0739 77.4614 84.411Z" fill="#233E82"/>
<path d="M88.5868 82.1603C88.3571 81.889 88.0738 81.6681 87.7545 81.5114C87.4457 81.3555 87.1183 81.2397 86.7801 81.1667C86.4424 81.1375 86.1029 81.1375 85.7652 81.1667C85.2428 81.1653 84.723 81.2404 84.2224 81.3898C83.7655 81.5341 83.3389 81.7609 82.9639 82.0589C82.6037 82.347 82.3066 82.7058 82.091 83.1133C81.8606 83.5444 81.7354 84.0238 81.7256 84.5124C81.6956 84.7615 81.6956 85.0134 81.7256 85.2626C81.779 85.8199 81.9825 86.3524 82.3143 86.8036C82.498 87.0644 82.7328 87.2851 83.0045 87.4525C83.3363 87.6635 83.6994 87.8209 84.0803 87.9188C84.5731 88.0307 85.0772 88.0851 85.5825 88.081C86.0625 88.1094 86.5437 88.1094 87.0237 88.081C87.5507 88.0131 88.0728 87.9116 88.5868 87.7769L88.7086 86.0737C88.316 86.2049 87.9161 86.3133 87.5109 86.3981C87.1305 86.4786 86.7427 86.5194 86.3539 86.5197C86.0797 86.5252 85.8062 86.4911 85.5419 86.4184C85.3691 86.3756 85.209 86.2922 85.075 86.175C84.9753 86.0786 84.899 85.9607 84.8517 85.8303C84.8324 85.7095 84.8324 85.5863 84.8517 85.4654H89.3175V84.8976C89.3589 84.3863 89.3108 83.8717 89.1754 83.3769C89.0841 82.9286 88.8817 82.5103 88.5868 82.1603ZM86.5568 83.9649H84.9126V83.823C84.9114 83.5858 84.9598 83.351 85.0547 83.1336C85.1017 82.9923 85.1858 82.8663 85.2983 82.7686C85.3842 82.7054 85.4803 82.6574 85.5825 82.6267C85.6557 82.6078 85.7325 82.6078 85.8058 82.6267C85.8982 82.5972 85.9975 82.5972 86.09 82.6267C86.1804 82.6741 86.2627 82.7357 86.3335 82.8091C86.4181 82.9175 86.4802 83.0415 86.5162 83.1741C86.5395 83.3694 86.5395 83.5668 86.5162 83.7621L86.5568 83.9649Z" fill="#233E82"/>
<path d="M97.4365 81.978C97.3452 81.8068 97.221 81.6552 97.0711 81.5319C96.8871 81.3799 96.6725 81.2693 96.4418 81.2075C96.1387 81.1191 95.8237 81.0781 95.5081 81.0858C95.3259 81.0671 95.1422 81.0671 94.96 81.0858L94.351 81.2683C94.1387 81.3703 93.9408 81.4998 93.7623 81.6536C93.5636 81.8511 93.4051 82.0852 93.2955 82.343V81.1872H90.3521L89.9258 87.7973H93.1128L93.3767 84.0259C93.3673 83.9315 93.3673 83.8364 93.3767 83.742C93.365 83.6478 93.365 83.5524 93.3767 83.4582C93.4136 83.3671 93.4773 83.2893 93.5594 83.2351C93.6718 83.2007 93.792 83.2007 93.9044 83.2351C94.0025 83.1977 94.1109 83.1977 94.2089 83.2351C94.2517 83.2569 94.2887 83.2884 94.3169 83.3272C94.3451 83.366 94.3638 83.4108 94.3713 83.4582C94.3826 83.5524 94.3826 83.6477 94.3713 83.742C94.3822 83.8363 94.3822 83.9316 94.3713 84.0259L94.1277 87.8379H97.4365L97.741 83.2554V82.9107C97.7574 82.7625 97.7574 82.6128 97.741 82.4646C97.6805 82.2801 97.576 82.1131 97.4365 81.978Z" fill="#233E82"/>
<path d="M102.653 83.1337H104.094L104.216 81.2277H102.775L102.937 78.6729L99.7097 79.6258L99.5879 81.2277H98.4714L98.3496 83.1337H99.4661L99.324 85.4249C99.3032 85.661 99.3032 85.8985 99.324 86.1346C99.3467 86.3773 99.4013 86.6159 99.4864 86.8443C99.5763 87.068 99.715 87.2689 99.8923 87.4323C100.101 87.6227 100.351 87.7616 100.623 87.8378C101.005 87.9514 101.402 88.0061 101.8 88C102.098 88.023 102.396 88.023 102.694 88C102.92 87.9708 103.144 87.9234 103.364 87.8581L103.81 87.7162L103.932 85.8102H103.627H103.404H103.221C103.073 85.815 102.926 85.78 102.795 85.7088C102.706 85.64 102.636 85.5492 102.592 85.4452C102.583 85.3508 102.583 85.2557 102.592 85.1613V84.9383L102.653 83.1337Z" fill="#233E82"/>
<path d="M111.28 81.8765C111.036 81.6784 110.762 81.521 110.468 81.4101C110.195 81.2795 109.91 81.1775 109.616 81.106C109.264 81.0858 108.912 81.0858 108.56 81.106C108.222 81.0865 107.883 81.0865 107.545 81.106C107.184 81.1346 106.825 81.182 106.469 81.2479C106.113 81.2988 105.76 81.3733 105.414 81.4709L105.292 83.1944C105.574 83.0754 105.866 82.9805 106.165 82.9106L106.896 82.7484H107.423H107.586H108.093C108.261 82.7647 108.425 82.8057 108.58 82.87C108.729 82.901 108.86 82.9882 108.946 83.1133C108.997 83.1665 109.034 83.231 109.055 83.3015C109.077 83.372 109.081 83.4465 109.068 83.5189V83.7216H107.728C107.41 83.7016 107.091 83.7016 106.774 83.7216C106.463 83.7557 106.156 83.8237 105.86 83.9244C105.581 84.0267 105.315 84.1629 105.069 84.3299C104.835 84.503 104.641 84.7243 104.5 84.9788C104.342 85.2717 104.258 85.5989 104.257 85.9318C104.204 86.1859 104.204 86.4482 104.257 86.7023C104.333 86.9395 104.465 87.1551 104.642 87.3308C104.837 87.5232 105.073 87.6688 105.332 87.7566C105.659 87.8678 106.002 87.9226 106.347 87.9189C106.536 87.9383 106.727 87.9383 106.916 87.9189L107.545 87.7972C107.759 87.7279 107.964 87.6326 108.154 87.5133C108.363 87.3669 108.553 87.1968 108.722 87.0064V87.7972H111.646L111.909 83.6C111.931 83.2493 111.883 82.8978 111.767 82.5659C111.655 82.3045 111.489 82.0696 111.28 81.8765ZM108.905 85.3438C108.909 85.5578 108.853 85.7686 108.743 85.952C108.655 86.091 108.537 86.2087 108.398 86.2967C108.257 86.3246 108.112 86.3246 107.971 86.2967C107.876 86.3047 107.779 86.2926 107.688 86.2612C107.597 86.2298 107.514 86.1797 107.444 86.1143C107.377 86.0622 107.325 85.9936 107.293 85.9154C107.261 85.8372 107.25 85.752 107.261 85.6682C107.261 85.5239 107.303 85.3828 107.383 85.2626C107.465 85.1601 107.569 85.077 107.687 85.0193L108.053 84.8977H108.946L108.905 85.3438Z" fill="#233E82"/>
<path d="M112.742 87.8581H115.929L116.538 78.3281H113.351L112.742 87.8581Z" fill="#233E82"/>
<path d="M123.967 81.1263H128.148L128.27 79.0176H120.698L120.15 87.8581H123.52L123.723 84.695H127.783L127.925 82.566H123.865L123.967 81.1263Z" fill="#233E82"/>
<path d="M134.807 82.1603C134.573 81.8933 134.291 81.6731 133.975 81.5114C133.665 81.3577 133.338 81.2419 133 81.1667C132.663 81.1375 132.323 81.1375 131.985 81.1667C131.456 81.1653 130.93 81.2405 130.422 81.3898C129.974 81.5391 129.555 81.7655 129.184 82.0589C128.824 82.347 128.527 82.7058 128.311 83.1133C128.081 83.5444 127.956 84.0238 127.946 84.5124C127.903 84.726 127.883 84.9434 127.885 85.1612C127.914 85.724 128.12 86.2633 128.474 86.7022C128.649 86.9699 128.886 87.1922 129.164 87.3511C129.496 87.5622 129.859 87.7195 130.24 87.8174C130.732 87.9304 131.236 87.9849 131.742 87.9796C132.222 88.0081 132.703 88.0081 133.183 87.9796C133.71 87.9118 134.232 87.8102 134.746 87.6755V85.9723C134.361 86.106 133.968 86.2143 133.569 86.2967C133.182 86.3784 132.787 86.4191 132.391 86.4184C132.124 86.4228 131.857 86.3886 131.6 86.317C131.427 86.2742 131.267 86.1908 131.133 86.0737C131.033 85.9772 130.957 85.8593 130.91 85.729C130.89 85.6081 130.89 85.4849 130.91 85.364H135.335V84.7962C135.376 84.2849 135.328 83.7703 135.193 83.2755C135.147 82.8802 135.015 82.4996 134.807 82.1603ZM132.777 83.9649H131.133V83.823C131.14 83.6063 131.188 83.393 131.275 83.1944C131.322 83.0531 131.406 82.9271 131.519 82.8294C131.604 82.7662 131.701 82.7182 131.803 82.6875C131.876 82.6686 131.953 82.6686 132.026 82.6875C132.111 82.6581 132.204 82.6581 132.29 82.6875C132.39 82.7292 132.48 82.7913 132.554 82.87C132.638 82.9783 132.7 83.1024 132.736 83.2349C132.76 83.4303 132.76 83.6276 132.736 83.823L132.777 83.9649Z" fill="#233E82"/>
<path d="M141.039 82.0792C140.843 81.7589 140.562 81.4992 140.227 81.329C139.872 81.1611 139.483 81.0778 139.09 81.0857C138.807 81.0558 138.521 81.0558 138.237 81.0857C137.951 81.1693 137.678 81.2921 137.425 81.4507C137.163 81.621 136.929 81.8334 136.735 82.0792C136.522 82.3715 136.351 82.6923 136.228 83.0322C136.076 83.4486 135.994 83.887 135.984 84.3299C135.919 84.8212 135.919 85.3188 135.984 85.8101C136.065 86.1706 136.209 86.5138 136.411 86.8239C136.591 87.08 136.819 87.3001 137.08 87.4728C137.316 87.6268 137.577 87.7368 137.852 87.7972C138.122 87.8257 138.394 87.8257 138.664 87.7972C139.111 87.8008 139.551 87.689 139.943 87.4728C140.319 87.2385 140.626 86.9099 140.836 86.5198V87.635H143.799L144.429 78.0239H141.303L141.039 82.0792ZM141.039 84.4516C141.03 84.5934 141.03 84.7356 141.039 84.8774C141.004 85.0363 140.956 85.1922 140.897 85.3437C140.84 85.4851 140.749 85.6104 140.633 85.7087C140.514 85.8086 140.361 85.8594 140.206 85.8507C140.129 85.8572 140.052 85.848 139.979 85.8236C139.905 85.7991 139.838 85.7601 139.78 85.7087C139.676 85.608 139.599 85.4824 139.557 85.3437C139.536 85.189 139.536 85.0321 139.557 84.8774C139.537 84.7362 139.537 84.5928 139.557 84.4516C139.565 84.3098 139.565 84.1676 139.557 84.0258C139.592 83.8669 139.64 83.711 139.699 83.5594C139.756 83.4181 139.846 83.2927 139.963 83.1944C140.057 83.1482 140.162 83.1273 140.267 83.1336C140.344 83.1271 140.422 83.1363 140.495 83.1607C140.568 83.1851 140.636 83.2242 140.694 83.2755C140.798 83.3762 140.875 83.5019 140.917 83.6405C140.928 83.7958 140.928 83.9516 140.917 84.1069C140.945 84.2203 140.965 84.3355 140.978 84.4516H141.039Z" fill="#233E82"/>
<path d="M151.798 82.1603C151.565 81.8933 151.282 81.6731 150.966 81.5115C150.649 81.3576 150.315 81.2419 149.971 81.1668C149.64 81.1374 149.308 81.1374 148.977 81.1668C148.448 81.1654 147.921 81.2405 147.414 81.3898C146.96 81.5428 146.535 81.7688 146.155 82.059C145.801 82.3478 145.511 82.7068 145.303 83.1133C145.072 83.5444 144.947 84.0238 144.937 84.5124C144.917 84.7621 144.917 85.013 144.937 85.2626C144.959 85.5337 145.021 85.8001 145.12 86.0534C145.214 86.3234 145.352 86.5767 145.526 86.8037C145.717 87.065 145.959 87.2856 146.236 87.4525C146.566 87.6671 146.93 87.8247 147.312 87.9189C147.805 88.0319 148.309 88.0863 148.814 88.0811C149.287 88.1102 149.762 88.1102 150.235 88.0811C150.769 88.0152 151.298 87.9135 151.819 87.7769V86.0737C151.434 86.2074 151.04 86.3158 150.641 86.3981C150.254 86.4798 149.859 86.5206 149.464 86.5198C149.196 86.5242 148.93 86.49 148.672 86.4184C148.499 86.3756 148.339 86.2922 148.205 86.1751C148.099 86.0839 148.022 85.9643 147.982 85.8304C147.963 85.7095 147.963 85.5863 147.982 85.4654H152.448V84.8977C152.479 84.3865 152.431 83.8735 152.306 83.3769C152.238 82.9362 152.064 82.5185 151.798 82.1603ZM149.768 83.9649H148.185V83.823C148.15 83.5945 148.15 83.3621 148.185 83.1336C148.246 82.9944 148.336 82.8699 148.449 82.7686C148.532 82.7016 148.629 82.6532 148.733 82.6267C148.806 82.6078 148.883 82.6078 148.956 82.6267C149.042 82.5973 149.135 82.5973 149.22 82.6267C149.32 82.6684 149.41 82.7305 149.484 82.8092C149.554 82.9232 149.609 83.0459 149.647 83.1742C149.68 83.3688 149.68 83.5676 149.647 83.7622L149.768 83.9649Z" fill="#233E82"/>
<path d="M159.105 81.106H158.842H158.598C158.347 81.0983 158.097 81.1468 157.867 81.248C157.643 81.3296 157.436 81.4535 157.258 81.6129C157.086 81.7737 156.93 81.9502 156.791 82.1401C156.674 82.3344 156.572 82.5379 156.487 82.7484V81.248H153.543L153.117 87.8581H156.304L156.467 85.4655C156.474 85.1281 156.572 84.799 156.751 84.5125C156.909 84.2607 157.134 84.0573 157.4 83.9245C157.677 83.7839 157.984 83.7142 158.294 83.7217H158.618H158.943L159.105 81.106Z" fill="#233E82"/>
<path d="M165.784 81.8764C165.551 81.6745 165.283 81.5165 164.993 81.4101C164.686 81.2864 164.366 81.1979 164.039 81.1465C163.687 81.1263 163.335 81.1263 162.983 81.1465C162.645 81.1271 162.306 81.1271 161.968 81.1465C161.607 81.1752 161.248 81.2225 160.892 81.2884C160.536 81.3393 160.183 81.4138 159.837 81.5115L159.715 83.235C159.997 83.1159 160.289 83.021 160.588 82.9511L161.318 82.7889H161.846H162.07H162.577C162.745 82.8052 162.909 82.8462 163.064 82.9105C163.213 82.9415 163.344 83.0287 163.43 83.1539C163.48 83.2071 163.518 83.2715 163.539 83.342C163.56 83.4125 163.565 83.487 163.551 83.5594V83.7622H162.212C161.894 83.7421 161.575 83.7421 161.258 83.7622C160.947 83.7962 160.64 83.8642 160.344 83.9649C160.065 84.0672 159.799 84.2034 159.552 84.3705C159.319 84.5435 159.125 84.7648 158.984 85.0193C158.819 85.3103 158.728 85.6377 158.72 85.9723C158.677 86.2273 158.677 86.4878 158.72 86.7428C158.797 86.9801 158.929 87.1956 159.106 87.3714C159.301 87.5637 159.537 87.7093 159.796 87.7972C160.123 87.9083 160.466 87.9632 160.811 87.9594C161 87.9788 161.19 87.9788 161.379 87.9594L162.009 87.8377C162.223 87.7684 162.427 87.6731 162.618 87.5539C162.824 87.4124 163.009 87.2416 163.166 87.0469V87.8377H166.089L166.454 83.6405C166.476 83.2898 166.427 82.9383 166.312 82.6064C166.198 82.3241 166.017 82.0736 165.784 81.8764ZM163.43 85.3437C163.425 85.5565 163.369 85.765 163.267 85.952C163.179 86.0909 163.061 86.2086 162.922 86.2967C162.775 86.3273 162.623 86.3273 162.476 86.2967C162.283 86.3059 162.094 86.2406 161.948 86.1142C161.886 86.0588 161.839 85.9891 161.811 85.9113C161.783 85.8336 161.774 85.7501 161.785 85.6681C161.776 85.5228 161.819 85.3789 161.907 85.2626C161.989 85.1601 162.093 85.077 162.212 85.0193C162.325 84.9579 162.449 84.9167 162.577 84.8976H163.47L163.43 85.3437Z" fill="#233E82"/>
<path d="M171.244 78.6729L167.996 79.6258L167.895 81.2277H166.778L166.656 83.1337H167.773L167.631 85.4249C167.61 85.661 167.61 85.8985 167.631 86.1346C167.644 86.3787 167.699 86.6188 167.793 86.8443C167.875 87.067 168.007 87.2681 168.179 87.4323C168.395 87.623 168.652 87.7617 168.93 87.8378C169.311 87.9527 169.709 88.0074 170.107 88C170.404 88.0223 170.703 88.0223 171 88C171.22 87.9688 171.437 87.9214 171.65 87.8581L172.117 87.7162L172.239 85.8102H171.914H171.711H171.508C171.366 85.8155 171.225 85.7803 171.102 85.7088C171.007 85.6451 170.936 85.5526 170.899 85.4452C170.88 85.3515 170.88 85.255 170.899 85.1613V84.9383L171.021 83.0729H172.462L172.584 81.1669H171.142L171.244 78.6729Z" fill="#233E82"/>
<path d="M173.295 80.5383H176.482L176.624 78.3281H173.437L173.295 80.5383Z" fill="#233E82"/>
<path d="M172.828 87.858H176.015L176.441 81.2275H173.254L172.828 87.858Z" fill="#233E82"/>
<path d="M184.378 81.9981C184.012 81.6822 183.583 81.4473 183.12 81.3087C182.571 81.156 182.004 81.081 181.435 81.0857C180.859 81.082 180.285 81.157 179.73 81.3087C179.242 81.4467 178.786 81.6812 178.39 81.9981C178.011 82.2891 177.706 82.6639 177.497 83.093C177.272 83.5417 177.14 84.0316 177.111 84.5327C177.07 85.0283 177.139 85.5269 177.314 85.9926C177.47 86.4139 177.728 86.7902 178.065 87.0875C178.425 87.3967 178.847 87.6249 179.303 87.7566C179.849 87.9255 180.417 88.0077 180.988 87.9999C181.573 88.0073 182.154 87.9252 182.714 87.7566C183.198 87.6185 183.652 87.3916 184.053 87.0875C184.426 86.7906 184.731 86.4172 184.947 85.9926C185.175 85.5377 185.306 85.0406 185.332 84.5327C185.362 84.044 185.293 83.5544 185.129 83.093C184.973 82.6716 184.715 82.2954 184.378 81.9981ZM181.922 84.5327V85.0801C181.934 85.2489 181.934 85.4183 181.922 85.587C181.87 85.726 181.787 85.8509 181.678 85.952C181.567 86.0528 181.423 86.1104 181.272 86.1142C181.129 86.1074 180.992 86.0499 180.887 85.952C180.798 85.8461 180.736 85.7212 180.704 85.587C180.694 85.4182 180.694 85.2489 180.704 85.0801C180.694 84.8978 180.694 84.715 180.704 84.5327C180.704 84.3704 180.704 84.188 180.704 84.0055C180.733 83.8339 180.773 83.6645 180.826 83.4986C180.866 83.3591 180.943 83.2331 181.049 83.1336C181.103 83.0811 181.166 83.0398 181.236 83.0119C181.306 82.9841 181.38 82.9703 181.455 82.9714C181.528 82.9666 181.6 82.9787 181.667 83.0069C181.734 83.035 181.794 83.0784 181.841 83.1336C181.894 83.1792 181.938 83.235 181.969 83.2977C182 83.3604 182.019 83.4286 182.024 83.4986C182.045 83.6669 182.045 83.8372 182.024 84.0055C181.942 84.188 181.922 84.3704 181.922 84.5327Z" fill="#233E82"/>
<path d="M193.553 81.978C193.462 81.8068 193.338 81.6552 193.188 81.5319C193.004 81.3799 192.789 81.2693 192.559 81.2075C192.254 81.1259 191.939 81.0918 191.625 81.1061C191.443 81.0874 191.259 81.0874 191.077 81.1061L190.468 81.2886C190.255 81.3906 190.058 81.5201 189.879 81.6738C189.68 81.8714 189.522 82.1055 189.412 82.3632V81.2075H186.428L186.002 87.8176H189.189L189.433 84.0056C189.423 83.9112 189.423 83.8161 189.433 83.7217C189.421 83.6275 189.421 83.5321 189.433 83.4379C189.469 83.3468 189.533 83.2691 189.615 83.2148C189.728 83.1804 189.848 83.1804 189.96 83.2148C190.058 83.1774 190.167 83.1774 190.265 83.2148C190.308 83.2366 190.345 83.2681 190.373 83.3069C190.401 83.3457 190.42 83.3905 190.427 83.4379C190.438 83.5322 190.438 83.6275 190.427 83.7217C190.438 83.8161 190.438 83.9113 190.427 84.0056L190.184 87.8176H193.371L193.675 83.2351V82.8904C193.692 82.7422 193.692 82.5926 193.675 82.4443C193.667 82.2822 193.625 82.1236 193.553 81.978Z" fill="#233E82"/>
<path d="M86.5762 73.1171L103.364 73.036L112.153 27.7585L96.2183 27.3733L86.5762 73.1171Z" fill="#233E82"/>
<path d="M115.747 10.4425L99.5076 10.2397L96.8281 22.5881L113.047 22.7706L115.747 10.4425Z" fill="#233E82"/>
<path d="M61.2627 72.4479H77.5021L89.6817 10.4221H73.767L69.017 32.6452C55.2947 17.0728 36.1119 31.2055 34.7925 50.6912C34.3865 56.6323 34.1632 62.8571 39.4613 69.1429C40.6835 70.6477 42.2325 71.8551 43.9909 72.6737C45.7494 73.4922 47.6712 73.9003 49.6109 73.8673C54.7466 73.8673 57.4261 73.7659 61.2424 68.4332L61.2627 72.4479ZM56.8375 61.5797C52.6152 61.5797 49.9357 56.3484 50.8695 49.9005C51.8032 43.4525 56.0255 38.2212 60.2477 38.2212C64.47 38.2212 67.1495 43.4728 66.2157 49.9005C65.2819 56.3281 61.0394 61.5797 56.8375 61.5797Z" fill="#233E82"/>
<path d="M36.2738 26.7243H28.1541C28.4789 21.493 31.2396 21.0266 37.8166 21.2294L39.948 10.3004C17.1113 7.82663 14.0664 12.7944 11.529 26.7243H4.54607L2.13046 37.5317H8.74802L1.52148 72.4478H17.7609L24.9874 37.5317H34.3657L36.2738 26.7243Z" fill="#233E82"/>
<path d="M161.825 56.328C155.849 56.3217 149.97 54.8165 144.728 51.9504C139.486 49.0843 135.048 44.9491 131.823 39.9243C131.582 41.4741 131.46 43.0399 131.457 44.6082C131.438 51.4712 133.605 58.1625 137.645 63.7139C141.684 69.2654 147.387 73.3893 153.929 75.489C160.47 77.5888 167.51 77.5555 174.032 75.3939C180.553 73.2324 186.216 69.0548 190.203 63.4653C192.578 59.41 193.735 55.3547 188.173 61.5593C185.542 64.1976 182.407 66.282 178.955 67.6894C175.503 69.0968 171.804 69.7985 168.076 69.7531C164.347 69.7078 160.666 68.9162 157.25 67.4252C153.833 65.9343 150.75 63.7742 148.184 61.0727C152.865 63.9479 158.28 65.4059 163.774 65.2699C177.983 64.5805 188.457 55.8819 193.147 43.1077C194.628 38.4847 194.121 36.7612 191.908 39.7824C188.689 44.8425 184.245 49.0108 178.987 51.9026C173.73 54.7944 167.827 56.3164 161.825 56.328Z" fill="#ED1C24"/>
</g>
<defs>
<clipPath id="clip0_736_7380">
<rect width="194" height="88" fill="white"/>
</clipPath>
</defs>
</svg>
