<svg width="200" height="81" viewBox="0 0 200 81" fill="none" xmlns="http://www.w3.org/2000/svg">
<g clip-path="url(#clip0_736_7067)">
<path d="M130.062 63.9161C121.002 68.3166 111.048 70.6042 100.961 70.6042C90.8746 70.6042 80.9211 68.3166 71.8603 63.9161C62.6088 59.3607 54.3581 53.0305 47.585 45.291L45.1206 51.618C51.2919 60.6935 59.6149 68.1243 69.3576 73.257C79.1003 78.3896 89.9642 81.0667 100.994 81.0529C112.023 81.0391 122.88 78.3347 132.61 73.1776C142.339 68.0205 150.643 60.5688 156.791 51.4778L154.392 45.3341C147.604 53.0725 139.338 59.3991 130.073 63.9485L130.062 63.9161ZM160.179 28.4659C159.636 27.7545 159.777 26.3102 160.559 24.3808L165.227 12.988H171.263L172.805 8.99999H166.779L168.592 4.16048L159.419 5.72336L158.159 8.9569H154.121L152.655 12.9449H156.661L151.841 24.8012C150.603 27.8084 150.538 30.0072 151.645 31.527C152.753 33.0467 154.902 33.6826 158.159 33.6826C160.311 33.631 162.45 33.3307 164.532 32.788L166.475 28.121C165.088 28.6666 163.622 28.9904 162.133 29.0802C161.767 29.1458 161.39 29.1168 161.038 28.996C160.686 28.8752 160.372 28.6667 160.124 28.3904L160.179 28.4659ZM55.4886 19.067C53.3173 29.77 46.8033 30.3197 45.468 30.3197C43.3944 30.3197 41.8853 29.8024 41.0059 28.7784C40.1265 27.7545 39.8008 25.9545 40.2677 23.6695C41.1254 19.5305 44.7406 13.3545 51.2437 13.3545C51.8865 13.303 52.5327 13.3944 53.1355 13.6218C53.7383 13.8493 54.2825 14.2071 54.7286 14.6695C55.1812 15.3002 55.4837 16.0246 55.6135 16.7882C55.7432 17.5518 55.6968 18.3346 55.4777 19.0778L55.4886 19.067ZM64.315 20.1449C65.9326 13.1173 59.6901 9.17245 51.4174 9.17245C42.7321 9.17245 33.1023 14.3569 31.3436 23.0874C29.4654 32.4216 37.8575 34.4263 43.1989 34.4802C55.2823 34.6204 62.6214 27.4527 64.315 20.1341V20.1449ZM191.663 18.6683H180.339C180.861 17.0174 181.913 15.5817 183.334 14.5811C184.756 13.5805 186.469 13.0701 188.21 13.1281C188.808 13.0622 189.412 13.1339 189.977 13.3376C190.542 13.5414 191.052 13.8717 191.467 14.303C192.184 15.2299 192.216 16.7389 191.565 18.6144L191.663 18.6683ZM189.491 8.79519C180.122 8.79519 172.121 13.9796 170.08 21.3952C168.994 25.1461 169.58 28.4335 171.643 30.9018C173.912 33.6287 177.907 35.127 182.869 35.127C186.073 35.0858 189.256 34.5997 192.325 33.6826L194.909 28.412C191.931 29.6023 188.75 30.2134 185.54 30.212C184.495 30.2777 183.449 30.1071 182.481 29.7131C181.512 29.3192 180.646 28.7121 179.949 27.9377C179.414 27.2258 179.062 26.3959 178.922 25.5192C178.782 24.6425 178.859 23.7451 179.145 22.9042H198.937L199.034 22.6455C200.587 18.3341 200.391 14.6587 198.481 12.1904C196.744 9.93773 193.693 8.78444 189.491 8.78444V8.79519ZM10.2601 19.1641C11.6823 11.2958 19.3253 5.32453 28.3906 5.32453C30.9735 5.30688 33.5344 5.7978 35.925 6.76887L38.5741 1.64911C35.9297 0.553566 33.0907 -0.00357895 30.2253 0.0107683C15.7427 0.0107683 2.20448 8.21319 0.282863 19.1317C-1.41076 28.7785 6.98137 34.1461 17.2734 34.1461C20.0986 34.0942 22.9094 33.7327 25.6547 33.0683L28.4123 26.9138C25.7548 28.0457 22.9098 28.6814 20.0201 28.7892C11.8885 28.7892 9.40239 23.885 10.2492 19.0886L10.2601 19.1641ZM91.3153 21.0503C93.5844 16.1892 98.1658 13.9689 101.086 13.8611C102.055 13.7367 103.039 13.8164 103.974 14.095C104.909 14.3736 105.775 14.8448 106.515 15.4778C103.095 28.6491 96.1791 29.7269 94.1272 29.7269C89.0897 29.7269 89.5457 24.8659 91.3153 21.1042V21.0503ZM83.1186 31.7425C84.7037 33.4563 87.0921 34.1246 89.9257 34.2539C94.0583 34.5354 98.1706 33.4721 101.64 31.2252C99.4687 37.5737 92.1404 38.8886 87.2116 38.8563C84.7839 39.0031 82.3525 38.6357 80.0788 37.7784L77.9075 43.1676C80.5177 43.789 83.1919 44.1073 85.8762 44.1161C97.9704 44.1161 105.755 39.8048 109.001 31.3653L117.263 9.80837C115.911 10.1749 114.525 10.3989 113.126 10.4767C108.697 10.4767 108.501 9.26945 101.293 9.26945C90.9462 9.26945 82.4347 16.8144 81.2187 25.1892C81.0113 26.3657 81.0734 27.5735 81.4005 28.7229C81.7275 29.8723 82.311 30.9339 83.1078 31.8288L83.1186 31.7425ZM124.374 26.0946C124.764 23.9389 126.458 22.7425 131.018 22.2682C133.543 22.0165 136.085 21.9768 138.617 22.1497L136.479 27.5713C134.254 28.5755 131.853 29.1359 129.411 29.2204C125.166 29.4036 123.983 27.776 124.341 25.9868L124.374 26.0946ZM125.09 34.4156C131.756 34.4156 133.515 33.3377 137.586 33.2731C139.852 33.113 142.128 33.339 144.317 33.9413C144.024 32.6371 143.72 31.2467 145.131 27.582C146.141 24.9629 147.303 21.8479 148.486 18.8838C151.146 12.0072 145.446 8.9569 136.164 8.9569C132.158 8.94241 128.159 9.30329 124.222 10.0347L122.05 15.6611C126.299 14.4215 130.716 13.8398 135.143 13.9365C141.266 13.9365 140.713 16.491 140.344 17.7197C136.9 17.4679 133.441 17.4679 129.997 17.7197C127.167 17.8472 124.373 18.4071 121.714 19.3796C117.588 21.0072 115.743 23.8743 115.493 27.1725C115.211 30.9234 117.849 34.4695 125.068 34.4695L125.09 34.4156ZM72.3055 33.9305L85.3334 0.689815H76.7241L63.6962 33.9305H72.3055Z" fill="#F5010B"/>
</g>
<defs>
<clipPath id="clip0_736_7067">
<rect width="200" height="81" fill="white"/>
</clipPath>
</defs>
</svg>
