<svg width="396" height="72" viewBox="0 0 396 72" fill="none" xmlns="http://www.w3.org/2000/svg">
<g clip-path="url(#clip0_736_7069)">
<path d="M31.2202 58.4936C30.1804 58.4936 29.1639 58.1837 28.2994 57.6032C27.4348 57.0228 26.761 56.1977 26.3631 55.2324C25.9652 54.2671 25.8611 53.2049 26.0639 52.1802C26.2668 51.1554 26.7675 50.2141 27.5027 49.4753C28.238 48.7365 29.1747 48.2333 30.1945 48.0295C31.2143 47.8256 32.2714 47.9303 33.232 48.3301C34.1927 48.73 35.0138 49.4071 35.5914 50.2758C36.1691 51.1446 36.4774 52.1659 36.4774 53.2108C36.4705 54.6097 35.9144 55.9494 34.93 56.9386C33.9456 57.9278 32.6124 58.4866 31.2202 58.4936Z" fill="#00ABE1"/>
<path d="M31.2202 45.4584C30.1804 45.4584 29.1639 45.1486 28.2994 44.5681C27.4348 43.9876 26.761 43.1625 26.3631 42.1972C25.9652 41.2319 25.8611 40.1698 26.0639 39.145C26.2668 38.1202 26.7675 37.1789 27.5027 36.4401C28.238 35.7013 29.1747 35.1982 30.1945 34.9943C31.2143 34.7905 32.2714 34.8951 33.232 35.295C34.1927 35.6948 35.0138 36.3719 35.5914 37.2407C36.1691 38.1094 36.4774 39.1308 36.4774 40.1756C36.4705 41.5746 35.9144 42.9142 34.93 43.9034C33.9456 44.8926 32.6124 45.4515 31.2202 45.4584Z" fill="#00ABE1"/>
<path d="M23.5224 53.1932C23.5224 54.238 23.214 55.2594 22.6364 56.1281C22.0587 56.9969 21.2376 57.674 20.277 58.0738C19.3163 58.4737 18.2593 58.5783 17.2394 58.3745C16.2196 58.1706 15.2829 57.6675 14.5476 56.9287C13.8124 56.1899 13.3117 55.2486 13.1088 54.2238C12.906 53.199 13.0101 52.1368 13.408 51.1715C13.8059 50.2062 14.4798 49.3812 15.3443 48.8007C16.2089 48.2202 17.2253 47.9104 18.2651 47.9104C19.6569 47.9185 20.9895 48.4777 21.9737 49.4666C22.9578 50.4556 23.5143 51.7946 23.5224 53.1932Z" fill="#00ABE1"/>
<path d="M10.5458 53.1932C10.5458 54.238 10.2375 55.2594 9.6598 56.1281C9.08212 56.9969 8.26104 57.674 7.3004 58.0738C6.33976 58.4737 5.2827 58.5783 4.26289 58.3745C3.24307 58.1706 2.30632 57.6675 1.57107 56.9287C0.83583 56.1899 0.335123 55.2486 0.132269 54.2238C-0.0705837 53.199 0.0335279 52.1368 0.431439 51.1715C0.82935 50.2062 1.50319 49.3812 2.36774 48.8007C3.2323 48.2202 4.24874 47.9104 5.28853 47.9104C6.68036 47.9185 8.0129 48.4777 8.99709 49.4666C9.98128 50.4556 10.5378 51.7946 10.5458 53.1932Z" fill="#00ABE1"/>
<path d="M23.5224 40.158C23.5224 41.2029 23.214 42.2242 22.6364 43.093C22.0587 43.9617 21.2376 44.6388 20.277 45.0387C19.3163 45.4385 18.2593 45.5432 17.2394 45.3393C16.2196 45.1355 15.2829 44.6323 14.5476 43.8935C13.8124 43.1547 13.3117 42.2134 13.1088 41.1887C12.906 40.1639 13.0101 39.1017 13.408 38.1364C13.8059 37.1711 14.4798 36.346 15.3443 35.7656C16.2089 35.1851 17.2253 34.8752 18.2651 34.8752C19.6566 34.8845 20.9885 35.444 21.9724 36.4327C22.9563 37.4215 23.5132 38.7598 23.5224 40.158Z" fill="#00ABE1"/>
<path d="M31.2202 32.423C30.1804 32.423 29.1639 32.1132 28.2994 31.5327C27.4348 30.9522 26.761 30.1272 26.3631 29.1618C25.9652 28.1965 25.8611 27.1344 26.0639 26.1096C26.2668 25.0848 26.7675 24.1435 27.5027 23.4047C28.238 22.6659 29.1747 22.1628 30.1945 21.9589C31.2143 21.7551 32.2714 21.8597 33.232 22.2596C34.1927 22.6594 35.0138 23.3365 35.5914 24.2053C36.1691 25.074 36.4774 26.0954 36.4774 27.1402C36.4705 28.5392 35.9144 29.8788 34.93 30.868C33.9456 31.8573 32.6124 32.4161 31.2202 32.423Z" fill="#E51D2B"/>
<path d="M42.2773 21.8267H51.3111V35.7292H64.1257V21.8267H73.1595V58.5024H64.1257V43.2175H51.3111V58.5024H42.2773V21.8267Z" fill="#1D1F23"/>
<path d="M77.4453 49.4558V32.2383H85.7036V47.7301C85.7036 50.6048 86.9785 52.194 89.6466 52.194C92.503 52.194 94.2379 50.0369 94.2379 46.9112V32.2383H102.562V58.5025H94.5972V55.2712H94.4657C92.5775 57.8334 90.2774 59.2729 86.6543 59.2729C80.6303 59.2729 77.4541 55.3108 77.4541 49.4734" fill="#1D1F23"/>
<path d="M107.047 21.8267H134.205V29.4691H116.081V36.9046H131.244V44.2433H116.081V58.5024H107.047V21.8267Z" fill="#1D1F23"/>
<path d="M135.988 32.2382H143.971V36.3412H144.124C145.96 33.2155 148.106 31.8288 151.269 31.8288C151.822 31.7927 152.377 31.8629 152.904 32.0357V39.2159H152.698C147.594 38.4983 144.325 41.012 144.325 46.6998V58.4981H136.001L135.988 32.2382Z" fill="#1D1F23"/>
<path d="M155.541 21.8267H163.865V28.5974H155.541V21.8267ZM155.541 32.2382H163.865V58.5024H155.541V32.2382Z" fill="#1D1F23"/>
<path d="M166.664 45.3175C166.664 37.4725 172.127 31.4722 180.092 31.4722C183.816 31.4722 186.778 32.7004 189.025 34.7519C192.136 37.6266 193.669 42.1918 193.616 47.5186H174.835C175.343 51.0405 177.284 53.2417 180.701 53.2417C182.892 53.2417 184.329 52.2687 185.043 50.6267H193.156C192.505 53.1667 190.945 55.3765 188.775 56.834C186.373 58.481 183.516 59.3252 180.609 59.2464C171.983 59.2464 166.673 53.2417 166.673 45.2911L166.664 45.3175ZM185.205 42.522C184.898 39.3919 182.957 37.3933 180.254 37.3933C177.087 37.3933 175.435 39.3919 174.892 42.522H185.205Z" fill="#1D1F23"/>
<path d="M195.252 45.3703C195.252 37.1644 199.948 31.4722 206.687 31.4722C210.358 31.4722 212.452 33.0086 213.985 35.2141H214.139V21.8267H222.463V58.5024H214.507V54.9806H214.406C213.634 56.3392 212.509 57.4619 211.152 58.2293C209.795 58.9968 208.256 59.3802 206.7 59.3389C200.01 59.3389 195.265 54.1573 195.265 45.3879L195.252 45.3703ZM214.353 45.3879C214.353 40.9856 212.566 37.7983 208.943 37.7983C205.626 37.7983 203.686 40.8799 203.686 45.2822C203.686 49.8475 205.626 52.7178 208.842 52.7178C212.312 52.7178 214.353 49.6934 214.353 45.3835" fill="#1D1F23"/>
<path d="M227.303 60.6553H230.164C232.613 60.6553 233.581 59.6824 233.581 57.8862C233.581 56.7592 233.073 55.2184 231.999 52.4493L224.293 32.2383H233.055L236.56 43.4202C237.375 45.9867 238.194 49.4734 238.194 49.4734H238.295C238.295 49.4734 239.009 45.9867 239.828 43.4202L243.245 32.2383H251.569L242.536 58.8591C240.442 65.0224 237.944 67.1707 232.687 67.1707H227.303V60.6553Z" fill="#1D1F23"/>
<path d="M257.441 54.1926C254.278 50.7059 252.543 45.8854 252.543 40.2945C252.543 34.5714 254.479 29.4691 257.954 25.9825C260.963 22.9009 265.2 21.1091 270.457 21.1091C279.85 21.1091 285.467 26.1366 286.641 33.8274H277.879C277.213 30.8559 274.764 28.5975 270.781 28.5975C264.757 28.5975 261.748 33.6249 261.748 40.2945C261.748 46.964 265.217 51.987 270.948 51.987C275.697 51.987 278.501 48.8085 278.86 45.5772V45.4936H271.969V38.8065H287.18V58.5025H280.849L280.341 54.1001H280.223C277.826 57.8421 274.251 59.3301 269.861 59.3301C264.657 59.3301 260.42 57.4855 257.406 54.2014" fill="#1D1F23"/>
<path d="M291.311 32.2381H299.271V36.3411H299.425C301.265 33.2154 303.407 31.8287 306.57 31.8287C307.123 31.7923 307.678 31.8625 308.204 32.0356V39.2158H308.003C302.899 38.4982 299.631 41.0119 299.631 46.6997V58.498H291.307L291.311 32.2381Z" fill="#1D1F23"/>
<path d="M309.176 45.423C309.176 37.4989 314.788 31.5205 323.161 31.5205C331.533 31.5205 337.097 37.5209 337.097 45.423C337.097 53.3252 331.585 59.3212 323.156 59.3212C314.727 59.3212 309.172 53.3208 309.172 45.423H309.176ZM328.668 45.423C328.668 40.6509 326.731 37.4196 323.108 37.4196C319.485 37.4196 317.592 40.6509 317.592 45.423C317.592 50.1952 319.481 53.3736 323.108 53.3736C326.736 53.3736 328.668 50.1908 328.668 45.423Z" fill="#1D1F23"/>
<path d="M339.699 49.4558V32.2383H347.966V47.7301C347.966 50.6048 349.241 52.194 351.909 52.194C354.77 52.194 356.504 50.0369 356.504 46.9112V32.2383H364.828V58.5025H356.851V55.2712H356.697C354.809 57.8334 352.509 59.2729 348.886 59.2729C342.862 59.2729 339.686 55.3108 339.686 49.4734" fill="#1D1F23"/>
<path d="M368.79 32.2382H376.754V35.4211H376.908C377.808 34.1659 378.999 33.1494 380.377 32.4592C381.756 31.769 383.28 31.4257 384.82 31.459C391.764 31.459 396 37.4594 396 45.3571C396 53.8712 391.457 59.3081 384.61 59.3081C381.24 59.3081 378.844 57.9874 377.21 55.7862H377.109V67.175H368.785L368.79 32.2382ZM387.558 45.6785C387.558 41.1661 385.876 38.1945 382.301 38.1945C378.726 38.1945 376.842 41.4258 376.842 45.6785C376.842 49.9311 378.879 52.8587 382.454 52.8587C385.617 52.8587 387.558 50.1424 387.558 45.6785Z" fill="#1D1F23"/>
<path d="M252.174 64.4544H249.488V62.5042H257.177V64.4544H254.461V71.7887H252.174V64.4544Z" fill="#39AAE1"/>
<path d="M257.904 62.5042H260.012V65.96H260.069C260.283 65.6367 260.577 65.374 260.921 65.1968C261.265 65.0196 261.649 64.9338 262.036 64.9474C263.481 64.9474 264.336 65.9864 264.336 67.4656V71.7887H262.228V67.8926C262.228 67.1926 261.878 66.7128 261.194 66.7128C260.511 66.7128 260.033 67.2983 260.033 68.1171V71.7887H257.926L257.904 62.5042Z" fill="#39AAE1"/>
<path d="M264.975 68.4516C264.951 67.9917 265.022 67.5316 265.183 67.1003C265.343 66.6691 265.591 66.2758 265.91 65.9452C266.229 65.6146 266.613 65.3537 267.037 65.179C267.461 65.0043 267.917 64.9194 268.375 64.9298C269.206 64.9063 270.015 65.2023 270.636 65.7574C271.424 66.4882 271.814 67.6416 271.801 68.9931H267.043C267.175 69.8736 267.665 70.4503 268.533 70.4503C268.762 70.4678 268.991 70.4132 269.188 70.2941C269.385 70.175 269.54 69.9973 269.632 69.7855H271.683C271.518 70.4286 271.124 70.9881 270.574 71.3572C269.966 71.7744 269.243 71.9885 268.507 71.9691C268.038 71.9956 267.569 71.9228 267.131 71.7555C266.692 71.5883 266.294 71.3302 265.961 70.9982C265.628 70.6661 265.368 70.2674 265.198 69.8279C265.028 69.3885 264.953 68.9181 264.975 68.4472V68.4516ZM269.667 67.7473C269.671 67.4086 269.541 67.0822 269.307 66.839C269.072 66.5958 268.751 66.4555 268.414 66.4486C267.613 66.4486 267.201 66.9548 267.056 67.7473H269.667Z" fill="#39AAE1"/>
<path d="M274.648 62.5043H279.108C279.879 62.4578 280.641 62.6836 281.264 63.1426C281.522 63.3553 281.729 63.6245 281.868 63.9297C282.007 64.2349 282.074 64.568 282.066 64.9035C282.08 65.3106 281.959 65.7108 281.72 66.0404C281.482 66.3699 281.141 66.6098 280.751 66.7217V66.7613C281.239 66.9018 281.666 67.2012 281.966 67.6124C282.266 68.0236 282.421 68.5233 282.407 69.0329C282.429 69.43 282.355 69.8264 282.191 70.1883C282.027 70.5502 281.778 70.8667 281.465 71.1108C280.801 71.5815 279.999 71.814 279.187 71.7712H274.648V62.5043ZM278.771 66.1802C279.433 66.1802 279.879 65.8544 279.879 65.2469C279.879 64.6394 279.441 64.3224 278.784 64.3224H276.909V66.1846L278.771 66.1802ZM278.951 69.9442C279.7 69.9442 280.169 69.504 280.169 68.8568C280.169 68.1172 279.625 67.7386 278.929 67.7386H276.909V69.9398L278.951 69.9442Z" fill="#E31013"/>
<path d="M283.03 68.4518C283.006 67.9918 283.076 67.5318 283.237 67.1005C283.398 66.6692 283.646 66.2759 283.965 65.9453C284.284 65.6147 284.668 65.3539 285.092 65.1791C285.516 65.0044 285.972 64.9196 286.43 64.9299C287.261 64.9073 288.069 65.2032 288.69 65.7576C289.479 66.4883 289.865 67.6418 289.851 68.9933H285.098C285.225 69.8737 285.716 70.4504 286.583 70.4504C286.812 70.469 287.041 70.4148 287.237 70.2955C287.434 70.1762 287.588 69.9979 287.678 69.7857H289.737C289.571 70.4292 289.175 70.9888 288.625 71.3573C288.016 71.7745 287.293 71.9886 286.557 71.9692C286.089 71.9951 285.621 71.9218 285.183 71.7543C284.744 71.5867 284.346 71.3286 284.014 70.9966C283.681 70.6646 283.422 70.2661 283.253 69.827C283.083 69.3878 283.007 68.9178 283.03 68.4474V68.4518ZM287.722 67.7474C287.726 67.408 287.595 67.0809 287.36 66.8376C287.124 66.5943 286.803 66.4545 286.465 66.4487C285.667 66.4487 285.251 66.955 285.111 67.7474H287.722Z" fill="#E31013"/>
<path d="M290.167 69.636H292.156C292.167 69.7828 292.208 69.9258 292.276 70.0561C292.345 70.1864 292.439 70.3013 292.553 70.3937C292.667 70.486 292.799 70.554 292.94 70.5933C293.081 70.6326 293.229 70.6424 293.374 70.6221C294.005 70.6221 294.408 70.3888 294.408 69.9574C294.408 69.363 293.606 69.297 292.725 69.1429C291.578 68.9448 290.347 68.6367 290.347 67.0738C290.347 65.6739 291.639 64.9475 293.203 64.9475C295.078 64.9475 296.086 65.7663 296.191 67.0738H294.241C294.167 66.4795 293.764 66.2946 293.181 66.2946C292.669 66.2946 292.265 66.4927 292.265 66.9065C292.265 67.3204 293.015 67.4392 293.856 67.5977C295.017 67.7914 296.388 68.0908 296.388 69.7989C296.388 71.2516 295.109 72 293.378 72C291.437 72 290.224 71.1196 290.158 69.636" fill="#E31013"/>
<path d="M297.409 70.0365V66.4663H296.533V65.1456H297.409V63.0413H299.464V65.1456H300.665V66.4663H299.464V69.5831C299.464 70.1026 299.749 70.2302 300.2 70.2302C300.38 70.2302 300.586 70.2302 300.665 70.2302V71.7799C300.287 71.8573 299.902 71.8913 299.517 71.8811C298.286 71.8811 297.409 71.4805 297.409 70.0498" fill="#E31013"/>
<path d="M305.859 62.5042H303.572V71.7887H305.859V62.5042Z" fill="#39AAE1"/>
<path d="M307.004 65.1412H309.032V66.0525H309.072C309.285 65.7037 309.586 65.4178 309.944 65.2237C310.303 65.0297 310.706 64.9344 311.113 64.9475C312.559 64.9475 313.413 65.9864 313.413 67.4656V71.7887H311.328V67.8926C311.328 67.1927 310.982 66.7128 310.294 66.7128C309.606 66.7128 309.133 67.2983 309.133 68.1172V71.7887H307.026L307.004 65.1412Z" fill="#39AAE1"/>
<path d="M316.506 62.5042H320.668C321.59 62.4526 322.496 62.7691 323.187 63.3847C323.493 63.679 323.734 64.0343 323.894 64.4278C324.055 64.8213 324.132 65.2443 324.12 65.6695C324.12 67.4304 322.889 68.7071 320.992 68.7071H318.832V71.7887H316.506V62.5042ZM320.528 66.8669C320.698 66.8893 320.871 66.8736 321.035 66.8208C321.198 66.7681 321.348 66.6797 321.474 66.5619C321.6 66.4441 321.698 66.2998 321.761 66.1395C321.825 65.9791 321.853 65.8066 321.842 65.6343C321.842 64.8947 321.36 64.4412 320.528 64.4412H318.832V66.8669H320.528Z" fill="#39AAE1"/>
<path d="M324.809 65.1413H326.824V66.1846H326.863C327.022 65.8378 327.277 65.5449 327.598 65.3416C327.92 65.1383 328.293 65.0335 328.673 65.04C328.812 65.0301 328.952 65.048 329.085 65.0929V66.911H329.036C327.744 66.7305 326.916 67.3512 326.916 68.8084V71.7932H324.809V65.1413Z" fill="#39AAE1"/>
<path d="M329.254 69.9352C329.254 68.4648 330.419 68.0246 331.786 67.8441C333.03 67.6856 333.468 67.558 333.468 67.1045C333.468 66.6511 333.197 66.387 332.562 66.387C331.926 66.387 331.554 66.6863 331.493 67.2454H329.552C329.604 66.0128 330.546 64.9606 332.553 64.9606C333.307 64.8994 334.061 65.0914 334.695 65.5065C334.979 65.7283 335.205 66.0171 335.351 66.3472C335.498 66.6774 335.562 67.0388 335.536 67.3995V70.7496C335.536 71.2823 335.589 71.5817 335.769 71.7005V71.7886H333.727C333.604 71.5598 333.53 71.308 333.508 71.049H333.482C333.261 71.3592 332.963 71.6063 332.618 71.766C332.273 71.9258 331.893 71.9927 331.515 71.9603C330.2 71.9603 329.254 71.2427 329.254 69.9352ZM333.521 69.4157V68.6233C333.173 68.7795 332.808 68.8961 332.435 68.9711C331.62 69.156 331.282 69.3629 331.282 69.8516C331.282 70.3402 331.672 70.5912 332.189 70.5912C332.355 70.607 332.522 70.5881 332.681 70.5354C332.839 70.4828 332.984 70.3977 333.108 70.2855C333.231 70.1733 333.33 70.0364 333.399 69.8836C333.467 69.7309 333.502 69.5655 333.504 69.3981" fill="#39AAE1"/>
<path d="M336.264 68.4781C336.241 68.0129 336.315 67.5481 336.48 67.113C336.646 66.678 336.9 66.2823 337.226 65.9511C337.551 65.62 337.942 65.3605 338.373 65.1892C338.804 65.0179 339.266 64.9386 339.729 64.9563C341.525 64.9563 342.673 66.0084 342.866 67.5008H340.838C340.811 67.2307 340.686 66.98 340.486 66.7977C340.286 66.6154 340.026 66.5145 339.756 66.5147C338.849 66.5147 338.397 67.2675 338.397 68.4737C338.397 69.68 338.835 70.4108 339.756 70.4108C340.413 70.4108 340.811 70.0189 340.903 69.2662H342.919C342.866 70.7982 341.653 71.9956 339.777 71.9956C339.312 72.0155 338.847 71.9381 338.413 71.7681C337.979 71.5982 337.584 71.3395 337.255 71.0084C336.926 70.6773 336.668 70.281 336.499 69.8447C336.33 69.4084 336.253 68.9415 336.273 68.4737" fill="#39AAE1"/>
<path d="M344.111 70.0366V66.4663H343.234V65.1456H344.111V63.0413H346.165V65.1456H347.37V66.4663H346.165V69.5831C346.165 70.1026 346.45 70.2303 346.901 70.2303C347.085 70.2303 347.291 70.2303 347.37 70.2303V71.7799C346.991 71.857 346.605 71.8909 346.218 71.8811C344.991 71.8811 344.111 71.4805 344.111 70.0498" fill="#39AAE1"/>
<path d="M348.129 62.5042H350.236V64.2167H348.129V62.5042ZM348.129 65.1455H350.236V71.793H348.129V65.1455Z" fill="#39AAE1"/>
<path d="M350.954 68.4781C350.93 68.0127 351.003 67.5475 351.169 67.1122C351.334 66.6769 351.588 66.2809 351.914 65.9496C352.24 65.6183 352.631 65.3588 353.062 65.1878C353.494 65.0167 353.956 64.9379 354.419 64.9562C356.215 64.9562 357.363 66.0084 357.556 67.5008H355.527C355.501 67.2299 355.375 66.9786 355.174 66.7962C354.973 66.6138 354.712 66.5134 354.441 66.5146C353.538 66.5146 353.087 67.2674 353.087 68.4737C353.087 69.6799 353.525 70.4107 354.441 70.4107C355.102 70.4107 355.501 70.0189 355.593 69.2661H357.608C357.556 70.7981 356.342 71.9955 354.467 71.9955C354.001 72.0161 353.536 71.9391 353.102 71.7694C352.667 71.5997 352.273 71.341 351.943 71.0098C351.614 70.6786 351.356 70.282 351.187 69.8454C351.018 69.4088 350.942 68.9416 350.962 68.4737" fill="#39AAE1"/>
<path d="M357.989 68.4518C357.964 67.9921 358.034 67.5322 358.195 67.1009C358.355 66.6696 358.602 66.2763 358.921 65.9456C359.24 65.6149 359.623 65.354 360.047 65.1792C360.471 65.0045 360.927 64.9196 361.385 64.93C362.217 64.9067 363.027 65.2026 363.65 65.7576C364.438 66.4884 364.824 67.6418 364.811 68.9933H360.057C360.184 69.8738 360.675 70.4505 361.542 70.4505C361.771 70.4684 362 70.4139 362.196 70.2947C362.392 70.1755 362.547 69.9975 362.638 69.7857H364.692C364.53 70.4297 364.135 70.9899 363.584 71.3574C362.976 71.7746 362.252 71.9887 361.516 71.9693C361.05 71.9919 360.584 71.9163 360.149 71.7474C359.713 71.5784 359.318 71.3198 358.988 70.9881C358.658 70.6564 358.4 70.2591 358.232 69.8215C358.064 69.384 357.989 68.9159 358.011 68.4474L357.989 68.4518ZM362.699 67.7475C362.702 67.4088 362.573 67.0824 362.338 66.8392C362.104 66.596 361.783 66.4557 361.446 66.4488C360.644 66.4488 360.232 66.9551 360.088 67.7475H362.699Z" fill="#39AAE1"/>
<path d="M2.46276 0.717529V4.99219H7.41336V0.717529H8.72768V10.9793H7.41336V6.1676H2.46276V10.9793H1.14844V0.717529H2.46276Z" fill="#1D1D1B"/>
<path d="M17.1431 8.95428C17.1431 9.71589 17.1431 10.3894 17.2044 10.9661H16.0434L15.9646 9.76431H15.9383C15.6917 10.1955 15.3343 10.5522 14.9034 10.7969C14.4726 11.0417 13.9841 11.1655 13.4893 11.1554C12.3371 11.1554 10.957 10.5171 10.957 7.92854V3.60986H12.2714V7.69082C12.2714 9.09076 12.7095 10.0373 13.9055 10.0373C14.2843 10.0286 14.6522 9.90839 14.9637 9.69164C15.2752 9.47488 15.5166 9.17106 15.6579 8.81781C15.7373 8.59769 15.7774 8.36519 15.7762 8.13105V3.60986H17.1124L17.1431 8.95428Z" fill="#1D1D1B"/>
<path d="M22.4802 6.36572V7.35625H18.7344V6.36572H22.4802Z" fill="#1D1D1B"/>
<path d="M24.2227 0.717529H29.7209V1.82692H25.5414V5.23872H29.4055V6.33489H25.5414V10.9793H24.227L24.2227 0.717529Z" fill="#1D1D1B"/>
<path d="M30.9383 5.90788C30.9383 5.02742 30.9383 4.29663 30.877 3.60987H32.0467L32.0905 5.05383H32.1518C32.2763 4.60305 32.5405 4.20384 32.906 3.91412C33.2715 3.6244 33.7194 3.45923 34.1847 3.44258C34.3116 3.44046 34.4383 3.45527 34.5614 3.48661V4.75007C34.4175 4.71912 34.2705 4.70435 34.1233 4.70605C33.1858 4.70605 32.5199 5.41922 32.3358 6.42736C32.2979 6.63362 32.2773 6.84274 32.2745 7.05249V10.9794H30.9602L30.9383 5.90788Z" fill="#1D1D1B"/>
<path d="M37.1345 1.53642C37.1386 1.6475 37.1192 1.75819 37.0777 1.86121C37.0361 1.96423 36.9734 2.05725 36.8935 2.13417C36.8136 2.21109 36.7185 2.27016 36.6143 2.3075C36.5101 2.34485 36.3993 2.35962 36.289 2.35085C36.1815 2.3527 36.0748 2.33257 35.9753 2.29169C35.8758 2.2508 35.7856 2.19001 35.7102 2.11301C35.6348 2.03601 35.5757 1.94441 35.5367 1.84378C35.4976 1.74315 35.4793 1.63558 35.4829 1.52762C35.4804 1.41674 35.5005 1.30652 35.5417 1.20365C35.583 1.10078 35.6446 1.0074 35.7229 0.929188C35.8011 0.85097 35.8943 0.789541 35.9969 0.748628C36.0995 0.707714 36.2093 0.688168 36.3196 0.691176C36.43 0.687227 36.5399 0.706598 36.6423 0.748037C36.7447 0.789475 36.8373 0.852057 36.9141 0.931732C36.9909 1.01141 37.0502 1.1064 37.0882 1.21056C37.1262 1.31473 37.1419 1.42574 37.1345 1.53642ZM35.6493 10.9794V3.60992H36.9856V10.9794H35.6493Z" fill="#1D1D1B"/>
<path d="M39.9072 7.5368C39.9379 9.35055 41.0901 10.0945 42.4263 10.0945C43.1217 10.1163 43.8136 9.98714 44.4548 9.71595L44.6826 10.6757C43.9089 10.9927 43.0775 11.1427 42.2423 11.1159C39.9861 11.1159 38.6367 9.6235 38.6367 7.40032C38.6367 5.17715 39.951 3.43823 42.0758 3.43823C44.4723 3.43823 45.1075 5.55575 45.1075 6.90726C45.1047 7.1163 45.0901 7.32502 45.0637 7.53239L39.9072 7.5368ZM43.8195 6.57709C43.8195 5.72744 43.469 4.40234 41.9707 4.40234C40.6213 4.40234 40.0299 5.6482 39.9247 6.57709H43.8195Z" fill="#1D1D1B"/>
<path d="M53.0331 0.149658V9.07757C53.0331 9.72911 53.0331 10.4775 53.0944 10.9794H51.8984L51.8371 9.7027H51.8064C51.5681 10.1572 51.2068 10.5347 50.7642 10.7917C50.3216 11.0488 49.8157 11.1749 49.3048 11.1555C47.5524 11.1555 46.168 9.64987 46.168 7.40909C46.168 4.957 47.6707 3.447 49.4582 3.447C49.8898 3.4239 50.3198 3.51599 50.7045 3.71393C51.0893 3.91187 51.415 4.20861 51.6487 4.57399H51.6793V0.149658H53.0331ZM51.7188 6.59026C51.72 6.40068 51.6995 6.21158 51.6574 6.02676C51.5622 5.5857 51.3193 5.19081 50.9693 4.90799C50.6193 4.62517 50.1833 4.47154 49.7342 4.47274C48.3541 4.47274 47.5436 5.69218 47.5436 7.32104C47.5436 8.81343 48.2709 10.0505 49.7123 10.0505C50.1714 10.049 50.6162 9.88903 50.9719 9.59728C51.3276 9.30554 51.5728 8.89979 51.6662 8.44804C51.7099 8.25902 51.7305 8.06536 51.7275 7.87133L51.7188 6.59026Z" fill="#1D1D1B"/>
<path d="M55.644 3.60986L57.2474 7.96376C57.4139 8.45242 57.5979 9.02912 57.7206 9.47376H57.7469C57.8871 9.03353 58.036 8.46563 58.22 7.93295L59.6745 3.60986H61.0852L59.0831 8.86184C58.128 11.3888 57.4752 12.6875 56.5684 13.4755C56.1076 13.9071 55.5429 14.2106 54.9298 14.3559L54.5969 13.2201C55.0226 13.0763 55.4178 12.8539 55.7623 12.5642C56.2458 12.1604 56.6297 11.6496 56.8838 11.0718C56.9392 10.9722 56.9763 10.8633 56.9933 10.7504C56.981 10.6304 56.9499 10.513 56.9013 10.4026L54.1895 3.60986H55.644Z" fill="#1D1D1B"/>
<path d="M60.6914 12.8549C61.0988 11.6696 61.4051 10.4516 61.607 9.21414L63.0922 9.06006C62.7472 10.3425 62.2654 11.5839 61.6552 12.7624L60.6914 12.8549Z" fill="#1D1D1B"/>
<path d="M76.6774 5.74063C76.6774 9.26249 74.5438 11.1467 71.9371 11.1467C69.2383 11.1467 67.3457 9.04678 67.3457 5.93874C67.3457 2.68102 69.361 0.550293 72.086 0.550293C74.8768 0.550293 76.6774 2.69423 76.6774 5.74063ZM68.752 5.90792C68.752 8.10908 69.9349 10.0681 72.0115 10.0681C74.0882 10.0681 75.2842 8.13109 75.2842 5.80227C75.2842 3.75959 74.224 1.62886 72.0247 1.62886C69.8254 1.62886 68.752 3.67154 68.752 5.90792Z" fill="#1D1D1B"/>
<path d="M78.3777 5.60415C78.3777 4.84255 78.3777 4.21742 78.3164 3.6099H79.4861L79.5475 4.79853H79.5913C79.8112 4.37889 80.1435 4.02948 80.5508 3.78984C80.9581 3.55021 81.424 3.42993 81.8957 3.44261C82.3515 3.44077 82.7966 3.58186 83.1688 3.84621C83.541 4.11057 83.8219 4.48502 83.9724 4.91739H84.003C84.2068 4.54248 84.4876 4.21535 84.8267 3.95768C85.2909 3.60177 85.8642 3.41963 86.4477 3.44261C87.4203 3.44261 88.8572 4.08095 88.8572 6.6387V10.9794H87.5429V6.80599C87.5429 5.39284 87.026 4.53879 85.9526 4.53879C85.5966 4.55363 85.2539 4.67881 84.9715 4.89714C84.6891 5.11547 84.4809 5.41626 84.3754 5.75823C84.3054 5.97431 84.27 6.20016 84.2703 6.42739V10.9794H82.956V6.57706C82.956 5.40605 82.4434 4.552 81.427 4.552C81.0493 4.57272 80.6874 4.71098 80.3915 4.94762C80.0956 5.18426 79.8802 5.50756 79.7753 5.87269C79.7018 6.08333 79.6662 6.30545 79.6702 6.52864V10.9794H78.3558L78.3777 5.60415Z" fill="#1D1D1B"/>
<path d="M91.034 5.60423C91.034 4.84262 91.034 4.21749 90.9727 3.60997H92.1555L92.23 4.82942H92.2738C92.5137 4.39755 92.8668 4.03997 93.2947 3.7955C93.7226 3.55103 94.2089 3.42901 94.7009 3.44269C95.713 3.44269 97.2902 4.05021 97.2902 6.57714V10.9795H95.9758V6.75323C95.9758 5.5646 95.5377 4.55207 94.276 4.55207C93.7662 4.57378 93.2848 4.79413 92.934 5.16641C92.5831 5.53869 92.3903 6.03363 92.3965 6.54632V10.9795H91.0822L91.034 5.60423Z" fill="#1D1D1B"/>
<path d="M100.931 1.53639C100.935 1.64747 100.915 1.75815 100.874 1.86117C100.832 1.96419 100.769 2.05722 100.69 2.13413C100.61 2.21105 100.515 2.27012 100.41 2.30747C100.306 2.34481 100.195 2.35959 100.085 2.35082C99.9788 2.35202 99.8732 2.33172 99.7749 2.2911C99.6765 2.25049 99.5872 2.1904 99.5124 2.11442C99.4376 2.03843 99.3788 1.94809 99.3394 1.84879C99.3001 1.74949 99.281 1.64325 99.2834 1.53639C99.281 1.42589 99.3009 1.31604 99.3419 1.21347C99.3829 1.11091 99.4441 1.01774 99.5219 0.939583C99.5996 0.861428 99.6924 0.799904 99.7944 0.75872C99.8965 0.717536 100.006 0.697543 100.116 0.699946C100.225 0.696101 100.334 0.715244 100.436 0.756155C100.538 0.797065 100.63 0.858844 100.707 0.937549C100.784 1.01625 100.843 1.11016 100.882 1.21326C100.92 1.31637 100.937 1.42642 100.931 1.53639ZM99.4455 10.9794V3.60988H100.782V10.9794H99.4455Z" fill="#1D1D1B"/>
<path d="M107.024 10.9793L106.919 10.0504H106.871C106.612 10.4012 106.273 10.6846 105.883 10.8769C105.493 11.0691 105.063 11.1646 104.628 11.1554C104.339 11.1767 104.05 11.1376 103.777 11.0406C103.504 10.9435 103.255 10.7907 103.044 10.5916C102.833 10.3925 102.665 10.1517 102.552 9.88421C102.439 9.61675 102.382 9.32855 102.385 9.03785C102.385 7.27692 103.962 6.282 106.797 6.29961V6.13672C106.797 5.5292 106.63 4.43302 105.132 4.43302C104.457 4.43884 103.798 4.63237 103.226 4.99212L102.919 4.11165C103.646 3.67185 104.481 3.44467 105.329 3.45571C107.572 3.45571 108.12 4.99212 108.12 6.4713V9.22715C108.11 9.81658 108.151 10.4057 108.242 10.9881L107.024 10.9793ZM106.827 7.21969C105.373 7.18888 103.721 7.44861 103.721 8.87937C103.707 9.04937 103.73 9.22034 103.789 9.38057C103.847 9.5408 103.939 9.68651 104.058 9.80774C104.178 9.92897 104.322 10.0229 104.48 10.083C104.639 10.1431 104.809 10.168 104.978 10.156C105.366 10.1664 105.747 10.0526 106.066 9.83095C106.385 9.60934 106.626 9.29149 106.753 8.92339C106.8 8.78138 106.825 8.63288 106.827 8.48316V7.21969Z" fill="#1D1D1B"/>
<path d="M109.404 12.8549C109.81 11.6695 110.115 10.4515 110.316 9.21414L111.801 9.06006C111.453 10.3421 110.969 11.5832 110.359 12.7624L109.404 12.8549Z" fill="#1D1D1B"/>
<path d="M120.68 10.9793L120.575 10.0504H120.527C120.268 10.4013 119.929 10.6847 119.539 10.8769C119.149 11.0692 118.718 11.1647 118.284 11.1554C117.996 11.1761 117.706 11.1366 117.434 11.0392C117.162 10.9419 116.913 10.7889 116.702 10.5899C116.492 10.3909 116.325 10.1503 116.212 9.88313C116.099 9.61599 116.042 9.32819 116.045 9.03788C116.045 7.27695 117.618 6.28203 120.452 6.29964V6.13675C120.452 5.52923 120.286 4.43305 118.788 4.43305C118.112 4.43806 117.45 4.63162 116.877 4.99215L116.575 4.11169C117.302 3.67145 118.136 3.44424 118.985 3.45574C121.228 3.45574 121.771 4.99215 121.771 6.47133V9.22718C121.761 9.81661 121.803 10.4058 121.894 10.9881L120.68 10.9793ZM120.483 7.21973C119.029 7.18891 117.377 7.44865 117.377 8.8794C117.363 9.04941 117.386 9.22037 117.444 9.3806C117.503 9.54083 117.595 9.68655 117.714 9.80778C117.833 9.92901 117.977 10.0229 118.136 10.083C118.295 10.1431 118.465 10.168 118.634 10.1561C119.022 10.1664 119.403 10.0526 119.722 9.83098C120.041 9.60938 120.281 9.29152 120.409 8.92342C120.456 8.78141 120.481 8.63292 120.483 8.48319V7.21973Z" fill="#1D1D1B"/>
<path d="M123.897 5.60418C123.897 4.84258 123.897 4.21745 123.836 3.60993H125.019L125.093 4.82937H125.133C125.372 4.39785 125.724 4.04044 126.151 3.79597C126.578 3.55149 127.064 3.42929 127.555 3.44264C128.572 3.44264 130.149 4.05016 130.149 6.57709V10.9794H128.813V6.75319C128.813 5.56456 128.375 4.55202 127.117 4.55202C126.608 4.57373 126.126 4.79408 125.775 5.16636C125.424 5.53864 125.232 6.03359 125.238 6.54628V10.9794H123.924L123.897 5.60418Z" fill="#1D1D1B"/>
<path d="M138.642 0.149658V9.07757C138.642 9.72911 138.642 10.4775 138.704 10.9794H137.503L137.442 9.7027H137.398C137.16 10.1534 136.801 10.5282 136.362 10.7849C135.923 11.0416 135.422 11.17 134.914 11.1555C133.14 11.1555 131.777 9.64987 131.777 7.40909C131.777 4.957 133.276 3.447 135.063 3.447C135.496 3.4176 135.929 3.50443 136.318 3.6986C136.707 3.89276 137.037 4.18728 137.276 4.55198H137.306V0.149658H138.642ZM137.328 6.59026C137.331 6.40084 137.312 6.21174 137.271 6.02676C137.174 5.58572 136.93 5.1912 136.58 4.90856C136.229 4.62593 135.793 4.47216 135.344 4.47274C133.963 4.47274 133.153 5.69218 133.153 7.32104C133.153 8.81343 133.88 10.0505 135.317 10.0505C135.777 10.0484 136.222 9.88827 136.578 9.59671C136.934 9.30515 137.18 8.89977 137.276 8.44804C137.318 8.25883 137.337 8.06518 137.333 7.87133L137.328 6.59026Z" fill="#1D1D1B"/>
<path d="M151.253 10.6448C150.399 11.0041 149.479 11.1782 148.554 11.1555C145.676 11.1555 143.533 9.30654 143.533 5.93876C143.533 2.72507 145.697 0.550317 148.865 0.550317C149.697 0.511857 150.526 0.662333 151.292 0.99055L150.972 2.07352C150.327 1.77609 149.623 1.62576 148.913 1.63329C146.517 1.63329 144.926 3.1697 144.926 5.86833C144.926 8.37765 146.363 9.9933 148.869 9.9933C149.609 10.0003 150.342 9.85029 151.02 9.55307L151.253 10.6448Z" fill="#1D1D1B"/>
<path d="M152.829 5.90794C152.829 5.02747 152.829 4.29669 152.768 3.60992H153.937L153.981 5.05389H154.047C154.171 4.6038 154.435 4.2051 154.799 3.91545C155.164 3.62579 155.611 3.4602 156.075 3.44264C156.204 3.44023 156.332 3.45504 156.456 3.48666V4.75013C156.312 4.71917 156.166 4.7044 156.018 4.7061C155.081 4.7061 154.415 5.41928 154.231 6.42741C154.193 6.63367 154.172 6.8428 154.17 7.05254V10.9794H152.855L152.829 5.90794Z" fill="#1D1D1B"/>
<path d="M164.229 7.23303C164.229 9.95807 162.349 11.1467 160.575 11.1467C158.591 11.1467 157.07 9.68512 157.07 7.35629C157.07 4.88659 158.678 3.44263 160.711 3.44263C162.809 3.44263 164.229 4.99224 164.229 7.23303ZM158.428 7.30787C158.428 8.92352 159.353 10.143 160.658 10.143C161.964 10.143 162.884 8.94113 162.884 7.28145C162.884 6.03119 162.266 4.44636 160.693 4.44636C159.121 4.44636 158.428 5.90793 158.428 7.30787Z" fill="#1D1D1B"/>
<path d="M165.652 9.61029C166.179 9.94074 166.783 10.1246 167.404 10.143C168.377 10.143 168.832 9.65431 168.832 9.04679C168.832 8.43927 168.451 8.05627 167.466 7.69088C166.151 7.21983 165.529 6.48904 165.529 5.60418C165.529 4.41555 166.48 3.44264 168.057 3.44264C168.686 3.42989 169.308 3.58158 169.862 3.88287L169.529 4.85578C169.079 4.57065 168.558 4.41813 168.026 4.41555C167.238 4.41555 166.8 4.85578 166.8 5.41928C166.8 5.98278 167.238 6.29974 168.193 6.66954C169.468 7.1582 170.12 7.79654 170.12 8.8707C170.12 10.165 169.117 11.0719 167.378 11.0719C166.659 11.085 165.948 10.9122 165.314 10.57L165.652 9.61029Z" fill="#1D1D1B"/>
<path d="M171.654 9.61029C172.181 9.94074 172.785 10.1246 173.406 10.143C174.379 10.143 174.834 9.65431 174.834 9.04679C174.834 8.43927 174.453 8.05627 173.468 7.69088C172.153 7.21983 171.531 6.48904 171.531 5.60418C171.531 4.41555 172.482 3.44264 174.059 3.44264C174.688 3.42989 175.31 3.58158 175.864 3.88287L175.531 4.85578C175.081 4.57065 174.56 4.41813 174.028 4.41555C173.24 4.41555 172.802 4.85578 172.802 5.41928C172.802 5.98278 173.24 6.29974 174.195 6.66954C175.47 7.1582 176.122 7.79654 176.122 8.8707C176.122 10.165 175.119 11.0719 173.38 11.0719C172.661 11.085 171.95 10.9122 171.316 10.57L171.654 9.61029Z" fill="#1D1D1B"/>
<path d="M179.264 1.49243V3.60995H181.174V4.63129H179.264V8.59338C179.264 9.50906 179.522 10.0285 180.263 10.0285C180.524 10.0313 180.785 10.0003 181.038 9.93609L181.095 10.9398C180.717 11.074 180.318 11.1367 179.917 11.1247C179.65 11.1406 179.384 11.0985 179.135 11.0013C178.886 10.904 178.661 10.7539 178.475 10.5612C178.099 10.165 177.958 9.50906 177.958 8.64181V4.63129H176.828V3.60995H177.963V1.84902L179.264 1.49243Z" fill="#1D1D1B"/>
<path d="M183.128 7.53679C183.159 9.35055 184.311 10.0945 185.643 10.0945C186.339 10.1162 187.033 9.9871 187.675 9.71595L187.903 10.6757C187.129 10.9923 186.298 11.1423 185.463 11.1159C183.202 11.1159 181.857 9.6235 181.857 7.40032C181.857 5.17715 183.172 3.43823 185.297 3.43823C187.689 3.43823 188.328 5.55575 188.328 6.90726C188.327 7.11651 188.311 7.3254 188.28 7.53239L183.128 7.53679ZM187.04 6.57709C187.04 5.72744 186.69 4.40234 185.191 4.40234C183.842 4.40234 183.251 5.6482 183.145 6.57709H187.04Z" fill="#1D1D1B"/>
<path d="M190.055 3.60986L191.102 5.1947C191.374 5.60411 191.602 5.98271 191.843 6.39653H191.891C192.132 5.9563 192.377 5.5733 192.618 5.17709L193.648 3.60986H195.089L192.601 7.19335L195.177 11.0014H193.661L192.583 9.34169C192.298 8.90145 192.053 8.50525 191.799 8.06061H191.768C191.523 8.50084 191.269 8.90145 190.993 9.34169L189.933 11.0014H188.465L191.093 7.24178L188.605 3.63187L190.055 3.60986Z" fill="#1D1D1B"/>
<path d="M203.728 10.9793L203.622 10.0504H203.574C203.315 10.4012 202.977 10.6846 202.586 10.8769C202.196 11.0691 201.766 11.1646 201.331 11.1554C201.043 11.1767 200.753 11.1376 200.48 11.0406C200.207 10.9435 199.958 10.7907 199.747 10.5916C199.536 10.3925 199.369 10.1517 199.255 9.88421C199.142 9.61675 199.085 9.32855 199.088 9.03785C199.088 7.27692 200.665 6.282 203.5 6.29961V6.13672C203.5 5.5292 203.333 4.43302 201.831 4.43302C201.156 4.43861 200.496 4.63215 199.925 4.99212L199.618 4.11165C200.345 3.67185 201.179 3.44467 202.028 3.45571C204.271 3.45571 204.818 4.99212 204.818 6.4713V9.22715C204.809 9.81658 204.85 10.4057 204.941 10.9881L203.728 10.9793ZM203.552 7.21969C202.098 7.18888 200.446 7.44861 200.446 8.87937C200.432 9.04937 200.456 9.22034 200.514 9.38057C200.572 9.5408 200.664 9.68651 200.783 9.80774C200.903 9.92897 201.047 10.0229 201.205 10.083C201.364 10.1431 201.534 10.168 201.704 10.156C202.087 10.1617 202.463 10.0457 202.778 9.82439C203.093 9.60311 203.33 9.28785 203.456 8.92339C203.503 8.78138 203.528 8.63288 203.53 8.48316L203.552 7.21969Z" fill="#1D1D1B"/>
<path d="M206.94 5.90788C206.94 5.02742 206.94 4.29663 206.883 3.60987H208.048L208.092 5.05383H208.153C208.278 4.60305 208.542 4.20384 208.907 3.91412C209.273 3.6244 209.721 3.45923 210.186 3.44258C210.313 3.44046 210.44 3.45527 210.563 3.48661V4.75007C210.419 4.71912 210.272 4.70435 210.125 4.70605C209.187 4.70605 208.521 5.41922 208.337 6.42736C208.299 6.63362 208.279 6.84274 208.276 7.05249V10.9794H206.962L206.94 5.90788Z" fill="#1D1D1B"/>
<path d="M212.46 7.5368C212.491 9.35055 213.639 10.0945 214.975 10.0945C215.671 10.1163 216.362 9.98714 217.004 9.71595L217.231 10.6757C216.458 10.9927 215.626 11.1427 214.791 11.1159C212.535 11.1159 211.186 9.6235 211.186 7.40032C211.186 5.17715 212.5 3.43823 214.625 3.43823C217.021 3.43823 217.656 5.55575 217.656 6.90726C217.654 7.1163 217.639 7.32502 217.613 7.53239L212.46 7.5368ZM216.368 6.57709C216.368 5.72744 216.022 4.40234 214.52 4.40234C213.17 4.40234 212.579 5.6482 212.474 6.57709H216.368Z" fill="#1D1D1B"/>
<path d="M222.522 5.60423C222.522 4.84262 222.522 4.21749 222.461 3.60997H223.644L223.718 4.82942H223.749C223.989 4.39755 224.342 4.03997 224.77 3.7955C225.198 3.55103 225.684 3.42901 226.176 3.44269C227.188 3.44269 228.765 4.05021 228.765 6.57714V10.9795H227.451V6.75323C227.451 5.5646 227.013 4.55207 225.751 4.55207C225.241 4.57378 224.76 4.79413 224.409 5.16641C224.058 5.53869 223.866 6.03363 223.872 6.54632V10.9795H222.557L222.522 5.60423Z" fill="#1D1D1B"/>
<path d="M237.51 7.23303C237.51 9.95807 235.63 11.1467 233.86 11.1467C231.876 11.1467 230.355 9.68512 230.355 7.35629C230.355 4.88659 231.963 3.44263 233.992 3.44263C236.086 3.44263 237.51 4.99224 237.51 7.23303ZM231.692 7.30787C231.692 8.92352 232.616 10.143 233.922 10.143C235.227 10.143 236.147 8.94113 236.147 7.28145C236.147 6.03119 235.525 4.44636 233.957 4.44636C232.388 4.44636 231.692 5.90793 231.692 7.30787Z" fill="#1D1D1B"/>
<path d="M239.365 3.60986L240.355 7.35624C240.565 8.17947 240.766 8.94108 240.902 9.70268H240.946C241.113 8.95428 241.354 8.16187 241.599 7.36945L242.795 3.60986H243.916L245.051 7.29461C245.327 8.17507 245.537 8.95428 245.704 9.70268H245.752C245.892 8.89406 246.079 8.09439 246.313 7.30781L247.356 3.60986H248.67L246.291 10.9794H245.077L243.956 7.45749C243.698 6.66186 243.48 5.85375 243.303 5.03622H243.272C243.1 5.8605 242.877 6.67348 242.607 7.4707L241.424 10.9926H240.21L238.02 3.62307L239.365 3.60986Z" fill="#1D1D1B"/>
<path d="M253.2 6.01348C253.2 5.07138 253.173 4.30978 253.143 3.60981H254.339L254.4 4.87328H254.431C254.696 4.41578 255.082 4.0404 255.546 3.78809C256.009 3.53579 256.533 3.41625 257.059 3.44252C258.812 3.44252 260.165 4.94812 260.165 7.1889C260.165 9.8303 258.558 11.151 256.831 11.151C256.387 11.1705 255.946 11.0741 255.549 10.8712C255.153 10.6683 254.816 10.3658 254.571 9.99318H254.54V13.9993H253.226L253.2 6.01348ZM254.514 7.98132C254.517 8.1648 254.538 8.34755 254.575 8.52721C254.686 8.97343 254.942 9.36975 255.302 9.65357C255.662 9.93739 256.106 10.0925 256.564 10.0944C257.975 10.0944 258.79 8.94103 258.79 7.25054C258.79 5.77135 258.019 4.50789 256.599 4.50789C256.128 4.52196 255.675 4.69243 255.31 4.99269C254.946 5.29294 254.69 5.70607 254.584 6.16756C254.531 6.34645 254.5 6.5313 254.492 6.71785L254.514 7.98132Z" fill="#1D1D1B"/>
<path d="M261.821 5.90794C261.821 5.02747 261.821 4.29669 261.76 3.60992H262.93L262.973 5.05389H263.035C263.159 4.6038 263.422 4.2051 263.787 3.91545C264.152 3.62579 264.599 3.4602 265.063 3.44264C265.192 3.44023 265.32 3.45504 265.444 3.48666V4.75013C265.3 4.71938 265.153 4.70462 265.006 4.7061C264.069 4.7061 263.398 5.41928 263.219 6.42741C263.181 6.63367 263.16 6.8428 263.157 7.05254V10.9794H261.843L261.821 5.90794Z" fill="#1D1D1B"/>
<path d="M273.213 7.23303C273.213 9.95807 271.333 11.1467 269.563 11.1467C267.579 11.1467 266.059 9.68512 266.059 7.35629C266.059 4.88659 267.666 3.44263 269.695 3.44263C271.798 3.44263 273.213 4.99224 273.213 7.23303ZM267.395 7.30787C267.395 8.92352 268.319 10.143 269.625 10.143C270.93 10.143 271.85 8.94113 271.85 7.28145C271.85 6.03119 271.228 4.44636 269.66 4.44636C268.091 4.44636 267.404 5.90793 267.404 7.30787H267.395Z" fill="#1D1D1B"/>
<path d="M280.984 8.95428C280.984 9.71588 280.984 10.3894 281.046 10.9661H279.863L279.784 9.77752H279.753C279.507 10.2023 279.153 10.5538 278.728 10.7959C278.302 11.038 277.82 11.1621 277.331 11.1554C276.178 11.1554 274.803 10.5171 274.803 7.92854V3.60986H276.117V7.69082C276.117 9.09075 276.555 10.0373 277.751 10.0373C278.13 10.0291 278.498 9.90918 278.81 9.69235C279.121 9.47552 279.363 9.17139 279.504 8.81781C279.583 8.59769 279.623 8.36519 279.622 8.13105V3.60986H280.936L280.984 8.95428Z" fill="#1D1D1B"/>
<path d="M289.531 0.149658V9.07757C289.531 9.72911 289.531 10.4775 289.592 10.9794H288.396L288.335 9.7027H288.304C288.066 10.1568 287.704 10.5341 287.262 10.791C286.819 11.048 286.314 11.1743 285.803 11.1555C284.05 11.1555 282.666 9.64987 282.666 7.40909C282.666 4.957 284.169 3.447 285.956 3.447C286.388 3.4239 286.818 3.51599 287.203 3.71393C287.587 3.91188 287.913 4.20861 288.147 4.57399H288.177V0.149658H289.531ZM288.217 6.59026C288.218 6.40068 288.197 6.21159 288.155 6.02676C288.06 5.5857 287.817 5.19081 287.467 4.90799C287.117 4.62517 286.681 4.47154 286.232 4.47274C284.852 4.47274 284.042 5.69218 284.042 7.32104C284.042 8.81343 284.769 10.0505 286.232 10.0505C286.691 10.049 287.136 9.88903 287.492 9.59728C287.848 9.30554 288.093 8.89979 288.186 8.44804C288.23 8.25902 288.25 8.06536 288.247 7.87134L288.217 6.59026Z" fill="#1D1D1B"/>
<path d="M294.96 5.60427C294.96 4.84267 294.96 4.21754 294.898 3.61002H296.064L296.125 4.79865H296.173C296.392 4.37936 296.724 4.03011 297.131 3.79047C297.537 3.55082 298.002 3.43036 298.473 3.44273C298.93 3.4369 299.377 3.57643 299.75 3.84133C300.123 4.10624 300.403 4.48294 300.55 4.91751H300.581C300.785 4.54414 301.064 4.21736 301.4 3.9578C301.864 3.60122 302.437 3.419 303.021 3.44273C303.994 3.44273 305.43 4.08107 305.43 6.63882V10.9795H304.116V6.8061C304.116 5.39296 303.599 4.53891 302.521 4.53891C302.166 4.55464 301.825 4.68022 301.543 4.89849C301.261 5.11676 301.054 5.41706 300.949 5.75835C300.879 5.97443 300.843 6.20028 300.844 6.42751V10.9795H299.529V6.57718C299.529 5.40617 299.012 4.55212 298 4.55212C297.622 4.57219 297.26 4.71022 296.964 4.94696C296.668 5.1837 296.453 5.50735 296.349 5.87281C296.272 6.08265 296.234 6.30515 296.239 6.52876V10.9795H294.925L294.96 5.60427Z" fill="#1D1D1B"/>
<path d="M308.325 7.53679C308.356 9.35055 309.508 10.0945 310.844 10.0945C311.54 10.1163 312.232 9.98714 312.873 9.71595L313.101 10.6757C312.327 10.9923 311.495 11.1423 310.66 11.1159C308.404 11.1159 307.055 9.6235 307.055 7.40032C307.055 5.17715 308.369 3.43823 310.494 3.43823C312.89 3.43823 313.526 5.55575 313.526 6.90726C313.523 7.1163 313.508 7.32502 313.482 7.53239L308.325 7.53679ZM312.238 6.57709C312.238 5.72744 311.887 4.40234 310.389 4.40234C309.039 4.40234 308.448 5.6482 308.343 6.57709H312.238Z" fill="#1D1D1B"/>
<path d="M315.118 5.60414C315.118 4.84254 315.118 4.21741 315.061 3.60989H316.226L316.287 4.79852H316.331C316.551 4.37888 316.883 4.02946 317.291 3.78983C317.698 3.5502 318.164 3.42992 318.635 3.4426C319.091 3.44076 319.536 3.58185 319.909 3.8462C320.281 4.11056 320.562 4.48501 320.712 4.91738H320.743C320.946 4.54443 321.223 4.21768 321.558 3.95767C322.024 3.60177 322.598 3.41969 323.183 3.4426C324.151 3.4426 325.593 4.08094 325.593 6.63869V10.9794H324.278V6.80597C324.278 5.39283 323.766 4.53878 322.688 4.53878C322.332 4.55362 321.989 4.67879 321.707 4.89713C321.425 5.11546 321.216 5.41625 321.111 5.75822C321.041 5.9743 321.005 6.20015 321.006 6.42737V10.9794H319.691V6.57705C319.691 5.40604 319.174 4.55199 318.158 4.55199C317.78 4.5727 317.418 4.71097 317.122 4.94761C316.827 5.18425 316.611 5.50755 316.506 5.87268C316.433 6.08332 316.397 6.30544 316.401 6.52863V10.9794H315.087L315.118 5.60414Z" fill="#1D1D1B"/>
<path d="M327.713 10.9794C327.744 10.4775 327.774 9.72911 327.774 9.07757V0.149658H329.089V4.79851H329.119C329.372 4.36342 329.739 4.00671 330.181 3.76752C330.622 3.52834 331.12 3.41592 331.621 3.4426C333.439 3.4426 334.727 4.9658 334.714 7.20218C334.714 9.84358 333.062 11.1643 331.424 11.1643C330.926 11.1906 330.431 11.0742 329.997 10.8287C329.562 10.5832 329.206 10.2186 328.97 9.77754H328.922L328.852 10.9794H327.713ZM329.093 8.02541C329.097 8.18993 329.118 8.3536 329.154 8.51407C329.266 8.96248 329.524 9.36045 329.886 9.64449C330.249 9.92854 330.696 10.0823 331.156 10.0813C332.55 10.0813 333.382 8.9411 333.382 7.25061C333.382 5.77143 332.624 4.50796 331.191 4.50796C330.719 4.51691 330.264 4.68362 329.896 4.98177C329.529 5.27992 329.271 5.69252 329.163 6.15443C329.117 6.33302 329.091 6.51604 329.084 6.70032L329.093 8.02541Z" fill="#1D1D1B"/>
<path d="M337.11 7.53676C337.141 9.35052 338.293 10.0945 339.629 10.0945C340.324 10.1162 341.016 9.98711 341.657 9.71591L341.885 10.6756C341.112 10.9927 340.28 11.1427 339.445 11.1159C337.176 11.1555 335.861 9.64108 335.861 7.4179C335.861 5.19473 337.176 3.45581 339.3 3.45581C341.697 3.45581 342.332 5.57333 342.332 6.92484C342.329 7.13388 342.315 7.3426 342.288 7.54997L337.11 7.53676ZM341.022 6.57706C341.022 5.72741 340.672 4.40231 339.173 4.40231C337.824 4.40231 337.233 5.64817 337.127 6.57706H341.022Z" fill="#1D1D1B"/>
<path d="M343.901 5.90788C343.901 5.02742 343.901 4.29663 343.844 3.60987H345.009L345.053 5.05383H345.114C345.239 4.60305 345.503 4.20384 345.868 3.91412C346.234 3.6244 346.682 3.45923 347.147 3.44258C347.274 3.44046 347.401 3.45527 347.524 3.48661V4.75007C347.38 4.71912 347.233 4.70435 347.086 4.70605C346.148 4.70605 345.482 5.41922 345.298 6.42736C345.26 6.63362 345.24 6.84274 345.237 7.05249V10.9794H343.923L343.901 5.90788Z" fill="#1D1D1B"/>
<path d="M348.566 9.61023C349.093 9.94067 349.697 10.1245 350.318 10.1429C351.291 10.1429 351.742 9.65425 351.742 9.04673C351.742 8.43921 351.365 8.0562 350.38 7.69081C349.065 7.21976 348.439 6.48898 348.439 5.60411C348.439 4.41548 349.394 3.44257 350.971 3.44257C351.6 3.43043 352.222 3.58208 352.776 3.8828L352.443 4.85572C351.993 4.57059 351.472 4.41806 350.94 4.41548C350.152 4.41548 349.714 4.85572 349.714 5.41921C349.714 5.98271 350.152 6.29968 351.107 6.66947C352.382 7.15813 353.03 7.79647 353.03 8.87064C353.03 10.1649 352.031 11.0718 350.288 11.0718C349.57 11.0844 348.861 10.9116 348.229 10.5699L348.566 9.61023Z" fill="#1D1D1B"/>
<path d="M364.606 7.23303C364.606 9.95807 362.726 11.1467 360.952 11.1467C358.967 11.1467 357.447 9.68512 357.447 7.35629C357.447 4.88659 359.055 3.44263 361.084 3.44263C363.182 3.44263 364.606 4.99224 364.606 7.23303ZM358.788 7.30787C358.788 8.92352 359.712 10.143 361.013 10.143C362.315 10.143 363.243 8.94113 363.243 7.28145C363.243 6.03119 362.621 4.44636 361.053 4.44636C359.484 4.44636 358.788 5.90793 358.788 7.30787Z" fill="#1D1D1B"/>
<path d="M366.09 10.9794V4.63123H365.061V3.60989H366.09V3.2577C366.09 2.22316 366.318 1.28106 366.936 0.686743C367.422 0.233436 368.064 -0.0127368 368.727 -1.89428e-05C369.116 -0.00121454 369.5 0.0704521 369.862 0.211292L369.683 1.25024C369.415 1.13242 369.125 1.07531 368.833 1.08295C367.694 1.08295 367.409 2.08668 367.409 3.21368V3.60989H369.183V4.63123H367.409V10.9794H366.09Z" fill="#1D1D1B"/>
</g>
<defs>
<clipPath id="clip0_736_7069">
<rect width="396" height="72" fill="white"/>
</clipPath>
</defs>
</svg>
