<svg width="225" height="61" viewBox="0 0 225 61" fill="none" xmlns="http://www.w3.org/2000/svg">
<path d="M215.943 27.0152V17.067H206.072V27.0152H200.643V3.43799H206.072V12.7893H215.943V3.43799H221.372V27.0152H215.943Z" fill="black"/>
<path d="M99.4648 3.43799V18.1613C99.4648 19.753 99.6623 21.2453 100.156 22.3396C100.649 23.4339 101.34 24.4287 102.13 25.1251C103.018 25.8215 104.104 26.4184 105.289 26.7168C106.473 27.0152 107.855 27.2142 109.435 27.2142C110.915 27.2142 112.297 27.0152 113.482 26.7168C114.666 26.4184 115.653 25.8215 116.443 25.1251C117.233 24.4287 117.924 23.4339 118.319 22.3396C118.812 21.1458 119.01 19.753 119.01 18.1613V3.43799H113.975V18.0619C113.975 19.5541 113.58 20.7479 112.889 21.6432C112.199 22.5385 111.014 23.036 109.435 23.036C107.855 23.036 106.671 22.5385 105.98 21.6432C105.289 20.7479 104.894 19.5541 104.894 18.0619V3.43799H99.4648Z" fill="black"/>
<path d="M83.8683 27.0152V7.8152H77.5508V3.43799H95.7135V5.52711C95.7135 6.82038 94.7264 7.8152 93.4432 7.8152H89.2973V27.0152H83.8683Z" fill="black"/>
<path d="M170.734 3.43799H176.163V27.0152H170.734V3.43799Z" fill="black"/>
<path d="M152.769 15.9727L152.966 16.1717L159.876 25.1251C160.764 26.2194 162.048 26.9158 163.528 26.9158H167.872L158.001 14.1821L157.902 13.9831L158.001 13.7841L166.095 3.43799H160.468L152.966 13.5852L152.769 13.7841V13.3862V3.43799H147.34V27.0152H152.769V16.3707V15.9727Z" fill="black"/>
<path d="M140.33 27.0152C138.751 27.0152 137.171 26.1199 136.382 24.8266L132.137 17.8629H129.472V27.1147H124.043V3.43799H133.717C136.184 3.43799 138.159 4.13436 139.442 5.32815C140.824 6.62142 141.515 8.41209 141.515 10.5012C141.515 11.5955 141.219 12.6898 140.626 13.7841C140.034 14.8784 139.047 15.7738 137.665 16.4701L137.369 16.5696L143.982 26.9158H140.33V27.0152ZM129.472 14.1821H132.631C133.717 14.1821 134.605 13.8836 135.197 13.2867C135.79 12.6898 136.086 11.894 136.086 10.8991C136.086 9.90432 135.79 9.10847 135.296 8.51158C134.704 7.91468 133.914 7.61624 132.729 7.61624H129.571V14.1821H129.472Z" fill="black"/>
<path d="M180.605 26.0204V21.5437C182.284 22.3396 184.554 23.1354 186.824 23.1354C189.489 23.1354 190.773 22.2401 190.773 20.4494C190.773 18.3603 188.996 18.1613 185.344 16.5696C182.876 15.4753 180.605 13.7841 180.605 9.80482C180.605 5.22864 184.06 3.04004 188.897 3.04004C191.464 3.04004 193.635 3.63693 194.82 4.13434V8.51155C193.635 7.91466 191.464 7.21829 189.193 7.21829C186.824 7.21829 185.738 8.11363 185.738 9.60586C185.738 11.1976 187.12 11.695 189.489 12.5903C192.549 14.182 196.202 14.8784 196.202 20.151C196.202 24.7271 192.549 27.2142 187.713 27.2142C184.85 27.3137 182.481 26.8163 180.605 26.0204Z" fill="black"/>
<path d="M189.094 57.7552V34.178H203.703V36.2671C203.703 37.5604 202.716 38.5552 201.433 38.5552H194.424V43.6288H202.321V47.6081H194.424V53.378H203.703V57.7552H189.094Z" fill="black"/>
<path d="M135.594 57.7552V34.178H138.259C139.838 34.178 141.023 35.4712 141.023 36.9635V53.4775H149.611V57.7552H135.594Z" fill="black"/>
<path d="M102.131 57.7552V34.178H107.56V57.7552H102.131Z" fill="black"/>
<path d="M128.684 57.7552C127.104 57.7552 125.525 56.8599 124.735 55.5666L120.491 48.6029H117.826V57.8547H112.396V34.178H122.07C124.538 34.178 126.512 34.8744 127.795 36.0681C129.177 37.3614 129.868 39.1521 129.868 41.2412C129.868 42.3355 129.572 43.4298 128.98 44.6236C128.388 45.7179 127.4 46.6132 126.019 47.3096L125.722 47.4091L132.336 57.7552H128.684ZM117.924 44.922H121.083C122.268 44.922 123.057 44.6236 123.649 44.0267C124.242 43.4298 124.538 42.634 124.538 41.6391C124.538 40.6443 124.242 39.8485 123.748 39.2516C123.156 38.6547 122.366 38.3562 121.182 38.3562H118.023L117.924 44.922Z" fill="black"/>
<path d="M90.2853 34.178H84.0665L75.2812 57.7552H79.131C80.1181 57.7552 81.0065 57.1583 81.3026 56.1635L82.191 53.378H91.6672L93.0491 57.7552H98.8731L90.2853 34.178ZM83.5729 49.1998L85.6459 43.2308C86.1394 41.9376 86.633 40.4453 86.9291 39.4505H87.0278C87.3239 40.5448 87.8175 41.8381 88.2123 43.2308L90.2853 49.1998H83.5729Z" fill="black"/>
<path d="M208.047 56.7604V52.2837C209.725 53.0796 211.995 53.8754 214.266 53.8754C216.931 53.8754 218.214 52.9801 218.214 51.1894C218.214 49.1003 216.437 48.9013 212.785 47.3096C210.317 46.2153 208.047 44.5241 208.047 40.5448C208.047 35.9686 211.502 33.78 216.339 33.78C218.905 33.78 221.077 34.3769 222.261 34.8743V39.2515C221.077 38.6547 218.905 37.9583 216.635 37.9583C214.266 37.9583 213.18 38.8536 213.18 40.3458C213.18 41.9376 214.562 42.435 216.931 43.3303C219.991 44.922 223.643 45.6184 223.643 50.8909C223.643 55.4671 219.991 57.9542 215.154 57.9542C212.291 58.0537 209.922 57.5562 208.047 56.7604Z" fill="black"/>
<path d="M163.529 34.178H166.885C168.465 34.178 169.945 34.9738 170.834 36.3666L177.349 46.9117C178.04 48.1055 178.928 49.5977 179.422 50.692H179.52C179.422 49.5977 179.422 48.205 179.422 47.1107V34.178H184.16V57.7552H178.237L170.34 45.0215C169.649 43.8277 168.86 42.435 168.267 41.3407H168.169C168.169 42.3355 168.267 43.5293 168.267 44.7231V57.7552H163.529V34.178Z" fill="black"/>
<path d="M153.164 34.178H158.593V57.7552H153.164V34.178Z" fill="black"/>
<path d="M34.6119 0.652333C49.6159 2.24405 61.3625 14.9778 61.3625 30.5964C61.3625 47.2099 48.0365 60.64 31.5519 60.64C15.0672 60.64 1.64258 47.2099 1.64258 30.5964C1.64258 13.9829 14.9685 0.453369 31.5519 0.453369C32.539 0.453369 33.6248 0.552851 34.6119 0.652333ZM36.1913 58.5509C51.4914 55.9644 61.856 41.3405 59.2895 25.8213C57.1179 12.9881 46.7533 3.6368 34.5132 2.34353C32.0454 2.04508 29.479 2.14456 26.9125 2.54249C23.8524 3.0399 20.9898 4.03472 18.4234 5.42747C31.848 10.1031 39.1526 17.1664 39.6461 24.3291C39.9423 28.8058 37.8693 31.9892 35.1055 34.5757L54.2553 33.2825C54.7488 33.2825 54.9463 33.8793 54.354 34.0783L8.65103 47.2099C13.2904 53.6763 20.4963 57.954 28.4918 58.7499C31.0583 59.0483 33.6248 59.0483 36.1913 58.5509ZM23.655 31.1933C26.1228 21.7425 23.2602 11.7943 16.4492 6.52178C7.17037 12.4907 1.74129 23.6327 3.7155 35.2721C4.30776 39.1519 5.68971 42.6338 7.66392 45.7177C14.9685 43.7281 21.3847 39.8483 23.655 31.1933Z" fill="white"/>
<path d="M36.192 58.5508C51.4921 55.9643 61.8567 41.3404 59.2902 25.8212C57.1186 12.988 46.754 3.63672 34.5139 2.34345C32.0461 2.04501 29.4796 2.14449 26.9132 2.54242C23.8531 3.03983 20.9905 4.03465 18.4241 5.4274C31.8487 10.1031 39.1533 17.1663 39.6468 24.329C39.943 28.8057 37.87 31.9891 35.1061 34.5756L54.256 33.2824C54.7495 33.2824 54.947 33.8793 54.3547 34.0782L8.65172 47.2099C13.2911 53.6762 20.497 57.9539 28.4925 58.7498C31.059 59.0482 33.6255 59.0482 36.192 58.5508ZM23.6557 31.1933C26.1235 21.7425 23.2609 11.7943 16.4499 6.5217C7.17107 12.4906 1.74199 23.6326 3.7162 35.272C4.30846 39.1518 5.69041 42.6337 7.66462 45.7176C14.9692 43.728 21.3854 39.8482 23.6557 31.1933Z" fill="#C70A0C"/>
</svg>
