<svg width="495" height="71" viewBox="0 0 495 71" fill="none" xmlns="http://www.w3.org/2000/svg">
<g clip-path="url(#clip0_736_7022)">
<path d="M41.4303 65.971C41.5502 67.4051 42.1205 68.7802 42.0524 70.7218C41.2975 69.1567 41.2586 67.8831 40.9962 66.6716C40.7791 65.6665 40.4194 64.6515 40.4194 63.6398C40.4194 60.657 38.7055 59.2 36.0098 58.3586V71.0001C35.3099 70.7119 35.5011 70.2306 35.4978 69.8738C35.4622 66.8321 35.2516 63.7707 35.4978 60.7487C35.6955 58.2374 34.7883 56.8623 32.3679 56.3122C32.1282 56.6167 32.2157 57.2781 31.6422 57.4484C31.694 55.8342 29.8634 54.0007 28.2466 54.1546C27.7217 54.2069 27.4885 54.6882 27.3815 55.1826C27.2746 55.677 27.4528 56.3384 27.8125 56.4137C28.2563 56.5054 28.1365 56.7902 28.0814 56.9802C26.7173 61.0728 27.7768 65.2801 27.4917 69.4219C27.4787 69.5756 27.4527 69.7279 27.4139 69.877C27.4139 69.9065 27.3394 69.9229 27.0413 70.0866C26.983 67.1922 27.1191 64.4092 26.7724 61.361C26.1698 62.6706 25.6805 63.7216 25.1913 64.7759V64.7432C25.3597 61.8161 27.644 59.259 26.6493 56.0175C23.3315 59.1607 21.7892 63.404 19.4013 67.1824L16.5695 65.5715C17.4832 63.9083 18.358 62.3137 19.2393 60.7225C20.733 58.0279 22.2428 55.3398 23.717 52.6321C23.9212 52.2556 24.4428 51.8823 23.9925 51.3224L24.3165 50.995C25.6676 49.9833 25.8717 48.212 27.0024 46.9481L29.7306 48.5263C29.1603 50.0946 27.9615 51.2602 27.5824 53.1396C29.5264 52.141 29.6917 50.422 30.3915 48.8177C30.7512 49.3121 31.2987 49.0403 31.8009 49.299C30.9164 50.72 29.4552 51.7841 29.358 53.6634C30.006 54.279 30.8613 54.6195 31.8366 55.1204C32.1606 53.2804 32.4619 51.5189 32.7632 49.7868C33.3724 50.8509 32.9188 51.8692 32.7632 52.8645C32.2967 55.7687 32.2578 55.7622 35.2872 56.9179V49.6362C36.0551 49.6952 35.8024 50.1994 35.8089 50.4908C35.8445 51.6858 35.8089 52.8809 35.8089 54.076C35.8089 57.7332 35.8089 57.7332 39.4571 59.331C39.0052 56.0214 38.3022 52.7518 37.3544 49.5511L40.6203 48.6114C41.8127 51.974 42.9305 55.3824 45.5581 57.9493L45.286 58.2243C44.868 58.0148 44.7546 57.4025 44.1908 57.3763C44.8162 61.8783 47.4762 64.9822 51.5749 66.0528C52.0447 65.5617 50.8362 65.398 51.374 64.8676C51.9119 64.3372 51.698 63.9901 50.9884 63.8068C51.131 64.1702 51.2703 64.5369 51.4129 64.9036C51.2152 65.1361 51.0435 64.9986 50.9107 64.8414C49.1827 62.8027 47.4654 60.7607 45.759 58.7155L46.0409 58.4339L50.8362 63.8231L51.306 63.4957C48.256 58.2723 45.2028 53.0413 42.1464 47.8027L42.5838 47.5506C45.6813 52.7892 48.7755 58.0279 52.103 63.6627C52.5145 61.1842 52.9746 59.1444 53.1431 57.0784C53.2273 56.0077 51.954 55.4839 51.4712 54.59L51.7661 54.3248C52.3979 54.6031 52.5501 55.474 53.3083 55.6345C53.4185 54.4721 51.212 51.9543 49.5952 51.4239L49.8253 52.0493L49.5337 52.3505L44.4144 46.493C44.7384 45.298 46.1608 45.3438 46.4718 44.2502C47.7678 44.725 48.4385 46.2344 49.9063 46.4341L50.9463 46.6371L50.2983 46.0412L47.0583 43.2909C47.3823 42.6361 47.7063 42.0435 48.0854 41.297C49.8415 42.1613 51.549 43.0093 53.2694 43.8443C53.7781 44.0931 54.2414 44.2535 53.9174 43.3499L54.1961 43.0683L55.1681 43.9949C55.2523 43.5037 55.7578 43.1076 55.2135 42.6852C54.7242 42.3054 54.209 41.9845 53.6744 42.6295L53.4379 42.8751C52.3136 41.1889 50.3631 41.0318 48.7301 40.3049C48.3575 39.2572 49.7022 38.5499 49.0736 37.4171C51.0176 37.3287 52.7413 37.8493 54.4715 38.1145C55.8517 38.324 56.5354 37.9541 56.4155 36.2973H49.7346C49.1967 35.744 49.4105 35.3151 49.4105 34.8109H56.4447C57.0117 34.2903 56.9436 33.7108 56.9339 33.1967C56.9177 32.0147 56.4738 31.4025 55.113 31.7364C53.1917 32.2079 51.225 32.5222 49.187 32.925C48.8435 31.8117 48.5163 30.7476 48.1437 29.546L51.5069 28.125C51.2412 27.4015 50.6385 27.1428 50.1428 26.7597C49.1125 27.0151 48.4061 27.9908 47.1976 27.8697L49.5628 26.2326L47.9655 24.9229L45.9729 26.4585C45.9729 25.3617 47.0421 25.2798 47.2268 24.494C46.9222 23.8228 46.1899 23.5707 45.6424 23.0141L44.4792 24.3238L40.7305 22.3167C40.7046 21.7274 41.1322 21.3967 41.291 20.9514C41.4498 20.5061 42.0427 20.1459 41.4984 19.6745C40.954 19.203 40.7661 20.051 40.3482 20.123H40.319C40.967 18.5089 39.5317 18.1585 38.6245 17.304C38.2195 17.8639 38.5597 18.7937 37.7756 18.941C38.4236 16.9504 37.2669 15.8666 35.4168 14.8778V21.0431H34.9017C34.9017 19.3863 34.9017 17.7296 34.9017 16.0729C34.9017 15.1136 35.041 14.0888 34.0042 13.4896L34.3282 13.1622C34.7656 13.3259 34.8757 13.1131 34.8725 12.7136C34.8725 11.6233 34.8725 10.533 34.8725 9.43946C34.2925 10.4217 33.0581 11.0765 33.4793 12.432L33.178 12.6972C31.4121 14.0069 31.1821 16.0794 32.5299 17.8344C33.0289 18.4892 33.9199 18.905 33.8778 20.0837C33.3011 19.8316 33.152 18.8756 32.2837 19.2848L32.8864 21.2231C32.4781 21.6553 31.9143 21.6422 31.4154 21.7928C30.9164 21.9434 30.398 22.1203 29.7954 22.3069L28.9108 19.7105C28.2985 20.8695 27.1353 21.7143 28.1559 23.1221C27.6083 23.4496 27.5403 22.7063 27.0284 22.9224C26.915 24.6544 25.1459 25.2143 24.1123 26.524L8.855 14.1379L8.45971 14.5995C12.5778 19.8644 16.5857 25.2503 23.5842 27.6274C22.1748 29.4609 21.5948 31.2486 21.1542 33.2851C17.791 32.6499 14.3242 32.3814 10.9902 31.3992C13.7701 31.1962 16.3913 32.3814 19.2199 31.9394L1.24091 27.002C1.0303 25.8069 1.43855 25.5057 2.53692 25.8102C6.99521 27.0413 11.4632 28.2265 15.928 29.4118C16.3978 29.5984 16.8546 29.8767 17.4281 29.6508C17.1333 29.1597 16.6635 29.1924 16.2779 29.0516C16.1127 28.8912 15.672 29.0746 15.7498 28.6162C17.3925 28.3804 18.6917 29.4216 20.2858 29.8276C20.1692 28.8683 19.4596 28.5409 18.7663 28.1905L4.47446 21.0594C4.15046 20.8924 3.82646 20.6993 3.50245 20.5225C3.37933 19.9364 3.69038 19.5861 4.06622 19.1768L8.18755 21.2068L8.36899 20.8793L4.48094 18.5351C4.45178 17.9686 4.73367 17.6183 5.16135 17.2614L12.8597 21.7012L13.242 21.2821L7.45206 14.4718C7.62702 13.8923 8.24587 14.7272 8.55691 14.0004C8.66707 13.7057 7.88946 13.6173 8.05471 12.7889L22.8844 24.8378L23.2343 24.4187C20.6066 21.3476 17.2208 19.0851 14.3598 16.5182C14.6838 15.0906 13.6535 14.737 12.8143 14.259L12.8435 14.3016C12.8694 13.5878 12.3251 13.4634 11.8715 13.1491C11.6123 13.7646 12.1728 13.853 12.257 14.1837L11.9849 14.5111L8.87768 11.9311C9.46736 11.4858 9.79785 12.2028 10.3001 11.8099C10.3001 11.2435 9.44792 10.2907 11.1036 10.0157C13.2841 12.2389 15.6332 14.6814 18.0599 17.0257C18.9672 17.9064 19.5957 19.144 20.9403 19.5238L20.9079 19.4813C20.7395 19.8938 20.8529 20.0182 21.2643 19.8414L21.2319 19.8054C21.0667 20.2147 21.1801 20.3424 21.5916 20.1656L21.5559 20.1296C21.3875 20.5421 21.5041 20.6698 21.9156 20.493L21.8897 20.457C21.7309 21.1446 22.3206 21.2919 22.6997 21.5931L22.7807 21.2068L23.0658 20.9252L23.8337 21.58C25.1297 20.2704 25.3403 19.0687 24.2452 17.3793C21.9545 13.8366 19.91 10.15 17.7878 6.47963C17.5351 6.04416 17.0653 5.66764 17.2532 4.5315C20.1368 9.41327 22.8163 13.9447 25.4958 18.4761C26.7368 12.5204 25.2949 7.37347 21.3842 2.85841C21.8475 2.83877 22.6414 3.78827 22.8098 2.43605C23.5226 3.20547 23.3412 4.36452 24.4299 4.83273C24.8932 3.71952 23.8628 2.82567 24.2193 1.71901L27.1353 0.867729C27.8351 3.32662 28.4993 5.64799 29.277 8.37209C29.601 5.45482 28.3438 3.13344 28.7294 0.618893L30.4563 9.33469C32.031 6.30282 34.8271 3.91269 34.8077 0.16706C36.3046 0.0688353 37.8922 -0.268402 39.5738 0.370057C38.3847 2.53427 37.2312 4.66575 36.0389 6.77757C34.7656 9.03674 35.3391 11.4596 35.5173 13.7843C35.595 14.7665 37.0142 15.2052 37.9343 16.0565C38.7152 14.3081 38.3588 12.3698 39.4377 10.8604C39.2627 12.0653 39.2303 13.3161 38.8772 14.462C38.294 16.3676 39.1072 17.3891 40.8018 18.188L43.1897 11.4596C43.5882 14.3441 40.9962 16.5345 41.6895 19.2226L42.182 19.3372L50.8686 3.72934C51.9336 4.07185 52.9189 4.62873 53.7652 5.36641C50.9658 10.4119 48.1761 15.4213 45.4123 20.4439C45.1434 20.935 44.395 21.4851 45.529 22.1825L57.1931 7.7238L57.5916 8.05122L45.9696 22.5623L47.8521 24.1404L56.4998 16.8489L56.7914 17.1173L48.3673 24.5562L50.146 25.9739C52.9487 24.2714 55.693 22.5721 58.4729 20.9416C59.2603 20.4766 59.0788 19.7432 59.2214 19.0917C59.3627 18.3143 59.5598 17.5483 59.8111 16.7998C60.3327 17.8213 59.5162 18.8428 59.8726 20.0444L65.4779 16.6983C65.2122 17.7624 64.48 17.8377 64.0264 18.1782C63.4384 18.6617 62.7834 19.0556 62.0823 19.347C59.432 20.29 58.8909 22.3593 59.027 25.0965C61.619 24.0749 64.1268 23.0763 66.6443 22.0941C67.6649 21.6946 67.6714 21.7077 68.2319 22.9748L64.7327 24.4907C64.4281 24.5857 64.0231 24.5529 64.0426 25.067C64.2196 25.1031 64.4021 25.1029 64.5791 25.0663C64.7561 25.0298 64.924 24.9576 65.0729 24.8542L68.5106 24.0029C69.0679 24.9851 69.2201 25.9674 69.4826 27.1101L61.687 29.402L61.781 29.8734L69.6608 28.3608C69.8455 29.0156 69.3983 28.9305 69.1294 28.9829C65.8149 29.6377 62.4938 30.2925 59.1825 30.9474C58.6965 31.0456 58.0355 30.9179 57.8184 31.5727C57.5592 32.3487 58.298 32.555 58.6771 32.961C60.0022 34.4081 61.5931 34.9582 63.563 34.8043C65.7565 34.6308 67.9727 34.7618 70.1695 34.7618C70.6101 35.1939 70.4935 35.6327 70.2699 36.1893C68.2449 36.1893 66.2069 36.1664 64.1722 36.2122C63.8093 36.2122 63.1224 35.7898 63.09 36.6837L62.8081 36.9882C61.12 35.4722 59.1015 36.5167 57.3162 36.1565C56.7136 36.8376 56.9307 37.5775 56.7233 38.2946C58.2883 38.9167 59.9277 38.8413 61.444 39.4012C59.824 39.8105 58.2947 39.0411 56.7071 39.0738C56.4609 39.5407 56.3962 40.0837 56.5257 40.5963L69.1618 44.0702C69.4858 44.6202 69.0743 44.9869 69.0517 45.5304L59.9407 43.1141C59.5713 42.993 59.2149 42.7605 58.7937 42.9799C58.8391 43.4808 59.2635 43.4121 59.5583 43.5267L68.5592 46.7419L68.4069 47.197L56.0947 42.9406C55.4014 44.5285 55.9619 45.37 57.3681 45.9332C59.6361 46.8466 61.6968 48.2513 64.13 48.9323C64.9271 49.1582 65.9153 50.1208 67.0169 50.8346C66.4953 51.8168 65.5881 52.6124 65.5557 53.7518C64.6063 53.7879 64.1527 53.097 63.4723 52.9464C63.3988 52.8427 63.2876 52.7727 63.163 52.7518C63.0385 52.7309 62.9108 52.7609 62.8081 52.8351L63.1029 53.2836C63.5209 53.9581 64.2434 54.4132 64.3568 55.3856C61.875 52.3309 59.0756 49.705 55.2847 48.284C54.6821 49.6755 54.5654 50.8444 56.0883 51.9576C58.4211 53.6602 60.5952 55.5788 62.834 57.4091L62.51 57.8249L54.8408 51.604C54.0989 52.7663 54.3905 53.539 55.2588 54.3543C57.1089 56.0961 58.8747 57.9297 60.6438 59.6944C60.6211 60.3493 60.1804 60.5719 59.7527 60.8633L54.3516 55.3365L53.8591 55.7196C54.533 58.4077 57.2385 59.7697 58.1716 62.3792L53.6874 57.2388C53.5448 60.3296 51.9637 62.9522 53.237 65.8989C50.551 68.1908 49.1222 64.5533 46.7764 64.55C47.2235 65.8007 47.6771 67.0842 48.134 68.3644C46.5399 66.9827 46.8639 64.4354 44.625 62.9326C45.2439 65.2605 45.7525 67.1628 46.2612 69.0781C45.2664 69.5195 44.2184 69.8266 43.1443 69.9916L41.8321 65.6501C41.7446 65.3587 41.8321 64.9462 41.2618 64.8938C41.3137 65.2801 41.372 65.6272 41.4303 65.971ZM64.4767 51.7022C64.7618 51.8135 65.0178 52.3079 65.3483 51.7743C65.2381 51.4698 64.9757 51.4272 64.723 51.3683L64.075 51.0408C63.7931 50.7134 63.4658 50.7724 63.0155 50.9459L63.8352 51.3257L64.4767 51.7022ZM9.57104 21.7994C9.64232 21.6455 9.59696 21.544 9.42524 21.5211C9.3896 21.5211 9.34424 21.5702 9.30536 21.5964L9.6002 21.7732C9.72332 22.0515 9.87885 22.1923 10.2482 21.8518L9.57104 21.7994ZM43.2674 57.671L43.2512 57.4647L43.0828 57.5662L43.2869 57.6579C43.5428 59.3965 43.815 61.1318 45.0527 62.4775C44.557 60.8306 44.3107 59.0854 43.2512 57.671H43.2674ZM50.2076 47.7601C49.5078 47.3705 48.9796 46.5094 47.8456 46.958C49.686 48.8144 51.4647 50.6119 53.2467 52.4029C53.4194 52.5454 53.6024 52.6746 53.7943 52.7892C54.1442 51.807 54.1896 50.9885 53.506 50.2943C54.8441 49.7999 54.4067 48.7424 54.6367 47.7569C53.1593 47.7765 51.8924 46.9121 50.4798 47.4687L50.2076 47.7601ZM58.8812 21.3345L50.6061 26.3603C51.0435 26.7204 51.28 26.93 51.5295 27.1232C52.67 27.9941 58.0647 26.0918 58.3692 24.6774C58.5831 23.682 58.6738 22.6638 58.865 21.3345H58.8812ZM56.0494 38.897L50.0877 37.9802C50.8038 38.9625 55.3074 40.6552 55.8647 40.1968L56.0494 38.897ZM59.6523 34.454L57.6726 32.9086C57.4531 33.4549 57.3826 34.0508 57.4685 34.6341C58.1392 34.8894 58.8196 34.7356 59.6361 34.454H59.6523ZM26.6266 13.8465V16.5018C27.6764 15.6702 27.2163 14.9204 26.6266 13.8465ZM25.4861 8.95161C25.6384 7.90716 25.687 6.83323 24.4525 6.25371C24.796 7.15519 25.1405 8.05449 25.4861 8.95161ZM48.0919 49.502C48.0338 49.5628 47.9797 49.6273 47.9298 49.6952C48.1729 49.9604 48.4223 50.2223 48.688 50.4646C48.7107 50.4842 48.8403 50.386 48.9245 50.3369C48.8705 50.1361 48.7651 49.9533 48.6189 49.8067C48.4727 49.6601 48.291 49.555 48.0919 49.502ZM44.0807 23.3088C44.6704 23.2728 44.9263 23.0763 44.9425 22.6539C44.9425 22.5688 44.7352 22.4018 44.6185 22.4018C44.126 22.392 44.1422 22.7718 44.0807 23.2989V23.3088ZM62.8373 25.3322C63.1289 25.3715 63.4237 25.5647 63.6019 25.1685C63.3071 24.9098 63.0479 25.0604 62.8373 25.3224V25.3322ZM56.6131 42.5346C56.9631 42.6557 57.2288 42.862 57.4653 42.5019C57.4087 42.4452 57.3414 42.4007 57.2673 42.371C57.1932 42.3413 57.114 42.3271 57.0344 42.3293C56.9547 42.3314 56.8764 42.3499 56.804 42.3835C56.7316 42.4171 56.6667 42.4651 56.6131 42.5248V42.5346ZM47.7128 45.7433C47.4607 45.6294 47.2021 45.531 46.9384 45.4486C46.9092 45.4486 46.7829 45.6745 46.7894 45.6811C46.9209 45.8056 47.0749 45.9034 47.243 45.9692C47.3337 45.9855 47.4665 45.8579 47.7128 45.7334V45.7433ZM58.447 42.8915C58.2947 42.5935 58.123 42.5641 57.8768 42.7998C58.029 43.0585 58.2072 43.1272 58.447 42.8915ZM24.7927 4.98006C24.7506 4.94405 24.7085 4.87856 24.6826 4.88511C24.6122 4.90867 24.5447 4.94054 24.4817 4.98006C24.5141 5.01608 24.5562 5.08484 24.5789 5.07829C24.6537 5.05395 24.7254 5.02099 24.7927 4.98006ZM49.1416 50.923L49.2583 51.1391C49.2939 51.1031 49.3619 51.0572 49.3555 51.031C49.3318 50.9553 49.2992 50.8827 49.2583 50.8149L49.1416 50.923ZM13.3133 21.4556C13.2776 21.4916 13.2064 21.5342 13.2128 21.5636C13.2375 21.6395 13.2712 21.7121 13.3133 21.7797C13.3489 21.7437 13.4202 21.7012 13.4137 21.675C13.3907 21.5984 13.3569 21.5256 13.3133 21.4589V21.4556ZM8.936 21.2984C8.90036 21.2624 8.85824 21.1871 8.83556 21.1937C8.75956 21.2175 8.68667 21.2505 8.61847 21.2919C8.65411 21.3279 8.69623 21.3967 8.72539 21.3901C8.7984 21.368 8.86897 21.3384 8.936 21.3017V21.2984Z" fill="#093E71"/>
<path d="M333.034 57.396C321.272 57.396 312.706 48.6835 312.709 36.7525C312.712 24.8215 321.321 16.0893 333.047 16.0599C344.665 16.0337 353.423 24.9361 353.414 36.7591C353.401 48.6541 344.756 57.4059 333.034 57.396ZM333.06 52.1574C341.344 52.1574 347.588 45.5043 347.572 36.7231C347.556 27.9418 341.286 21.3116 333.014 21.3051C324.742 21.2985 318.496 28.0302 318.496 36.7787C318.496 45.5272 324.772 52.1771 333.076 52.164L333.06 52.1574Z" fill="#093E71"/>
<path d="M185.47 57.3958C173.738 57.3729 164.999 48.464 165.164 36.7097C165.336 24.6641 173.861 16.0269 185.551 16.0597C197.361 16.0924 205.84 24.8999 205.814 37.1223C205.794 48.7619 197.101 57.422 185.47 57.3958ZM199.969 36.8112C199.969 36.2677 200.001 35.7242 199.969 35.1742C199.525 28.3836 194.542 22.6276 188.143 21.5111C181.374 20.3324 175.144 23.7015 172.361 30.0534C168.903 37.931 172.101 47.4064 179.362 50.8312C189.267 55.4968 200.005 48.2086 199.969 36.8112Z" fill="#093E71"/>
<path d="M150.441 38.6809L161.188 56.4137C158.95 56.4137 156.976 56.4137 155.006 56.4137C154.297 56.4137 154.177 55.8211 153.911 55.3791C150.995 50.5006 148.034 45.6417 145.189 40.7207C144.541 39.578 143.799 39.0836 142.506 39.2244C141.505 39.3292 140.485 39.244 139.299 39.244V56.3482H133.865V17.2778C133.943 17.2221 134.027 17.1042 134.111 17.1042C139.503 17.0387 144.907 16.731 150.263 17.5561C158.548 18.833 160.793 25.0342 158.982 31.7692C158.01 35.3216 155.292 37.2468 151.883 38.2487C151.478 38.3666 151.076 38.491 150.441 38.6809ZM139.338 33.9989C140.835 33.9989 142.173 34.0578 143.504 33.9989C145.798 33.8712 148.138 34.048 150.347 33.1705C152.709 32.2308 153.746 30.6559 153.727 28.0203C153.707 25.509 152.67 23.8719 150.331 23.0665C146.744 21.8321 143.041 22.4116 139.338 22.3298V33.9989Z" fill="#093E71"/>
<path d="M270.189 51.1587V56.3319H244.57V17.1436H269.195V22.2938H249.997V33.236H267.889V38.4583H250.02V51.1587H270.189Z" fill="#093E71"/>
<path d="M369.607 56.4169C371.321 52.3897 372.964 48.5164 374.623 44.6496C378.372 35.8945 382.146 27.1525 385.863 18.3843C386.264 17.4381 386.75 17.1205 387.771 17.1303C391.494 17.1664 391.494 17.1303 392.936 20.5191C397.776 31.9219 402.616 43.329 407.454 54.7405C407.658 55.2218 408.028 55.6835 407.85 56.4169C406.116 56.4169 404.35 56.3842 402.588 56.4169C401.745 56.4398 401.655 55.8145 401.441 55.2906C400.41 52.7891 399.377 50.2877 398.392 47.76C398.097 47.0037 397.689 46.7025 396.85 46.709C391.506 46.7483 386.165 46.7483 380.828 46.709C379.917 46.709 379.49 47.0103 379.172 47.8452C378.226 50.3237 377.15 52.7564 376.237 55.2382C375.893 56.1746 375.414 56.4595 374.471 56.4136C372.928 56.3645 371.354 56.4169 369.607 56.4169ZM388.795 23.6754C386.32 29.9323 384.013 35.7701 381.667 41.7127H395.887L388.795 23.6754Z" fill="#093E71"/>
<path d="M494.935 56.417C493.251 56.417 491.527 56.3646 489.81 56.4399C488.915 56.476 488.757 55.8833 488.514 55.2907C487.512 52.8318 486.472 50.3795 485.539 47.9108C485.193 46.994 484.697 46.7223 483.748 46.7321C478.518 46.7746 473.285 46.7845 468.053 46.7321C467.006 46.7321 466.533 47.0955 466.18 48.0417C465.266 50.4744 464.236 52.8547 463.306 55.2842C462.982 56.0962 462.658 56.5054 461.686 56.453C460.086 56.3614 458.472 56.4268 456.664 56.4268C458.446 52.2752 460.154 48.3102 461.848 44.3419C465.516 35.7899 469.213 27.2509 472.809 18.666C473.324 17.435 473.992 17.2614 475.181 17.1043C477.809 16.7539 478.952 17.8115 479.947 20.2376C484.703 31.8576 489.696 43.3793 494.595 54.9437C494.803 55.3627 495.14 55.7753 494.935 56.417ZM482.986 41.7554C480.614 35.7178 478.324 29.8964 475.884 23.6853C473.412 29.9291 471.102 35.7669 468.733 41.7554H482.986Z" fill="#093E71"/>
<path d="M308.682 22.7062L304.042 26.1474C302.059 23.4887 299.506 21.8288 296.221 21.4489C289.741 20.6926 283.951 24.5234 281.64 31.0619C279 38.4876 281.751 46.9055 287.978 50.4645C290.647 51.9927 293.753 52.5525 296.781 52.051C299.808 51.5496 302.575 50.017 304.622 47.7077C304.904 47.3802 305.196 47.079 305.594 46.6501L309.654 50.0716C307.133 53.8008 303.695 56.0076 299.425 56.9473C289.267 59.1639 279.661 54.03 276.181 44.5514C272.497 34.5259 276.349 23.3905 285.211 18.4433C292.835 14.1869 303.187 15.824 308.257 22.0678C308.371 22.2249 308.481 22.4115 308.682 22.7062Z" fill="#093E71"/>
<path d="M107.317 39.2505V56.3154H102.087C101.805 55.1989 101.679 20.2998 101.98 17.0256C107.647 17.2286 113.372 16.4755 119.004 17.6968C124.479 18.8853 127.486 22.8241 127.405 28.2658C127.324 33.7074 124.068 37.5938 118.615 38.7431C116.87 39.0841 115.097 39.253 113.321 39.2473C111.389 39.2898 109.455 39.2505 107.317 39.2505ZM107.411 34.0119C109.63 34.0119 111.769 34.0119 113.907 34.0119C114.767 34.0126 115.625 33.9524 116.476 33.8318C119.639 33.3473 121.456 31.4188 121.563 28.4982C121.68 25.2765 120.222 23.2792 116.979 22.6048C113.816 21.9499 110.609 22.3723 107.411 22.3068V34.0119Z" fill="#093E71"/>
<path d="M411.873 51.6105L416.059 48.0253C418.097 50.5922 420.595 52.2817 423.835 52.5469C426.103 52.7335 428.245 52.3341 430.092 50.8869C433.504 48.2119 433.296 43.3334 429.677 40.9695C427.704 39.6827 425.433 39.149 423.246 38.4058C421.65 37.9171 420.099 37.2905 418.609 36.533C417.246 35.8108 416.06 34.7889 415.139 33.5424C414.219 32.296 413.586 30.8567 413.289 29.3306C412.991 27.8045 413.036 26.2303 413.42 24.7241C413.804 23.2179 414.518 21.8179 415.508 20.6272C420.388 14.57 432.917 14.5765 437.667 20.6697L433.883 24.399C431.699 21.8321 428.919 20.5879 425.523 20.7974C421.535 21.0495 418.771 23.7442 418.813 27.2868C418.842 29.6409 420.109 31.1307 422.053 32.1325C424.075 33.1737 426.265 33.7434 428.42 34.4736C430.669 35.243 432.911 36.0452 434.738 37.6495C439.569 41.9059 439.229 50.3303 434.09 54.4295C427.908 59.3604 416.885 58.0311 411.873 51.6105Z" fill="#093E71"/>
<path d="M239.115 17.1304V22.2642H226.663V56.3154H221.103V22.3265H208.791V17.1304H239.115Z" fill="#093E71"/>
<path d="M23.9763 51.3321C23.1177 50.7198 22.7321 51.4139 22.2979 51.9542C19.6152 55.2905 16.9422 58.6335 14.2464 61.9567C13.9386 62.3365 13.7637 62.9193 12.7139 63.0339L22.6381 50.6478L19.9716 49.1122L8.79994 58.7644L8.45974 58.365L19.2458 48.9911C17.0944 47.0266 16.7478 46.9971 14.3858 48.3166C14.0974 48.477 13.8447 48.8994 13.4138 48.5949C13.822 47.6127 15.0111 47.6127 15.6137 46.7712C15.442 46.3816 14.7422 46.4438 14.7292 45.8741C15.5133 45.5303 16.0252 46.7614 16.9195 46.1819C18.6594 45.0424 20.4576 43.9914 22.4113 42.7931C19.4953 41.7356 17.48 43.556 15.2541 44.3811C14.726 44.5775 14.7098 45.3208 14.7584 45.9035C13.8382 46.5584 13.0152 47.2492 13.4332 48.572C10.8412 51.044 9.86915 54.5408 7.72425 57.5726C6.98876 56.3514 5.48862 55.6442 5.88715 53.8335L4.63973 53.5978C7.91865 52.1768 8.41762 49.0828 9.82379 46.4863L2.87067 49.2072C2.26803 48.3854 2.17731 47.8746 3.24004 47.4751C5.2035 46.745 7.12808 45.8937 9.07211 45.0948C9.36371 44.9442 9.81407 45.0686 9.9696 44.44L8.79346 44.7281L1.89218 46.6337C1.42157 45.6337 1.12456 44.5594 1.01413 43.4578L6.38935 41.8501C4.60733 41.1953 3.04564 42.5312 1.08865 41.8501L5.27802 40.9923C3.82 39.627 2.11574 39.3552 0.158762 39.0868C0.806769 38.5138 0.298083 38.0521 0 37.0863C2.64387 39.2243 5.4627 39.3061 8.17137 39.8595C10.1381 40.2589 11.9493 39.7711 13.7313 39.2898C14.9917 38.9623 15.0694 37.3809 15.8373 36.1826C10.8152 36.1826 6.03295 36.1826 1.25713 36.1826C0.336964 36.1826 -0.243003 36.0353 0.194402 34.742H6.72956C9.48035 34.742 12.2376 34.6961 14.9819 34.7682C16.09 34.7944 17.007 34.6961 17.4249 33.4585C18.6788 33.9955 19.667 34.981 21.0246 34.7682C21.2806 35.1938 21.2028 35.5638 21.1186 36.0778C19.8031 35.9239 19.1033 36.6541 18.8505 37.9572C19.6605 38.3534 20.3442 37.5086 21.3745 37.7673C21.219 39.0769 22.8001 40.2491 21.7763 41.932C22.0744 42.2136 22.9881 41.8829 23.1987 42.9143L17.2273 46.6337C19.275 48.6407 19.6638 48.6604 21.6629 46.9153C22.5701 46.1229 23.4838 45.3371 24.391 44.5513L24.7344 44.9442L20.4382 48.7226L22.9848 50.1894L26.1925 46.3095C26.0013 47.76 24.9418 48.6211 24.148 49.6328C23.6685 50.2451 23.581 50.6151 24.2841 51.008L23.9763 51.3321Z" fill="#093E71"/>
<path d="M450.786 56.3449H445.469V17.2581H450.786V56.3449Z" fill="#093E71"/>
<path d="M63.1028 36.6902C63.9582 37.345 64.8298 37.9769 65.6592 38.6547C66.8289 39.6369 67.9272 40.6879 69.6736 40.426C69.8194 41.1692 69.0256 41.8535 69.868 42.5575C68.1929 40.94 66.2748 40.2983 64.0359 40.2066C64.5284 39.4896 65.1246 39.9512 65.5717 39.5518C64.9237 38.4353 63.6277 37.9442 62.8145 36.9947L63.1028 36.6902ZM69.6769 41.3395C69.4663 41.1725 69.3755 41.0612 69.2621 41.0121C69.2121 41.0078 69.1617 41.0153 69.1151 41.0341C69.0684 41.0528 69.0267 41.0823 68.9932 41.1201C68.8182 41.3395 69.0872 41.3755 69.1682 41.4017C69.2492 41.4279 69.4177 41.3853 69.6769 41.3395Z" fill="#093E71"/>
<path d="M12.0332 8.86311C12.7201 8.70596 12.921 9.04647 13.164 9.33132C15.6761 12.2562 18.185 15.1822 20.6906 18.1093L20.2888 18.4564C17.5348 15.2608 14.7829 12.0631 12.0332 8.86311Z" fill="#093E71"/>
<path d="M40.8253 0.654907C40.7054 3.43466 40.4041 6.22097 39.5293 8.87303C39.678 6.09564 40.1124 3.34143 40.8253 0.654907Z" fill="#093E71"/>
<path d="M43.8535 9.72104C44.5825 7.49789 45.2986 5.27147 46.0535 3.05814C46.141 2.80276 46.0535 2.40331 46.7015 2.23633C46.452 4.06658 45.6679 5.62508 45.143 7.24251C44.8612 8.10688 44.819 9.15789 43.8794 9.69157L43.8535 9.72104Z" fill="#093E71"/>
<path d="M14.5795 28.0432C12.0166 27.9777 9.84577 26.4945 7.35742 25.9706C8.31647 25.6039 12.9594 26.9594 14.5795 28.0432Z" fill="#093E71"/>
<path d="M31.4966 59.4094C31.463 61.5222 31.1213 63.6183 30.4824 65.6303C30.5472 63.4923 30.706 61.387 31.4966 59.4094Z" fill="#093E71"/>
<path d="M9.10862 31.0424C7.02571 31.0812 4.95088 30.7703 2.96875 30.1223C5.04889 30.1238 7.11756 30.4338 9.10862 31.0424Z" fill="#093E71"/>
<path d="M58.7676 14.8941C60.028 13.9512 60.4783 12.6022 60.5431 11.0306C61.4212 11.3908 60.5237 11.8263 60.8023 12.1504C61.081 12.4745 61.6188 12.1504 62.0789 12.504C61.0194 13.3848 60.1802 14.3965 60.3487 15.8436C59.6165 16.0565 60.096 14.1706 59.0106 15.1888L58.7676 14.8941Z" fill="#093E71"/>
<path d="M6.72682 25.2535C5.02904 25.3681 3.57427 24.4775 2.05469 23.7932C3.72007 23.8194 5.14892 24.7296 6.72682 25.2535Z" fill="#093E71"/>
<path d="M25.1883 65.2407C24.7909 66.498 24.3934 67.7531 23.996 69.006L23.5586 68.8456C24.0122 67.621 23.8826 66.1804 25.1786 65.2767L25.1883 65.2407Z" fill="#093E71"/>
<path d="M59.011 15.1953L56.7916 17.1172L56.5 16.8488C57.1418 16.0702 57.9085 15.4061 58.768 14.8843L59.011 15.1953Z" fill="#093E71"/>
<path d="M51.4714 54.59L49.5273 52.3439L49.8189 52.0427C50.5799 52.7009 51.2357 53.474 51.763 54.3346L51.4714 54.59Z" fill="#093E71"/>
<path d="M21.086 18.6135L23.0657 20.9251L22.7806 21.2067L21.8896 20.4569L21.9155 20.4929C21.8798 20.2866 21.7826 20.1426 21.5558 20.1295L21.5915 20.1655C21.5688 19.9461 21.4813 19.7955 21.2318 19.8053L21.2642 19.8413C21.2642 19.5892 21.1768 19.4517 20.9078 19.4812L20.9402 19.5237L20.8301 18.9409L21.086 18.6135Z" fill="#093E71"/>
<path d="M12.8139 14.2591C12.7037 14.9139 12.4413 15.0252 11.9941 14.4981L12.2663 14.1707L12.843 14.2885L12.8139 14.2591Z" fill="#093E71"/>
<path d="M33.9919 13.4993L33.5059 13.0245L33.7715 12.7266L34.2997 13.1849L33.9919 13.4993Z" fill="#093E71"/>
<path d="M15.7586 28.6326L15.6484 28.3936C15.5221 28.5409 15.5512 28.626 15.7489 28.6424L15.7586 28.6326Z" fill="#093E71"/>
<path d="M53.904 43.3563L53.418 42.8815L53.6545 42.636L54.1826 43.0747L53.904 43.3563Z" fill="#093E71"/>
<path d="M45.571 57.9526L46.0538 58.4372L45.7719 58.7188L45.2988 58.2277L45.571 57.9526Z" fill="#093E71"/>
<path d="M43.8863 9.69153V9.76085C43.8799 9.74589 43.8722 9.73153 43.8633 9.71794L43.8863 9.69153Z" fill="#093E71"/>
<path d="M33.5061 13.0246L33.1465 12.7266L33.4478 12.4614L33.7718 12.7266L33.5061 13.0246Z" fill="#093E71"/>
<path d="M40.3381 20.1426L40.3184 20.1987C40.3184 20.1987 40.3184 20.1558 40.3184 20.1591L40.3381 20.1426Z" fill="#093E71"/>
<path d="M20.8303 18.9409C20.6942 18.8263 20.409 18.751 20.6067 18.5022C20.8043 18.2534 20.9501 18.4727 21.0862 18.6135C21.002 18.7248 20.9145 18.8329 20.8303 18.9409Z" fill="#093E71"/>
<path d="M25.1806 64.7726C25.1806 64.9265 25.1806 65.0837 25.1806 65.2408V65.2768C25.1806 65.1 25.1806 64.9232 25.1806 64.7432C25.1741 64.7399 25.1806 64.7726 25.1806 64.7726Z" fill="#093E71"/>
<path d="M50.4636 47.4753C50.9762 47.6775 51.4166 48.0312 51.7272 48.4903L51.549 48.8374L50.1914 47.7667L50.4636 47.4753Z" fill="#093E71"/>
<path d="M52.0875 48.7849C52.653 49.013 53.121 49.4349 53.4095 49.9767C52.5476 50.0618 52.2074 49.4168 51.7344 49.0207L52.0875 48.7849Z" fill="#093E71"/>
<path d="M51.7335 49.0108C51.6544 48.9724 51.5896 48.9092 51.5488 48.8307C51.6104 48.7161 51.6687 48.5982 51.727 48.4836L52.0867 48.775L51.7335 49.0108Z" fill="#093E71"/>
</g>
<defs>
<clipPath id="clip0_736_7022">
<rect width="495" height="71" fill="white"/>
</clipPath>
</defs>
</svg>
