<svg width="23" height="23" viewBox="0 0 23 23" fill="none" xmlns="http://www.w3.org/2000/svg">
<path d="M14.3137 0.781245C13.9692 0.438401 13.6164 0.115826 13.1171 0H12.5811C12.0734 0.121038 11.7229 0.455195 11.3725 0.802673C10.9817 1.18557 10.5878 1.56391 10.1939 1.94221C9.91417 2.21091 9.63402 2.48001 9.35543 2.75028C9.34277 2.76264 9.3289 2.77423 9.31479 2.78603C9.2674 2.82565 9.21725 2.86758 9.2006 2.94835C10.941 4.62087 12.6814 6.29803 14.4217 7.97982C14.5057 8.06086 14.594 8.06061 14.6906 8.06035L14.7074 8.06032H21.3544C21.3677 8.06032 21.3813 8.0614 21.3952 8.06251C21.4405 8.06612 21.4886 8.06994 21.5345 8.03715C21.4775 7.76554 21.3232 7.55126 21.1258 7.36015C20.4696 6.72735 19.8133 6.09379 19.1568 5.45945C18.6563 4.97588 18.0735 4.84905 17.4104 5.0917C17.0683 5.21564 16.7568 5.17452 16.5 4.92607C16.2431 4.67762 16.2005 4.37764 16.3295 4.04753C16.5792 3.40817 16.449 2.84526 15.9473 2.36227C15.8044 2.22471 15.6612 2.08752 15.5181 1.95034C15.1139 1.5631 14.7099 1.17594 14.3137 0.781245Z" fill="#244084"/>
<path d="M22.9222 21.1475C22.9324 21.0991 22.9427 21.0503 23 21.0247V17.6443L22.9934 17.6265C22.8919 17.3516 22.7906 17.0773 22.5685 16.8619C22.3915 16.6899 22.1748 16.5839 21.9546 16.4768C21.8249 16.4187 21.7149 16.3266 21.6369 16.211C21.559 16.0953 21.5165 15.9609 21.5141 15.823C21.4973 15.5154 21.6167 15.2415 21.9012 15.1216C22.4569 14.8865 22.82 14.5095 23 13.9599V10.5784C22.9952 10.5741 22.9896 10.5702 22.984 10.5663C22.972 10.5578 22.9601 10.5495 22.9568 10.5384C22.7053 9.74848 22.1742 9.36625 21.3202 9.36625H18.4912C18.4723 9.36625 18.4529 9.3646 18.4336 9.36296C18.3797 9.35836 18.326 9.3538 18.2818 9.38536V22.1916C18.6073 22.1916 18.9319 22.1938 19.2556 22.1959C20.0238 22.201 20.7879 22.206 21.5477 22.1824C22.203 22.1621 22.6537 21.7932 22.9058 21.2071C22.9136 21.1885 22.9179 21.1681 22.9222 21.1475Z" fill="#244084"/>
<path fill-rule="evenodd" clip-rule="evenodd" d="M16.9009 9.3732V22.172C16.8562 22.2091 16.8022 22.2041 16.7485 22.1991C16.7301 22.1974 16.7118 22.1957 16.6938 22.1957H1.64676C0.662544 22.1957 0.00120026 21.5552 0 20.6054V17.9611C0 17.2876 0.315069 16.8029 0.952408 16.5243C1.29088 16.376 1.48952 16.1363 1.48532 15.7714C1.48052 15.4153 1.28188 15.1848 0.952408 15.04C0.315069 14.7597 0.000600131 14.2761 0 13.602V10.9148C0 10.0195 0.676948 9.36915 1.60175 9.36857C6.64765 9.36625 11.6933 9.36625 16.7388 9.36857C16.7787 9.36633 16.8183 9.36859 16.8616 9.37107C16.8743 9.3718 16.8874 9.37254 16.9009 9.3732ZM4.74043 16.3089H14.8676V15.0255H4.74043V16.3089ZM4.74043 13.6941H14.8676V12.4159H4.74103L4.74043 13.6941ZM4.74043 18.9219H14.867V17.6437H4.74223L4.74043 18.9219Z" fill="#244084"/>
<path d="M12.5619 8.047L8.24758 3.89464L3.94465 8.047H12.5619Z" fill="#244084"/>
</svg>
