<svg width="41" height="41" viewBox="0 0 41 41" fill="none" xmlns="http://www.w3.org/2000/svg">
<path d="M25.5126 1.44268C24.8986 0.809568 24.2696 0.213888 23.3796 0H22.4244C21.5195 0.223513 20.8948 0.840581 20.2701 1.48225C19.5736 2.18931 18.8715 2.88797 18.1695 3.58656L18.1687 3.58734C17.6701 4.08353 17.1715 4.57968 16.675 5.07878C16.6524 5.10159 16.6277 5.123 16.6026 5.14479C16.5181 5.21795 16.4287 5.29538 16.399 5.44453C19.501 8.53307 22.6031 11.6302 25.7051 14.7358C25.8548 14.8855 26.0121 14.885 26.1843 14.8845L26.2143 14.8845H38.0619C38.0855 14.8845 38.1098 14.8865 38.1346 14.8885C38.2153 14.8952 38.3009 14.9023 38.3827 14.8417C38.2811 14.3401 38.0062 13.9444 37.6543 13.5915C36.4848 12.423 35.315 11.253 34.1447 10.0816C33.2526 9.18864 32.214 8.95443 31.032 9.40253C30.4223 9.63139 29.8672 9.55546 29.4093 9.09667C28.9515 8.63788 28.8756 8.08391 29.1056 7.47432C29.5505 6.29366 29.3184 5.25416 28.4242 4.36225C28.1696 4.10824 27.9144 3.85489 27.6592 3.60157C26.9389 2.88648 26.2187 2.17154 25.5126 1.44268Z" fill="white"/>
<path d="M40.8563 39.0518C40.8744 38.9624 40.8927 38.8723 40.9949 38.825V32.5827L40.9831 32.5498C40.8021 32.0421 40.6216 31.5356 40.2258 31.1378C39.9102 30.8202 39.5241 30.6245 39.1315 30.4267C38.9004 30.3194 38.7043 30.1493 38.5654 29.9358C38.4265 29.7222 38.3506 29.4739 38.3464 29.2193C38.3164 28.6514 38.5293 28.1455 39.0363 27.9242C40.0268 27.49 40.674 26.7938 40.9949 25.7789V19.5344C40.9864 19.5266 40.9764 19.5193 40.9664 19.5121C40.945 19.4965 40.9237 19.481 40.9179 19.4606C40.4697 18.0019 39.523 17.2961 38.0009 17.2961H32.9585C32.9247 17.2961 32.8902 17.293 32.8559 17.29C32.7597 17.2815 32.664 17.2731 32.5852 17.3314V40.9799C33.1654 40.9799 33.7439 40.9839 34.3209 40.9878H34.3222C35.6914 40.9972 37.0521 41.0064 38.4063 40.9628C39.5744 40.9254 40.3777 40.2441 40.8269 39.1619C40.8409 39.1275 40.8486 39.0897 40.8563 39.0518Z" fill="white"/>
<path fill-rule="evenodd" clip-rule="evenodd" d="M30.1239 17.3089V40.9436C30.0442 41.0121 29.9479 41.0028 29.8523 40.9937C29.8195 40.9905 29.7868 40.9874 29.7549 40.9874H2.93516C1.18091 40.9874 0.00213933 39.8046 0 38.0507V33.1677C0 31.9239 0.561574 31.0288 1.69756 30.5144C2.30085 30.2406 2.65491 29.7978 2.64742 29.1241C2.63886 28.4664 2.2848 28.0408 1.69756 27.7734C0.561574 27.2558 0.00106966 26.3628 0 25.118V20.1558C0 18.5024 1.20658 17.3014 2.85494 17.3003C11.8487 17.2961 20.8421 17.2961 29.8351 17.3003C29.9062 17.2962 29.9767 17.3004 30.0539 17.305C30.0766 17.3063 30.0999 17.3077 30.1239 17.3089ZM8.44928 30.1165H26.4999V27.7467H8.44928V30.1165ZM8.44928 25.288H26.4999V22.9278H8.45035L8.44928 25.288ZM8.44928 34.9419H26.4988V32.5816H8.45249L8.44928 34.9419Z" fill="white"/>
<path d="M22.3902 14.8599L14.7004 7.19199L7.03089 14.8599H22.3902Z" fill="white"/>
</svg>
