<svg width="140" height="39" viewBox="0 0 140 39" fill="none" xmlns="http://www.w3.org/2000/svg">
<path d="M134.325 17.2722V10.9119H128.139V17.2722H124.737V2.19824H128.139V8.17695H134.325V2.19824H137.727V17.2722H134.325Z" fill="#F7F7F7"/>
<path d="M61.3314 2.19824V11.6115C61.3314 12.6292 61.4551 13.5832 61.7644 14.2829C62.0737 14.9825 62.5067 15.6185 63.0016 16.0638C63.5583 16.509 64.2388 16.8906 64.9811 17.0814C65.7234 17.2722 66.5894 17.3994 67.5791 17.3994C68.507 17.3994 69.373 17.2722 70.1153 17.0814C70.8577 16.8906 71.4762 16.509 71.9711 16.0638C72.466 15.6185 72.899 14.9825 73.1464 14.2829C73.4557 13.5196 73.5794 12.6292 73.5794 11.6115V2.19824H70.4246V11.5479C70.4246 12.502 70.1772 13.2652 69.7442 13.8376C69.3112 14.4101 68.5689 14.7281 67.5791 14.7281C66.5894 14.7281 65.8471 14.4101 65.4141 13.8376C64.9811 13.2652 64.7336 12.502 64.7336 11.5479V2.19824H61.3314Z" fill="#F7F7F7"/>
<path d="M51.5578 17.2722V4.99679H47.5988V2.19824H58.9808V3.53391C58.9808 4.36075 58.3622 4.99679 57.5581 4.99679H54.96V17.2722H51.5578Z" fill="#F7F7F7"/>
<path d="M105.993 2.19824H109.396V17.2722H105.993V2.19824Z" fill="#F7F7F7"/>
<path d="M94.7351 10.2123L94.8588 10.3395L99.1889 16.0638C99.7456 16.7634 100.55 17.2086 101.478 17.2086H104.199L98.0136 9.0674L97.9517 8.94019L98.0136 8.81299L103.086 2.19824H99.56L94.8588 8.68578L94.7351 8.81299V8.55857V2.19824H91.3329V17.2722H94.7351V10.4667V10.2123Z" fill="#F7F7F7"/>
<path d="M86.9409 17.2722C85.9512 17.2722 84.9614 16.6998 84.4665 15.873L81.8066 11.4207H80.1364V17.3358H76.7342V2.19824H82.7964C84.3428 2.19824 85.58 2.64347 86.3842 3.40671C87.2502 4.23355 87.6832 5.37841 87.6832 6.71408C87.6832 7.41371 87.4976 8.11335 87.1265 8.81299C86.7553 9.51262 86.1367 10.0851 85.2707 10.5303L85.0851 10.5939L89.2297 17.2086H86.9409V17.2722ZM80.1364 9.0674H82.1159C82.7964 9.0674 83.3531 8.87659 83.7242 8.49497C84.0954 8.11335 84.281 7.60452 84.281 6.96849C84.281 6.33246 84.0954 5.82363 83.7861 5.44201C83.4149 5.06039 82.9201 4.86958 82.1778 4.86958H80.1983V9.0674H80.1364Z" fill="#F7F7F7"/>
<path d="M112.179 16.6357V13.7736C113.231 14.2824 114.654 14.7912 116.076 14.7912C117.746 14.7912 118.551 14.2188 118.551 13.0739C118.551 11.7383 117.437 11.6111 115.148 10.5934C113.602 9.89377 112.179 8.81252 112.179 6.26838C112.179 3.34263 114.344 1.94336 117.375 1.94336C118.984 1.94336 120.345 2.32498 121.087 2.643V5.44154C120.345 5.05992 118.984 4.6147 117.561 4.6147C116.076 4.6147 115.396 5.18713 115.396 6.14118C115.396 7.15883 116.262 7.47685 117.746 8.04928C119.664 9.06693 121.953 9.51215 121.953 12.8831C121.953 15.8089 119.664 17.399 116.633 17.399C114.839 17.4626 113.355 17.1445 112.179 16.6357Z" fill="#F7F7F7"/>
<path d="M117.499 36.9255V21.8516H126.654V23.1872C126.654 24.0141 126.036 24.6501 125.231 24.6501H120.839V27.8939H125.788V30.438H120.839V34.127H126.654V36.9255H117.499Z" fill="#F7F7F7"/>
<path d="M83.9716 36.9255V21.8516H85.6418C86.6316 21.8516 87.3739 22.6784 87.3739 23.6325V34.1906H92.7556V36.9255H83.9716Z" fill="#F7F7F7"/>
<path d="M63.0016 36.9255V21.8516H66.4038V36.9255H63.0016Z" fill="#F7F7F7"/>
<path d="M79.6416 36.9255C78.6518 36.9255 77.6621 36.3531 77.1672 35.5263L74.5073 31.074H72.8371V36.9891H69.4349V21.8516H75.497C77.0435 21.8516 78.2807 22.2968 79.0848 23.06C79.9509 23.8869 80.3839 25.0317 80.3839 26.3674C80.3839 27.067 80.1983 27.7667 79.8271 28.5299C79.456 29.2295 78.8374 29.802 77.9714 30.2472L77.7858 30.3108L81.9303 36.9255H79.6416ZM72.899 28.7207H74.8785C75.6208 28.7207 76.1156 28.5299 76.4868 28.1483C76.8579 27.7667 77.0435 27.2578 77.0435 26.6218C77.0435 25.9858 76.8579 25.4769 76.5486 25.0953C76.1775 24.7137 75.6826 24.5229 74.9403 24.5229H72.9608L72.899 28.7207Z" fill="#F7F7F7"/>
<path d="M55.5786 21.8516H51.6815L46.1761 36.9255H48.5885C49.2071 36.9255 49.7639 36.5439 49.9494 35.9079L50.5062 34.127H56.4446L57.3106 36.9255H60.9603L55.5786 21.8516ZM51.3722 31.4557L52.6712 27.6395C52.9805 26.8126 53.2898 25.8586 53.4754 25.2225H53.5372C53.7228 25.9222 54.0321 26.749 54.2795 27.6395L55.5786 31.4557H51.3722Z" fill="#F7F7F7"/>
<path d="M129.376 36.289V33.4269C130.428 33.9357 131.85 34.4445 133.273 34.4445C134.943 34.4445 135.747 33.8721 135.747 32.7273C135.747 31.3916 134.634 31.2644 132.345 30.2467C130.799 29.5471 129.376 28.4658 129.376 25.9217C129.376 22.996 131.541 21.5967 134.572 21.5967C136.18 21.5967 137.541 21.9783 138.284 22.2963V25.0949C137.541 24.7132 136.18 24.268 134.758 24.268C133.273 24.268 132.593 24.8404 132.593 25.7945C132.593 26.8121 133.459 27.1302 134.943 27.7026C136.861 28.7202 139.15 29.1655 139.15 32.5364C139.15 35.4622 136.861 37.0523 133.83 37.0523C132.036 37.1159 130.551 36.7979 129.376 36.289Z" fill="#F7F7F7"/>
<path d="M101.478 21.8516H103.581C104.571 21.8516 105.498 22.3604 106.055 23.2508L110.138 29.9928C110.571 30.756 111.128 31.7101 111.437 32.4097H111.499C111.437 31.7101 111.437 30.8196 111.437 30.12V21.8516H114.406V36.9255H110.695L105.746 28.7843C105.313 28.0211 104.818 27.1306 104.447 26.431H104.385C104.385 27.067 104.447 27.8303 104.447 28.5935V36.9255H101.478V21.8516Z" fill="#F7F7F7"/>
<path d="M94.9825 21.8516H98.3847V36.9255H94.9825V21.8516Z" fill="#F7F7F7"/>
<path d="M20.6903 0.417246C30.0928 1.4349 37.454 9.57612 37.454 19.5618C37.454 30.1836 29.1031 38.77 18.7727 38.77C8.44231 38.77 0.029541 30.1836 0.029541 19.5618C0.029541 8.94009 8.38045 0.290039 18.7727 0.290039C19.3913 0.290039 20.0717 0.353642 20.6903 0.417246ZM21.6801 37.4344C31.2681 35.7807 37.7633 26.431 36.155 16.5089C34.7941 8.30406 28.2989 2.32534 20.6285 1.4985C19.082 1.30769 17.4737 1.3713 15.8653 1.62571C13.9477 1.94372 12.1538 2.57976 10.5455 3.4702C18.9583 6.45956 23.5358 10.9754 23.8451 15.5548C24.0307 18.417 22.7316 20.4523 20.9996 22.106L33.0002 21.2791C33.3095 21.2791 33.4332 21.6607 33.062 21.788L4.4215 30.1836C7.32886 34.3178 11.8445 37.0527 16.8551 37.5616C18.4634 37.7524 20.0717 37.7524 21.6801 37.4344ZM13.824 19.9435C15.3705 13.9011 13.5766 7.54082 9.30833 4.16984C3.49362 7.98604 0.0913996 15.1096 1.32857 22.5512C1.69972 25.0317 2.56574 27.2578 3.80292 29.2295C8.38045 27.9575 12.4013 25.4769 13.824 19.9435Z" fill="white"/>
<path d="M21.68 37.4345C31.2681 35.7808 37.7633 26.4311 36.1549 16.509C34.794 8.30419 28.2989 2.32548 20.6284 1.49864C19.082 1.30783 17.4736 1.37143 15.8653 1.62585C13.9477 1.94386 12.1538 2.5799 10.5455 3.47034C18.9582 6.4597 23.5358 10.9755 23.8451 15.555C24.0307 18.4171 22.7316 20.4524 20.9996 22.1061L33.0001 21.2793C33.3094 21.2793 33.4332 21.6609 33.062 21.7881L4.42148 30.1837C7.32883 34.3179 11.8445 37.0529 16.8551 37.5617C18.4634 37.7525 20.0717 37.7525 21.68 37.4345ZM13.824 19.9436C15.3704 13.9013 13.5765 7.54095 9.3083 4.16998C3.4936 7.98618 0.0913734 15.1097 1.32855 22.5513C1.6997 25.0319 2.56572 27.258 3.80289 29.2297C8.38043 27.9576 12.4012 25.4771 13.824 19.9436Z" fill="#C70A0C"/>
</svg>
