<svg width="177" height="54" viewBox="0 0 177 54" fill="none" xmlns="http://www.w3.org/2000/svg">
<g clip-path="url(#clip0_203_542)">
<path d="M143.591 2.80874C143.59 2.27537 143.746 1.75356 144.041 1.30933C144.335 0.865101 144.755 0.518414 145.246 0.313136C145.738 0.107859 146.279 0.0532179 146.801 0.156124C147.323 0.25903 147.803 0.514857 148.181 0.891241C148.558 1.26763 148.815 1.74766 148.92 2.27058C149.025 2.79351 148.972 3.33584 148.77 3.82895C148.567 4.32207 148.222 4.74381 147.78 5.04081C147.338 5.33781 146.818 5.49673 146.286 5.49745C145.931 5.50232 145.58 5.43619 145.251 5.30293C144.923 5.16968 144.624 4.97198 144.373 4.72148C144.122 4.47098 143.924 4.17273 143.789 3.84425C143.655 3.51578 143.588 3.16371 143.591 2.80874ZM148.445 2.80874C148.377 2.2822 148.12 1.79856 147.722 1.44812C147.324 1.09769 146.812 0.904417 146.282 0.904417C145.752 0.904417 145.24 1.09769 144.842 1.44812C144.444 1.79856 144.187 2.2822 144.118 2.80874C144.078 3.11699 144.105 3.43025 144.195 3.72759C144.285 4.02493 144.438 4.29952 144.643 4.53305C144.848 4.76658 145.1 4.95367 145.382 5.08184C145.665 5.21 145.972 5.2763 146.282 5.2763C146.592 5.2763 146.899 5.21 147.181 5.08184C147.464 4.95367 147.716 4.76658 147.921 4.53305C148.126 4.29952 148.278 4.02493 148.369 3.72759C148.459 3.43025 148.485 3.11699 148.445 2.80874ZM147.624 4.26603H146.958L146.315 3.03098H145.751V4.26603H145.187V1.35145H146.58C146.856 1.33084 147.132 1.3797 147.384 1.49354C147.497 1.58111 147.587 1.69639 147.643 1.8284C147.7 1.96041 147.722 2.10476 147.707 2.24769C147.707 2.77232 147.431 2.9982 146.915 3.03463L147.642 4.26968L147.624 4.26603ZM146.591 2.60109C146.915 2.60109 147.155 2.52822 147.155 2.16389C147.155 1.79957 146.725 1.78864 146.46 1.78864H145.733V2.60837L146.591 2.60109Z" fill="#231F20"/>
<path d="M0.0109253 22.1217L0.858146 18.4931L15.2464 3.39914H4.71245L5.60695 0H22.5695L21.7769 3.4465L7.18503 18.606H18.2898L17.4208 22.1217H0.0109253Z" fill="#231F20"/>
<path d="M18.9807 22.1253L23.7076 3.44639L24.5476 0.16748H29.3982L27.2165 8.64164C28.2783 7.7782 29.6782 6.82003 32.4271 6.82003C36.0341 6.82003 38.0268 8.86024 38.0268 11.4287C38.0114 12.5841 37.8662 13.7341 37.594 14.857L35.8596 22.1216H30.9799L33.0089 13.8551C33.1284 13.318 33.205 12.7722 33.238 12.2229C33.238 11.017 32.4089 10.0698 30.6927 10.0698C29.6418 10.0698 26.8274 10.507 25.6857 14.8789L23.824 22.1253H18.9807Z" fill="#231F20"/>
<path d="M47.2225 22.4424C42.9719 22.4424 39.0412 20.3694 39.0412 16.0886C39.0412 11.407 42.7756 6.70361 49.3897 6.70361C54.3494 6.70361 56.4547 9.27938 56.4547 12.3761C56.4138 13.5337 56.2468 14.6833 55.9566 15.8044H43.4591C43.5319 17.6916 44.39 19.4476 48.5497 19.4476C50.4486 19.4562 52.3259 19.0444 54.0476 18.2417L53.5131 21.5462C51.4672 22.1015 49.3601 22.3989 47.2407 22.4315L47.2225 22.4424ZM49.1024 9.54534C48.0191 9.50474 46.9527 9.82382 46.0689 10.453C45.1852 11.0822 44.5336 11.9862 44.2155 13.0246H52.1859C52.2222 12.6603 52.2222 12.1393 52.2222 11.9572C52.2222 10.6638 51.1314 9.54534 49.1133 9.54534H49.1024Z" fill="#231F20"/>
<path d="M55.8002 22.1252L59.5454 7.06047H64.0797L63.4579 9.72367C64.676 8.18258 66.4468 6.80908 68.9485 6.80908C69.5157 6.81615 70.0809 6.87961 70.6356 6.99853L69.6393 10.7766C69.1267 10.5928 68.5875 10.4943 68.0431 10.4851C63.927 10.4851 62.8216 13.7385 62.2253 16.0374L60.6945 22.1252H55.8002Z" fill="#231F20"/>
<path d="M68.2031 22.1254L71.9774 7.06064H76.4026L75.8681 9.22472C76.5455 8.43631 77.3916 7.81103 78.3434 7.39537C79.2952 6.97971 80.3283 6.78436 81.3659 6.82383C83.264 6.82383 85.5438 7.33024 85.9402 9.92058C86.6492 8.68188 88.6782 6.82383 92.1834 6.82383C95.2814 6.82383 97.4413 8.68188 97.4413 11.0391C97.3743 12.1481 97.1915 13.2471 96.8958 14.318L94.8596 22.1181H90.0817L92.2634 13.5492C92.4036 12.9996 92.496 12.4389 92.5397 11.8733C92.5397 10.6237 91.6816 10.1027 90.4744 10.1027C89.4308 10.1027 86.9401 10.6237 85.7474 15.2324L83.9512 22.1181H79.0933L81.0604 14.6131C81.325 13.7309 81.4789 12.8191 81.5186 11.8989C81.5186 10.7695 80.7005 10.1027 79.566 10.1027C76.908 10.1027 75.4499 12.5255 75.0281 14.2342L73.0246 22.1181L68.2031 22.1254Z" fill="#231F20"/>
<path d="M102.772 22.3512C99.6557 22.3512 97.2013 20.8939 97.2013 18.1578C97.2013 14.2705 102.19 12.8496 106.517 12.8496C107.731 12.8355 108.944 12.8829 110.153 12.9917V12.2631C110.153 10.6673 109.121 9.60715 106.408 9.60715C104.259 9.65591 102.143 10.1366 100.183 11.0207L100.939 7.65074C103.09 7.12527 105.293 6.8478 107.506 6.82373C111.906 6.82373 114.542 8.35753 114.542 11.5599C114.517 12.5175 114.374 13.4683 114.117 14.3907L112.909 19.1342C112.622 20.4385 112.546 20.8174 112.346 22.1253H108.281L108.666 20.1616C107.524 21.1161 106.03 22.3475 102.783 22.3475L102.772 22.3512ZM101.968 17.8627C101.968 18.8974 102.845 19.5823 104.255 19.5823C107.695 19.5823 109.128 16.8317 109.477 15.3161C108.877 15.3161 108.572 15.2979 108.306 15.2979C105.299 15.2979 101.968 15.8262 101.968 17.8481V17.8627Z" fill="#231F20"/>
<path d="M123.054 22.3512C118.738 22.3512 115.342 19.9649 115.342 15.7424C115.342 13.7386 116.847 6.82373 126.25 6.82373C127.792 6.83525 129.326 7.04586 130.814 7.45037L129.599 10.6637C128.523 10.2298 127.374 10.0071 126.214 10.0079C124.715 9.96476 123.26 10.5195 122.17 11.5504C121.079 12.5812 120.441 14.0038 120.396 15.5055C120.396 18.3291 122.578 19.1488 124.676 19.1488C125.907 19.1412 127.121 18.8665 128.236 18.3436L127.847 21.6808C126.288 22.1165 124.679 22.3467 123.062 22.3658L123.054 22.3512Z" fill="#231F20"/>
<path d="M129.37 22.1218L134.977 0.156738H139.831L136.628 12.5802L143.435 7.06066H149.514L140.697 14.001L148.104 25.7577H142.78L136.123 14.5584L134.195 22.1218H129.37Z" fill="#231F20"/>
<path d="M1.18175 25.6631H2.85802C3.74524 25.6631 4.57427 25.9509 4.57427 26.8909C4.55142 27.2062 4.41748 27.5031 4.19636 27.7287C3.97524 27.9542 3.68133 28.0937 3.36707 28.1223C3.63259 28.1463 3.87776 28.2749 4.04884 28.4798C4.21993 28.6846 4.30296 28.9491 4.27974 29.2152C4.27974 30.698 2.46167 30.811 1.61445 30.811H0L1.18175 25.6631ZM1.27265 30.0022H1.66172C2.35986 30.0022 3.13435 29.933 3.13435 29.1278C3.13435 28.6032 2.59256 28.5157 1.97442 28.5157H1.61081L1.26901 30.0022H1.27265ZM1.789 27.7434H2.23987C2.81438 27.7434 3.4398 27.5976 3.4398 26.9856C3.4398 26.501 2.92346 26.4719 2.47985 26.4719H2.09442L1.789 27.7434Z" fill="#231F20"/>
<path d="M6.79596 25.6631H10.1267L9.9594 26.4719H7.74863L7.44319 27.7397H9.42489L9.24308 28.5558H7.25775L6.93413 30.0022H9.16672L8.97401 30.811H5.59967L6.79596 25.6631Z" fill="#231F20"/>
<path d="M12.6283 28.6797L11.2902 25.6631H12.4865L13.3374 27.8235L15.1809 25.6631H16.5008L13.7592 28.6797L13.2719 30.811H12.1265L12.6283 28.6797Z" fill="#231F20"/>
<path d="M22.5331 27.7504C22.5296 28.6071 22.1915 29.4283 21.5914 30.0384C21.2682 30.3342 20.8898 30.5628 20.4778 30.711C20.0659 30.8592 19.6287 30.9241 19.1915 30.9018C17.7989 30.9018 16.9517 29.991 16.9517 28.7596C16.9604 27.9282 17.2841 27.1313 17.8571 26.5299C18.1553 26.215 18.5162 25.9663 18.9165 25.8C19.3167 25.6337 19.7474 25.5534 20.1806 25.5645C21.7186 25.5645 22.5331 26.3842 22.5331 27.7504ZM18.1407 28.8215C18.1245 28.9855 18.1435 29.1511 18.1965 29.3071C18.2494 29.4631 18.3351 29.606 18.4478 29.7261C18.5604 29.8462 18.6973 29.9407 18.8495 30.0034C19.0016 30.0661 19.1653 30.0954 19.3297 30.0894C20.6424 30.0894 21.3587 28.6758 21.3587 27.6484C21.3752 27.483 21.3558 27.3159 21.3017 27.1587C21.2477 27.0015 21.1603 26.8579 21.0456 26.7378C20.9309 26.6177 20.7916 26.5239 20.6372 26.4628C20.4829 26.4018 20.3172 26.375 20.1515 26.3842C18.8243 26.3842 18.1407 27.7759 18.1407 28.8215Z" fill="#231F20"/>
<path d="M24.7003 25.6631H26.1366L27.3474 29.5723H27.3547L28.2783 25.6631H29.3473L28.1292 30.811H26.6638L25.4821 26.8617H25.4639L24.5694 30.811H23.4713L24.7003 25.6631Z" fill="#231F20"/>
<path d="M31.1472 25.663H32.8416C34.0343 25.663 35.3869 26.0747 35.3869 27.849C35.3869 29.0439 34.7251 30.7963 31.8744 30.7963H29.9763L31.1653 25.6484L31.1472 25.663ZM31.2853 30.0021H31.8235C33.4452 30.0021 34.1943 29.1277 34.1943 27.7105C34.1943 26.9054 33.5034 26.4718 32.4889 26.4718H32.0889L31.289 30.0021H31.2853Z" fill="#231F20"/>
<path d="M40.2775 25.6631H41.4665L40.2666 30.811H39.0885L40.2775 25.6631Z" fill="#231F20"/>
<path d="M43.1828 25.6631H44.6227L45.8299 29.5723H45.8372L46.7717 25.6631H47.8407L46.6117 30.811H45.1572L43.9646 26.8617H43.9573L43.0446 30.811H41.9756L43.1828 25.6631Z" fill="#231F20"/>
<path d="M49.6115 25.6631H51.0478L52.2586 29.5723H52.2659L53.1894 25.6631H54.2585L53.0331 30.811H51.5859L50.3932 26.8617H50.3751L49.4733 30.811H48.3934L49.6115 25.6631Z" fill="#231F20"/>
<path d="M60.7417 27.7506C60.7432 28.1751 60.6611 28.5956 60.5001 28.9882C60.3391 29.3808 60.1024 29.7378 59.8036 30.0386C59.4807 30.3347 59.1022 30.5636 58.6902 30.7118C58.2782 30.8601 57.8409 30.9247 57.4037 30.902C56.0111 30.902 55.1821 29.9912 55.1821 28.7598C55.1809 27.9307 55.4971 27.1327 56.0657 26.5302C56.3649 26.2165 56.726 25.9686 57.126 25.8024C57.526 25.6362 57.9562 25.5552 58.3892 25.5647C59.9236 25.5647 60.7417 26.3844 60.7417 27.7506ZM56.3529 28.8218C56.3366 28.9867 56.3558 29.1533 56.4094 29.3101C56.463 29.4669 56.5497 29.6103 56.6635 29.7306C56.7774 29.8509 56.9157 29.9452 57.0692 30.0071C57.2226 30.0691 57.3876 30.0972 57.5528 30.0896C58.8437 30.0896 59.5709 28.676 59.5709 27.6486C59.5864 27.4825 59.5658 27.315 59.5107 27.1575C59.4556 27.0001 59.3672 26.8564 59.2515 26.7364C59.1358 26.6163 58.9956 26.5227 58.8405 26.462C58.6854 26.4012 58.5191 26.3748 58.3528 26.3844C57.0365 26.3844 56.3529 27.7762 56.3529 28.8218Z" fill="#231F20"/>
<path d="M62.3489 25.6631H63.4906L64.0179 29.6743H64.036L66.3886 25.6631H67.6213L64.4506 30.811H63.0943L62.3489 25.6631Z" fill="#231F20"/>
<path d="M70.5484 25.6631H71.821L72.8464 30.811H71.7192L71.5265 29.6379H69.1085L68.3812 30.811H67.1195L70.5411 25.6631H70.5484ZM69.6066 28.8218H71.3592L70.9956 26.5775H70.952L69.5957 28.8218H69.6066Z" fill="#231F20"/>
<path d="M74.7627 25.6631H79.1442L78.9406 26.4719H77.3552L76.3189 30.811H75.1299L76.1735 26.4719H74.5663L74.7627 25.6631Z" fill="#231F20"/>
<path d="M80.286 25.6631H81.475L80.286 30.811H79.097L80.286 25.6631Z" fill="#231F20"/>
<path d="M87.9146 27.7505C87.9231 28.1833 87.841 28.613 87.6736 29.0121C87.5063 29.4112 87.2573 29.7707 86.9429 30.0676C86.6285 30.3645 86.2555 30.5921 85.8479 30.7358C85.4404 30.8794 85.0073 30.936 84.5766 30.9019C83.1731 30.9019 82.3513 29.991 82.3513 28.7596C82.3522 27.9323 82.6652 27.1358 83.2276 26.53C83.5276 26.2174 83.8889 25.9702 84.2887 25.8041C84.6886 25.6379 85.1183 25.5564 85.5511 25.5645C87.1037 25.5645 87.9146 26.3842 87.9146 27.7505ZM83.5512 28.8216C83.5344 28.9857 83.553 29.1515 83.6058 29.3078C83.6585 29.4641 83.7442 29.6072 83.8569 29.7274C83.9697 29.8477 84.1069 29.9422 84.2593 30.0047C84.4117 30.0671 84.5757 30.096 84.7403 30.0894C86.0311 30.0894 86.751 28.6758 86.751 27.6484C86.7676 27.483 86.7482 27.3159 86.6941 27.1588C86.6401 27.0016 86.5527 26.858 86.438 26.7378C86.3232 26.6177 86.1839 26.5239 86.0296 26.4629C85.8752 26.4018 85.7095 26.375 85.5438 26.3842C84.2348 26.3842 83.5512 27.776 83.5512 28.8216Z" fill="#231F20"/>
<path d="M90.0817 25.6631H91.518L92.7179 29.5723H92.7361L93.6597 25.6631H94.7396L93.5033 30.811H92.0561L90.8635 26.8617H90.8453L89.9435 30.811H88.8563L90.0817 25.6631Z" fill="#231F20"/>
<path d="M148.104 25.7578L96.914 54.0002H125.821L177 25.7578H148.104Z" fill="#EE3224"/>
<path d="M116.367 40.3307L142.78 25.7578H113.884L87.471 40.3307H116.367Z" fill="#EE3224"/>
</g>
<defs>
<clipPath id="clip0_203_542">
<rect width="177" height="54" fill="white"/>
</clipPath>
</defs>
</svg>
