<svg width="364" height="328" viewBox="0 0 364 328" fill="none" xmlns="http://www.w3.org/2000/svg">
<g clip-path="url(#clip0_712_10557)">
<path d="M29.9199 0.418609C30.5996 -2.00421e-06 31.1389 0.139537 31.6487 0.139537C100.503 0.139537 169.358 0.128519 238.215 0.106487C239.423 0.106487 240.106 0.5251 240.801 1.46514C251.365 15.8448 261.954 30.2097 272.568 44.56L301.975 84.4125L312.115 98.1569C312.337 98.4617 312.614 98.7518 312.44 99.1997C312.015 99.4862 311.524 99.365 311.058 99.3687C291.491 99.4446 271.922 99.5278 252.351 99.6184C250.874 99.6184 249.917 99.2108 248.979 98.0247C238.281 84.5116 227.549 71.028 216.783 57.5737C210.951 50.2296 205.15 42.8648 199.377 35.4791C199.154 35.1487 198.848 34.8824 198.489 34.7071C198.129 34.5317 197.73 34.4535 197.331 34.4803C179.689 34.6443 162.044 34.7949 144.397 34.932C133.534 35.0311 122.67 35.1817 111.806 35.3212C111.237 35.3212 110.654 35.2221 109.996 35.5121C110.21 37.1609 111.027 38.6334 111.588 40.172C113.468 45.3311 115.482 50.4536 117.38 55.5945C117.75 56.5932 118.263 56.7732 119.227 56.5565C126.576 54.9041 133.928 53.2713 141.283 51.658C149.628 49.822 157.983 48.0558 166.328 46.2308C173.313 44.6996 180.291 43.1353 187.272 41.582C188.96 41.2148 190.641 40.8109 192.333 40.451C192.776 40.3555 193.256 40.1169 193.781 40.6126C193.282 42.2356 192.049 43.4694 191.147 44.8648C184.524 55.0804 177.798 65.2335 171.134 75.4271C166.157 83.0355 161.213 90.6635 156.303 98.3111C156.109 98.6616 155.817 98.9488 155.462 99.1384C155.108 99.3279 154.706 99.4117 154.304 99.3797C134.931 99.3625 115.558 99.3625 96.1847 99.3797C94.8586 99.3797 94.1272 98.9354 93.4216 97.8411C87.2454 88.2718 81.0336 78.7245 74.786 69.1993C64.0737 52.8392 53.3577 36.473 42.638 20.1007C38.6338 13.9806 34.637 7.84834 30.6476 1.70382C30.4075 1.32927 30.1896 0.8923 29.9199 0.418609Z" fill="#0198D9"/>
<path d="M24.7598 327.905C26.9761 324.49 29.0225 321.324 31.0837 318.17C37.7844 307.918 44.4852 297.669 51.1859 287.424C57.0961 278.366 62.999 269.309 68.8944 260.251C75.4917 250.129 82.0878 240.004 88.6826 229.876C88.8548 229.567 89.113 229.314 89.4261 229.148C89.7393 228.981 90.0942 228.907 90.4483 228.936C110.115 228.951 129.781 228.951 149.447 228.936C150.267 228.936 150.703 229.248 151.154 229.939C161.851 246.365 172.57 262.775 183.309 279.169C184.875 281.564 186.453 283.943 188 286.359C188.303 286.826 188.717 287.259 188.739 287.879C188.207 288.188 187.686 287.964 187.199 287.857C177.355 285.654 167.525 283.451 157.677 281.274C150.6 279.72 143.493 278.284 136.415 276.739C129.338 275.193 122.378 273.592 115.36 272.013C114.843 271.899 114.318 271.825 113.805 271.693C113.125 271.521 112.73 271.745 112.479 272.406C109.999 278.939 107.528 285.465 105.065 291.981C104.972 292.159 104.929 292.359 104.94 292.559C104.951 292.759 105.016 292.953 105.128 293.119C107.536 293.119 110.118 293.119 112.697 293.119C130.294 293.274 147.891 293.434 165.486 293.601C174.425 293.681 183.368 293.74 192.311 293.839C192.686 293.872 193.063 293.806 193.404 293.648C193.745 293.49 194.038 293.246 194.254 292.94C203.171 281.622 212.105 270.321 221.057 259.036C228.814 249.253 236.642 239.504 244.406 229.718C244.636 229.393 244.947 229.132 245.308 228.962C245.669 228.791 246.068 228.717 246.467 228.745C266.323 228.833 286.18 228.904 306.039 228.958C306.452 228.958 306.903 228.841 307.302 229.197C307.394 229.994 306.781 230.482 306.379 231.033C297.809 242.673 289.229 254.301 280.64 265.917L250.815 306.346C245.784 313.165 240.738 319.98 235.74 326.821C235.502 327.199 235.167 327.507 234.768 327.712C234.37 327.917 233.924 328.011 233.476 327.985C164.43 327.963 95.3821 327.956 26.3334 327.963C25.8938 327.978 25.4727 327.938 24.7598 327.905Z" fill="#0198D9"/>
<path d="M364.007 215.041C363.493 215.441 362.995 215.306 362.529 215.306C352.338 215.306 342.146 215.287 331.951 215.346C330.673 215.346 330.219 214.891 329.901 213.752C326.673 202.158 323.416 190.574 320.131 179C317.584 169.994 315.036 160.985 312.484 151.974C310.977 146.647 309.477 141.315 307.985 135.979C307.885 135.612 307.897 135.211 307.309 134.84L296.357 169.875C296.963 170.448 297.506 170.154 298.008 170.154C301.085 170.154 304.162 170.187 307.243 170.154C308.21 170.154 308.72 170.485 309.027 171.41C313.093 184 317.174 196.584 321.272 209.162C321.933 211.197 322.683 213.201 323.215 215.522H315.739C312.241 215.522 312.17 215.544 311.066 212.217C308.547 204.594 306.105 196.949 303.63 189.315C303.486 188.86 303.261 188.423 303.172 187.956C302.969 187.031 302.407 186.8 301.502 186.814C298.473 186.862 295.444 186.869 292.415 186.814C291.425 186.796 290.986 187.126 290.694 188.074C288.034 196.703 285.305 205.31 282.652 213.943C282.335 214.979 281.914 215.372 280.772 215.361C275.194 215.298 269.617 215.335 264.043 215.328C263.577 215.328 263.086 215.43 262.506 215.056C263.311 212.684 264.105 210.282 264.933 207.917C268.678 197.185 272.429 186.453 276.184 175.721C281.176 161.474 286.17 147.226 291.167 132.979C293.831 125.36 296.471 117.732 299.087 110.095C299.456 109.07 299.921 108.703 301.03 108.71C309.252 108.757 317.474 108.757 325.694 108.71C326.673 108.71 327.142 108.997 327.459 109.933C329.306 115.36 331.227 120.766 333.122 126.178C335.896 134.095 338.693 142.005 341.448 149.929C345.028 160.21 348.559 170.514 352.161 180.796C355.588 190.626 359.112 200.426 362.459 210.286C362.98 211.854 363.818 213.381 364.007 215.041Z" fill="#0198D9"/>
<path d="M108.803 160.967C108.803 178.651 108.813 196.335 108.833 214.017C108.833 215.324 108.501 215.713 107.156 215.706C96.1481 215.654 85.1391 215.654 74.1288 215.706C72.751 215.706 72.4629 215.269 72.4629 213.995C72.4924 178.582 72.4924 143.17 72.4629 107.759C72.4629 106.357 72.884 105.997 74.2507 106.004C85.1145 106.052 95.9819 106.03 106.846 106.03C108.8 106.03 108.807 106.03 108.807 108.06L108.803 160.967Z" fill="#0198D9"/>
<path d="M227.548 197.885C214.501 179.246 202.034 160.328 189.161 141.601C189.53 140.866 190.206 140.477 190.79 140.018C197.897 134.4 205.013 128.794 212.137 123.2C213.725 121.952 213.902 121.97 215.092 123.567C223.009 134.14 230.921 144.716 238.829 155.294C246.364 165.377 253.83 175.512 261.461 185.525C263.057 187.618 263.456 189.418 262.233 191.768C260.627 194.856 259.012 197.911 256.715 200.581C251.063 207.106 244.048 211.645 235.992 214.656C228.471 217.516 220.428 218.767 212.388 218.328C204.683 217.917 197.161 215.841 190.347 212.243C186.284 210.065 182.504 207.401 179.091 204.312C178.231 203.548 178.146 203.012 178.932 202.108C181.795 198.803 184.591 195.499 187.366 192.124C188.241 191.067 189.002 191.056 190.018 191.915C193.613 195.02 197.611 197.632 201.905 199.681C210.031 203.456 218.054 203.316 225.97 199.057C226.34 198.851 226.709 198.624 227.079 198.389C227.248 198.234 227.405 198.065 227.548 197.885Z" fill="#0198D9"/>
<path d="M121.873 169.93C121.392 170.933 121.618 171.943 121.629 172.912C121.698 181.27 121.791 189.63 121.91 197.992C121.98 203.247 122.105 208.501 122.187 213.756C122.22 215.72 122.187 215.724 120.288 215.724C118.389 215.724 116.439 215.658 114.518 215.746C113.314 215.801 112.974 215.397 112.97 214.211C112.956 201.69 112.908 189.169 112.826 176.65C112.78 168.192 112.707 159.736 112.608 151.28C112.581 150.807 112.668 150.335 112.86 149.902C113.053 149.47 113.346 149.088 113.717 148.79C120.208 143.045 126.683 137.28 133.143 131.495C141.306 124.151 149.446 116.795 157.563 109.426C157.964 109.023 158.443 108.706 158.972 108.493C159.5 108.28 160.066 108.177 160.636 108.189C167.171 108.24 173.709 108.207 180.247 108.222C180.79 108.222 181.407 108.009 181.91 108.556C181.596 109.478 180.724 109.893 180.088 110.499C170.777 119.341 161.456 128.174 152.126 137C149.565 139.401 146.983 141.767 144.38 144.098C143.552 144.832 143.371 145.427 143.918 146.528C148.86 156.509 153.806 166.493 158.583 176.558C164.493 188.995 170.687 201.293 176.683 213.694C176.945 214.241 177.322 214.762 177.311 215.416C176.882 215.904 176.313 215.713 175.833 215.717C165.209 215.717 154.586 215.717 143.962 215.743C142.972 215.743 142.433 215.496 142.004 214.527C135.703 200.28 129.368 186.046 122.999 171.825C122.682 171.19 122.523 170.463 121.873 169.93Z" fill="#0198D9"/>
<path d="M246.224 0.510408C246.594 0.102813 247.125 0.231334 247.58 0.22399C252.049 0.143206 256.519 0.110157 260.989 -3.43169e-06C262.012 -0.0220356 262.621 0.323137 263.246 1.14934C268.303 7.87649 273.433 14.5486 278.527 21.25C287.961 33.6663 297.391 46.0851 306.815 58.5064C313.361 67.1087 319.92 75.7 326.492 84.2803C329.832 88.65 333.165 93.0246 336.492 97.4041C336.784 97.7897 337.271 98.1605 337.057 98.7701C336.806 99.1153 336.448 99.0418 336.123 99.0492C331.557 99.13 326.995 99.1814 322.429 99.2989C321.986 99.3371 321.54 99.2549 321.14 99.0608C320.74 98.8668 320.4 98.5683 320.157 98.1973C306.177 79.8004 292.179 61.4171 278.162 43.0471C267.678 29.2648 257.212 15.4702 246.763 1.66343C246.509 1.32927 246.198 0.987771 246.224 0.510408Z" fill="#0198D9"/>
<path d="M84.904 99.0528C83.334 99.0528 81.8565 99.0308 80.3789 99.0528C76.9178 99.1153 73.4603 99.1703 70.0028 99.2952C69.5579 99.3459 69.1081 99.2615 68.7125 99.053C68.3168 98.8446 67.994 98.5219 67.7865 98.1275C58.6404 83.88 49.4721 69.6473 40.2817 55.4292C29.0597 38.0263 17.845 20.6221 6.63771 3.21669C6.08363 2.35377 5.33008 1.56428 5.16016 0.422283C6.16859 0.0550804 7.18441 0.220322 8.17438 0.201962C12.1601 0.121177 16.1495 0.102816 20.1389 -4.85219e-07C20.561 -0.0400184 20.9855 0.0467067 21.3576 0.248972C21.7296 0.451237 22.0321 0.75975 22.2259 1.13466C31.2932 15.2597 40.3827 29.3713 49.4943 43.4694C55.9438 53.4818 62.3811 63.5003 68.806 73.5249C73.9072 81.4492 79.0454 89.3513 84.1541 97.2682C84.4533 97.7383 84.8929 98.1532 84.904 99.0528Z" fill="#0198D9"/>
<path d="M240.846 327.835C242.962 325.022 244.95 322.356 246.963 319.705C254.07 310.327 261.194 300.952 268.336 291.581C280.846 275.125 293.359 258.673 305.877 242.225C309.009 238.113 312.156 234.015 315.27 229.883C315.443 229.603 315.69 229.375 315.983 229.224C316.277 229.073 316.606 229.004 316.936 229.024C321.55 229.131 326.171 229.186 330.777 229.278C331.239 229.278 331.749 229.278 332.122 229.674C332.122 230.262 331.645 230.6 331.342 231C322.817 242.197 314.284 253.387 305.744 264.569C296.361 276.907 287.003 289.259 277.67 301.624C271.213 310.121 264.737 318.602 258.24 327.067C257.871 327.57 257.52 328 256.763 327.996C251.713 327.96 246.664 327.974 241.618 327.967C241.358 327.942 241.099 327.898 240.846 327.835Z" fill="#0198D9"/>
<path d="M79.7512 229.531C79.6994 230.309 79.234 230.765 78.9016 231.275C67.7977 248.536 56.6865 265.795 45.5679 283.051C38.052 294.711 30.5239 306.362 22.9834 318.005C21.0367 321.019 19.1122 324.045 17.1729 327.064C16.8922 327.497 16.6705 327.982 16.002 327.978C10.7197 327.978 5.43372 327.978 0 327.978C0.247491 326.689 1.10817 325.863 1.68441 324.938C9.3751 312.942 17.0855 300.956 24.8156 288.977C29.5548 281.633 34.3421 274.326 39.0777 266.982C43.5362 260.068 47.943 253.124 52.3757 246.202C55.8369 240.808 59.3276 235.436 62.7999 230.045C62.958 229.747 63.1942 229.497 63.4837 229.322C63.7731 229.147 64.1048 229.053 64.4437 229.05C69.3935 229.123 74.3433 229.212 79.2931 229.314C79.4261 229.318 79.548 229.428 79.7512 229.531Z" fill="#0198D9"/>
<path d="M246.398 106.573C256.275 106.628 264.069 109.878 270.264 116.635C272.632 119.205 274.109 122.447 275.967 125.392C277.825 128.337 277.792 128.414 274.519 129.839C271.354 131.216 268.181 132.582 265.044 134.025C264.062 134.477 263.545 134.282 262.902 133.434C260.649 130.463 258.355 127.522 255.965 124.658C253.01 121.111 245.448 119.653 241.282 121.72C238.522 123.083 237.518 125.429 238.327 128.396C238.958 130.687 240.436 132.435 241.873 134.231C244.239 137.169 246.6 140.121 248.954 143.088C250.431 144.946 250.354 146.415 248.754 148.166C247.878 149.123 246.71 149.768 245.43 150.002C244.967 150.123 244.477 150.095 244.031 149.923C243.585 149.751 243.204 149.443 242.944 149.044C234.965 138.645 226.962 128.264 218.934 117.901C218.428 117.244 217.656 116.62 218.9 115.841C227.529 110.433 236.712 106.716 246.398 106.573Z" fill="#0198D9"/>
</g>
<defs>
<clipPath id="clip0_712_10557">
<rect width="364" height="328" fill="white"/>
</clipPath>
</defs>
</svg>
