<svg width="281" height="300" viewBox="0 0 281 300" fill="none" xmlns="http://www.w3.org/2000/svg">
<path d="M234.206 197.005C204.779 183.121 172.898 175.943 140.652 175.943C108.406 175.943 76.524 183.121 47.0975 197.005V0H234.206V197.005Z" fill="#141E8C"/>
<path d="M69.2751 60.1226C66.8606 60.1331 64.5396 61.1064 62.7794 62.8465C61.0191 64.5866 59.9505 66.9643 59.7885 69.5007H55.579V55.5941H88.4618C87.921 63.9256 84.5794 71.782 79.0362 77.7548C79.0362 77.7548 69.8851 88.9956 69.5801 93.8132H74.8877C82.5136 93.8132 83.2762 84.4351 83.2762 84.4351H87.5467V98.3738H53.9928C53.9928 98.3738 52.7727 87.8073 64.3945 74.9927C64.3945 74.9927 71.5323 66.5781 73.1795 59.962L69.2751 60.1226Z" fill="white"/>
<path d="M152.671 98.4701V93.9095H151.695C151.268 93.9138 150.844 93.8288 150.449 93.6597C150.053 93.4905 149.693 93.2404 149.389 92.9238C149.086 92.6073 148.845 92.2306 148.681 91.8154C148.516 91.4003 148.431 90.9549 148.432 90.5051V63.5912C148.432 62.6798 148.775 61.8057 149.387 61.1613C150 60.5168 150.83 60.1547 151.695 60.1547H152.671V55.5941H130.953V60.1547H131.96C132.388 60.1505 132.813 60.2352 133.211 60.404C133.609 60.5728 133.971 60.8224 134.277 61.1385C134.582 61.4546 134.826 61.8311 134.994 62.2464C135.162 62.6618 135.25 63.1078 135.254 63.5591V90.4409C135.254 91.3523 134.91 92.2264 134.298 92.8709C133.686 93.5154 132.856 93.8774 131.99 93.8774H130.953V98.438L152.671 98.4701Z" fill="white"/>
<path d="M126.469 98.5024V84.5636H122.015C122.015 84.5636 121.192 93.9418 113.566 93.9418H109.295V79.3286H110.851C111.717 79.3368 112.546 79.7005 113.161 80.3423C113.776 80.9841 114.13 81.8534 114.145 82.7651V84.4994H118.446V69.5008H114.145V71.2673C114.138 72.1791 113.792 73.0518 113.183 73.6996C112.573 74.3474 111.747 74.7192 110.882 74.7359H109.295V60.1227H113.657C121.283 60.1227 122.107 69.5008 122.107 69.5008H126.469V55.5621H91.9694V60.1548H92.976C93.4032 60.1506 93.8269 60.2355 94.2227 60.4047C94.6185 60.5739 94.9786 60.824 95.2821 61.1405C95.5856 61.4571 95.8265 61.8338 95.9909 62.249C96.1553 62.6641 96.2399 63.1094 96.2399 63.5592V90.441C96.2399 91.3524 95.896 92.2265 95.2839 92.871C94.6718 93.5155 93.8416 93.8775 92.976 93.8775H91.9694V98.4381L126.469 98.5024Z" fill="white"/>
<path d="M175.486 60.1226C177.901 60.1331 180.222 61.1064 181.982 62.8465C183.742 64.5866 184.811 66.9643 184.973 69.5007H189.121V55.5941H157.916C157.916 55.5941 152.944 62.4029 165.908 77.7548C165.908 77.7548 175.059 88.9956 175.303 93.8132H170.026C162.431 93.8132 161.607 84.4351 161.607 84.4351H157.215V98.3738H188.755C188.755 98.3738 194.49 91.9504 180.306 74.9927C180.306 74.9927 172.863 66.9635 171.49 59.962L175.486 60.1226Z" fill="white"/>
<path d="M212.092 60.1226C214.503 60.1337 216.82 61.108 218.576 62.8488C220.331 64.5896 221.393 66.9671 221.548 69.5007H225.727V55.5941H194.491C194.491 55.5941 189.549 62.4029 202.483 77.7548C202.483 77.7548 211.634 88.9956 211.909 93.8132H206.631C199.006 93.8132 198.212 84.4351 198.212 84.4351H193.82V98.3738H225.391C225.391 98.3738 231.095 91.9504 216.911 74.9927C216.911 74.9927 209.499 66.9635 208.157 59.962L212.092 60.1226Z" fill="white"/>
<path d="M0.183021 283.881C1.24018 284.492 2.36802 284.956 3.5384 285.262C4.71315 285.599 5.92091 285.793 7.13781 285.84C7.82163 285.781 8.49696 285.641 9.15104 285.422C9.79048 285.23 10.3904 284.914 10.9202 284.491C11.4661 284.061 11.9056 283.499 12.2014 282.853C12.5217 282.096 12.678 281.273 12.6589 280.444C12.6608 279.762 12.5037 279.089 12.2014 278.485C11.9339 277.919 11.5723 277.408 11.1338 276.976C10.6644 276.498 10.1298 276.098 9.54759 275.787L7.65637 274.727L5.42962 273.539C4.74381 273.167 4.08153 272.748 3.44689 272.286C2.81288 271.844 2.25573 271.29 1.79971 270.649C1.32779 269.997 0.957137 269.271 0.70158 268.497C0.042559 266.238 0.194537 263.804 1.12863 261.656C1.64481 260.557 2.40947 259.609 3.35538 258.894C4.26647 258.167 5.30221 257.633 6.40573 257.32C7.53268 257.027 8.69235 256.897 9.85262 256.935C12.0644 256.909 14.2666 257.244 16.3804 257.93L16.1363 262.138C15.1625 261.682 14.1375 261.358 13.086 261.174C12.0825 260.956 11.0602 260.848 10.0356 260.853C9.41761 260.855 8.80243 260.941 8.20544 261.11C7.59675 261.244 7.02379 261.518 6.52775 261.913C6.0228 262.278 5.60516 262.762 5.30761 263.326C4.97646 264.011 4.81886 264.774 4.85005 265.542C4.82734 266.137 4.93157 266.729 5.15509 267.276C5.37585 267.756 5.67531 268.191 6.03969 268.561C6.43719 268.956 6.87742 269.301 7.35134 269.589L8.87651 270.456L11.2558 271.676C12.0812 272.084 12.8765 272.557 13.6351 273.089C14.3558 273.561 15.0039 274.146 15.5568 274.824C16.1317 275.51 16.5768 276.306 16.8684 277.168C17.2165 278.198 17.3819 279.287 17.3565 280.38C17.3856 281.826 17.1149 283.262 16.5634 284.587C16.0768 285.732 15.3461 286.743 14.4281 287.542C13.5261 288.313 12.49 288.891 11.3778 289.244C10.1095 289.637 8.79542 289.843 7.47335 289.854C6.25814 289.829 5.04571 289.721 3.84344 289.533C2.5302 289.293 1.24277 288.917 0 288.409L0.183021 283.881Z" fill="black"/>
<path d="M26.3874 278.196C26.3813 279.285 26.5357 280.368 26.8449 281.408C27.1421 282.339 27.6213 283.195 28.2518 283.92C28.8822 284.644 29.6499 285.222 30.5054 285.615C31.4684 286.051 32.5075 286.27 33.5557 286.257C34.5848 286.249 35.6091 286.108 36.606 285.84C37.5827 285.606 38.5261 285.239 39.4124 284.748L39.6869 288.281C38.7061 288.717 37.6834 289.04 36.6366 289.244C35.4791 289.464 34.3048 289.572 33.1287 289.565C31.4839 289.572 29.8515 289.267 28.3091 288.666C26.9914 288.093 25.8132 287.215 24.8622 286.097C23.8946 284.946 23.1765 283.587 22.7575 282.114C22.267 280.473 22.0301 278.76 22.0559 277.04C22.0476 275.45 22.274 273.868 22.727 272.351C23.1299 270.924 23.793 269.593 24.6792 268.432C25.5004 267.313 26.5408 266.393 27.7295 265.735C29.0177 265.026 30.4554 264.672 31.9085 264.707C33.3802 264.678 34.8395 264.996 36.179 265.638C37.3031 266.221 38.2686 267.094 38.9853 268.176C39.7215 269.335 40.2393 270.632 40.5105 271.997C40.8151 273.551 40.9684 275.133 40.9681 276.719V278.164H26.3874V278.196ZM36.7586 275.241C36.7481 274.359 36.6767 273.479 36.545 272.608C36.411 271.799 36.1535 271.018 35.7825 270.295C35.4077 269.58 34.8472 268.992 34.1666 268.599C33.486 268.207 32.7134 268.026 31.939 268.079C31.0941 268.048 30.2583 268.271 29.5292 268.722C28.857 269.135 28.275 269.693 27.821 270.359C27.3422 271.056 26.9905 271.84 26.7839 272.672C26.5459 273.506 26.4126 274.37 26.3874 275.241H36.7586Z" fill="black"/>
<path d="M49.4175 278.196C49.4061 279.288 49.5711 280.374 49.9055 281.408C50.1848 282.352 50.6534 283.222 51.2796 283.959C51.9059 284.696 52.6752 285.282 53.5354 285.679C54.4984 286.115 55.5375 286.334 56.5858 286.322C57.6125 286.337 58.6372 286.219 59.6361 285.968C60.621 285.729 61.5739 285.363 62.4729 284.876L62.717 288.409C61.7362 288.845 60.7134 289.168 59.6666 289.373C58.5091 289.593 57.3349 289.7 56.1587 289.694C54.5237 289.704 52.9007 289.399 51.3697 288.795C50.0384 288.231 48.8484 287.352 47.8923 286.225C46.906 285.058 46.1769 283.677 45.757 282.178C45.2665 280.538 45.0297 278.824 45.0555 277.104C45.057 275.512 45.2937 273.93 45.757 272.415C46.1724 270.993 46.8343 269.665 47.7093 268.497C48.5372 267.384 49.576 266.466 50.7596 265.799C52.0409 265.102 53.466 264.749 54.9081 264.771C56.3899 264.738 57.8599 265.056 59.2091 265.703C60.3184 266.295 61.2718 267.167 61.9849 268.24C62.7338 269.392 63.2527 270.692 63.5101 272.062C63.8455 273.612 64.0294 275.194 64.0591 276.783V278.228H49.4175V278.196ZM59.7581 275.241C59.7628 274.358 59.6914 273.477 59.5446 272.608C59.4106 271.799 59.153 271.018 58.782 270.295C58.435 269.635 57.9303 269.081 57.3179 268.689C56.5854 268.279 55.7683 268.064 54.9386 268.064C54.1088 268.064 53.2918 268.279 52.5593 268.689C51.8777 269.102 51.2855 269.66 50.8206 270.327C50.354 271.031 50.0034 271.813 49.7835 272.64C49.5454 273.474 49.4121 274.338 49.387 275.209L59.7581 275.241Z" fill="black"/>
<path d="M69.2134 260.339V255.682H73.5449V260.339H69.2134ZM69.2134 289.052V265.253H73.5449V289.052H69.2134Z" fill="black"/>
<path d="M80.1034 289.052V270.713C80.1034 269.781 80.1034 268.85 80.1034 267.983C80.1034 267.116 80.1034 266.152 79.9204 265.253H83.9774V269.364C84.5852 267.954 85.5759 266.766 86.8245 265.949C88.0731 265.131 89.5237 264.722 90.9932 264.771C92.1449 264.737 93.2899 264.967 94.3485 265.446C95.2488 265.853 96.0285 266.507 96.6058 267.341C97.1957 268.218 97.6107 269.212 97.826 270.263C98.0951 271.506 98.2282 272.778 98.2225 274.053V289.052H93.891V275.081C93.8867 274.265 93.8358 273.449 93.7385 272.64C93.6759 271.907 93.4681 271.196 93.1284 270.552C92.845 269.949 92.3996 269.446 91.8473 269.107C91.1755 268.719 90.4165 268.531 89.651 268.561C88.7534 268.525 87.8646 268.759 87.0887 269.235C86.4336 269.679 85.8812 270.272 85.472 270.97C85.0441 271.723 84.7447 272.549 84.5874 273.411C84.4156 274.331 84.3338 275.267 84.3434 276.205V289.052H80.1034Z" fill="black"/>
<path d="M105.665 294.576C106.633 295.115 107.656 295.536 108.715 295.828C109.812 296.122 110.939 296.273 112.071 296.278C113.166 296.3 114.255 296.092 115.274 295.668C116.144 295.283 116.909 294.676 117.5 293.901C118.091 293.103 118.517 292.184 118.751 291.203C119.012 290.068 119.135 288.903 119.117 287.735V284.908C118.507 286.26 117.517 287.382 116.28 288.12C115.063 288.814 113.7 289.178 112.315 289.178C110.93 289.178 109.567 288.814 108.349 288.12C107.269 287.426 106.343 286.495 105.635 285.39C104.916 284.209 104.4 282.905 104.109 281.536C103.802 280.071 103.668 278.572 103.713 277.072C103.706 275.516 103.87 273.964 104.201 272.447C104.477 271.054 104.994 269.726 105.726 268.529C106.452 267.327 107.466 266.347 108.665 265.688C109.864 265.028 111.207 264.712 112.559 264.771C113.959 264.759 115.337 265.136 116.555 265.863C117.777 266.61 118.756 267.73 119.361 269.075V265.253H123.51V287.735C123.701 290.978 122.769 294.185 120.886 296.76C119.841 297.88 118.577 298.748 117.181 299.303C115.785 299.858 114.291 300.086 112.803 299.971C111.555 299.967 110.31 299.848 109.082 299.618C107.844 299.389 106.621 299.078 105.421 298.687L105.665 294.576ZM109.448 282.628C109.841 283.4 110.393 284.069 111.064 284.587C111.863 285.101 112.782 285.373 113.718 285.373C114.654 285.373 115.573 285.101 116.372 284.587C117.073 284.054 117.665 283.377 118.111 282.596C118.536 281.759 118.845 280.861 119.026 279.93C119.202 278.999 119.304 278.054 119.331 277.104C119.332 276.112 119.24 275.122 119.056 274.149C118.905 273.164 118.606 272.21 118.172 271.323C117.754 270.494 117.159 269.78 116.433 269.235C115.668 268.668 114.744 268.386 113.81 268.433C112.837 268.39 111.877 268.671 111.064 269.235C110.352 269.755 109.783 270.464 109.417 271.291C108.992 272.177 108.713 273.133 108.593 274.117C108.447 275.116 108.376 276.126 108.38 277.136C108.399 278.094 108.481 279.049 108.624 279.995C108.745 280.928 109.024 281.831 109.448 282.66V282.628Z" fill="black"/>
<path d="M143.733 254.687H148.034V269.171C148.554 267.809 149.501 266.676 150.718 265.96C151.909 265.213 153.267 264.814 154.653 264.803C156.097 264.766 157.525 265.12 158.802 265.831C159.924 266.479 160.869 267.419 161.547 268.561C162.279 269.758 162.796 271.086 163.072 272.479C163.681 275.529 163.681 278.679 163.072 281.729C162.811 283.107 162.337 284.431 161.669 285.647C160.966 286.805 160.015 287.772 158.893 288.473C157.643 289.231 156.217 289.609 154.775 289.565C153.368 289.601 151.982 289.211 150.779 288.441C149.563 287.687 148.586 286.569 147.973 285.23V289.18H143.733V254.687ZM149.101 282.917C149.524 283.751 150.105 284.484 150.81 285.069C151.563 285.668 152.49 285.975 153.433 285.936C154.399 285.971 155.351 285.678 156.148 285.101C156.856 284.542 157.431 283.816 157.825 282.982C158.237 282.078 158.514 281.115 158.649 280.123C158.806 279.125 158.887 278.116 158.893 277.104C158.899 276.093 158.828 275.084 158.68 274.085C158.555 273.116 158.288 272.173 157.886 271.291C157.494 270.482 156.93 269.779 156.239 269.235C155.438 268.712 154.513 268.435 153.57 268.435C152.627 268.435 151.703 268.712 150.901 269.235C150.184 269.781 149.599 270.496 149.193 271.323C148.739 272.196 148.419 273.139 148.247 274.117C148.064 275.09 147.972 276.08 147.973 277.072C147.977 278.062 148.059 279.051 148.217 280.027C148.368 281.033 148.666 282.008 149.101 282.917Z" fill="black"/>
<path d="M172.254 278.196C172.248 279.285 172.403 280.368 172.712 281.408C172.996 282.354 173.47 283.225 174.102 283.962C174.733 284.699 175.507 285.284 176.372 285.679C177.334 286.121 178.374 286.34 179.423 286.322C180.449 286.339 181.474 286.221 182.473 285.968C183.461 285.74 184.415 285.373 185.31 284.876L185.584 288.409C184.555 288.857 183.48 289.18 182.381 289.373C181.224 289.591 180.05 289.699 178.874 289.694C177.229 289.703 175.596 289.399 174.054 288.795C172.719 288.237 171.528 287.357 170.577 286.225C169.629 285.064 168.923 283.708 168.502 282.243C167.995 280.583 167.748 278.847 167.77 277.104C167.762 275.514 167.988 273.932 168.441 272.415C168.844 270.988 169.507 269.657 170.394 268.497C171.21 267.372 172.251 266.451 173.444 265.799C174.732 265.09 176.17 264.737 177.623 264.771C179.095 264.742 180.554 265.06 181.893 265.703C183.012 266.294 183.975 267.165 184.7 268.24C185.436 269.399 185.954 270.697 186.225 272.062C186.529 273.615 186.683 275.197 186.682 276.783V278.228H172.254V278.196ZM182.595 275.241C182.595 274.36 182.533 273.48 182.412 272.608C182.264 271.803 182.007 271.024 181.649 270.295C181.275 269.58 180.714 268.992 180.034 268.599C179.353 268.207 178.58 268.026 177.806 268.079C176.961 268.048 176.125 268.271 175.396 268.722C174.724 269.135 174.142 269.693 173.688 270.359C173.2 271.055 172.838 271.839 172.62 272.672C172.407 273.511 172.284 274.373 172.254 275.241H182.595Z" fill="black"/>
<path d="M190.249 295.892C190.945 296.098 191.663 296.206 192.385 296.214C192.856 296.23 193.324 296.131 193.753 295.925C194.181 295.719 194.559 295.411 194.856 295.025C195.555 293.915 196.07 292.688 196.381 291.396L196.838 289.919L189.121 265.253H193.849L199.126 284.844L204.373 265.253H208.765L200.407 292.263C200.127 293.19 199.801 294.102 199.431 294.993C199.07 295.863 198.609 296.682 198.058 297.434C197.484 298.224 196.739 298.858 195.885 299.283C195.03 299.707 194.092 299.91 193.147 299.875C192.121 299.877 191.098 299.759 190.097 299.522L190.249 295.892Z" fill="black"/>
<path d="M216.91 288.698C214.965 287.78 213.374 286.195 212.395 284.202C210.662 280.423 210.378 276.087 211.602 272.094C212.076 270.659 212.8 269.33 213.737 268.175C214.68 267.105 215.822 266.253 217.093 265.67C218.49 265.042 219.996 264.725 221.516 264.739C223.071 264.731 224.614 265.036 226.061 265.638C227.336 266.197 228.481 267.041 229.416 268.111C230.347 269.254 231.043 270.589 231.46 272.029C231.928 273.675 232.154 275.386 232.131 277.104C232.152 278.79 231.926 280.469 231.46 282.082C231.032 283.547 230.337 284.91 229.416 286.097C228.503 287.224 227.354 288.114 226.061 288.698C224.624 289.34 223.076 289.657 221.516 289.63C219.937 289.644 218.371 289.327 216.91 288.698ZM216.91 283.174C217.394 283.984 218.039 284.674 218.801 285.197C219.631 285.718 220.58 285.992 221.546 285.992C222.513 285.992 223.461 285.718 224.292 285.197C225.053 284.674 225.698 283.984 226.183 283.174C226.668 282.295 227.018 281.342 227.22 280.348C227.426 279.291 227.529 278.215 227.525 277.136C227.545 276.058 227.453 274.981 227.25 273.924C227.061 272.927 226.71 271.971 226.213 271.098C225.776 270.28 225.146 269.594 224.383 269.107C223.541 268.562 222.564 268.294 221.577 268.336C220.609 268.297 219.652 268.565 218.831 269.107C218.072 269.622 217.435 270.314 216.971 271.13C216.505 272.019 216.156 272.969 215.934 273.957C215.726 275.014 215.614 276.089 215.598 277.168C215.619 278.247 215.732 279.322 215.934 280.38C216.116 281.37 216.446 282.324 216.91 283.206V283.174Z" fill="black"/>
<path d="M237.498 289.052V270.713C237.498 269.781 237.498 268.85 237.498 267.983C237.498 267.116 237.498 266.152 237.498 265.253H241.555V269.364C242.167 267.957 243.158 266.771 244.406 265.954C245.654 265.137 247.102 264.726 248.571 264.771C249.733 264.736 250.888 264.966 251.957 265.446C252.844 265.861 253.612 266.515 254.184 267.341C254.785 268.211 255.202 269.208 255.404 270.263C255.673 271.506 255.806 272.778 255.801 274.053V289.052H251.317V275.081C251.363 274.268 251.363 273.453 251.317 272.64C251.254 271.907 251.046 271.196 250.706 270.552C250.402 269.954 249.949 269.454 249.395 269.107C248.711 268.723 247.943 268.534 247.168 268.561C246.28 268.524 245.401 268.758 244.636 269.235C243.972 269.678 243.409 270.27 242.989 270.97C242.571 271.724 242.282 272.551 242.135 273.411C241.953 274.33 241.861 275.266 241.86 276.205V289.052H237.498Z" fill="black"/>
<path d="M277.157 289.051L276.913 285.101C276.327 286.449 275.357 287.572 274.137 288.313C272.91 289.05 271.522 289.437 270.11 289.437C268.659 289.476 267.225 289.099 265.962 288.345C264.855 287.634 263.916 286.668 263.216 285.519C262.462 284.308 261.934 282.956 261.661 281.536C261.052 278.486 261.052 275.336 261.661 272.286C261.948 270.891 262.475 269.563 263.216 268.368C263.919 267.247 264.859 266.313 265.962 265.638C267.24 264.933 268.667 264.58 270.11 264.611C271.489 264.601 272.843 265.002 274.015 265.767C275.22 266.489 276.156 267.621 276.668 268.978V254.719H281V281.954C281 283.27 281 284.523 281 285.679C281 286.835 281 287.992 281 289.084H277.157V289.051ZM266.907 282.981C267.29 283.815 267.855 284.541 268.555 285.101C269.353 285.674 270.303 285.967 271.269 285.936C272.213 285.98 273.142 285.673 273.893 285.069C274.617 284.496 275.211 283.761 275.631 282.917C276.066 282.03 276.365 281.076 276.516 280.091C276.699 279.118 276.791 278.128 276.79 277.136C276.796 276.142 276.694 275.151 276.485 274.181C276.338 273.191 276.028 272.234 275.57 271.355C275.163 270.519 274.565 269.802 273.832 269.267C273.036 268.743 272.116 268.465 271.178 268.465C270.239 268.465 269.32 268.743 268.524 269.267C267.804 269.778 267.234 270.49 266.877 271.323C266.452 272.209 266.173 273.165 266.053 274.149C265.763 276.161 265.763 278.207 266.053 280.219C266.202 281.176 266.48 282.106 266.877 282.981H266.907Z" fill="black"/>
</svg>
