<svg width="38" height="38" viewBox="0 0 38 38" fill="none" xmlns="http://www.w3.org/2000/svg">
<g clip-path="url(#clip0_286_394)">
<path d="M15.8335 18.9994C15.8335 19.4194 15.6667 19.8221 15.3697 20.119C15.0728 20.416 14.6701 20.5828 14.2502 20.5828H6.44275C6.82612 23.6429 8.31369 26.4576 10.626 28.4983C12.9383 30.539 15.9162 31.6651 19.0002 31.6651C22.0842 31.6651 25.062 30.539 27.3743 28.4983C29.6866 26.4576 31.1742 23.6429 31.5576 20.5828H23.7502C23.3302 20.5828 22.9275 20.416 22.6306 20.119C22.3336 19.8221 22.1668 19.4194 22.1668 18.9994C22.1668 18.5795 22.3336 18.1768 22.6306 17.8799C22.9275 17.5829 23.3302 17.4161 23.7502 17.4161H31.6668V14.2494H23.7502C23.3302 14.2494 22.9275 14.0826 22.6306 13.7857C22.3336 13.4888 22.1668 13.086 22.1668 12.6661C22.1668 12.2462 22.3336 11.8435 22.6306 11.5465C22.9275 11.2496 23.3302 11.0828 23.7502 11.0828H31.5576C31.1742 8.02269 29.6866 5.2079 27.3743 3.16722C25.062 1.12654 22.0842 0.000423431 19.0002 0.000423431C15.9162 0.000423431 12.9383 1.12654 10.626 3.16722C8.31369 5.2079 6.82612 8.02269 6.44275 11.0828H14.2502C14.6701 11.0828 15.0728 11.2496 15.3697 11.5465C15.6667 11.8435 15.8335 12.2462 15.8335 12.6661C15.8335 13.086 15.6667 13.4888 15.3697 13.7857C15.0728 14.0826 14.6701 14.2494 14.2502 14.2494H6.3335V17.4161H14.2502C14.6701 17.4161 15.0728 17.5829 15.3697 17.8799C15.6667 18.1768 15.8335 18.5795 15.8335 18.9994Z" fill="#FDBE3D"/>
<path d="M36.4167 19C35.9967 19 35.594 19.1668 35.2971 19.4637C35.0001 19.7607 34.8333 20.1634 34.8333 20.5833C34.8291 24.3614 33.3265 27.9835 30.655 30.655C27.9835 33.3265 24.3614 34.8291 20.5833 34.8333H17.4167C13.6387 34.8287 10.0169 33.3259 7.34549 30.6545C4.67409 27.9831 3.17128 24.3613 3.16667 20.5833C3.16667 20.1634 2.99985 19.7607 2.70292 19.4637C2.40599 19.1668 2.00326 19 1.58333 19C1.16341 19 0.76068 19.1668 0.463748 19.4637C0.166815 19.7607 0 20.1634 0 20.5833C0.00544741 25.2008 1.84216 29.6277 5.10724 32.8928C8.37232 36.1578 12.7992 37.9946 17.4167 38H20.5833C25.2008 37.9946 29.6277 36.1578 32.8928 32.8928C36.1578 29.6277 37.9946 25.2008 38 20.5833C38 20.1634 37.8332 19.7607 37.5363 19.4637C37.2393 19.1668 36.8366 19 36.4167 19Z" fill="#FDBE3D"/>
</g>
<defs>
<clipPath id="clip0_286_394">
<rect width="38" height="38" fill="white"/>
</clipPath>
</defs>
</svg>
