<svg width="281" height="84" viewBox="0 0 281 84" fill="none" xmlns="http://www.w3.org/2000/svg">
<g clip-path="url(#clip0_736_7154)">
<path d="M227.961 4.3694C227.959 3.53971 228.207 2.72801 228.675 2.03698C229.143 1.34596 229.809 0.806665 230.589 0.487345C231.369 0.168025 232.228 0.0830275 233.057 0.243104C233.886 0.40318 234.649 0.801132 235.247 1.38662C235.846 1.97211 236.255 2.71882 236.421 3.53226C236.587 4.34571 236.504 5.18933 236.182 5.95639C235.86 6.72346 235.313 7.37951 234.612 7.84151C233.91 8.30351 233.084 8.55071 232.239 8.55183C231.676 8.55941 231.118 8.45654 230.597 8.24926C230.075 8.04197 229.601 7.73444 229.203 7.34477C228.804 6.95511 228.489 6.49116 228.276 5.98019C228.063 5.46923 227.956 4.92156 227.961 4.3694ZM235.668 4.3694C235.559 3.55033 235.151 2.798 234.519 2.25288C233.887 1.70776 233.074 1.40711 232.233 1.40711C231.392 1.40711 230.579 1.70776 229.947 2.25288C229.315 2.798 228.907 3.55033 228.798 4.3694C228.735 4.8489 228.776 5.33618 228.92 5.79872C229.063 6.26125 229.306 6.68839 229.631 7.05166C229.956 7.41492 230.356 7.70596 230.805 7.90532C231.254 8.10469 231.74 8.20782 232.233 8.20782C232.725 8.20782 233.212 8.10469 233.661 7.90532C234.11 7.70596 234.51 7.41492 234.835 7.05166C235.16 6.68839 235.402 6.26125 235.546 5.79872C235.69 5.33618 235.731 4.8489 235.668 4.3694ZM234.363 6.6363H233.307L232.285 4.71511H231.39V6.6363H230.495V2.1025H232.706C233.144 2.07045 233.582 2.14644 233.982 2.32353C234.163 2.45974 234.305 2.63907 234.394 2.84442C234.484 3.04978 234.519 3.27432 234.496 3.49665C234.496 4.31274 234.057 4.66411 233.237 4.72078L234.392 6.64197L234.363 6.6363ZM232.724 4.04638C233.237 4.04638 233.618 3.93303 233.618 3.3663C233.618 2.79958 232.937 2.78257 232.516 2.78257H231.361V4.05771L232.724 4.04638Z" fill="#231F20"/>
<path d="M0.0175781 34.4116L1.3626 28.767L24.2049 5.28755H7.48159L8.90166 0H35.831L34.5725 5.36122L11.407 28.9427H29.0366L27.6569 34.4116H0.0175781Z" fill="#231F20"/>
<path d="M30.1328 34.4173L37.6372 5.36127L38.9707 0.260742H46.6714L43.2078 13.4428C44.8934 12.0996 47.1159 10.6091 51.48 10.6091C57.2064 10.6091 60.3698 13.7828 60.3698 17.7782C60.3454 19.5755 60.115 21.3644 59.6829 23.1111L56.9293 34.4116H49.1825L52.4036 21.5526C52.5933 20.7171 52.7149 19.8681 52.7673 19.0137C52.7673 17.1378 51.4511 15.6643 48.7265 15.6643C47.0582 15.6643 42.5901 16.3444 40.7775 23.1451L37.822 34.4173H30.1328Z" fill="#231F20"/>
<path d="M74.9689 34.9103C68.2207 34.9103 61.9805 31.6856 61.9805 25.0266C61.9805 17.7442 67.909 10.4277 78.4094 10.4277C86.2832 10.4277 89.6256 14.4345 89.6256 19.2516C89.5607 21.0523 89.2955 22.8405 88.8347 24.5845H68.9942C69.1097 27.5202 70.472 30.2518 77.0759 30.2518C80.0905 30.2651 83.0709 29.6246 85.8041 28.3759L84.9556 33.5161C81.7076 34.38 78.3625 34.8427 74.9978 34.8933L74.9689 34.9103ZM77.9534 14.8482C76.2334 14.785 74.5404 15.2814 73.1374 16.2601C71.7344 17.2388 70.7 18.6451 70.1949 20.2604H82.8485C82.9063 19.6937 82.9062 18.8833 82.9062 18.5999C82.9062 16.588 81.1745 14.8482 77.9707 14.8482H77.9534Z" fill="#231F20"/>
<path d="M88.5859 34.4172L94.5317 10.9831H101.73L100.743 15.1258C102.677 12.7286 105.488 10.592 109.46 10.592C110.36 10.603 111.258 10.7017 112.138 10.8867L110.557 16.7637C109.743 16.4778 108.887 16.3246 108.022 16.3103C101.488 16.3103 99.7329 21.3711 98.7862 24.9472L96.3559 34.4172H88.5859Z" fill="#231F20"/>
<path d="M108.277 34.4171L114.269 10.9831H121.295L120.446 14.3494C121.522 13.123 122.865 12.1503 124.376 11.5037C125.887 10.8572 127.527 10.5533 129.174 10.6147C132.188 10.6147 135.807 11.4024 136.436 15.4319C137.562 13.505 140.783 10.6147 146.348 10.6147C151.266 10.6147 154.695 13.505 154.695 17.1717C154.589 18.8969 154.299 20.6064 153.829 22.2722L150.596 34.4058H143.011L146.475 21.0764C146.697 20.2215 146.844 19.3493 146.914 18.4695C146.914 16.5256 145.551 15.7152 143.635 15.7152C141.978 15.7152 138.024 16.5256 136.13 23.6947L133.279 34.4058H125.566L128.689 22.7313C129.109 21.359 129.354 19.9407 129.417 18.5092C129.417 16.7523 128.118 15.7152 126.317 15.7152C122.097 15.7152 119.782 19.4839 119.113 22.1419L115.932 34.4058L108.277 34.4171Z" fill="#231F20"/>
<path d="M163.158 34.7686C158.211 34.7686 154.314 32.5017 154.314 28.2456C154.314 22.1986 162.234 19.9884 169.104 19.9884C171.031 19.9664 172.957 20.0402 174.877 20.2094V19.0759C174.877 16.5937 173.237 14.9445 168.931 14.9445C165.52 15.0204 162.159 15.7681 159.048 17.1434L160.249 11.9012C163.663 11.0838 167.16 10.6522 170.674 10.6147C177.659 10.6147 181.844 13.0007 181.844 17.9822C181.805 19.4717 181.578 20.9508 181.169 22.3856L179.252 29.7644C178.796 31.7933 178.675 32.3827 178.357 34.4172H171.904L172.516 31.3625C170.703 32.8474 168.33 34.7629 163.175 34.7629L163.158 34.7686ZM161.882 27.7865C161.882 29.396 163.274 30.4615 165.513 30.4615C170.974 30.4615 173.249 26.1827 173.803 23.8251C172.85 23.8251 172.365 23.7968 171.944 23.7968C167.17 23.7968 161.882 24.6185 161.882 27.7638V27.7865Z" fill="#231F20"/>
<path d="M195.357 34.7686C188.505 34.7686 183.113 31.0565 183.113 24.4882C183.113 21.3712 185.503 10.6147 200.431 10.6147C202.879 10.6327 205.314 10.9603 207.676 11.5895L205.748 16.588C204.039 15.913 202.215 15.5667 200.373 15.5679C197.994 15.5008 195.684 16.3638 193.953 17.9673C192.221 19.5708 191.208 21.7837 191.137 24.1198C191.137 28.5119 194.601 29.7871 197.932 29.7871C199.885 29.7752 201.813 29.3479 203.583 28.5346L202.965 33.7258C200.491 34.4035 197.937 34.7616 195.369 34.7912L195.357 34.7686Z" fill="#231F20"/>
<path d="M205.385 34.4115L214.286 0.243652H221.993L216.907 19.569L227.713 10.9831H237.365L223.367 21.7792L235.125 40.0674H226.674L216.105 22.6463L213.045 34.4115H205.385Z" fill="#231F20"/>
<path d="M1.8761 39.9202H4.53731C5.94583 39.9202 7.26198 40.3679 7.26198 41.83C7.2257 42.3205 7.01306 42.7825 6.66202 43.1333C6.31098 43.4842 5.84437 43.7012 5.34546 43.7456C5.767 43.783 6.15622 43.983 6.42783 44.3017C6.69943 44.6204 6.83126 45.0318 6.79439 45.4457C6.79439 47.7523 3.90807 47.928 2.56305 47.928H0L1.8761 39.9202ZM2.02042 46.6699H2.6381C3.74644 46.6699 4.976 46.5622 4.976 45.3097C4.976 44.4936 4.11588 44.3576 3.13453 44.3576H2.55727L2.01464 46.6699H2.02042ZM2.84016 43.1562H3.55596C4.46803 43.1562 5.46092 42.9295 5.46092 41.9774C5.46092 41.2236 4.6412 41.1783 3.93694 41.1783H3.32504L2.84016 43.1562Z" fill="#231F20"/>
<path d="M10.7898 39.9202H16.0776L15.812 41.1783H12.3022L11.8173 43.1505H14.9634L14.6748 44.42H11.5229L11.0092 46.6699H14.5536L14.2476 47.928H8.89062L10.7898 39.9202Z" fill="#231F20"/>
<path d="M20.0482 44.6126L17.9238 39.9202H19.823L21.1738 43.2808L24.1005 39.9202H26.196L21.8434 44.6126L21.0699 47.928H19.2515L20.0482 44.6126Z" fill="#231F20"/>
<path d="M35.7731 43.1675C35.7674 44.5001 35.2308 45.7775 34.278 46.7266C33.765 47.1867 33.1641 47.5424 32.5101 47.7729C31.8561 48.0035 31.162 48.1043 30.4681 48.0697C28.2572 48.0697 26.9121 46.6529 26.9121 44.7374C26.926 43.4441 27.4398 42.2044 28.3495 41.269C28.823 40.7791 29.396 40.3922 30.0314 40.1335C30.6669 39.8748 31.3505 39.75 32.0382 39.7672C34.48 39.7672 35.7731 41.0423 35.7731 43.1675ZM28.7998 44.8337C28.7741 45.0888 28.8043 45.3464 28.8883 45.5891C28.9724 45.8318 29.1085 46.054 29.2873 46.2408C29.4661 46.4276 29.6835 46.5747 29.925 46.6722C30.1665 46.7696 30.4265 46.8152 30.6874 46.8059C32.7714 46.8059 33.9085 44.607 33.9085 43.0089C33.9348 42.7515 33.904 42.4916 33.8182 42.2471C33.7324 42.0026 33.5936 41.7792 33.4115 41.5924C33.2294 41.4055 33.0082 41.2595 32.7632 41.1646C32.5181 41.0696 32.2551 41.0279 31.9921 41.0423C29.885 41.0423 28.7998 43.2072 28.7998 44.8337Z" fill="#231F20"/>
<path d="M39.2129 39.9202H41.4931L43.4153 46.0011H43.4269L44.8931 39.9202H46.5903L44.6565 47.928H42.3301L40.454 41.7847H40.4251L39.0051 47.928H37.2617L39.2129 39.9202Z" fill="#231F20"/>
<path d="M49.4486 39.9201H52.1387C54.0321 39.9201 56.1795 40.5605 56.1795 43.3205C56.1795 45.1793 55.1289 47.9053 50.6032 47.9053H47.5898L49.4775 39.8975L49.4486 39.9201ZM49.668 46.6698H50.5223C53.0969 46.6698 54.2861 45.3097 54.2861 43.1051C54.2861 41.8527 53.1893 41.1783 51.5788 41.1783H50.9437L49.6738 46.6698H49.668Z" fill="#231F20"/>
<path d="M63.9443 39.9202H65.8319L63.927 47.928H62.0566L63.9443 39.9202Z" fill="#231F20"/>
<path d="M68.5552 39.9202H70.8411L72.7577 46.0011H72.7692L74.2528 39.9202H75.9499L73.9988 47.928H71.6897L69.7963 41.7847H69.7848L68.3358 47.928H66.6387L68.5552 39.9202Z" fill="#231F20"/>
<path d="M78.762 39.9202H81.0421L82.9644 46.0011H82.976L84.4422 39.9202H86.1394L84.194 47.928H81.8965L80.0031 41.7847H79.9742L78.5426 47.928H76.8281L78.762 39.9202Z" fill="#231F20"/>
<path d="M96.4318 43.1674C96.4341 43.8276 96.3037 44.4818 96.0482 45.0925C95.7926 45.7032 95.4169 46.2584 94.9425 46.7264C94.4299 47.1871 93.829 47.5431 93.1749 47.7737C92.5208 48.0042 91.8266 48.1048 91.1325 48.0696C88.9216 48.0696 87.6055 46.6527 87.6055 44.7372C87.6036 43.4474 88.1057 42.2061 89.0082 41.2688C89.4832 40.7809 90.0565 40.3954 90.6916 40.1368C91.3267 39.8782 92.0096 39.7523 92.6969 39.767C95.133 39.767 96.4318 41.0422 96.4318 43.1674ZM89.4643 44.8336C89.4383 45.0901 89.4689 45.3492 89.554 45.5932C89.6391 45.8371 89.7767 46.0602 89.9574 46.2473C90.1381 46.4344 90.3577 46.5811 90.6014 46.6775C90.845 46.7738 91.1069 46.8176 91.3692 46.8057C93.4185 46.8057 94.573 44.6069 94.573 43.0087C94.5976 42.7503 94.565 42.4897 94.4775 42.2447C94.39 41.9998 94.2496 41.7763 94.066 41.5896C93.8823 41.4029 93.6598 41.2573 93.4135 41.1628C93.1673 41.0683 92.9032 41.0272 92.6392 41.0422C90.5495 41.0422 89.4643 43.2071 89.4643 44.8336Z" fill="#231F20"/>
<path d="M98.9824 39.9202H100.795L101.632 46.1598H101.661L105.396 39.9202H107.353L102.319 47.928H100.166L98.9824 39.9202Z" fill="#231F20"/>
<path d="M112 39.9202H114.021L115.649 47.928H113.859L113.553 46.1031H109.714L108.56 47.928H106.557L111.989 39.9202H112ZM110.505 44.8337H113.288L112.71 41.3427H112.641L110.488 44.8337H110.505Z" fill="#231F20"/>
<path d="M118.691 39.9202H125.647L125.323 41.1783H122.807L121.161 47.928H119.274L120.93 41.1783H118.379L118.691 39.9202Z" fill="#231F20"/>
<path d="M127.46 39.9202H129.348L127.46 47.928H125.572L127.46 39.9202Z" fill="#231F20"/>
<path d="M139.57 43.1676C139.584 43.8408 139.453 44.5093 139.188 45.1301C138.922 45.7509 138.527 46.3102 138.028 46.772C137.529 47.2338 136.936 47.5879 136.289 47.8114C135.642 48.0349 134.955 48.1229 134.271 48.0697C132.043 48.0697 130.738 46.6529 130.738 44.7374C130.74 43.4504 131.237 42.2114 132.129 41.269C132.606 40.7827 133.179 40.3983 133.814 40.1399C134.449 39.8814 135.131 39.7546 135.818 39.7672C138.283 39.7672 139.57 41.0423 139.57 43.1676ZM132.643 44.8337C132.617 45.089 132.646 45.347 132.73 45.5901C132.814 45.8332 132.95 46.0558 133.129 46.2429C133.308 46.4299 133.525 46.5769 133.767 46.6741C134.009 46.7712 134.27 46.8162 134.531 46.8059C136.58 46.8059 137.723 44.607 137.723 43.0089C137.749 42.7515 137.719 42.4917 137.633 42.2471C137.547 42.0026 137.408 41.7793 137.226 41.5924C137.044 41.4055 136.823 41.2596 136.578 41.1646C136.333 41.0697 136.07 41.028 135.807 41.0423C133.728 41.0423 132.643 43.2072 132.643 44.8337Z" fill="#231F20"/>
<path d="M143.012 39.9202H145.292L147.197 46.0011H147.226L148.692 39.9202H150.407L148.444 47.928H146.146L144.253 41.7847H144.224L142.792 47.928H141.066L143.012 39.9202Z" fill="#231F20"/>
<path d="M235.124 40.0674L153.857 83.9999H199.75L281 40.0674H235.124Z" fill="#EE3224"/>
<path d="M184.742 62.7364L226.675 40.0674H180.8L138.867 62.7364H184.742Z" fill="#EE3224"/>
</g>
<defs>
<clipPath id="clip0_736_7154">
<rect width="281" height="84" fill="white"/>
</clipPath>
</defs>
</svg>
